<?xml version="1.0" encoding="utf-8"?>
<!-- Generator: Adobe Illustrator 27.8.1, SVG Export Plug-In . SVG Version: 6.00 Build 0)  -->
<svg version="1.1" id="Capa_1" xmlns="http://www.w3.org/2000/svg" xmlns:xlink="http://www.w3.org/1999/xlink" x="0px" y="0px"
	 viewBox="0 0 169.6 96" style="enable-background:new 0 0 169.6 96;" xml:space="preserve">
<style type="text/css">
	.st0{fill:#003565;}
	.st1{filter:url(#Adobe_OpacityMaskFilter);}
	.st2{fill:#FFFFFF;}
	.st3{mask:url(#SVGID_1_);fill:#003565;}
	.st4{opacity:0.4;fill:#003565;}
	.st5{opacity:0.7;fill:#003565;}
	.st6{fill:none;stroke:#003565;stroke-width:0.9623;stroke-miterlimit:10;}
	.st7{fill:none;stroke:#003565;stroke-width:0.3339;stroke-miterlimit:10;}
</style>
<g>
	<g>
		<g>
			<path class="st0" d="M31.36,33.91h1.45c0.2,0,0.39,0.02,0.57,0.06c0.18,0.04,0.34,0.1,0.47,0.19c0.13,0.09,0.24,0.21,0.32,0.36
				c0.08,0.15,0.12,0.34,0.12,0.58c0,0.23-0.04,0.42-0.11,0.57s-0.17,0.28-0.3,0.37c-0.13,0.09-0.28,0.16-0.46,0.2
				c-0.18,0.04-0.37,0.06-0.57,0.06h-0.63v1.52h-0.86V33.91z M32.22,35.56h0.57c0.08,0,0.15-0.01,0.22-0.02
				c0.07-0.01,0.14-0.04,0.19-0.07c0.06-0.04,0.1-0.08,0.14-0.14c0.03-0.06,0.05-0.14,0.05-0.23c0-0.1-0.02-0.18-0.07-0.24
				c-0.05-0.06-0.1-0.11-0.18-0.14c-0.07-0.03-0.15-0.05-0.24-0.06c-0.09-0.01-0.17-0.01-0.25-0.01h-0.44V35.56z"/>
			<path class="st0" d="M36.41,37.47H36.4c-0.09,0.14-0.21,0.25-0.37,0.31s-0.31,0.09-0.48,0.09c-0.12,0-0.25-0.02-0.36-0.05
				c-0.12-0.03-0.22-0.09-0.31-0.16c-0.09-0.07-0.16-0.16-0.21-0.26c-0.05-0.1-0.08-0.22-0.08-0.36c0-0.15,0.03-0.28,0.09-0.39
				c0.06-0.11,0.13-0.19,0.23-0.26c0.1-0.07,0.21-0.12,0.33-0.16c0.13-0.04,0.25-0.07,0.39-0.09s0.27-0.03,0.4-0.03
				c0.13,0,0.26-0.01,0.37-0.01c0-0.15-0.05-0.26-0.16-0.35c-0.11-0.09-0.23-0.13-0.37-0.13c-0.14,0-0.26,0.03-0.37,0.09
				c-0.11,0.06-0.21,0.14-0.3,0.23l-0.44-0.45c0.15-0.14,0.33-0.25,0.54-0.32c0.21-0.07,0.42-0.11,0.64-0.11
				c0.24,0,0.44,0.03,0.6,0.09c0.16,0.06,0.28,0.15,0.38,0.27c0.09,0.12,0.16,0.26,0.2,0.43c0.04,0.17,0.06,0.37,0.06,0.59v1.36
				h-0.76V37.47z M36.2,36.64c-0.06,0-0.14,0-0.23,0.01c-0.09,0.01-0.18,0.02-0.27,0.05s-0.16,0.06-0.22,0.12
				c-0.06,0.05-0.09,0.12-0.09,0.21c0,0.1,0.04,0.17,0.13,0.22c0.08,0.05,0.17,0.07,0.26,0.07c0.08,0,0.16-0.01,0.23-0.03
				c0.07-0.02,0.14-0.05,0.2-0.09c0.06-0.04,0.11-0.09,0.14-0.15c0.03-0.06,0.05-0.14,0.05-0.22v-0.18H36.2z"/>
			<path class="st0" d="M37.69,35.13h0.79v0.36h0.01c0.03-0.05,0.06-0.1,0.11-0.15c0.05-0.05,0.11-0.1,0.17-0.14
				c0.07-0.04,0.14-0.07,0.23-0.1c0.08-0.03,0.18-0.04,0.28-0.04c0.21,0,0.38,0.03,0.51,0.1c0.13,0.06,0.23,0.15,0.3,0.27
				c0.07,0.11,0.12,0.25,0.15,0.4c0.03,0.15,0.04,0.32,0.04,0.5v1.48h-0.83V36.5c0-0.08,0-0.16-0.01-0.24
				c-0.01-0.08-0.02-0.16-0.05-0.23c-0.03-0.07-0.07-0.13-0.13-0.17c-0.06-0.04-0.14-0.07-0.25-0.07c-0.11,0-0.19,0.02-0.26,0.06
				c-0.07,0.04-0.12,0.09-0.15,0.15c-0.04,0.06-0.06,0.14-0.07,0.22c-0.01,0.08-0.02,0.17-0.02,0.25v1.33h-0.83V35.13z"/>
			<path class="st0" d="M42.68,35.79h-0.73v0.89c0,0.07,0,0.14,0.01,0.2s0.02,0.11,0.05,0.16c0.03,0.04,0.07,0.08,0.12,0.1
				c0.05,0.02,0.12,0.04,0.21,0.04c0.04,0,0.1,0,0.17-0.01c0.07-0.01,0.13-0.03,0.16-0.06v0.69c-0.09,0.03-0.19,0.06-0.29,0.07
				c-0.1,0.01-0.2,0.02-0.29,0.02c-0.14,0-0.27-0.01-0.39-0.04c-0.12-0.03-0.22-0.08-0.31-0.14s-0.16-0.15-0.21-0.25
				c-0.05-0.1-0.07-0.23-0.07-0.38v-1.27h-0.53v-0.66h0.53v-0.79h0.83v0.79h0.73V35.79z"/>
			<path class="st0" d="M44.78,37.47h-0.01c-0.09,0.14-0.21,0.25-0.37,0.31c-0.15,0.06-0.31,0.09-0.48,0.09
				c-0.12,0-0.25-0.02-0.36-0.05s-0.22-0.09-0.31-0.16c-0.09-0.07-0.16-0.16-0.21-0.26c-0.05-0.1-0.08-0.22-0.08-0.36
				c0-0.15,0.03-0.28,0.09-0.39c0.06-0.11,0.13-0.19,0.23-0.26c0.1-0.07,0.21-0.12,0.33-0.16c0.13-0.04,0.25-0.07,0.39-0.09
				c0.13-0.02,0.27-0.03,0.4-0.03c0.13,0,0.26-0.01,0.37-0.01c0-0.15-0.05-0.26-0.16-0.35c-0.1-0.09-0.23-0.13-0.37-0.13
				c-0.14,0-0.26,0.03-0.37,0.09c-0.11,0.06-0.21,0.14-0.3,0.23l-0.44-0.45c0.15-0.14,0.33-0.25,0.54-0.32
				c0.21-0.07,0.42-0.11,0.64-0.11c0.24,0,0.44,0.03,0.6,0.09c0.16,0.06,0.28,0.15,0.38,0.27c0.09,0.12,0.16,0.26,0.2,0.43
				s0.06,0.37,0.06,0.59v1.36h-0.76V37.47z M44.57,36.64c-0.06,0-0.14,0-0.23,0.01c-0.09,0.01-0.18,0.02-0.27,0.05
				s-0.16,0.06-0.22,0.12c-0.06,0.05-0.09,0.12-0.09,0.21c0,0.1,0.04,0.17,0.13,0.22c0.08,0.05,0.17,0.07,0.26,0.07
				c0.08,0,0.16-0.01,0.23-0.03c0.07-0.02,0.14-0.05,0.2-0.09s0.11-0.09,0.14-0.15c0.03-0.06,0.05-0.14,0.05-0.22v-0.18H44.57z"/>
			<path class="st0" d="M46.07,33.64h0.83v4.17h-0.83V33.64z"/>
			<path class="st0" d="M47.5,33.64h0.83v4.17H47.5V33.64z"/>
			<path class="st0" d="M50.61,37.47h-0.01c-0.09,0.14-0.21,0.25-0.37,0.31c-0.15,0.06-0.31,0.09-0.48,0.09
				c-0.12,0-0.25-0.02-0.36-0.05c-0.12-0.03-0.22-0.09-0.31-0.16c-0.09-0.07-0.16-0.16-0.21-0.26c-0.05-0.1-0.08-0.22-0.08-0.36
				c0-0.15,0.03-0.28,0.09-0.39c0.06-0.11,0.13-0.19,0.23-0.26c0.1-0.07,0.21-0.12,0.33-0.16c0.13-0.04,0.25-0.07,0.39-0.09
				c0.13-0.02,0.27-0.03,0.4-0.03c0.13,0,0.26-0.01,0.37-0.01c0-0.15-0.05-0.26-0.16-0.35c-0.1-0.09-0.23-0.13-0.37-0.13
				c-0.14,0-0.26,0.03-0.37,0.09c-0.11,0.06-0.21,0.14-0.3,0.23l-0.44-0.45c0.15-0.14,0.33-0.25,0.54-0.32
				c0.21-0.07,0.42-0.11,0.64-0.11c0.24,0,0.44,0.03,0.6,0.09c0.16,0.06,0.28,0.15,0.38,0.27c0.09,0.12,0.16,0.26,0.2,0.43
				s0.06,0.37,0.06,0.59v1.36h-0.76V37.47z M50.4,36.64c-0.06,0-0.14,0-0.23,0.01c-0.09,0.01-0.18,0.02-0.27,0.05
				s-0.16,0.06-0.22,0.12c-0.06,0.05-0.09,0.12-0.09,0.21c0,0.1,0.04,0.17,0.13,0.22c0.08,0.05,0.17,0.07,0.26,0.07
				c0.08,0,0.16-0.01,0.23-0.03c0.07-0.02,0.14-0.05,0.2-0.09s0.11-0.09,0.14-0.15c0.03-0.06,0.05-0.14,0.05-0.22v-0.18H50.4z"/>
			<path class="st0" d="M53.4,35.92c-0.12-0.15-0.28-0.23-0.48-0.23c-0.07,0-0.14,0.02-0.2,0.05c-0.07,0.03-0.1,0.09-0.1,0.17
				c0,0.07,0.03,0.11,0.1,0.15c0.07,0.03,0.15,0.06,0.26,0.08c0.11,0.02,0.22,0.05,0.34,0.08c0.12,0.03,0.23,0.07,0.34,0.13
				c0.1,0.06,0.19,0.14,0.26,0.24c0.07,0.1,0.1,0.24,0.1,0.41c0,0.17-0.04,0.32-0.11,0.43c-0.08,0.11-0.17,0.2-0.29,0.27
				c-0.12,0.07-0.25,0.12-0.4,0.14c-0.15,0.03-0.29,0.04-0.44,0.04c-0.19,0-0.38-0.03-0.57-0.08c-0.19-0.05-0.35-0.15-0.49-0.28
				l0.5-0.56c0.08,0.1,0.16,0.17,0.26,0.22c0.09,0.05,0.2,0.07,0.33,0.07c0.1,0,0.18-0.01,0.26-0.04c0.08-0.03,0.12-0.08,0.12-0.15
				c0-0.07-0.03-0.12-0.1-0.16c-0.07-0.04-0.15-0.06-0.26-0.09c-0.1-0.02-0.22-0.05-0.34-0.08c-0.12-0.03-0.23-0.07-0.34-0.12
				c-0.1-0.05-0.19-0.13-0.26-0.23c-0.07-0.1-0.1-0.24-0.1-0.41c0-0.16,0.03-0.29,0.1-0.41c0.06-0.11,0.15-0.21,0.25-0.28
				c0.1-0.07,0.22-0.13,0.36-0.16c0.14-0.03,0.27-0.05,0.41-0.05c0.18,0,0.35,0.03,0.53,0.08c0.18,0.05,0.33,0.14,0.46,0.28
				L53.4,35.92z"/>
			<path class="st0" d="M31.62,42.41H31.3v-3.12h0.32V42.41z"/>
			<path class="st0" d="M32.64,40.34c0.01,0.06,0.01,0.11,0.01,0.17c0,0.05,0,0.11,0,0.17h0.01c0.03-0.06,0.07-0.11,0.12-0.15
				c0.05-0.05,0.11-0.09,0.17-0.12c0.06-0.03,0.13-0.06,0.2-0.08c0.07-0.02,0.14-0.03,0.2-0.03c0.26,0,0.46,0.07,0.59,0.21
				c0.13,0.14,0.19,0.34,0.19,0.6v1.31h-0.29v-1.14c0-0.23-0.04-0.4-0.12-0.53c-0.08-0.12-0.23-0.18-0.44-0.18
				c-0.01,0-0.06,0.01-0.12,0.02c-0.07,0.01-0.14,0.04-0.21,0.1c-0.07,0.05-0.14,0.13-0.2,0.24c-0.06,0.11-0.09,0.25-0.09,0.44v1.06
				h-0.29V40.8c0-0.06,0-0.13-0.01-0.21c0-0.09-0.01-0.17-0.02-0.24H32.64z"/>
			<path class="st0" d="M36.86,42.41h-0.29v-0.34h-0.01c-0.05,0.07-0.1,0.13-0.17,0.18s-0.13,0.09-0.2,0.12
				c-0.07,0.03-0.14,0.06-0.22,0.07c-0.07,0.01-0.15,0.02-0.21,0.02c-0.16,0-0.31-0.03-0.44-0.08c-0.13-0.05-0.25-0.13-0.35-0.23
				c-0.1-0.1-0.17-0.21-0.23-0.34c-0.05-0.13-0.08-0.28-0.08-0.43c0-0.16,0.03-0.3,0.08-0.43c0.05-0.13,0.13-0.25,0.23-0.34
				s0.21-0.17,0.35-0.23c0.13-0.05,0.28-0.08,0.44-0.08c0.07,0,0.14,0.01,0.21,0.02c0.07,0.01,0.15,0.04,0.22,0.07
				c0.07,0.03,0.14,0.07,0.2,0.12s0.12,0.11,0.17,0.18h0.01v-1.61h0.29V42.41z M34.98,41.38c0,0.11,0.02,0.22,0.06,0.32
				c0.04,0.1,0.09,0.19,0.16,0.26c0.07,0.07,0.15,0.13,0.24,0.17s0.2,0.06,0.32,0.06c0.12,0,0.23-0.02,0.33-0.06
				c0.1-0.04,0.19-0.1,0.26-0.17c0.07-0.07,0.13-0.16,0.17-0.26c0.04-0.1,0.06-0.21,0.06-0.32c0-0.11-0.02-0.22-0.06-0.32
				c-0.04-0.1-0.1-0.19-0.17-0.26c-0.07-0.07-0.16-0.13-0.26-0.17c-0.1-0.04-0.21-0.06-0.33-0.06c-0.12,0-0.23,0.02-0.32,0.06
				c-0.1,0.04-0.18,0.1-0.24,0.17c-0.07,0.07-0.12,0.16-0.16,0.26C35,41.15,34.98,41.26,34.98,41.38z"/>
			<path class="st0" d="M37.92,39.55c0,0.06-0.02,0.11-0.07,0.15c-0.04,0.04-0.09,0.06-0.15,0.06s-0.1-0.02-0.15-0.06
				c-0.04-0.04-0.07-0.09-0.07-0.15c0-0.06,0.02-0.11,0.07-0.15c0.04-0.04,0.09-0.06,0.15-0.06s0.1,0.02,0.15,0.06
				C37.9,39.44,37.92,39.49,37.92,39.55z M37.86,42.41h-0.29v-2.06h0.29V42.41z"/>
			<path class="st0" d="M39.46,42.41h-0.33l-0.84-2.06h0.34l0.66,1.74h0.01l0.66-1.74h0.33L39.46,42.41z"/>
			<path class="st0" d="M41.1,39.55c0,0.06-0.02,0.11-0.07,0.15c-0.04,0.04-0.09,0.06-0.15,0.06c-0.05,0-0.1-0.02-0.15-0.06
				c-0.04-0.04-0.07-0.09-0.07-0.15c0-0.06,0.02-0.11,0.07-0.15c0.04-0.04,0.09-0.06,0.15-0.06c0.05,0,0.1,0.02,0.15,0.06
				C41.08,39.44,41.1,39.49,41.1,39.55z M41.04,42.41h-0.29v-2.06h0.29V42.41z"/>
			<path class="st0" d="M43.79,42.41H43.5v-0.34h-0.01c-0.05,0.07-0.1,0.13-0.17,0.18c-0.06,0.05-0.13,0.09-0.2,0.12
				c-0.07,0.03-0.14,0.06-0.22,0.07c-0.07,0.01-0.15,0.02-0.21,0.02c-0.16,0-0.31-0.03-0.44-0.08c-0.13-0.05-0.25-0.13-0.35-0.23
				c-0.1-0.1-0.17-0.21-0.23-0.34c-0.05-0.13-0.08-0.28-0.08-0.43c0-0.16,0.03-0.3,0.08-0.43c0.05-0.13,0.13-0.25,0.23-0.34
				c0.1-0.1,0.21-0.17,0.35-0.23c0.13-0.05,0.28-0.08,0.44-0.08c0.07,0,0.14,0.01,0.21,0.02c0.07,0.01,0.15,0.04,0.22,0.07
				c0.07,0.03,0.14,0.07,0.2,0.12c0.06,0.05,0.12,0.11,0.17,0.18h0.01v-1.61h0.29V42.41z M41.91,41.38c0,0.11,0.02,0.22,0.06,0.32
				c0.04,0.1,0.09,0.19,0.16,0.26c0.07,0.07,0.15,0.13,0.24,0.17c0.1,0.04,0.2,0.06,0.32,0.06c0.12,0,0.23-0.02,0.33-0.06
				c0.1-0.04,0.19-0.1,0.26-0.17c0.07-0.07,0.13-0.16,0.17-0.26c0.04-0.1,0.06-0.21,0.06-0.32c0-0.11-0.02-0.22-0.06-0.32
				c-0.04-0.1-0.1-0.19-0.17-0.26c-0.07-0.07-0.16-0.13-0.26-0.17c-0.1-0.04-0.21-0.06-0.33-0.06c-0.12,0-0.23,0.02-0.32,0.06
				c-0.1,0.04-0.18,0.1-0.24,0.17c-0.07,0.07-0.12,0.16-0.16,0.26C41.93,41.15,41.91,41.26,41.91,41.38z"/>
			<path class="st0" d="M45.92,42.41c-0.01-0.06-0.01-0.11-0.01-0.17c0-0.05,0-0.11,0-0.17h-0.01c-0.03,0.06-0.07,0.11-0.12,0.15
				c-0.05,0.05-0.11,0.09-0.17,0.12c-0.06,0.03-0.13,0.06-0.2,0.08c-0.07,0.02-0.14,0.03-0.2,0.03c-0.26,0-0.46-0.07-0.59-0.21
				c-0.13-0.14-0.19-0.34-0.19-0.6v-1.31h0.29v1.14c0,0.11,0.01,0.22,0.03,0.3c0.02,0.09,0.05,0.16,0.09,0.22
				c0.04,0.06,0.1,0.11,0.17,0.14c0.07,0.03,0.16,0.05,0.27,0.05c0.01,0,0.06-0.01,0.12-0.02c0.07-0.01,0.14-0.04,0.21-0.1
				c0.07-0.05,0.14-0.13,0.2-0.24c0.06-0.11,0.09-0.25,0.09-0.44v-1.06h0.29v1.61c0,0.06,0,0.13,0.01,0.21
				c0,0.09,0.01,0.17,0.02,0.24H45.92z"/>
			<path class="st0" d="M48.2,41.14v-0.05c0-0.36-0.18-0.53-0.53-0.53c-0.24,0-0.45,0.08-0.63,0.24l-0.18-0.21
				c0.19-0.2,0.48-0.3,0.87-0.3c0.1,0,0.2,0.01,0.29,0.04c0.09,0.03,0.17,0.07,0.24,0.13c0.07,0.06,0.12,0.14,0.16,0.23
				c0.04,0.09,0.06,0.2,0.06,0.33v0.92c0,0.08,0,0.16,0.01,0.25c0.01,0.09,0.02,0.16,0.02,0.21h-0.28c-0.01-0.05-0.02-0.1-0.02-0.16
				c0-0.06-0.01-0.12-0.01-0.17h-0.01c-0.09,0.14-0.19,0.24-0.3,0.3c-0.12,0.06-0.26,0.09-0.42,0.09c-0.09,0-0.18-0.01-0.26-0.04
				c-0.08-0.03-0.16-0.06-0.23-0.11c-0.07-0.05-0.12-0.11-0.16-0.19c-0.04-0.07-0.06-0.16-0.06-0.26c0-0.17,0.04-0.3,0.13-0.39
				s0.2-0.17,0.33-0.21c0.13-0.05,0.27-0.08,0.42-0.09c0.15-0.01,0.28-0.02,0.41-0.02H48.2z M48.05,41.38c-0.07,0-0.17,0-0.28,0.01
				c-0.11,0.01-0.22,0.03-0.32,0.05c-0.1,0.03-0.19,0.07-0.26,0.13c-0.07,0.06-0.11,0.14-0.11,0.24c0,0.07,0.01,0.13,0.04,0.17
				s0.07,0.09,0.11,0.12c0.05,0.03,0.1,0.05,0.16,0.07c0.06,0.01,0.11,0.02,0.17,0.02c0.11,0,0.2-0.02,0.28-0.05
				c0.08-0.03,0.14-0.08,0.2-0.14c0.05-0.06,0.09-0.13,0.12-0.21c0.02-0.08,0.04-0.17,0.04-0.26v-0.15H48.05z"/>
			<path class="st0" d="M49.52,42.41h-0.29v-3.33h0.29V42.41z"/>
			<path class="st0" d="M50.42,41.45c0.01,0.1,0.03,0.2,0.07,0.29c0.04,0.09,0.1,0.17,0.16,0.24c0.07,0.07,0.15,0.12,0.23,0.16
				c0.09,0.04,0.18,0.06,0.29,0.06c0.16,0,0.29-0.04,0.4-0.11c0.11-0.07,0.2-0.15,0.26-0.25l0.22,0.18
				c-0.12,0.16-0.26,0.27-0.41,0.33c-0.15,0.07-0.31,0.1-0.48,0.1c-0.15,0-0.29-0.03-0.42-0.08c-0.13-0.05-0.24-0.13-0.34-0.23
				c-0.09-0.1-0.17-0.21-0.22-0.34c-0.05-0.13-0.08-0.28-0.08-0.43c0-0.16,0.03-0.3,0.08-0.43c0.05-0.13,0.13-0.25,0.22-0.34
				c0.09-0.1,0.2-0.17,0.33-0.23c0.13-0.05,0.26-0.08,0.41-0.08c0.16,0,0.3,0.03,0.42,0.08c0.12,0.06,0.23,0.13,0.31,0.22
				c0.08,0.09,0.15,0.2,0.19,0.33c0.04,0.12,0.07,0.26,0.07,0.4v0.13H50.42z M51.82,41.22c0-0.2-0.06-0.36-0.18-0.48
				c-0.12-0.12-0.28-0.18-0.49-0.18c-0.09,0-0.18,0.02-0.27,0.06c-0.09,0.04-0.17,0.09-0.23,0.15c-0.07,0.06-0.12,0.13-0.16,0.21
				c-0.04,0.08-0.06,0.16-0.06,0.25H51.82z"/>
			<path class="st0" d="M53.76,40.83c-0.04-0.08-0.1-0.15-0.18-0.2c-0.07-0.05-0.16-0.07-0.27-0.07c-0.05,0-0.1,0.01-0.15,0.02
				c-0.05,0.01-0.1,0.03-0.14,0.06c-0.04,0.03-0.07,0.06-0.1,0.09c-0.03,0.04-0.04,0.09-0.04,0.14c0,0.1,0.03,0.17,0.1,0.21
				c0.07,0.04,0.17,0.08,0.3,0.11l0.3,0.07c0.14,0.03,0.26,0.1,0.36,0.2c0.1,0.1,0.14,0.22,0.14,0.37c0,0.11-0.02,0.21-0.07,0.29
				c-0.05,0.08-0.11,0.15-0.18,0.2c-0.07,0.05-0.16,0.09-0.26,0.11c-0.1,0.02-0.2,0.03-0.29,0.03c-0.16,0-0.31-0.03-0.44-0.09
				c-0.14-0.06-0.25-0.16-0.35-0.31l0.25-0.17c0.06,0.09,0.13,0.17,0.22,0.22c0.09,0.06,0.2,0.08,0.32,0.08
				c0.06,0,0.12-0.01,0.18-0.02c0.06-0.01,0.11-0.03,0.16-0.06c0.05-0.03,0.08-0.06,0.11-0.11c0.03-0.04,0.04-0.1,0.04-0.15
				c0-0.1-0.04-0.18-0.11-0.22c-0.08-0.05-0.17-0.08-0.28-0.11l-0.28-0.07c-0.04-0.01-0.08-0.02-0.14-0.04
				c-0.06-0.02-0.12-0.05-0.18-0.09c-0.06-0.04-0.11-0.09-0.15-0.16c-0.04-0.07-0.06-0.15-0.06-0.24c0-0.11,0.02-0.2,0.06-0.28
				c0.04-0.08,0.1-0.14,0.17-0.19c0.07-0.05,0.15-0.09,0.24-0.11c0.09-0.03,0.18-0.04,0.28-0.04c0.14,0,0.28,0.03,0.4,0.08
				c0.12,0.06,0.22,0.15,0.29,0.29L53.76,40.83z"/>
		</g>
		<g>
			<defs>
				<filter id="Adobe_OpacityMaskFilter" filterUnits="userSpaceOnUse" x="30.12" y="9.47" width="24.87" height="19.99">
					
						<feColorMatrix  type="matrix" values="-1 0 0 0 1  0 -1 0 0 1  0 0 -1 0 1  0 0 0 1 0" color-interpolation-filters="sRGB" result="source"/>
					<feFlood  style="flood-color:white;flood-opacity:1" result="back"/>
					<feBlend  in="source" in2="back" mode="normal"/>
				</filter>
			</defs>
			<mask maskUnits="userSpaceOnUse" x="30.12" y="9.47" width="24.87" height="19.99" id="SVGID_1_">
				<g class="st1">
					<g>
						<circle class="st2" cx="45.63" cy="27.45" r="1.06"/>
						<circle class="st2" cx="48.12" cy="27.45" r="1.06"/>
						<circle class="st2" cx="50.61" cy="27.45" r="1.06"/>
					</g>
				</g>
			</mask>
			<path class="st3" d="M52.34,9.47H32.77c-1.46,0-2.65,1.19-2.65,2.65v14.68c0,1.46,1.19,2.65,2.65,2.65h19.57
				c1.46,0,2.65-1.19,2.65-2.65V12.12C54.99,10.67,53.8,9.47,52.34,9.47z M51.52,25.27H33.58V12.26h17.94V25.27z"/>
			<g>
				<path class="st0" d="M35.92,15.49h1.57v2.66h3.06v-2.66h1.57v7.15h-1.57v-3.09H37.5v3.09h-1.57V15.49z"/>
				<path class="st0" d="M43.58,15.49h2.36c0.57,0,1.12,0.06,1.63,0.19c0.51,0.13,0.96,0.33,1.35,0.62
					c0.38,0.29,0.69,0.66,0.91,1.12c0.23,0.46,0.34,1.01,0.34,1.67c0,0.58-0.11,1.09-0.33,1.53c-0.22,0.44-0.51,0.81-0.88,1.11
					c-0.37,0.3-0.8,0.53-1.28,0.68c-0.48,0.15-0.99,0.23-1.52,0.23h-2.57V15.49z M45.16,21.18h0.82c0.36,0,0.7-0.04,1.01-0.11
					c0.31-0.07,0.58-0.2,0.81-0.37c0.23-0.17,0.41-0.4,0.54-0.68c0.13-0.28,0.2-0.62,0.2-1.02c0-0.35-0.07-0.65-0.2-0.91
					c-0.13-0.26-0.31-0.47-0.53-0.64c-0.22-0.17-0.48-0.29-0.78-0.38c-0.3-0.08-0.61-0.13-0.94-0.13h-0.93V21.18z"/>
			</g>
		</g>
	</g>
	<g>
		<g>
			<g>
				<path class="st4" d="M86.91,25.77L86.91,25.77c-1.17,1.09-3,1.03-4.1-0.14l-6.88-7.35c-1.09-1.17-1.03-3,0.14-4.08v0
					c1.17-1.09,3-1.03,4.1,0.14l6.88,7.35C88.14,22.86,88.08,24.68,86.91,25.77z"/>
				<path class="st4" d="M74.54,14.38l-1.42-1.59c-0.39-0.44-0.35-1.12,0.09-1.51v0c0.44-0.39,1.12-0.35,1.52,0.09l1.42,1.59
					c0.39,0.44,0.35,1.12-0.09,1.51v0C75.61,14.86,74.93,14.82,74.54,14.38z"/>
			</g>
			<path class="st5" d="M87.98,27.28L87.98,27.28c-1.51,0.86-3.44,0.34-4.31-1.17l-5.45-9.52c-0.87-1.51-0.34-3.44,1.18-4.3l0,0
				c1.51-0.86,3.44-0.34,4.31,1.17l5.45,9.52C90.02,24.5,89.49,26.42,87.98,27.28z"/>
			<path class="st5" d="M77.71,12.1l-1.11-2.05c-0.31-0.57-0.09-1.28,0.47-1.58v0c0.57-0.31,1.28-0.09,1.59,0.47l1.11,2.05
				c0.31,0.57,0.09,1.28-0.47,1.58v0C78.73,12.88,78.02,12.67,77.71,12.1z"/>
			<path class="st0" d="M96.65,32.13h-8.42c-0.85,0-1.55-0.7-1.55-1.55v-1.79c0-0.85,0.7-1.55,1.55-1.55h8.42
				c0.85,0,1.55,0.7,1.55,1.55v1.79C98.2,31.43,97.5,32.13,96.65,32.13z"/>
			<g>
				<g>
					<path class="st0" d="M89.08,28.04l-2.28,0.38c-1.09,0.18-2.12-0.55-2.3-1.64l-2.19-13.08c-0.18-1.09,0.55-2.12,1.65-2.3
						l2.28-0.38c1.09-0.18,2.12,0.55,2.3,1.64l2.19,13.08C90.91,26.82,90.17,27.86,89.08,28.04z"/>
					<path class="st0" d="M84.77,26.36l0.02-2.31c0.01-1.1,0.91-1.99,2.01-1.98l13.31,0.1c1.1,0.01,1.99,0.91,1.98,2.01l-0.02,2.31
						c-0.01,1.1-0.91,1.99-2.01,1.98l-13.31-0.1C85.65,28.36,84.77,27.46,84.77,26.36z"/>
				</g>
				<path class="st0" d="M83.65,10.86L83.2,7.71c-0.06-0.4,0.23-0.78,0.63-0.84l0.85-0.12c0.4-0.06,0.78,0.23,0.84,0.63l0.45,3.14
					c0.06,0.4-0.23,0.78-0.63,0.84l-0.85,0.12C84.08,11.55,83.7,11.26,83.65,10.86z"/>
			</g>
		</g>
		<g>
			<path class="st0" d="M77.84,33.91h0.71l1.7,3.9h-0.97l-0.34-0.83h-1.52l-0.33,0.83h-0.95L77.84,33.91z M78.18,35.04l-0.48,1.21
				h0.96L78.18,35.04z"/>
			<path class="st0" d="M82.07,35.92c-0.12-0.15-0.28-0.23-0.48-0.23c-0.07,0-0.14,0.02-0.2,0.05c-0.07,0.03-0.1,0.09-0.1,0.17
				c0,0.07,0.03,0.11,0.1,0.15c0.07,0.03,0.15,0.06,0.26,0.08c0.1,0.02,0.22,0.05,0.34,0.08c0.12,0.03,0.23,0.07,0.34,0.13
				c0.1,0.06,0.19,0.14,0.26,0.24c0.07,0.1,0.1,0.24,0.1,0.41c0,0.17-0.04,0.32-0.11,0.43c-0.08,0.11-0.17,0.2-0.29,0.27
				c-0.12,0.07-0.25,0.12-0.4,0.14c-0.15,0.03-0.29,0.04-0.44,0.04c-0.19,0-0.38-0.03-0.57-0.08c-0.19-0.05-0.35-0.15-0.49-0.28
				l0.5-0.56c0.08,0.1,0.16,0.17,0.26,0.22c0.09,0.05,0.2,0.07,0.33,0.07c0.1,0,0.18-0.01,0.26-0.04c0.08-0.03,0.12-0.08,0.12-0.15
				c0-0.07-0.03-0.12-0.1-0.16c-0.07-0.03-0.15-0.06-0.26-0.09c-0.11-0.02-0.22-0.05-0.34-0.08c-0.12-0.03-0.23-0.07-0.34-0.12
				c-0.11-0.06-0.19-0.13-0.26-0.23c-0.07-0.1-0.1-0.24-0.1-0.41c0-0.16,0.03-0.29,0.1-0.41c0.06-0.11,0.15-0.21,0.25-0.28
				c0.11-0.07,0.23-0.13,0.36-0.16c0.14-0.03,0.27-0.05,0.41-0.05c0.18,0,0.36,0.03,0.54,0.08c0.18,0.05,0.33,0.14,0.46,0.28
				L82.07,35.92z"/>
			<path class="st0" d="M83.05,34.29c0-0.13,0.05-0.25,0.14-0.34s0.21-0.14,0.34-0.14c0.13,0,0.25,0.05,0.34,0.14
				s0.14,0.21,0.14,0.34s-0.05,0.25-0.14,0.34c-0.09,0.09-0.21,0.14-0.34,0.14c-0.13,0-0.25-0.05-0.34-0.14
				C83.1,34.53,83.05,34.42,83.05,34.29z M83.12,35.13h0.83v2.68h-0.83V35.13z"/>
			<path class="st0" d="M87.09,37.35c-0.13,0.17-0.3,0.3-0.5,0.39c-0.2,0.09-0.41,0.14-0.63,0.14c-0.21,0-0.4-0.03-0.58-0.1
				c-0.18-0.07-0.34-0.16-0.48-0.28c-0.13-0.12-0.24-0.27-0.32-0.44c-0.08-0.17-0.12-0.37-0.12-0.58s0.04-0.41,0.12-0.58
				c0.08-0.17,0.18-0.32,0.32-0.44c0.13-0.12,0.29-0.22,0.48-0.28c0.18-0.07,0.38-0.1,0.58-0.1c0.19,0,0.37,0.03,0.52,0.1
				c0.16,0.07,0.29,0.16,0.4,0.28c0.11,0.12,0.19,0.27,0.25,0.44c0.06,0.17,0.09,0.37,0.09,0.58v0.26h-1.92
				c0.03,0.16,0.11,0.28,0.22,0.38s0.25,0.14,0.41,0.14c0.14,0,0.25-0.03,0.35-0.09c0.09-0.06,0.18-0.14,0.25-0.23L87.09,37.35z
				 M86.38,36.17c0-0.14-0.04-0.26-0.14-0.36c-0.1-0.1-0.22-0.15-0.37-0.15c-0.09,0-0.17,0.01-0.24,0.04
				c-0.07,0.03-0.13,0.07-0.18,0.11c-0.05,0.05-0.09,0.1-0.12,0.16c-0.03,0.06-0.04,0.12-0.05,0.19H86.38z"/>
			<path class="st0" d="M87.72,35.13h0.8v0.36h0.01c0.03-0.05,0.06-0.1,0.11-0.15c0.05-0.05,0.1-0.1,0.17-0.14
				c0.07-0.04,0.14-0.07,0.23-0.1c0.08-0.03,0.18-0.04,0.28-0.04c0.21,0,0.38,0.03,0.51,0.1c0.13,0.06,0.23,0.15,0.3,0.27
				c0.07,0.11,0.12,0.25,0.15,0.4c0.03,0.15,0.04,0.32,0.04,0.5v1.48h-0.83V36.5c0-0.08,0-0.16-0.01-0.24
				c-0.01-0.08-0.02-0.16-0.05-0.23c-0.03-0.07-0.07-0.13-0.13-0.17c-0.06-0.04-0.14-0.07-0.25-0.07c-0.11,0-0.19,0.02-0.26,0.06
				c-0.07,0.04-0.12,0.09-0.15,0.15c-0.03,0.06-0.06,0.14-0.07,0.22c-0.01,0.08-0.02,0.17-0.02,0.25v1.33h-0.83V35.13z"/>
			<path class="st0" d="M92.72,35.79h-0.73v0.89c0,0.07,0,0.14,0.01,0.2s0.02,0.11,0.05,0.16c0.03,0.04,0.07,0.08,0.12,0.1
				c0.05,0.02,0.12,0.04,0.21,0.04c0.04,0,0.1,0,0.17-0.01c0.07-0.01,0.13-0.03,0.16-0.06v0.69c-0.09,0.03-0.19,0.06-0.29,0.07
				c-0.1,0.01-0.2,0.02-0.29,0.02c-0.14,0-0.27-0.01-0.39-0.04c-0.12-0.03-0.22-0.08-0.31-0.14c-0.09-0.06-0.16-0.15-0.21-0.25
				c-0.05-0.1-0.07-0.23-0.07-0.38v-1.27h-0.53v-0.66h0.53v-0.79h0.83v0.79h0.73V35.79z"/>
			<path class="st0" d="M93.04,36.47c0-0.21,0.04-0.41,0.12-0.58c0.08-0.17,0.18-0.32,0.32-0.44c0.13-0.12,0.29-0.22,0.48-0.28
				c0.18-0.07,0.38-0.1,0.58-0.1s0.4,0.03,0.58,0.1c0.18,0.07,0.34,0.16,0.48,0.28c0.13,0.12,0.24,0.27,0.32,0.44
				c0.08,0.17,0.12,0.37,0.12,0.58s-0.04,0.41-0.12,0.58c-0.08,0.17-0.18,0.32-0.32,0.44c-0.13,0.12-0.29,0.22-0.48,0.28
				c-0.18,0.07-0.38,0.1-0.58,0.1s-0.4-0.03-0.58-0.1c-0.18-0.07-0.34-0.16-0.48-0.28c-0.13-0.12-0.24-0.27-0.32-0.44
				C93.08,36.88,93.04,36.68,93.04,36.47z M93.87,36.47c0,0.2,0.06,0.37,0.17,0.49c0.12,0.12,0.28,0.19,0.49,0.19
				c0.21,0,0.37-0.06,0.49-0.19c0.12-0.13,0.17-0.29,0.17-0.49c0-0.2-0.06-0.37-0.17-0.49c-0.12-0.12-0.28-0.19-0.49-0.19
				c-0.21,0-0.37,0.06-0.49,0.19C93.93,36.11,93.87,36.27,93.87,36.47z"/>
			<path class="st0" d="M98.03,35.92c-0.12-0.15-0.28-0.23-0.48-0.23c-0.07,0-0.14,0.02-0.2,0.05c-0.07,0.03-0.1,0.09-0.1,0.17
				c0,0.07,0.03,0.11,0.1,0.15c0.07,0.03,0.15,0.06,0.26,0.08c0.11,0.02,0.22,0.05,0.34,0.08c0.12,0.03,0.23,0.07,0.34,0.13
				c0.11,0.06,0.19,0.14,0.26,0.24c0.07,0.1,0.1,0.24,0.1,0.41c0,0.17-0.04,0.32-0.11,0.43c-0.08,0.11-0.17,0.2-0.29,0.27
				c-0.12,0.07-0.25,0.12-0.4,0.14c-0.15,0.03-0.29,0.04-0.44,0.04c-0.19,0-0.38-0.03-0.57-0.08c-0.19-0.05-0.35-0.15-0.49-0.28
				l0.5-0.56c0.08,0.1,0.16,0.17,0.26,0.22c0.09,0.05,0.2,0.07,0.33,0.07c0.1,0,0.18-0.01,0.26-0.04c0.08-0.03,0.12-0.08,0.12-0.15
				c0-0.07-0.03-0.12-0.1-0.16c-0.07-0.03-0.15-0.06-0.26-0.09c-0.11-0.02-0.22-0.05-0.34-0.08c-0.12-0.03-0.23-0.07-0.34-0.12
				c-0.11-0.06-0.19-0.13-0.26-0.23c-0.07-0.1-0.1-0.24-0.1-0.41c0-0.16,0.03-0.29,0.1-0.41c0.06-0.11,0.15-0.21,0.25-0.28
				c0.11-0.07,0.23-0.13,0.36-0.16c0.14-0.03,0.27-0.05,0.41-0.05c0.18,0,0.36,0.03,0.54,0.08c0.18,0.05,0.33,0.14,0.46,0.28
				L98.03,35.92z"/>
			<path class="st0" d="M77.13,42.41h-0.32v-3.12h0.96c0.32,0,0.57,0.07,0.75,0.21c0.18,0.14,0.28,0.35,0.28,0.63
				c0,0.22-0.07,0.4-0.21,0.55c-0.14,0.15-0.33,0.23-0.59,0.26l0.9,1.48h-0.39l-0.86-1.45h-0.53V42.41z M77.13,40.67h0.57
				c0.14,0,0.26-0.01,0.36-0.04c0.1-0.03,0.18-0.07,0.24-0.12c0.06-0.05,0.1-0.11,0.13-0.17c0.03-0.07,0.04-0.14,0.04-0.21
				c0-0.07-0.01-0.14-0.04-0.21s-0.07-0.12-0.13-0.17c-0.06-0.05-0.14-0.09-0.24-0.12c-0.1-0.03-0.22-0.04-0.36-0.04h-0.57V40.67z"
				/>
			<path class="st0" d="M79.53,41.45c0.01,0.1,0.03,0.2,0.08,0.29c0.04,0.09,0.1,0.17,0.16,0.24c0.07,0.07,0.15,0.12,0.23,0.16
				c0.09,0.04,0.18,0.06,0.29,0.06c0.16,0,0.29-0.04,0.4-0.11c0.11-0.07,0.2-0.15,0.26-0.25l0.23,0.18
				c-0.12,0.16-0.26,0.27-0.41,0.33c-0.15,0.07-0.31,0.1-0.48,0.1c-0.15,0-0.3-0.03-0.43-0.08c-0.13-0.05-0.24-0.13-0.34-0.23
				c-0.09-0.1-0.17-0.21-0.22-0.34c-0.05-0.13-0.08-0.28-0.08-0.43c0-0.16,0.03-0.3,0.08-0.43c0.05-0.13,0.13-0.25,0.22-0.34
				c0.09-0.1,0.2-0.17,0.33-0.23c0.13-0.05,0.26-0.08,0.41-0.08c0.16,0,0.3,0.03,0.42,0.08c0.12,0.06,0.23,0.13,0.31,0.22
				c0.08,0.09,0.15,0.2,0.19,0.33c0.04,0.12,0.07,0.26,0.07,0.4v0.13H79.53z M80.93,41.22c0-0.2-0.06-0.36-0.18-0.48
				c-0.12-0.12-0.28-0.18-0.49-0.18c-0.09,0-0.19,0.02-0.27,0.05c-0.09,0.04-0.17,0.09-0.23,0.15c-0.07,0.06-0.12,0.13-0.16,0.21
				c-0.04,0.08-0.06,0.16-0.06,0.25H80.93z"/>
			<path class="st0" d="M83.28,40.83c-0.05-0.08-0.12-0.14-0.21-0.19c-0.09-0.05-0.19-0.08-0.31-0.08c-0.12,0-0.23,0.02-0.32,0.06
				c-0.1,0.04-0.18,0.1-0.25,0.17c-0.07,0.07-0.12,0.16-0.15,0.26c-0.04,0.1-0.05,0.21-0.05,0.33c0,0.12,0.02,0.23,0.05,0.33
				c0.04,0.1,0.09,0.19,0.15,0.26c0.07,0.07,0.15,0.13,0.25,0.17c0.1,0.04,0.2,0.06,0.32,0.06c0.11,0,0.22-0.03,0.31-0.08
				c0.09-0.05,0.16-0.12,0.21-0.19l0.24,0.18c-0.1,0.12-0.22,0.21-0.35,0.27c-0.13,0.06-0.26,0.09-0.41,0.09
				c-0.17,0-0.32-0.02-0.45-0.08c-0.14-0.05-0.25-0.13-0.35-0.23c-0.1-0.1-0.17-0.21-0.22-0.35s-0.07-0.28-0.07-0.43
				c0-0.16,0.02-0.3,0.07-0.43c0.05-0.13,0.12-0.25,0.22-0.35c0.1-0.1,0.21-0.17,0.35-0.23c0.14-0.05,0.29-0.08,0.45-0.08
				c0.14,0,0.28,0.03,0.41,0.09c0.13,0.06,0.25,0.15,0.35,0.27L83.28,40.83z"/>
			<path class="st0" d="M84.26,42.41h-0.29v-3.33h0.29V42.41z"/>
			<path class="st0" d="M85.39,39.55c0,0.06-0.02,0.11-0.07,0.15c-0.04,0.04-0.09,0.06-0.15,0.06c-0.05,0-0.1-0.02-0.15-0.06
				c-0.04-0.04-0.07-0.09-0.07-0.15s0.02-0.11,0.07-0.15c0.04-0.04,0.09-0.06,0.15-0.06c0.05,0,0.1,0.02,0.15,0.06
				C85.37,39.44,85.39,39.49,85.39,39.55z M85.32,42.41h-0.29v-2.06h0.29V42.41z"/>
			<path class="st0" d="M86.3,40.34c0.01,0.06,0.01,0.11,0.01,0.17c0,0.05,0,0.11,0,0.17h0.01c0.03-0.06,0.07-0.11,0.12-0.15
				c0.05-0.05,0.11-0.09,0.17-0.12c0.06-0.03,0.13-0.06,0.2-0.08c0.07-0.02,0.14-0.03,0.21-0.03c0.26,0,0.46,0.07,0.59,0.21
				c0.13,0.14,0.19,0.34,0.19,0.6v1.31H87.5v-1.14c0-0.23-0.04-0.4-0.12-0.53c-0.08-0.12-0.23-0.18-0.44-0.18
				c-0.01,0-0.06,0.01-0.12,0.02c-0.07,0.01-0.14,0.04-0.21,0.1c-0.08,0.05-0.14,0.13-0.2,0.24c-0.06,0.11-0.09,0.25-0.09,0.44v1.06
				h-0.29V40.8c0-0.06,0-0.13-0.01-0.21c0-0.08-0.01-0.17-0.02-0.24H86.3z"/>
			<path class="st0" d="M89.81,41.14v-0.05c0-0.35-0.18-0.53-0.53-0.53c-0.24,0-0.45,0.08-0.63,0.24l-0.18-0.21
				c0.19-0.2,0.49-0.3,0.87-0.3c0.1,0,0.2,0.01,0.29,0.04c0.09,0.03,0.17,0.07,0.24,0.13c0.07,0.06,0.12,0.14,0.16,0.23
				s0.06,0.2,0.06,0.33v0.92c0,0.08,0,0.16,0.01,0.25c0.01,0.09,0.02,0.16,0.02,0.21h-0.28c-0.01-0.05-0.02-0.1-0.02-0.16
				c0-0.06-0.01-0.12-0.01-0.17h-0.01c-0.09,0.14-0.19,0.24-0.3,0.3c-0.12,0.06-0.26,0.09-0.43,0.09c-0.09,0-0.18-0.01-0.26-0.04
				c-0.09-0.02-0.16-0.06-0.23-0.11c-0.07-0.05-0.12-0.11-0.16-0.19c-0.04-0.07-0.06-0.16-0.06-0.26c0-0.17,0.04-0.3,0.13-0.39
				c0.09-0.1,0.2-0.17,0.33-0.21c0.13-0.05,0.27-0.08,0.42-0.09c0.15-0.01,0.28-0.02,0.41-0.02H89.81z M89.66,41.38
				c-0.07,0-0.17,0-0.28,0.01c-0.11,0.01-0.22,0.02-0.32,0.05c-0.1,0.03-0.19,0.07-0.26,0.13c-0.07,0.06-0.11,0.14-0.11,0.24
				c0,0.07,0.01,0.13,0.04,0.17c0.03,0.05,0.07,0.09,0.11,0.12c0.05,0.03,0.1,0.05,0.16,0.07c0.06,0.01,0.12,0.02,0.17,0.02
				c0.11,0,0.2-0.02,0.28-0.05c0.08-0.03,0.14-0.08,0.2-0.14s0.09-0.13,0.12-0.21c0.03-0.08,0.04-0.17,0.04-0.26v-0.15H89.66z"/>
			<path class="st0" d="M90.77,39.08h0.29v1.61h0.01c0.05-0.07,0.1-0.13,0.17-0.18c0.06-0.05,0.13-0.09,0.2-0.12
				c0.07-0.03,0.14-0.06,0.22-0.07c0.08-0.01,0.15-0.02,0.21-0.02c0.16,0,0.31,0.03,0.44,0.08c0.13,0.05,0.25,0.13,0.35,0.23
				c0.1,0.1,0.17,0.21,0.23,0.34c0.05,0.13,0.08,0.28,0.08,0.43c0,0.16-0.03,0.3-0.08,0.43c-0.05,0.13-0.13,0.25-0.23,0.34
				c-0.1,0.1-0.21,0.17-0.35,0.23c-0.13,0.05-0.28,0.08-0.44,0.08c-0.07,0-0.14-0.01-0.21-0.02c-0.07-0.01-0.15-0.04-0.22-0.07
				c-0.07-0.03-0.14-0.07-0.2-0.12c-0.06-0.05-0.12-0.11-0.17-0.18h-0.01v0.34h-0.29V39.08z M92.66,41.38
				c0-0.11-0.02-0.22-0.06-0.32c-0.04-0.1-0.09-0.19-0.16-0.26c-0.07-0.07-0.15-0.13-0.25-0.17c-0.1-0.04-0.2-0.06-0.32-0.06
				c-0.12,0-0.23,0.02-0.33,0.06c-0.1,0.04-0.19,0.1-0.26,0.17c-0.07,0.07-0.13,0.16-0.17,0.26c-0.04,0.1-0.06,0.21-0.06,0.32
				c0,0.11,0.02,0.22,0.06,0.32c0.04,0.1,0.1,0.19,0.17,0.26c0.07,0.07,0.16,0.13,0.26,0.17c0.1,0.04,0.21,0.06,0.33,0.06
				c0.12,0,0.23-0.02,0.32-0.06c0.1-0.04,0.18-0.1,0.25-0.17c0.07-0.07,0.12-0.16,0.16-0.26C92.64,41.6,92.66,41.49,92.66,41.38z"/>
			<path class="st0" d="M93.83,42.41h-0.29v-3.33h0.29V42.41z"/>
			<path class="st0" d="M94.73,41.45c0.01,0.1,0.03,0.2,0.08,0.29c0.04,0.09,0.1,0.17,0.16,0.24c0.07,0.07,0.15,0.12,0.23,0.16
				c0.09,0.04,0.18,0.06,0.29,0.06c0.16,0,0.29-0.04,0.4-0.11c0.11-0.07,0.2-0.15,0.26-0.25l0.23,0.18
				c-0.12,0.16-0.26,0.27-0.41,0.33c-0.15,0.07-0.31,0.1-0.48,0.1c-0.15,0-0.3-0.03-0.43-0.08c-0.13-0.05-0.24-0.13-0.34-0.23
				c-0.09-0.1-0.17-0.21-0.22-0.34c-0.05-0.13-0.08-0.28-0.08-0.43c0-0.16,0.03-0.3,0.08-0.43c0.05-0.13,0.13-0.25,0.22-0.34
				c0.09-0.1,0.2-0.17,0.33-0.23c0.13-0.05,0.26-0.08,0.41-0.08c0.16,0,0.3,0.03,0.42,0.08c0.12,0.06,0.23,0.13,0.31,0.22
				c0.08,0.09,0.15,0.2,0.19,0.33c0.04,0.12,0.07,0.26,0.07,0.4v0.13H94.73z M96.14,41.22c0-0.2-0.06-0.36-0.18-0.48
				c-0.12-0.12-0.28-0.18-0.49-0.18c-0.09,0-0.19,0.02-0.27,0.05c-0.09,0.04-0.17,0.09-0.23,0.15c-0.07,0.06-0.12,0.13-0.16,0.21
				c-0.04,0.08-0.06,0.16-0.06,0.25H96.14z"/>
			<path class="st0" d="M98.08,40.83c-0.04-0.09-0.1-0.15-0.18-0.2c-0.07-0.05-0.16-0.07-0.27-0.07c-0.05,0-0.1,0.01-0.15,0.02
				c-0.05,0.01-0.1,0.03-0.14,0.06c-0.04,0.02-0.07,0.06-0.1,0.09c-0.02,0.04-0.04,0.09-0.04,0.14c0,0.1,0.03,0.17,0.1,0.21
				c0.07,0.04,0.17,0.08,0.3,0.11l0.3,0.07c0.14,0.03,0.26,0.1,0.36,0.2c0.1,0.1,0.14,0.22,0.14,0.37c0,0.11-0.02,0.21-0.07,0.29
				c-0.05,0.08-0.11,0.15-0.18,0.2c-0.07,0.05-0.16,0.09-0.26,0.11c-0.1,0.02-0.2,0.04-0.3,0.04c-0.16,0-0.31-0.03-0.44-0.09
				c-0.14-0.06-0.25-0.16-0.35-0.31l0.25-0.17c0.06,0.09,0.13,0.17,0.22,0.22c0.09,0.06,0.2,0.08,0.32,0.08
				c0.06,0,0.12-0.01,0.18-0.02c0.06-0.01,0.11-0.03,0.16-0.06c0.05-0.03,0.08-0.06,0.11-0.11c0.03-0.04,0.04-0.1,0.04-0.15
				c0-0.1-0.04-0.18-0.11-0.22c-0.08-0.05-0.17-0.08-0.28-0.11l-0.28-0.07c-0.04-0.01-0.08-0.02-0.14-0.04
				c-0.06-0.02-0.12-0.05-0.18-0.09c-0.06-0.04-0.11-0.09-0.15-0.16c-0.04-0.07-0.06-0.15-0.06-0.24c0-0.11,0.02-0.2,0.06-0.28
				c0.04-0.08,0.1-0.14,0.17-0.19c0.07-0.05,0.15-0.09,0.25-0.11c0.09-0.02,0.19-0.04,0.28-0.04c0.14,0,0.28,0.03,0.4,0.08
				c0.12,0.06,0.22,0.15,0.29,0.29L98.08,40.83z"/>
		</g>
	</g>
	<g>
		<g>
			<path class="st0" d="M106.61,80.61h0.71l1.7,3.9h-0.97l-0.34-0.83h-1.52l-0.33,0.83h-0.95L106.61,80.61z M106.95,81.75
				l-0.47,1.21h0.95L106.95,81.75z"/>
			<path class="st0" d="M109.26,80.99c0-0.13,0.05-0.25,0.14-0.34c0.09-0.09,0.21-0.14,0.34-0.14c0.13,0,0.25,0.05,0.34,0.14
				c0.09,0.09,0.14,0.21,0.14,0.34s-0.05,0.25-0.14,0.34c-0.09,0.09-0.21,0.14-0.34,0.14c-0.13,0-0.25-0.05-0.34-0.14
				C109.3,81.24,109.26,81.13,109.26,80.99z M109.32,81.84h0.83v2.68h-0.83V81.84z"/>
			<path class="st0" d="M110.74,81.84h0.83v0.43h0.01c0.09-0.17,0.19-0.29,0.31-0.37c0.12-0.08,0.27-0.12,0.46-0.12
				c0.05,0,0.1,0,0.14,0.01c0.05,0,0.09,0.01,0.13,0.02v0.76c-0.06-0.02-0.12-0.03-0.17-0.04c-0.06-0.01-0.12-0.01-0.18-0.01
				c-0.16,0-0.28,0.02-0.37,0.07c-0.09,0.04-0.16,0.11-0.21,0.18c-0.05,0.08-0.08,0.17-0.1,0.28c-0.01,0.11-0.02,0.23-0.02,0.36
				v1.12h-0.83V81.84z"/>
			<path class="st0" d="M115.43,84.05c-0.13,0.17-0.3,0.3-0.5,0.39c-0.2,0.09-0.41,0.14-0.63,0.14c-0.21,0-0.4-0.03-0.58-0.1
				c-0.18-0.07-0.34-0.16-0.47-0.28c-0.13-0.12-0.24-0.27-0.32-0.44s-0.12-0.37-0.12-0.58s0.04-0.41,0.12-0.58
				c0.08-0.17,0.18-0.32,0.32-0.44c0.13-0.12,0.29-0.22,0.47-0.28c0.18-0.07,0.38-0.1,0.58-0.1c0.19,0,0.36,0.03,0.52,0.1
				c0.16,0.07,0.29,0.16,0.4,0.28c0.11,0.12,0.19,0.27,0.25,0.44c0.06,0.17,0.09,0.37,0.09,0.58v0.26h-1.92
				c0.03,0.16,0.1,0.28,0.21,0.38c0.11,0.09,0.25,0.14,0.41,0.14c0.14,0,0.25-0.03,0.34-0.09c0.09-0.06,0.18-0.14,0.25-0.23
				L115.43,84.05z M114.73,82.87c0-0.14-0.04-0.26-0.14-0.36c-0.1-0.1-0.22-0.15-0.37-0.15c-0.09,0-0.17,0.01-0.24,0.04
				c-0.07,0.03-0.13,0.07-0.18,0.11c-0.05,0.05-0.09,0.1-0.12,0.16c-0.03,0.06-0.04,0.12-0.05,0.19H114.73z"/>
			<path class="st0" d="M95.83,89.11h-0.37l1.36-3.12h0.31l1.36,3.12h-0.37l-0.34-0.82h-1.59L95.83,89.11z M96.29,88h1.35
				l-0.67-1.64L96.29,88z"/>
			<path class="st0" d="M100.3,87.54c-0.05-0.08-0.12-0.14-0.21-0.19c-0.09-0.05-0.19-0.08-0.31-0.08c-0.12,0-0.23,0.02-0.32,0.06
				c-0.1,0.04-0.18,0.1-0.24,0.17c-0.07,0.07-0.12,0.16-0.15,0.26c-0.04,0.1-0.05,0.21-0.05,0.33c0,0.12,0.02,0.23,0.05,0.33
				c0.04,0.1,0.09,0.19,0.15,0.26c0.07,0.07,0.15,0.13,0.24,0.17c0.1,0.04,0.2,0.06,0.32,0.06c0.11,0,0.22-0.03,0.31-0.08
				c0.09-0.05,0.16-0.12,0.21-0.19l0.24,0.18c-0.1,0.12-0.22,0.21-0.35,0.27c-0.13,0.06-0.26,0.09-0.41,0.09
				c-0.17,0-0.32-0.02-0.45-0.08c-0.14-0.05-0.25-0.13-0.35-0.23c-0.1-0.1-0.17-0.21-0.22-0.35c-0.05-0.13-0.07-0.28-0.07-0.43
				c0-0.16,0.03-0.3,0.07-0.43c0.05-0.13,0.12-0.25,0.22-0.35c0.1-0.1,0.21-0.17,0.35-0.23c0.14-0.05,0.29-0.08,0.45-0.08
				c0.14,0,0.28,0.03,0.41,0.09c0.13,0.06,0.25,0.15,0.35,0.27L100.3,87.54z"/>
			<path class="st0" d="M103,88.08c0,0.16-0.03,0.3-0.08,0.43c-0.05,0.13-0.13,0.25-0.23,0.34s-0.21,0.17-0.35,0.23
				c-0.13,0.05-0.28,0.08-0.44,0.08c-0.16,0-0.3-0.03-0.44-0.08c-0.13-0.05-0.25-0.13-0.35-0.23s-0.17-0.21-0.23-0.34
				c-0.05-0.13-0.08-0.28-0.08-0.43c0-0.16,0.03-0.3,0.08-0.43c0.05-0.13,0.13-0.25,0.23-0.34s0.21-0.17,0.35-0.23
				c0.13-0.05,0.28-0.08,0.44-0.08c0.16,0,0.31,0.03,0.44,0.08c0.13,0.05,0.25,0.13,0.35,0.23s0.17,0.21,0.23,0.34
				C102.97,87.78,103,87.93,103,88.08z M102.68,88.08c0-0.11-0.02-0.22-0.05-0.32c-0.04-0.1-0.09-0.19-0.16-0.26
				c-0.07-0.07-0.15-0.13-0.24-0.17c-0.1-0.04-0.2-0.06-0.32-0.06c-0.12,0-0.23,0.02-0.32,0.06c-0.1,0.04-0.18,0.1-0.24,0.17
				c-0.07,0.07-0.12,0.16-0.15,0.26c-0.04,0.1-0.05,0.21-0.05,0.32c0,0.11,0.02,0.22,0.05,0.32c0.04,0.1,0.09,0.19,0.15,0.26
				c0.07,0.07,0.15,0.13,0.24,0.17c0.1,0.04,0.2,0.06,0.32,0.06c0.12,0,0.23-0.02,0.32-0.06c0.1-0.04,0.18-0.1,0.24-0.17
				c0.07-0.07,0.12-0.16,0.16-0.26C102.67,88.3,102.68,88.2,102.68,88.08z"/>
			<path class="st0" d="M103.81,87.05c0.01,0.06,0.01,0.11,0.01,0.17c0,0.05,0,0.11,0,0.17h0.01c0.03-0.06,0.07-0.11,0.12-0.15
				c0.05-0.05,0.11-0.09,0.17-0.12c0.06-0.03,0.13-0.06,0.2-0.08c0.07-0.02,0.14-0.03,0.2-0.03c0.26,0,0.46,0.07,0.59,0.21
				c0.13,0.14,0.19,0.34,0.19,0.6v1.31h-0.29v-1.14c0-0.23-0.04-0.4-0.12-0.53c-0.08-0.12-0.23-0.18-0.44-0.18
				c-0.01,0-0.06,0.01-0.12,0.02c-0.07,0.01-0.14,0.04-0.21,0.1s-0.14,0.13-0.2,0.24c-0.06,0.11-0.09,0.25-0.09,0.44v1.06h-0.29
				v-1.61c0-0.06,0-0.13-0.01-0.21c0-0.09-0.01-0.17-0.02-0.24H103.81z"/>
			<path class="st0" d="M108.04,89.11h-0.29v-0.34h-0.01c-0.05,0.07-0.1,0.13-0.17,0.18c-0.06,0.05-0.13,0.09-0.2,0.12
				c-0.07,0.03-0.14,0.06-0.22,0.07c-0.07,0.01-0.15,0.02-0.21,0.02c-0.16,0-0.31-0.03-0.44-0.08c-0.13-0.05-0.25-0.13-0.35-0.23
				s-0.17-0.21-0.23-0.34c-0.05-0.13-0.08-0.28-0.08-0.43c0-0.16,0.03-0.3,0.08-0.43c0.05-0.13,0.13-0.25,0.23-0.34
				s0.21-0.17,0.35-0.23c0.13-0.05,0.28-0.08,0.44-0.08c0.07,0,0.14,0.01,0.21,0.02c0.07,0.01,0.15,0.04,0.22,0.07
				c0.07,0.03,0.14,0.07,0.2,0.12c0.06,0.05,0.12,0.11,0.17,0.18h0.01v-1.61h0.29V89.11z M106.15,88.08c0,0.11,0.02,0.22,0.06,0.32
				c0.04,0.1,0.09,0.19,0.16,0.26c0.07,0.07,0.15,0.13,0.24,0.17c0.1,0.04,0.2,0.06,0.32,0.06c0.12,0,0.23-0.02,0.33-0.06
				c0.1-0.04,0.19-0.1,0.26-0.17c0.07-0.07,0.13-0.16,0.17-0.26c0.04-0.1,0.06-0.21,0.06-0.32c0-0.11-0.02-0.22-0.06-0.32
				c-0.04-0.1-0.1-0.19-0.17-0.26c-0.07-0.07-0.16-0.13-0.26-0.17c-0.1-0.04-0.21-0.06-0.33-0.06c-0.12,0-0.23,0.02-0.32,0.06
				c-0.1,0.04-0.18,0.1-0.24,0.17c-0.07,0.07-0.12,0.16-0.16,0.26C106.17,87.86,106.15,87.97,106.15,88.08z"/>
			<path class="st0" d="M109.09,86.26c0,0.06-0.02,0.11-0.07,0.15c-0.04,0.04-0.09,0.06-0.15,0.06s-0.1-0.02-0.15-0.06
				c-0.04-0.04-0.07-0.09-0.07-0.15c0-0.06,0.02-0.11,0.07-0.15c0.04-0.04,0.09-0.06,0.15-0.06s0.1,0.02,0.15,0.06
				C109.07,86.15,109.09,86.2,109.09,86.26z M109.03,89.11h-0.29v-2.06h0.29V89.11z"/>
			<path class="st0" d="M111.23,87.54c-0.05-0.08-0.12-0.14-0.21-0.19c-0.09-0.05-0.19-0.08-0.31-0.08c-0.12,0-0.23,0.02-0.32,0.06
				c-0.1,0.04-0.18,0.1-0.24,0.17c-0.07,0.07-0.12,0.16-0.15,0.26c-0.04,0.1-0.05,0.21-0.05,0.33c0,0.12,0.02,0.23,0.05,0.33
				c0.04,0.1,0.09,0.19,0.15,0.26c0.07,0.07,0.15,0.13,0.24,0.17c0.1,0.04,0.2,0.06,0.32,0.06c0.11,0,0.22-0.03,0.31-0.08
				c0.09-0.05,0.16-0.12,0.21-0.19l0.24,0.18c-0.1,0.12-0.22,0.21-0.35,0.27c-0.13,0.06-0.26,0.09-0.41,0.09
				c-0.17,0-0.32-0.02-0.45-0.08c-0.14-0.05-0.25-0.13-0.35-0.23c-0.1-0.1-0.17-0.21-0.22-0.35c-0.05-0.13-0.07-0.28-0.07-0.43
				c0-0.16,0.03-0.3,0.07-0.43s0.12-0.25,0.22-0.35c0.1-0.1,0.21-0.17,0.35-0.23c0.14-0.05,0.29-0.08,0.45-0.08
				c0.14,0,0.28,0.03,0.41,0.09c0.13,0.06,0.25,0.15,0.35,0.27L111.23,87.54z"/>
			<path class="st0" d="M112.27,86.26c0,0.06-0.02,0.11-0.07,0.15c-0.04,0.04-0.09,0.06-0.15,0.06s-0.1-0.02-0.15-0.06
				c-0.04-0.04-0.07-0.09-0.07-0.15c0-0.06,0.02-0.11,0.07-0.15c0.04-0.04,0.09-0.06,0.15-0.06s0.1,0.02,0.15,0.06
				C112.25,86.15,112.27,86.2,112.27,86.26z M112.21,89.11h-0.29v-2.06h0.29V89.11z"/>
			<path class="st0" d="M114.99,88.08c0,0.16-0.03,0.3-0.08,0.43c-0.05,0.13-0.13,0.25-0.23,0.34s-0.21,0.17-0.35,0.23
				c-0.13,0.05-0.28,0.08-0.44,0.08c-0.16,0-0.3-0.03-0.44-0.08c-0.13-0.05-0.25-0.13-0.35-0.23s-0.17-0.21-0.23-0.34
				c-0.05-0.13-0.08-0.28-0.08-0.43c0-0.16,0.03-0.3,0.08-0.43c0.05-0.13,0.13-0.25,0.23-0.34s0.21-0.17,0.35-0.23
				c0.13-0.05,0.28-0.08,0.44-0.08c0.16,0,0.31,0.03,0.44,0.08c0.13,0.05,0.25,0.13,0.35,0.23s0.17,0.21,0.23,0.34
				C114.96,87.78,114.99,87.93,114.99,88.08z M114.67,88.08c0-0.11-0.02-0.22-0.05-0.32c-0.04-0.1-0.09-0.19-0.16-0.26
				c-0.07-0.07-0.15-0.13-0.24-0.17c-0.1-0.04-0.2-0.06-0.32-0.06c-0.12,0-0.23,0.02-0.32,0.06c-0.1,0.04-0.18,0.1-0.24,0.17
				c-0.07,0.07-0.12,0.16-0.15,0.26c-0.04,0.1-0.05,0.21-0.05,0.32c0,0.11,0.02,0.22,0.05,0.32c0.04,0.1,0.09,0.19,0.15,0.26
				c0.07,0.07,0.15,0.13,0.24,0.17c0.1,0.04,0.2,0.06,0.32,0.06c0.12,0,0.23-0.02,0.32-0.06c0.1-0.04,0.18-0.1,0.24-0.17
				c0.07-0.07,0.12-0.16,0.16-0.26C114.65,88.3,114.67,88.2,114.67,88.08z"/>
			<path class="st0" d="M115.79,87.05c0.01,0.06,0.01,0.11,0.01,0.17c0,0.05,0,0.11,0,0.17h0.01c0.03-0.06,0.07-0.11,0.12-0.15
				c0.05-0.05,0.11-0.09,0.17-0.12c0.06-0.03,0.13-0.06,0.2-0.08c0.07-0.02,0.14-0.03,0.2-0.03c0.26,0,0.46,0.07,0.59,0.21
				c0.13,0.14,0.19,0.34,0.19,0.6v1.31h-0.29v-1.14c0-0.23-0.04-0.4-0.12-0.53c-0.08-0.12-0.23-0.18-0.44-0.18
				c-0.01,0-0.06,0.01-0.12,0.02c-0.07,0.01-0.14,0.04-0.21,0.1s-0.14,0.13-0.2,0.24c-0.06,0.11-0.09,0.25-0.09,0.44v1.06h-0.29
				v-1.61c0-0.06,0-0.13-0.01-0.21s-0.01-0.17-0.02-0.24H115.79z"/>
			<path class="st0" d="M119.29,87.85V87.8c0-0.36-0.18-0.53-0.53-0.53c-0.24,0-0.45,0.08-0.63,0.24l-0.18-0.21
				c0.19-0.2,0.48-0.3,0.87-0.3c0.1,0,0.2,0.01,0.29,0.04c0.09,0.03,0.17,0.07,0.24,0.13c0.07,0.06,0.12,0.14,0.16,0.23
				c0.04,0.09,0.06,0.2,0.06,0.33v0.92c0,0.08,0,0.16,0.01,0.25c0.01,0.09,0.02,0.16,0.02,0.21h-0.28c-0.01-0.05-0.02-0.1-0.02-0.16
				c0-0.06-0.01-0.12-0.01-0.17h-0.01c-0.09,0.14-0.19,0.24-0.3,0.3c-0.12,0.06-0.26,0.09-0.42,0.09c-0.09,0-0.18-0.01-0.26-0.04
				c-0.08-0.03-0.16-0.06-0.23-0.11c-0.07-0.05-0.12-0.11-0.16-0.19c-0.04-0.07-0.06-0.16-0.06-0.26c0-0.17,0.04-0.3,0.13-0.39
				c0.09-0.1,0.2-0.17,0.33-0.21c0.13-0.05,0.27-0.08,0.42-0.09c0.15-0.01,0.28-0.02,0.41-0.02H119.29z M119.14,88.09
				c-0.07,0-0.17,0-0.28,0.01s-0.22,0.03-0.32,0.05c-0.1,0.03-0.19,0.07-0.26,0.13c-0.07,0.06-0.11,0.14-0.11,0.24
				c0,0.07,0.01,0.13,0.04,0.17c0.03,0.05,0.07,0.09,0.11,0.12c0.05,0.03,0.1,0.05,0.16,0.07c0.06,0.01,0.11,0.02,0.17,0.02
				c0.11,0,0.2-0.02,0.28-0.05c0.08-0.03,0.14-0.08,0.2-0.14c0.05-0.06,0.09-0.13,0.12-0.21c0.02-0.08,0.04-0.17,0.04-0.26v-0.15
				H119.14z"/>
			<path class="st0" d="M122.31,89.11h-0.29v-0.34h-0.01c-0.05,0.07-0.1,0.13-0.17,0.18c-0.06,0.05-0.13,0.09-0.2,0.12
				c-0.07,0.03-0.14,0.06-0.22,0.07c-0.07,0.01-0.15,0.02-0.21,0.02c-0.16,0-0.31-0.03-0.44-0.08c-0.13-0.05-0.25-0.13-0.35-0.23
				s-0.17-0.21-0.23-0.34c-0.05-0.13-0.08-0.28-0.08-0.43c0-0.16,0.03-0.3,0.08-0.43c0.05-0.13,0.13-0.25,0.23-0.34
				s0.21-0.17,0.35-0.23c0.13-0.05,0.28-0.08,0.44-0.08c0.07,0,0.14,0.01,0.21,0.02c0.07,0.01,0.15,0.04,0.22,0.07
				c0.07,0.03,0.14,0.07,0.2,0.12c0.06,0.05,0.12,0.11,0.17,0.18h0.01v-1.61h0.29V89.11z M120.43,88.08c0,0.11,0.02,0.22,0.06,0.32
				c0.04,0.1,0.09,0.19,0.16,0.26c0.07,0.07,0.15,0.13,0.24,0.17c0.1,0.04,0.2,0.06,0.32,0.06c0.12,0,0.23-0.02,0.33-0.06
				c0.1-0.04,0.19-0.1,0.26-0.17c0.07-0.07,0.13-0.16,0.17-0.26c0.04-0.1,0.06-0.21,0.06-0.32c0-0.11-0.02-0.22-0.06-0.32
				c-0.04-0.1-0.1-0.19-0.17-0.26c-0.07-0.07-0.16-0.13-0.26-0.17c-0.1-0.04-0.21-0.06-0.33-0.06c-0.12,0-0.23,0.02-0.32,0.06
				c-0.1,0.04-0.18,0.1-0.24,0.17c-0.07,0.07-0.12,0.16-0.16,0.26C120.45,87.86,120.43,87.97,120.43,88.08z"/>
			<path class="st0" d="M125.03,88.08c0,0.16-0.03,0.3-0.08,0.43c-0.05,0.13-0.13,0.25-0.23,0.34s-0.21,0.17-0.35,0.23
				c-0.13,0.05-0.28,0.08-0.44,0.08c-0.16,0-0.3-0.03-0.44-0.08c-0.13-0.05-0.25-0.13-0.35-0.23c-0.1-0.1-0.17-0.21-0.23-0.34
				c-0.05-0.13-0.08-0.28-0.08-0.43c0-0.16,0.03-0.3,0.08-0.43c0.05-0.13,0.13-0.25,0.23-0.34c0.1-0.1,0.21-0.17,0.35-0.23
				c0.13-0.05,0.28-0.08,0.44-0.08c0.16,0,0.31,0.03,0.44,0.08c0.13,0.05,0.25,0.13,0.35,0.23s0.17,0.21,0.23,0.34
				C125,87.78,125.03,87.93,125.03,88.08z M124.71,88.08c0-0.11-0.02-0.22-0.05-0.32c-0.04-0.1-0.09-0.19-0.16-0.26
				c-0.07-0.07-0.15-0.13-0.24-0.17c-0.1-0.04-0.2-0.06-0.32-0.06c-0.12,0-0.23,0.02-0.32,0.06c-0.1,0.04-0.18,0.1-0.24,0.17
				c-0.07,0.07-0.12,0.16-0.15,0.26c-0.04,0.1-0.05,0.21-0.05,0.32c0,0.11,0.02,0.22,0.05,0.32c0.04,0.1,0.09,0.19,0.15,0.26
				c0.07,0.07,0.15,0.13,0.24,0.17c0.1,0.04,0.2,0.06,0.32,0.06c0.12,0,0.23-0.02,0.32-0.06c0.1-0.04,0.18-0.1,0.24-0.17
				c0.07-0.07,0.12-0.16,0.16-0.26C124.69,88.3,124.71,88.2,124.71,88.08z"/>
		</g>
		<g>
			<g>
				<g>
					<g>
						<path class="st0" d="M122.26,64.1c-0.39,0.38-0.96,0.57-1.5,0.45c-0.66-0.15-1.15-0.71-1.81-0.9
							c-0.6-0.17-1.19-0.02-1.72,0.28c-0.48,0.27-0.9,0.62-1.47,0.7c-0.31,0.04-0.48,0.43-0.4,0.71c0.09,0.33,0.4,0.44,0.71,0.4
							c0.62-0.09,1.12-0.44,1.64-0.75c0.19-0.11,0.39-0.24,0.62-0.27c0.31-0.04,0.6,0.14,0.85,0.29c0.62,0.38,1.21,0.72,1.97,0.71
							c0.73-0.02,1.41-0.31,1.94-0.82C123.61,64.4,122.79,63.59,122.26,64.1L122.26,64.1z"/>
					</g>
				</g>
				<g>
					<g>
						<path class="st0" d="M122.26,66.05c-0.39,0.38-0.96,0.57-1.5,0.45c-0.66-0.15-1.15-0.71-1.81-0.9
							c-0.6-0.17-1.19-0.02-1.72,0.28c-0.48,0.27-0.9,0.62-1.47,0.7c-0.31,0.04-0.48,0.43-0.4,0.71c0.09,0.33,0.4,0.44,0.71,0.4
							c0.62-0.09,1.12-0.44,1.64-0.75c0.19-0.11,0.39-0.24,0.62-0.27c0.31-0.04,0.6,0.14,0.85,0.29c0.62,0.38,1.21,0.72,1.97,0.71
							c0.73-0.02,1.41-0.31,1.94-0.82C123.61,66.35,122.79,65.54,122.26,66.05L122.26,66.05z"/>
					</g>
				</g>
				<g>
					<g>
						<path class="st0" d="M122.26,68.09c-0.39,0.38-0.96,0.57-1.5,0.45c-0.66-0.15-1.15-0.71-1.81-0.9
							c-0.6-0.17-1.19-0.02-1.72,0.28c-0.48,0.27-0.9,0.62-1.47,0.7c-0.31,0.04-0.48,0.43-0.4,0.71c0.09,0.33,0.4,0.44,0.71,0.4
							c0.62-0.09,1.12-0.44,1.64-0.75c0.19-0.11,0.39-0.24,0.62-0.27c0.31-0.04,0.6,0.14,0.85,0.29c0.62,0.38,1.21,0.72,1.97,0.71
							c0.73-0.02,1.41-0.31,1.94-0.82C123.61,68.4,122.79,67.58,122.26,68.09L122.26,68.09z"/>
					</g>
				</g>
			</g>
			<path class="st0" d="M113.13,63.18c0.28-0.16,0.57-0.31,0.84-0.48c0.23-0.15,0.4-0.34,0.39-0.63c0.01,0,0.01,0,0.02,0
				c0-0.07,0-0.14,0-0.21c-0.01-0.01-0.01-0.01-0.02-0.01c0,0,0,0,0,0c0.01-0.13-0.02-0.26-0.1-0.37c-0.25-0.38-0.74-0.49-1.17-0.25
				c-0.28,0.15-0.55,0.32-0.82,0.47c-0.22,0.12-0.23,0.12-0.23-0.14c0-0.28,0.01-0.56,0-0.85c-0.02-0.62-0.69-1.01-1.24-0.71
				c-0.35,0.19-0.47,0.51-0.47,0.88c-0.01,0.56-0.01,1.11,0,1.67c0,0.19-0.05,0.31-0.23,0.41c-0.96,0.56-1.93,1.11-2.89,1.67
				c-0.03,0.02-0.06,0.04-0.1,0.01c-0.03-0.07-0.02-0.15-0.02-0.22c0-0.94-0.01-1.88,0-2.83c0.01-0.77-0.14-0.57,0.58-0.99
				c0.38-0.22,0.76-0.44,1.14-0.66c0.36-0.21,0.54-0.55,0.48-0.88c-0.11-0.62-0.71-0.92-1.27-0.63c-0.26,0.14-0.51,0.29-0.77,0.44
				c-0.16,0.09-0.17,0.08-0.17-0.1c0-0.36,0.01-0.72,0-1.07c-0.01-0.45-0.32-0.78-0.75-0.81c0-0.01,0-0.01,0-0.02
				c-0.07,0-0.14,0-0.21,0c0,0.01,0,0.02,0,0.04h0c-0.43,0.08-0.69,0.39-0.69,0.82c0,0.43,0,0.87,0,1.33c0,0-0.01,0.01-0.01,0.01
				c-0.33-0.19-0.65-0.37-0.96-0.55c-0.16-0.09-0.33-0.15-0.51-0.13c-0.35,0.04-0.63,0.28-0.71,0.6c-0.08,0.35,0.05,0.69,0.37,0.88
				c0.55,0.33,1.11,0.65,1.67,0.97c0.11,0.06,0.15,0.13,0.15,0.26c-0.01,1.2,0,2.41,0,3.61c0,0.04,0.02,0.09-0.03,0.14
				c-1.08-0.62-2.16-1.25-3.24-1.87c-0.1-0.06-0.08-0.13-0.08-0.21c0-0.65,0-1.29,0-1.94c0-0.5-0.34-0.86-0.8-0.86
				c-0.47,0-0.8,0.35-0.8,0.85c0,0.38,0,0.76,0,1.16c0,0,0,0-0.01,0c-0.42-0.24-0.8-0.47-1.19-0.69c-0.42-0.24-0.92-0.09-1.13,0.33
				c-0.19,0.38-0.06,0.82,0.32,1.05c0.37,0.22,0.75,0.44,1.16,0.67c-0.35,0.2-0.67,0.38-0.98,0.57c-0.3,0.18-0.44,0.51-0.38,0.82
				c0.13,0.56,0.69,0.82,1.2,0.54c0.54-0.3,1.07-0.61,1.6-0.92c0.12-0.07,0.2-0.07,0.32,0c0.44,0.26,0.89,0.52,1.33,0.77
				c0.61,0.35,1.22,0.71,1.85,1.07c0,0.01,0,0.01,0,0.02c-0.06,0.04-0.11,0.07-0.15,0.1c-0.99,0.57-1.98,1.14-2.97,1.72
				c-0.12,0.07-0.21,0.07-0.33,0c-0.55-0.33-1.1-0.64-1.65-0.96c-0.32-0.18-0.7-0.13-0.95,0.11c-0.26,0.25-0.32,0.61-0.17,0.93
				c0.08,0.17,0.22,0.29,0.39,0.39c0.31,0.18,0.62,0.36,0.95,0.55c0,0,0,0,0,0.01c-0.43,0.25-0.83,0.47-1.22,0.7
				c-0.34,0.2-0.49,0.57-0.39,0.91c0.15,0.52,0.71,0.74,1.19,0.47c0.4-0.22,0.79-0.46,1.21-0.7c0.01,0,0.01,0,0.02,0.01
				c0,0.16,0,0.29,0,0.42c0,0.24,0,0.48,0,0.72c0,0.46,0.36,0.82,0.8,0.82c0.43,0,0.79-0.36,0.8-0.81c0.01-0.64,0.01-1.28,0-1.92
				c0-0.13,0.03-0.21,0.15-0.28c1.01-0.58,2.02-1.16,3.03-1.74c0.05-0.03,0.09-0.09,0.17-0.07c0,0.02,0.01,0.04,0.01,0.06
				c0,1.22,0,2.43,0,3.65c0,0.11-0.04,0.16-0.13,0.2c-0.56,0.32-1.12,0.64-1.67,0.97c-0.3,0.18-0.46,0.49-0.42,0.79
				c0.09,0.61,0.69,0.89,1.23,0.59c0.31-0.17,0.62-0.36,0.96-0.55c0.01,0,0.02,0.01,0.03,0.02c0,0.45,0,0.86,0,1.27
				c0,0.52,0.33,0.88,0.8,0.88c0.47,0,0.8-0.36,0.81-0.87c0-0.43,0-0.86,0-1.28c0.03-0.01,0.04-0.01,0.04-0.01
				c0.31,0.18,0.62,0.35,0.93,0.53c0.13,0.07,0.26,0.13,0.4,0.13c0.36,0.02,0.7-0.21,0.81-0.55c0.12-0.36-0.02-0.74-0.36-0.94
				c-0.56-0.33-1.12-0.66-1.69-0.98c-0.1-0.05-0.13-0.11-0.13-0.22c0.01-0.5,0-1,0-1.51c0-0.71,0-1.42,0-2.15
				c0,0,0.01-0.01,0.01-0.01c0.04,0.02,0.07,0.03,0.09,0.05c1.04,0.6,2.09,1.21,3.13,1.81c0.1,0.06,0.12,0.13,0.12,0.23
				c0,0.61,0,1.22,0,1.84c0,0.49,0.36,0.86,0.81,0.86c0.45-0.01,0.78-0.36,0.79-0.85c0-0.35,0-0.69,0-1.07c0,0,0,0,0,0
				c0.39,0.22,0.75,0.44,1.12,0.64c0.12,0.07,0.24,0.13,0.38,0.14c0.45,0.04,0.71-0.2,0.89-0.58c0-0.14,0-0.28,0-0.41
				c-0.03-0.25-0.18-0.42-0.39-0.54c-0.32-0.19-0.64-0.37-0.96-0.56c-0.05-0.03-0.12-0.04-0.12-0.1c0-0.06,0.07-0.08,0.12-0.1
				c0.27-0.16,0.55-0.31,0.82-0.48c0.37-0.23,0.51-0.63,0.37-1c-0.2-0.53-0.77-0.74-1.27-0.45c-0.53,0.31-1.06,0.6-1.59,0.92
				c-0.15,0.09-0.27,0.09-0.42,0c-0.29-0.17-0.58-0.34-0.87-0.51c-0.66-0.38-1.32-0.76-1.98-1.14c-0.18-0.1-0.17-0.12,0-0.22
				c0.24-0.14,0.49-0.28,0.73-0.42c0.73-0.42,1.46-0.84,2.19-1.27c0.14-0.08,0.25-0.08,0.38,0.01c0.16,0.11,0.34,0.21,0.52,0.3
				c0.36,0.2,0.71,0.42,1.07,0.62c0.44,0.24,0.94,0.11,1.17-0.29c0.24-0.43,0.11-0.91-0.32-1.18c-0.09-0.06-0.19-0.11-0.28-0.17
				c-0.2-0.12-0.41-0.24-0.62-0.36C112.99,63.24,113.07,63.21,113.13,63.18z"/>
		</g>
	</g>
	<g>
		<g>
			<path class="st0" d="M126.3,33.91h0.71l1.7,3.9h-0.97l-0.34-0.83h-1.52l-0.33,0.83h-0.95L126.3,33.91z M126.63,35.04l-0.47,1.21
				h0.95L126.63,35.04z"/>
			<path class="st0" d="M131.58,37.81h-0.79v-0.36h-0.01c-0.03,0.05-0.07,0.1-0.11,0.15c-0.05,0.05-0.1,0.1-0.17,0.14
				c-0.07,0.04-0.14,0.07-0.23,0.1c-0.08,0.03-0.18,0.04-0.28,0.04c-0.21,0-0.38-0.03-0.51-0.1c-0.13-0.06-0.23-0.15-0.3-0.27
				c-0.07-0.11-0.12-0.25-0.14-0.4c-0.02-0.15-0.04-0.32-0.04-0.5v-1.48h0.83v1.31c0,0.08,0,0.16,0.01,0.24
				c0.01,0.08,0.02,0.16,0.05,0.23c0.03,0.07,0.07,0.13,0.13,0.17c0.06,0.04,0.14,0.07,0.25,0.07c0.11,0,0.19-0.02,0.26-0.06
				c0.07-0.04,0.12-0.09,0.15-0.15c0.03-0.06,0.06-0.14,0.07-0.22c0.01-0.08,0.02-0.17,0.02-0.25v-1.33h0.83V37.81z"/>
			<path class="st0" d="M134.98,37.81h-0.76v-0.35h-0.01c-0.03,0.05-0.08,0.1-0.13,0.15c-0.05,0.05-0.12,0.09-0.19,0.14
				c-0.07,0.04-0.15,0.07-0.24,0.1c-0.09,0.03-0.18,0.04-0.27,0.04c-0.2,0-0.38-0.03-0.54-0.1c-0.16-0.07-0.3-0.16-0.42-0.29
				c-0.12-0.12-0.21-0.27-0.27-0.44c-0.06-0.17-0.09-0.35-0.09-0.56c0-0.19,0.03-0.37,0.09-0.54c0.06-0.17,0.14-0.32,0.24-0.45
				c0.1-0.13,0.23-0.24,0.38-0.32c0.15-0.08,0.32-0.12,0.51-0.12c0.17,0,0.33,0.03,0.48,0.08s0.27,0.14,0.37,0.27h0.01v-1.78h0.83
				V37.81z M134.21,36.47c0-0.2-0.06-0.37-0.17-0.49c-0.12-0.13-0.28-0.19-0.49-0.19s-0.37,0.06-0.49,0.19
				c-0.12,0.12-0.17,0.29-0.17,0.49c0,0.2,0.06,0.37,0.17,0.49c0.12,0.12,0.28,0.19,0.49,0.19s0.37-0.06,0.49-0.19
				C134.16,36.84,134.21,36.67,134.21,36.47z"/>
			<path class="st0" d="M135.58,34.29c0-0.13,0.05-0.25,0.14-0.34c0.09-0.09,0.21-0.14,0.34-0.14c0.13,0,0.25,0.05,0.34,0.14
				c0.09,0.09,0.14,0.21,0.14,0.34s-0.05,0.25-0.14,0.34c-0.09,0.09-0.21,0.14-0.34,0.14c-0.13,0-0.24-0.05-0.34-0.14
				C135.63,34.53,135.58,34.42,135.58,34.29z M135.65,35.13h0.83v2.68h-0.83V35.13z"/>
			<path class="st0" d="M136.97,36.47c0-0.21,0.04-0.41,0.12-0.58c0.08-0.17,0.18-0.32,0.32-0.44c0.13-0.12,0.29-0.22,0.47-0.28
				c0.18-0.07,0.38-0.1,0.58-0.1s0.4,0.03,0.58,0.1c0.18,0.07,0.34,0.16,0.47,0.28c0.13,0.12,0.24,0.27,0.32,0.44
				c0.08,0.17,0.12,0.37,0.12,0.58s-0.04,0.41-0.12,0.58c-0.08,0.17-0.18,0.32-0.32,0.44c-0.13,0.12-0.29,0.22-0.47,0.28
				c-0.18,0.07-0.38,0.1-0.58,0.1s-0.4-0.03-0.58-0.1c-0.18-0.07-0.34-0.16-0.47-0.28c-0.13-0.12-0.24-0.27-0.32-0.44
				C137.01,36.88,136.97,36.68,136.97,36.47z M137.8,36.47c0,0.2,0.06,0.37,0.17,0.49c0.12,0.12,0.28,0.19,0.49,0.19
				c0.21,0,0.37-0.06,0.49-0.19c0.12-0.13,0.17-0.29,0.17-0.49c0-0.2-0.06-0.37-0.17-0.49c-0.12-0.13-0.28-0.19-0.49-0.19
				c-0.21,0-0.37,0.06-0.49,0.19C137.86,36.11,137.8,36.27,137.8,36.47z"/>
			<path class="st0" d="M123.61,42.41h-0.32v-3.12h0.32V42.41z"/>
			<path class="st0" d="M124.63,40.34c0.01,0.06,0.01,0.11,0.01,0.17c0,0.05,0,0.11,0,0.17h0.01c0.03-0.06,0.07-0.11,0.12-0.15
				c0.05-0.05,0.11-0.09,0.17-0.12c0.06-0.03,0.13-0.06,0.2-0.08c0.07-0.02,0.14-0.03,0.2-0.03c0.26,0,0.46,0.07,0.59,0.21
				c0.13,0.14,0.19,0.34,0.19,0.6v1.31h-0.29v-1.14c0-0.23-0.04-0.4-0.12-0.53c-0.08-0.12-0.23-0.18-0.44-0.18
				c-0.01,0-0.06,0.01-0.12,0.02c-0.07,0.01-0.14,0.04-0.21,0.1c-0.07,0.05-0.14,0.13-0.2,0.24c-0.06,0.11-0.09,0.25-0.09,0.44v1.06
				h-0.29V40.8c0-0.06,0-0.13-0.01-0.21c0-0.09-0.01-0.17-0.02-0.24H124.63z"/>
			<path class="st0" d="M128.86,42.41h-0.29v-0.34h-0.01c-0.05,0.07-0.1,0.13-0.17,0.18s-0.13,0.09-0.2,0.12
				c-0.07,0.03-0.14,0.06-0.22,0.07c-0.07,0.01-0.15,0.02-0.21,0.02c-0.16,0-0.31-0.03-0.44-0.08c-0.13-0.05-0.25-0.13-0.35-0.23
				c-0.1-0.1-0.17-0.21-0.23-0.34c-0.05-0.13-0.08-0.28-0.08-0.43c0-0.16,0.03-0.3,0.08-0.43c0.05-0.13,0.13-0.25,0.23-0.34
				s0.21-0.17,0.35-0.23c0.13-0.05,0.28-0.08,0.44-0.08c0.07,0,0.14,0.01,0.21,0.02c0.07,0.01,0.15,0.04,0.22,0.07
				c0.07,0.03,0.14,0.07,0.2,0.12s0.12,0.11,0.17,0.18h0.01v-1.61h0.29V42.41z M126.98,41.38c0,0.11,0.02,0.22,0.06,0.32
				c0.04,0.1,0.09,0.19,0.16,0.26c0.07,0.07,0.15,0.13,0.24,0.17c0.1,0.04,0.2,0.06,0.32,0.06c0.12,0,0.23-0.02,0.33-0.06
				c0.1-0.04,0.19-0.1,0.26-0.17c0.07-0.07,0.13-0.16,0.17-0.26c0.04-0.1,0.06-0.21,0.06-0.32c0-0.11-0.02-0.22-0.06-0.32
				c-0.04-0.1-0.1-0.19-0.17-0.26c-0.07-0.07-0.16-0.13-0.26-0.17c-0.1-0.04-0.21-0.06-0.33-0.06c-0.12,0-0.23,0.02-0.32,0.06
				c-0.1,0.04-0.18,0.1-0.24,0.17c-0.07,0.07-0.12,0.16-0.16,0.26C126.99,41.15,126.98,41.26,126.98,41.38z"/>
			<path class="st0" d="M129.91,39.55c0,0.06-0.02,0.11-0.07,0.15c-0.04,0.04-0.09,0.06-0.15,0.06s-0.1-0.02-0.15-0.06
				c-0.04-0.04-0.07-0.09-0.07-0.15c0-0.06,0.02-0.11,0.07-0.15c0.04-0.04,0.09-0.06,0.15-0.06s0.1,0.02,0.15,0.06
				C129.89,39.44,129.91,39.49,129.91,39.55z M129.85,42.41h-0.29v-2.06h0.29V42.41z"/>
			<path class="st0" d="M131.46,42.41h-0.33l-0.84-2.06h0.34l0.66,1.74h0.01l0.66-1.74h0.33L131.46,42.41z"/>
			<path class="st0" d="M133.09,39.55c0,0.06-0.02,0.11-0.07,0.15c-0.04,0.04-0.09,0.06-0.15,0.06c-0.05,0-0.1-0.02-0.15-0.06
				c-0.04-0.04-0.07-0.09-0.07-0.15c0-0.06,0.02-0.11,0.07-0.15c0.04-0.04,0.09-0.06,0.15-0.06c0.05,0,0.1,0.02,0.15,0.06
				C133.07,39.44,133.09,39.49,133.09,39.55z M133.03,42.41h-0.29v-2.06h0.29V42.41z"/>
			<path class="st0" d="M135.78,42.41h-0.29v-0.34h-0.01c-0.05,0.07-0.1,0.13-0.17,0.18s-0.13,0.09-0.2,0.12
				c-0.07,0.03-0.14,0.06-0.22,0.07c-0.07,0.01-0.15,0.02-0.21,0.02c-0.16,0-0.31-0.03-0.44-0.08c-0.13-0.05-0.25-0.13-0.35-0.23
				c-0.1-0.1-0.17-0.21-0.23-0.34c-0.05-0.13-0.08-0.28-0.08-0.43c0-0.16,0.03-0.3,0.08-0.43c0.05-0.13,0.13-0.25,0.23-0.34
				s0.21-0.17,0.35-0.23c0.13-0.05,0.28-0.08,0.44-0.08c0.07,0,0.14,0.01,0.21,0.02c0.07,0.01,0.15,0.04,0.22,0.07
				c0.07,0.03,0.14,0.07,0.2,0.12s0.12,0.11,0.17,0.18h0.01v-1.61h0.29V42.41z M133.9,41.38c0,0.11,0.02,0.22,0.06,0.32
				c0.04,0.1,0.09,0.19,0.16,0.26c0.07,0.07,0.15,0.13,0.24,0.17s0.2,0.06,0.32,0.06c0.12,0,0.23-0.02,0.33-0.06
				c0.1-0.04,0.19-0.1,0.26-0.17c0.07-0.07,0.13-0.16,0.17-0.26c0.04-0.1,0.06-0.21,0.06-0.32c0-0.11-0.02-0.22-0.06-0.32
				c-0.04-0.1-0.1-0.19-0.17-0.26c-0.07-0.07-0.16-0.13-0.26-0.17c-0.1-0.04-0.21-0.06-0.33-0.06c-0.12,0-0.23,0.02-0.32,0.06
				c-0.1,0.04-0.18,0.1-0.24,0.17c-0.07,0.07-0.12,0.16-0.16,0.26C133.92,41.15,133.9,41.26,133.9,41.38z"/>
			<path class="st0" d="M137.91,42.41c-0.01-0.06-0.01-0.11-0.01-0.17c0-0.05,0-0.11,0-0.17h-0.01c-0.03,0.06-0.07,0.11-0.12,0.15
				c-0.05,0.05-0.11,0.09-0.17,0.12c-0.06,0.03-0.13,0.06-0.2,0.08c-0.07,0.02-0.14,0.03-0.2,0.03c-0.26,0-0.46-0.07-0.59-0.21
				c-0.13-0.14-0.19-0.34-0.19-0.6v-1.31h0.29v1.14c0,0.11,0.01,0.22,0.03,0.3c0.02,0.09,0.05,0.16,0.09,0.22
				c0.04,0.06,0.1,0.11,0.17,0.14c0.07,0.03,0.16,0.05,0.27,0.05c0.01,0,0.06-0.01,0.12-0.02c0.07-0.01,0.14-0.04,0.21-0.1
				c0.07-0.05,0.14-0.13,0.2-0.24c0.06-0.11,0.09-0.25,0.09-0.44v-1.06h0.29v1.61c0,0.06,0,0.13,0.01,0.21
				c0,0.09,0.01,0.17,0.02,0.24H137.91z"/>
			<path class="st0" d="M140.19,41.14v-0.05c0-0.36-0.18-0.53-0.53-0.53c-0.24,0-0.45,0.08-0.63,0.24l-0.18-0.21
				c0.19-0.2,0.48-0.3,0.87-0.3c0.1,0,0.2,0.01,0.29,0.04c0.09,0.03,0.17,0.07,0.24,0.13c0.07,0.06,0.12,0.14,0.16,0.23
				c0.04,0.09,0.06,0.2,0.06,0.33v0.92c0,0.08,0,0.16,0.01,0.25c0.01,0.09,0.02,0.16,0.02,0.21h-0.28c-0.01-0.05-0.02-0.1-0.02-0.16
				c0-0.06-0.01-0.12-0.01-0.17h-0.01c-0.09,0.14-0.19,0.24-0.3,0.3c-0.12,0.06-0.26,0.09-0.42,0.09c-0.09,0-0.18-0.01-0.26-0.04
				c-0.08-0.03-0.16-0.06-0.23-0.11c-0.07-0.05-0.12-0.11-0.16-0.19c-0.04-0.07-0.06-0.16-0.06-0.26c0-0.17,0.04-0.3,0.13-0.39
				s0.2-0.17,0.33-0.21c0.13-0.05,0.27-0.08,0.42-0.09c0.15-0.01,0.28-0.02,0.41-0.02H140.19z M140.04,41.38
				c-0.07,0-0.17,0-0.28,0.01s-0.22,0.03-0.32,0.05c-0.1,0.03-0.19,0.07-0.26,0.13c-0.07,0.06-0.11,0.14-0.11,0.24
				c0,0.07,0.01,0.13,0.04,0.17c0.03,0.05,0.07,0.09,0.11,0.12c0.05,0.03,0.1,0.05,0.16,0.07c0.06,0.01,0.11,0.02,0.17,0.02
				c0.11,0,0.2-0.02,0.28-0.05c0.08-0.03,0.14-0.08,0.2-0.14c0.05-0.06,0.09-0.13,0.12-0.21c0.02-0.08,0.04-0.17,0.04-0.26v-0.15
				H140.04z"/>
			<path class="st0" d="M141.51,42.41h-0.29v-3.33h0.29V42.41z"/>
		</g>
		<g>
			<g>
				<path class="st0" d="M143.97,12.88h0.39c0.19,0,0.34,0.15,0.34,0.34v4.75c0,0.19-0.15,0.34-0.34,0.34h-0.39
					c-0.19,0-0.34-0.15-0.34-0.34v-4.75C143.63,13.03,143.78,12.88,143.97,12.88z"/>
				<path class="st0" d="M142.35,13.47h0.39c0.19,0,0.34,0.15,0.34,0.34v3.56c0,0.19-0.15,0.34-0.34,0.34h-0.39
					c-0.19,0-0.34-0.15-0.34-0.34v-3.56C142.01,13.62,142.16,13.47,142.35,13.47z"/>
				<path class="st0" d="M140.73,14.12h0.39c0.19,0,0.34,0.15,0.34,0.34v2.27c0,0.19-0.15,0.34-0.34,0.34h-0.39
					c-0.19,0-0.34-0.15-0.34-0.34v-2.27C140.39,14.27,140.54,14.12,140.73,14.12z"/>
			</g>
			<g>
				<path class="st0" d="M120.8,9.8h-0.39c-0.19,0-0.34,0.15-0.34,0.34v4.75c0,0.19,0.15,0.34,0.34,0.34h0.39
					c0.19,0,0.34-0.15,0.34-0.34v-4.75C121.14,9.95,120.98,9.8,120.8,9.8z"/>
				<path class="st0" d="M122.42,10.39h-0.39c-0.19,0-0.34,0.15-0.34,0.34v3.56c0,0.19,0.15,0.34,0.34,0.34h0.39
					c0.19,0,0.34-0.15,0.34-0.34v-3.56C122.76,10.54,122.61,10.39,122.42,10.39z"/>
				<path class="st0" d="M124.04,11.04h-0.39c-0.19,0-0.34,0.15-0.34,0.34v2.27c0,0.19,0.15,0.34,0.34,0.34h0.39
					c0.19,0,0.34-0.15,0.34-0.34v-2.27C124.38,11.19,124.23,11.04,124.04,11.04z"/>
			</g>
			<g>
				<g>
					<path class="st0" d="M130.59,31.13L130.59,31.13c0.29,0,0.53,0.29,0.53,0V16.52c0-0.29-0.24-0.53-0.53-0.53l0,0
						c-0.29,0-0.53,0.24-0.53,0.53v14.61C130.05,31.42,130.29,31.13,130.59,31.13z"/>
					<path class="st6" d="M126.59,16.77h0.99c0.47,0,0.85-0.38,0.85-0.85V8.53c0-0.47-0.38-0.85-0.85-0.85l-0.99,0
						c-0.47,0-0.85,0.38-0.85,0.85v7.39C125.73,16.38,126.11,16.77,126.59,16.77z"/>
					<path class="st0" d="M129.98,22.46h1.08c0.52,0,0.94-0.42,0.94-0.94v-9.39c0-0.52-0.42-0.94-0.94-0.94h-1.08
						c-0.52,0-0.94,0.42-0.94,0.94v9.39C129.04,22.04,129.46,22.46,129.98,22.46z"/>
					<g>
						<path class="st0" d="M128.87,8.74c-0.21,0-0.42,0.03-0.62,0.06v6.96c0,0,0,0,0,0c0.2,0.04,0.41,0.06,0.62,0.06
							c1.98,0,3.59-1.59,3.59-3.54S130.85,8.74,128.87,8.74z"/>
					</g>
				</g>
				<g>
					<path class="st0" d="M134.61,31.13L134.61,31.13c-0.29,0-0.53,0.29-0.53,0V19.9c0-0.29,0.24-0.53,0.53-0.53l0,0
						c0.29,0,0.53,0.24,0.53,0.53v11.23C135.14,31.42,134.9,31.13,134.61,31.13z"/>
					<path class="st6" d="M138.61,20.15h-0.99c-0.47,0-0.85-0.38-0.85-0.85v-7.39c0-0.47,0.38-0.85,0.85-0.85h0.99
						c0.47,0,0.85,0.38,0.85,0.85v7.39C139.46,19.77,139.08,20.15,138.61,20.15z"/>
					<path class="st0" d="M135.21,25.84h-1.08c-0.52,0-0.94-0.42-0.94-0.94v-9.39c0-0.52,0.42-0.94,0.94-0.94h1.08
						c0.52,0,0.94,0.42,0.94,0.94v9.39C136.15,25.42,135.73,25.84,135.21,25.84z"/>
					<g>
						<path class="st0" d="M136.33,12.12c0.21,0,0.42,0.03,0.62,0.06v6.96c0,0,0,0,0,0c-0.2,0.04-0.41,0.06-0.62,0.06
							c-1.98,0-3.59-1.59-3.59-3.54S134.34,12.12,136.33,12.12z"/>
					</g>
				</g>
			</g>
		</g>
	</g>
	<g>
		<g>
			<path class="st0" d="M60.78,80.61h0.94l0.62,2.5h0.01l0.82-2.5h0.8l0.81,2.57h0.01l0.66-2.57h0.87l-1.14,3.9H64.4l-0.86-2.7
				h-0.01l-0.86,2.7h-0.74L60.78,80.61z"/>
			<path class="st0" d="M69.25,81.63c-0.08-0.1-0.19-0.18-0.31-0.24c-0.12-0.06-0.27-0.08-0.43-0.08c-0.16,0-0.31,0.03-0.45,0.09
				c-0.14,0.06-0.26,0.15-0.36,0.26c-0.1,0.11-0.18,0.25-0.24,0.4c-0.06,0.15-0.09,0.32-0.09,0.5c0,0.18,0.03,0.35,0.09,0.5
				c0.06,0.15,0.14,0.28,0.23,0.4c0.1,0.11,0.22,0.2,0.35,0.26c0.13,0.06,0.28,0.09,0.43,0.09c0.18,0,0.33-0.04,0.47-0.11
				c0.14-0.07,0.25-0.18,0.34-0.31l0.72,0.53c-0.17,0.23-0.38,0.4-0.63,0.51c-0.25,0.11-0.51,0.17-0.78,0.17
				c-0.31,0-0.59-0.05-0.84-0.14c-0.26-0.1-0.48-0.23-0.67-0.41c-0.19-0.18-0.33-0.39-0.44-0.65c-0.1-0.25-0.16-0.54-0.16-0.85
				c0-0.31,0.05-0.6,0.16-0.85c0.1-0.25,0.25-0.47,0.44-0.65c0.19-0.18,0.41-0.32,0.67-0.41c0.26-0.1,0.54-0.14,0.84-0.14
				c0.11,0,0.23,0.01,0.34,0.03c0.12,0.02,0.24,0.05,0.35,0.1c0.12,0.04,0.23,0.1,0.33,0.18c0.11,0.07,0.2,0.16,0.29,0.27
				L69.25,81.63z"/>
			<path class="st0" d="M57.83,86.51c-0.14-0.2-0.34-0.3-0.6-0.3c-0.08,0-0.16,0.01-0.24,0.03c-0.08,0.02-0.15,0.06-0.21,0.1
				c-0.06,0.05-0.11,0.1-0.15,0.18c-0.04,0.07-0.06,0.16-0.06,0.25c0,0.14,0.04,0.25,0.12,0.33c0.08,0.08,0.18,0.14,0.29,0.19
				s0.25,0.09,0.39,0.13c0.14,0.04,0.27,0.09,0.39,0.16c0.12,0.07,0.22,0.15,0.29,0.26c0.08,0.11,0.12,0.26,0.12,0.44
				c0,0.14-0.03,0.27-0.09,0.38c-0.06,0.11-0.14,0.21-0.24,0.28c-0.1,0.08-0.21,0.14-0.33,0.18c-0.12,0.04-0.24,0.06-0.37,0.06
				c-0.19,0-0.37-0.04-0.54-0.11c-0.17-0.07-0.32-0.19-0.44-0.35l0.29-0.21c0.07,0.11,0.16,0.21,0.28,0.28
				c0.12,0.07,0.26,0.1,0.43,0.1c0.08,0,0.16-0.01,0.24-0.04c0.08-0.03,0.15-0.06,0.21-0.11c0.06-0.05,0.11-0.11,0.16-0.18
				c0.04-0.07,0.06-0.15,0.06-0.24c0-0.11-0.02-0.2-0.07-0.27c-0.05-0.07-0.11-0.13-0.18-0.18c-0.07-0.05-0.16-0.09-0.26-0.12
				c-0.1-0.03-0.19-0.06-0.3-0.1c-0.1-0.03-0.2-0.07-0.29-0.11c-0.1-0.04-0.18-0.09-0.26-0.16c-0.07-0.06-0.14-0.14-0.18-0.24
				c-0.05-0.1-0.07-0.21-0.07-0.36c0-0.15,0.03-0.28,0.09-0.39c0.06-0.11,0.13-0.2,0.23-0.28c0.1-0.07,0.2-0.13,0.32-0.16
				c0.12-0.04,0.24-0.05,0.37-0.05c0.18,0,0.34,0.03,0.48,0.08c0.14,0.06,0.28,0.15,0.4,0.3L57.83,86.51z"/>
			<path class="st0" d="M60.02,87.85V87.8c0-0.36-0.18-0.53-0.53-0.53c-0.24,0-0.45,0.08-0.63,0.24l-0.18-0.21
				c0.19-0.2,0.48-0.3,0.87-0.3c0.1,0,0.2,0.01,0.29,0.04c0.09,0.03,0.17,0.07,0.24,0.13c0.07,0.06,0.12,0.14,0.16,0.23
				c0.04,0.09,0.06,0.2,0.06,0.33v0.92c0,0.08,0,0.16,0.01,0.25c0.01,0.09,0.02,0.16,0.02,0.21h-0.28c-0.01-0.05-0.02-0.1-0.02-0.16
				c0-0.06-0.01-0.12-0.01-0.17h-0.01c-0.09,0.14-0.19,0.24-0.3,0.3c-0.12,0.06-0.26,0.09-0.42,0.09c-0.09,0-0.18-0.01-0.26-0.04
				c-0.08-0.03-0.16-0.06-0.23-0.11c-0.07-0.05-0.12-0.11-0.16-0.19c-0.04-0.07-0.06-0.16-0.06-0.26c0-0.17,0.04-0.3,0.13-0.39
				c0.09-0.1,0.2-0.17,0.33-0.21c0.13-0.05,0.27-0.08,0.42-0.09c0.15-0.01,0.28-0.02,0.41-0.02H60.02z M59.87,88.09
				c-0.07,0-0.17,0-0.28,0.01s-0.22,0.03-0.32,0.05c-0.1,0.03-0.19,0.07-0.26,0.13c-0.07,0.06-0.11,0.14-0.11,0.24
				c0,0.07,0.01,0.13,0.04,0.17s0.07,0.09,0.11,0.12c0.05,0.03,0.1,0.05,0.16,0.07c0.06,0.01,0.11,0.02,0.17,0.02
				c0.11,0,0.2-0.02,0.28-0.05c0.08-0.03,0.14-0.08,0.2-0.14c0.05-0.06,0.09-0.13,0.12-0.21c0.02-0.08,0.04-0.17,0.04-0.26v-0.15
				H59.87z"/>
			<path class="st0" d="M61.26,87.05c0.01,0.06,0.01,0.11,0.01,0.17c0,0.05,0,0.11,0,0.17h0.01c0.03-0.06,0.07-0.11,0.12-0.15
				c0.05-0.05,0.11-0.09,0.17-0.12c0.06-0.03,0.13-0.06,0.2-0.08c0.07-0.02,0.14-0.03,0.2-0.03c0.26,0,0.46,0.07,0.59,0.21
				c0.13,0.14,0.19,0.34,0.19,0.6v1.31h-0.29v-1.14c0-0.23-0.04-0.4-0.12-0.53c-0.08-0.12-0.23-0.18-0.44-0.18
				c-0.01,0-0.06,0.01-0.12,0.02c-0.07,0.01-0.14,0.04-0.21,0.1s-0.14,0.13-0.2,0.24c-0.06,0.11-0.09,0.25-0.09,0.44v1.06h-0.29
				v-1.61c0-0.06,0-0.13-0.01-0.21s-0.01-0.17-0.02-0.24H61.26z"/>
			<path class="st0" d="M63.86,86.26c0,0.06-0.02,0.11-0.07,0.15c-0.04,0.04-0.09,0.06-0.15,0.06c-0.05,0-0.1-0.02-0.15-0.06
				c-0.04-0.04-0.07-0.09-0.07-0.15c0-0.06,0.02-0.11,0.07-0.15c0.04-0.04,0.09-0.06,0.15-0.06c0.05,0,0.1,0.02,0.15,0.06
				C63.84,86.15,63.86,86.2,63.86,86.26z M63.79,89.11H63.5v-2.06h0.29V89.11z"/>
			<path class="st0" d="M65.56,87.32h-0.59v1.22c0,0.08,0.01,0.14,0.02,0.19s0.03,0.09,0.06,0.11c0.03,0.03,0.06,0.04,0.09,0.06
				c0.04,0.01,0.08,0.02,0.12,0.02c0.05,0,0.1-0.01,0.15-0.02c0.05-0.01,0.1-0.03,0.15-0.06l0.01,0.27
				c-0.11,0.05-0.24,0.07-0.39,0.07c-0.06,0-0.11-0.01-0.17-0.02s-0.12-0.04-0.17-0.08c-0.05-0.04-0.09-0.1-0.12-0.17
				c-0.03-0.07-0.05-0.16-0.05-0.28v-1.3h-0.44v-0.26h0.44v-0.58h0.29v0.58h0.59V87.32z"/>
			<path class="st0" d="M67.28,87.85V87.8c0-0.36-0.18-0.53-0.53-0.53c-0.24,0-0.45,0.08-0.63,0.24l-0.18-0.21
				c0.19-0.2,0.48-0.3,0.87-0.3c0.1,0,0.2,0.01,0.29,0.04c0.09,0.03,0.17,0.07,0.24,0.13c0.07,0.06,0.12,0.14,0.16,0.23
				c0.04,0.09,0.06,0.2,0.06,0.33v0.92c0,0.08,0,0.16,0.01,0.25c0.01,0.09,0.02,0.16,0.02,0.21h-0.28c-0.01-0.05-0.02-0.1-0.02-0.16
				c0-0.06-0.01-0.12-0.01-0.17h-0.01c-0.09,0.14-0.19,0.24-0.3,0.3c-0.12,0.06-0.26,0.09-0.42,0.09c-0.09,0-0.18-0.01-0.26-0.04
				c-0.08-0.03-0.16-0.06-0.23-0.11c-0.07-0.05-0.12-0.11-0.16-0.19c-0.04-0.07-0.06-0.16-0.06-0.26c0-0.17,0.04-0.3,0.13-0.39
				c0.09-0.1,0.2-0.17,0.33-0.21c0.13-0.05,0.27-0.08,0.42-0.09c0.15-0.01,0.28-0.02,0.41-0.02H67.28z M67.13,88.09
				c-0.07,0-0.17,0-0.28,0.01s-0.22,0.03-0.32,0.05c-0.1,0.03-0.19,0.07-0.26,0.13c-0.07,0.06-0.11,0.14-0.11,0.24
				c0,0.07,0.01,0.13,0.04,0.17c0.03,0.05,0.07,0.09,0.11,0.12c0.05,0.03,0.1,0.05,0.16,0.07c0.06,0.01,0.11,0.02,0.17,0.02
				c0.11,0,0.2-0.02,0.28-0.05c0.08-0.03,0.14-0.08,0.2-0.14c0.05-0.06,0.09-0.13,0.12-0.21c0.02-0.08,0.04-0.17,0.04-0.26v-0.15
				H67.13z"/>
			<path class="st0" d="M68.27,87.69c0-0.09,0-0.18-0.01-0.28c0-0.09-0.01-0.22-0.01-0.37h0.29v0.38h0.01
				c0.02-0.06,0.05-0.11,0.09-0.16c0.04-0.05,0.08-0.1,0.14-0.14c0.05-0.04,0.12-0.07,0.19-0.1c0.07-0.03,0.15-0.04,0.24-0.04
				c0.08,0,0.15,0.01,0.22,0.03l-0.06,0.29c-0.04-0.01-0.09-0.02-0.17-0.02c-0.11,0-0.21,0.02-0.29,0.06
				c-0.08,0.04-0.15,0.1-0.2,0.16c-0.05,0.07-0.09,0.14-0.12,0.21c-0.03,0.08-0.04,0.15-0.04,0.22v1.16h-0.29V87.69z"/>
			<path class="st0" d="M70.13,86.26c0,0.06-0.02,0.11-0.07,0.15c-0.04,0.04-0.09,0.06-0.15,0.06c-0.05,0-0.1-0.02-0.15-0.06
				c-0.04-0.04-0.07-0.09-0.07-0.15c0-0.06,0.02-0.11,0.07-0.15c0.04-0.04,0.09-0.06,0.15-0.06c0.05,0,0.1,0.02,0.15,0.06
				C70.1,86.15,70.13,86.2,70.13,86.26z M70.06,89.11h-0.29v-2.06h0.29V89.11z"/>
			<path class="st0" d="M72.84,88.08c0,0.16-0.03,0.3-0.08,0.43c-0.05,0.13-0.13,0.25-0.23,0.34s-0.21,0.17-0.35,0.23
				c-0.13,0.05-0.28,0.08-0.44,0.08c-0.16,0-0.3-0.03-0.44-0.08c-0.13-0.05-0.25-0.13-0.35-0.23s-0.17-0.21-0.23-0.34
				c-0.05-0.13-0.08-0.28-0.08-0.43c0-0.16,0.03-0.3,0.08-0.43c0.05-0.13,0.13-0.25,0.23-0.34s0.21-0.17,0.35-0.23
				c0.13-0.05,0.28-0.08,0.44-0.08c0.16,0,0.31,0.03,0.44,0.08c0.13,0.05,0.25,0.13,0.35,0.23s0.17,0.21,0.23,0.34
				C72.82,87.78,72.84,87.93,72.84,88.08z M72.53,88.08c0-0.11-0.02-0.22-0.05-0.32c-0.04-0.1-0.09-0.19-0.16-0.26
				c-0.07-0.07-0.15-0.13-0.24-0.17c-0.1-0.04-0.2-0.06-0.32-0.06c-0.12,0-0.23,0.02-0.32,0.06c-0.1,0.04-0.18,0.1-0.24,0.17
				c-0.07,0.07-0.12,0.16-0.15,0.26c-0.04,0.1-0.05,0.21-0.05,0.32c0,0.11,0.02,0.22,0.05,0.32c0.04,0.1,0.09,0.19,0.15,0.26
				c0.07,0.07,0.15,0.13,0.24,0.17c0.1,0.04,0.2,0.06,0.32,0.06c0.12,0,0.23-0.02,0.32-0.06c0.1-0.04,0.18-0.1,0.24-0.17
				c0.07-0.07,0.12-0.16,0.16-0.26C72.51,88.3,72.53,88.2,72.53,88.08z"/>
			<path class="st0" d="M74.46,87.54c-0.04-0.08-0.1-0.15-0.18-0.2c-0.07-0.05-0.16-0.07-0.27-0.07c-0.05,0-0.1,0.01-0.15,0.02
				c-0.05,0.01-0.1,0.03-0.14,0.06c-0.04,0.03-0.07,0.06-0.1,0.09c-0.03,0.04-0.04,0.09-0.04,0.14c0,0.1,0.03,0.17,0.1,0.21
				c0.07,0.04,0.17,0.08,0.3,0.11l0.3,0.07c0.14,0.03,0.26,0.1,0.36,0.2c0.1,0.1,0.14,0.22,0.14,0.37c0,0.11-0.02,0.21-0.07,0.29
				c-0.05,0.08-0.11,0.15-0.18,0.2c-0.07,0.05-0.16,0.09-0.26,0.11c-0.1,0.02-0.2,0.04-0.29,0.04c-0.16,0-0.31-0.03-0.44-0.09
				s-0.25-0.16-0.35-0.31l0.25-0.17c0.06,0.09,0.13,0.17,0.22,0.22c0.09,0.06,0.2,0.08,0.32,0.08c0.06,0,0.12-0.01,0.18-0.02
				c0.06-0.01,0.11-0.03,0.16-0.06c0.05-0.03,0.08-0.06,0.11-0.11c0.03-0.04,0.04-0.1,0.04-0.15c0-0.1-0.04-0.18-0.11-0.22
				c-0.08-0.05-0.17-0.08-0.28-0.11l-0.28-0.07c-0.04-0.01-0.08-0.02-0.14-0.04c-0.06-0.02-0.12-0.05-0.18-0.09
				s-0.11-0.09-0.15-0.16c-0.04-0.07-0.06-0.15-0.06-0.24c0-0.11,0.02-0.2,0.06-0.28c0.04-0.08,0.1-0.14,0.17-0.19
				c0.07-0.05,0.15-0.09,0.24-0.11c0.09-0.03,0.18-0.04,0.28-0.04c0.14,0,0.28,0.03,0.4,0.08c0.12,0.06,0.22,0.15,0.29,0.29
				L74.46,87.54z"/>
		</g>
		<g>
			<g>
				<path class="st0" d="M71.36,62.73l-3.94,5.95c-0.48,0.73,0.04,1.7,0.91,1.7h7.89c0.87,0,1.39-0.97,0.91-1.7l-3.94-5.95
					C72.75,62.08,71.79,62.08,71.36,62.73z"/>
				<circle class="st0" cx="72.27" cy="58.49" r="2.82"/>
				<g>
					<path class="st0" d="M70.9,76.69h-0.72c-0.34,0-0.62-0.28-0.62-0.62v-4.64c0-0.34,0.28-0.62,0.62-0.62h0.72
						c0.34,0,0.62,0.28,0.62,0.62v4.64C71.52,76.41,71.24,76.69,70.9,76.69z"/>
					<path class="st0" d="M74.35,76.69h-0.72c-0.34,0-0.62-0.28-0.62-0.62v-4.64c0-0.34,0.28-0.62,0.62-0.62h0.72
						c0.34,0,0.62,0.28,0.62,0.62v4.64C74.97,76.41,74.69,76.69,74.35,76.69z"/>
				</g>
			</g>
			<g>
				<circle class="st0" cx="57.77" cy="58.84" r="2.82"/>
				<g>
					<path class="st0" d="M56.4,76.69h-0.72c-0.34,0-0.62-0.28-0.62-0.62v-4.64c0-0.34,0.28-0.62,0.62-0.62h0.72
						c0.34,0,0.62,0.28,0.62,0.62v4.64C57.02,76.41,56.74,76.69,56.4,76.69z"/>
					<path class="st0" d="M59.85,76.69h-0.72c-0.34,0-0.62-0.28-0.62-0.62v-4.64c0-0.34,0.28-0.62,0.62-0.62h0.72
						c0.34,0,0.62,0.28,0.62,0.62v4.64C60.47,76.41,60.19,76.69,59.85,76.69z"/>
				</g>
				<path class="st0" d="M60.11,70.67l-4.93-0.07c-0.49-0.01-0.9-0.55-0.96-1.27l-1.17-5.9c-0.07-0.87,0.4-1.64,1-1.64l7.46,0.09
					c0.6,0.01,1.06,0.81,0.95,1.68l-1.36,5.89C61.02,70.16,60.6,70.68,60.11,70.67z"/>
			</g>
			<path class="st0" d="M64.75,55.66h0.54c0.26,0,0.47,0.21,0.47,0.47v20.1c0,0.26-0.21,0.47-0.47,0.47h-0.54
				c-0.26,0-0.47-0.21-0.47-0.47v-20.1C64.28,55.86,64.49,55.66,64.75,55.66z"/>
		</g>
	</g>
	<g>
		<g>
			<path class="st0" d="M8.36,81.63c-0.08-0.1-0.19-0.18-0.31-0.24c-0.12-0.06-0.27-0.08-0.43-0.08c-0.16,0-0.31,0.03-0.45,0.09
				c-0.14,0.06-0.26,0.15-0.36,0.26c-0.1,0.11-0.18,0.25-0.24,0.4s-0.09,0.32-0.09,0.5c0,0.18,0.03,0.35,0.09,0.5
				s0.14,0.28,0.23,0.4c0.1,0.11,0.22,0.2,0.35,0.26c0.13,0.06,0.28,0.09,0.43,0.09c0.18,0,0.33-0.04,0.47-0.11
				c0.14-0.07,0.25-0.18,0.34-0.31l0.72,0.53c-0.17,0.23-0.38,0.4-0.63,0.51c-0.25,0.11-0.51,0.17-0.78,0.17
				c-0.31,0-0.59-0.05-0.84-0.14c-0.26-0.1-0.48-0.23-0.67-0.41c-0.19-0.18-0.33-0.39-0.44-0.65c-0.1-0.25-0.16-0.54-0.16-0.85
				c0-0.31,0.05-0.6,0.16-0.85c0.1-0.25,0.25-0.47,0.44-0.65c0.19-0.18,0.41-0.32,0.67-0.41c0.26-0.1,0.54-0.14,0.84-0.14
				c0.11,0,0.23,0.01,0.34,0.03c0.12,0.02,0.24,0.05,0.35,0.1c0.12,0.04,0.23,0.1,0.33,0.18c0.11,0.07,0.2,0.16,0.29,0.27
				L8.36,81.63z"/>
			<path class="st0" d="M9.38,83.18c0-0.21,0.04-0.41,0.12-0.58c0.08-0.17,0.18-0.32,0.32-0.44c0.13-0.12,0.29-0.22,0.47-0.28
				c0.18-0.07,0.38-0.1,0.58-0.1s0.4,0.03,0.58,0.1c0.18,0.07,0.34,0.16,0.47,0.28c0.13,0.12,0.24,0.27,0.32,0.44
				c0.08,0.17,0.12,0.37,0.12,0.58s-0.04,0.41-0.12,0.58c-0.08,0.17-0.18,0.32-0.32,0.44c-0.13,0.12-0.29,0.22-0.47,0.28
				c-0.18,0.07-0.38,0.1-0.58,0.1s-0.4-0.03-0.58-0.1c-0.18-0.07-0.34-0.16-0.47-0.28c-0.13-0.12-0.24-0.27-0.32-0.44
				C9.42,83.58,9.38,83.39,9.38,83.18z M10.21,83.18c0,0.2,0.06,0.37,0.17,0.49c0.12,0.12,0.28,0.19,0.49,0.19s0.37-0.06,0.49-0.19
				c0.12-0.13,0.17-0.29,0.17-0.49c0-0.2-0.06-0.37-0.17-0.49c-0.12-0.13-0.28-0.19-0.49-0.19s-0.37,0.06-0.49,0.19
				C10.27,82.81,10.21,82.98,10.21,83.18z"/>
			<path class="st0" d="M12.84,81.84h0.79v0.36h0.01c0.03-0.05,0.06-0.1,0.11-0.15c0.05-0.05,0.11-0.1,0.17-0.14
				c0.07-0.04,0.14-0.07,0.23-0.1c0.08-0.03,0.18-0.04,0.28-0.04c0.21,0,0.38,0.03,0.51,0.1c0.13,0.06,0.23,0.15,0.3,0.27
				c0.07,0.11,0.12,0.25,0.15,0.4c0.03,0.15,0.04,0.32,0.04,0.5v1.48H14.6v-1.31c0-0.08,0-0.16-0.01-0.24
				c-0.01-0.08-0.02-0.16-0.05-0.23c-0.03-0.07-0.07-0.13-0.13-0.17c-0.06-0.04-0.14-0.07-0.25-0.07c-0.11,0-0.19,0.02-0.26,0.06
				c-0.07,0.04-0.12,0.09-0.15,0.15c-0.04,0.06-0.06,0.14-0.07,0.22c-0.01,0.08-0.02,0.17-0.02,0.25v1.33h-0.83V81.84z"/>
			<path class="st0" d="M18.54,84.05c-0.13,0.17-0.3,0.3-0.5,0.39c-0.2,0.09-0.41,0.14-0.63,0.14c-0.21,0-0.4-0.03-0.58-0.1
				c-0.18-0.07-0.34-0.16-0.47-0.28c-0.13-0.12-0.24-0.27-0.32-0.44c-0.08-0.17-0.12-0.37-0.12-0.58s0.04-0.41,0.12-0.58
				c0.08-0.17,0.18-0.32,0.32-0.44c0.13-0.12,0.29-0.22,0.47-0.28c0.18-0.07,0.38-0.1,0.58-0.1c0.19,0,0.36,0.03,0.52,0.1
				c0.16,0.07,0.29,0.16,0.4,0.28c0.11,0.12,0.19,0.27,0.25,0.44c0.06,0.17,0.09,0.37,0.09,0.58v0.26h-1.92
				c0.03,0.16,0.11,0.28,0.21,0.38c0.11,0.09,0.25,0.14,0.41,0.14c0.14,0,0.25-0.03,0.34-0.09c0.09-0.06,0.18-0.14,0.25-0.23
				L18.54,84.05z M17.84,82.87c0-0.14-0.04-0.26-0.14-0.36c-0.1-0.1-0.22-0.15-0.37-0.15c-0.09,0-0.17,0.01-0.24,0.04
				c-0.07,0.03-0.13,0.07-0.18,0.11c-0.05,0.05-0.09,0.1-0.12,0.16c-0.03,0.06-0.04,0.12-0.05,0.19H17.84z"/>
			<path class="st0" d="M19.9,83.08L19,81.84h0.98l0.47,0.73l0.46-0.73h0.92l-0.87,1.25l1.03,1.43h-0.98l-0.58-0.89l-0.63,0.89
				h-0.96L19.9,83.08z"/>
			<path class="st0" d="M22.18,80.99c0-0.13,0.05-0.25,0.14-0.34c0.09-0.09,0.21-0.14,0.34-0.14c0.13,0,0.25,0.05,0.34,0.14
				c0.09,0.09,0.14,0.21,0.14,0.34S23.1,81.24,23,81.33c-0.09,0.09-0.21,0.14-0.34,0.14c-0.13,0-0.25-0.05-0.34-0.14
				C22.23,81.24,22.18,81.13,22.18,80.99z M22.25,81.84h0.83v2.68h-0.83V81.84z"/>
			<path class="st0" d="M23.57,83.18c0-0.21,0.04-0.41,0.12-0.58c0.08-0.17,0.18-0.32,0.32-0.44c0.13-0.12,0.29-0.22,0.47-0.28
				c0.18-0.07,0.38-0.1,0.58-0.1s0.4,0.03,0.58,0.1c0.18,0.07,0.34,0.16,0.47,0.28c0.13,0.12,0.24,0.27,0.32,0.44
				c0.08,0.17,0.12,0.37,0.12,0.58s-0.04,0.41-0.12,0.58s-0.18,0.32-0.32,0.44c-0.13,0.12-0.29,0.22-0.47,0.28
				c-0.18,0.07-0.38,0.1-0.58,0.1s-0.4-0.03-0.58-0.1c-0.18-0.07-0.34-0.16-0.47-0.28c-0.13-0.12-0.24-0.27-0.32-0.44
				S23.57,83.39,23.57,83.18z M24.4,83.18c0,0.2,0.06,0.37,0.17,0.49c0.12,0.12,0.28,0.19,0.49,0.19c0.21,0,0.37-0.06,0.49-0.19
				c0.12-0.13,0.17-0.29,0.17-0.49c0-0.2-0.06-0.37-0.17-0.49c-0.12-0.13-0.28-0.19-0.49-0.19c-0.21,0-0.37,0.06-0.49,0.19
				C24.46,82.81,24.4,82.98,24.4,83.18z"/>
			<path class="st0" d="M27.04,81.84h0.79v0.36h0.01c0.03-0.05,0.06-0.1,0.11-0.15c0.05-0.05,0.11-0.1,0.17-0.14
				c0.07-0.04,0.14-0.07,0.23-0.1c0.08-0.03,0.18-0.04,0.28-0.04c0.21,0,0.38,0.03,0.51,0.1c0.13,0.06,0.23,0.15,0.3,0.27
				c0.07,0.11,0.12,0.25,0.15,0.4c0.03,0.15,0.04,0.32,0.04,0.5v1.48h-0.83v-1.31c0-0.08,0-0.16-0.01-0.24
				c-0.01-0.08-0.02-0.16-0.05-0.23c-0.03-0.07-0.07-0.13-0.13-0.17c-0.06-0.04-0.14-0.07-0.25-0.07c-0.11,0-0.19,0.02-0.26,0.06
				c-0.07,0.04-0.12,0.09-0.15,0.15c-0.03,0.06-0.06,0.14-0.07,0.22c-0.01,0.08-0.02,0.17-0.02,0.25v1.33h-0.83V81.84z"/>
			<path class="st0" d="M32.74,84.05c-0.13,0.17-0.3,0.3-0.5,0.39c-0.2,0.09-0.41,0.14-0.63,0.14c-0.21,0-0.4-0.03-0.58-0.1
				c-0.18-0.07-0.34-0.16-0.47-0.28c-0.13-0.12-0.24-0.27-0.32-0.44c-0.08-0.17-0.12-0.37-0.12-0.58s0.04-0.41,0.12-0.58
				c0.08-0.17,0.18-0.32,0.32-0.44c0.13-0.12,0.29-0.22,0.47-0.28c0.18-0.07,0.38-0.1,0.58-0.1c0.19,0,0.36,0.03,0.52,0.1
				c0.16,0.07,0.29,0.16,0.4,0.28c0.11,0.12,0.19,0.27,0.25,0.44c0.06,0.17,0.09,0.37,0.09,0.58v0.26h-1.92
				c0.03,0.16,0.1,0.28,0.21,0.38c0.11,0.09,0.25,0.14,0.41,0.14c0.14,0,0.25-0.03,0.34-0.09c0.09-0.06,0.18-0.14,0.25-0.23
				L32.74,84.05z M32.04,82.87c0-0.14-0.04-0.26-0.14-0.36c-0.1-0.1-0.22-0.15-0.37-0.15c-0.09,0-0.17,0.01-0.24,0.04
				c-0.07,0.03-0.13,0.07-0.18,0.11c-0.05,0.05-0.09,0.1-0.12,0.16c-0.03,0.06-0.04,0.12-0.05,0.19H32.04z"/>
			<path class="st0" d="M34.88,82.63c-0.12-0.15-0.28-0.23-0.48-0.23c-0.07,0-0.14,0.02-0.2,0.05c-0.07,0.03-0.1,0.09-0.1,0.17
				c0,0.07,0.03,0.11,0.1,0.15c0.07,0.03,0.15,0.06,0.26,0.08c0.1,0.02,0.22,0.05,0.34,0.08c0.12,0.03,0.23,0.07,0.34,0.13
				c0.1,0.06,0.19,0.14,0.26,0.24c0.07,0.1,0.1,0.24,0.1,0.41c0,0.17-0.04,0.32-0.11,0.43c-0.08,0.11-0.17,0.2-0.29,0.27
				c-0.12,0.07-0.25,0.12-0.4,0.14c-0.15,0.03-0.29,0.04-0.44,0.04c-0.19,0-0.38-0.03-0.57-0.08c-0.19-0.05-0.35-0.15-0.49-0.28
				l0.5-0.56c0.08,0.1,0.16,0.17,0.26,0.22c0.09,0.05,0.2,0.07,0.33,0.07c0.1,0,0.18-0.01,0.26-0.04c0.08-0.03,0.12-0.08,0.12-0.15
				c0-0.07-0.03-0.12-0.1-0.16c-0.07-0.04-0.15-0.06-0.26-0.09c-0.1-0.02-0.22-0.05-0.34-0.08c-0.12-0.03-0.23-0.07-0.34-0.12
				c-0.1-0.05-0.19-0.13-0.26-0.23c-0.07-0.1-0.1-0.24-0.1-0.41c0-0.16,0.03-0.29,0.1-0.41c0.06-0.11,0.15-0.21,0.25-0.28
				c0.1-0.07,0.22-0.13,0.36-0.16c0.14-0.04,0.27-0.05,0.41-0.05c0.18,0,0.35,0.03,0.53,0.08c0.18,0.05,0.33,0.14,0.46,0.28
				L34.88,82.63z"/>
			<path class="st0" d="M6.29,88.82h1.67v0.29H5.97v-3.12h1.93v0.29H6.29v1.06H7.8v0.29H6.29V88.82z"/>
			<path class="st0" d="M8.83,89.11H8.54v-3.33h0.29V89.11z"/>
			<path class="st0" d="M9.74,88.16c0.01,0.1,0.03,0.2,0.07,0.29c0.04,0.09,0.1,0.17,0.16,0.24c0.07,0.07,0.15,0.12,0.23,0.16
				c0.09,0.04,0.18,0.06,0.29,0.06c0.16,0,0.29-0.04,0.4-0.11c0.11-0.07,0.2-0.15,0.26-0.25l0.22,0.18
				c-0.12,0.16-0.26,0.27-0.41,0.33c-0.15,0.07-0.31,0.1-0.48,0.1c-0.15,0-0.29-0.03-0.42-0.08c-0.13-0.05-0.24-0.13-0.34-0.23
				c-0.09-0.1-0.17-0.21-0.22-0.34c-0.05-0.13-0.08-0.28-0.08-0.43c0-0.16,0.03-0.3,0.08-0.43c0.05-0.13,0.13-0.25,0.22-0.34
				c0.09-0.1,0.2-0.17,0.33-0.23c0.13-0.05,0.26-0.08,0.41-0.08c0.16,0,0.3,0.03,0.42,0.08c0.12,0.06,0.23,0.13,0.31,0.22
				c0.08,0.09,0.15,0.2,0.19,0.33c0.04,0.12,0.07,0.26,0.07,0.4v0.13H9.74z M11.14,87.92c0-0.2-0.06-0.36-0.18-0.48
				c-0.12-0.12-0.28-0.18-0.49-0.18c-0.09,0-0.18,0.02-0.27,0.06s-0.17,0.09-0.23,0.15c-0.07,0.06-0.12,0.13-0.16,0.21
				c-0.04,0.08-0.06,0.16-0.06,0.25H11.14z M10.43,86.63h-0.26l0.44-0.63h0.4L10.43,86.63z"/>
			<path class="st0" d="M13.49,87.54c-0.05-0.08-0.12-0.14-0.21-0.19c-0.09-0.05-0.19-0.08-0.31-0.08c-0.12,0-0.23,0.02-0.32,0.06
				c-0.1,0.04-0.18,0.1-0.24,0.17c-0.07,0.07-0.12,0.16-0.15,0.26c-0.04,0.1-0.05,0.21-0.05,0.33c0,0.12,0.02,0.23,0.05,0.33
				c0.03,0.1,0.09,0.19,0.15,0.26c0.07,0.07,0.15,0.13,0.24,0.17c0.1,0.04,0.2,0.06,0.32,0.06c0.11,0,0.22-0.03,0.31-0.08
				c0.09-0.05,0.16-0.12,0.21-0.19l0.24,0.18c-0.1,0.12-0.22,0.21-0.35,0.27c-0.13,0.06-0.26,0.09-0.41,0.09
				c-0.17,0-0.32-0.02-0.45-0.08c-0.14-0.05-0.25-0.13-0.35-0.23c-0.1-0.1-0.17-0.21-0.22-0.35c-0.05-0.13-0.07-0.28-0.07-0.43
				c0-0.16,0.03-0.3,0.07-0.43c0.05-0.13,0.12-0.25,0.22-0.35c0.1-0.1,0.21-0.17,0.35-0.23C12.65,87.02,12.8,87,12.97,87
				c0.14,0,0.28,0.03,0.41,0.09c0.13,0.06,0.25,0.15,0.35,0.27L13.49,87.54z"/>
			<path class="st0" d="M15.17,87.32h-0.59v1.22c0,0.08,0.01,0.14,0.02,0.19s0.03,0.09,0.06,0.11c0.03,0.03,0.06,0.04,0.09,0.06
				c0.04,0.01,0.08,0.02,0.12,0.02c0.05,0,0.1-0.01,0.15-0.02c0.05-0.01,0.1-0.03,0.15-0.06l0.01,0.27
				c-0.11,0.05-0.24,0.07-0.39,0.07c-0.06,0-0.11-0.01-0.17-0.02c-0.06-0.01-0.12-0.04-0.17-0.08c-0.05-0.04-0.09-0.1-0.12-0.17
				c-0.03-0.07-0.05-0.16-0.05-0.28v-1.3h-0.44v-0.26h0.44v-0.58h0.29v0.58h0.59V87.32z"/>
			<path class="st0" d="M15.6,87.69c0-0.09,0-0.18-0.01-0.28c0-0.09-0.01-0.22-0.01-0.37h0.29v0.38h0.01
				c0.02-0.06,0.05-0.11,0.09-0.16c0.04-0.05,0.08-0.1,0.14-0.14c0.05-0.04,0.12-0.07,0.19-0.1c0.07-0.03,0.15-0.04,0.24-0.04
				c0.08,0,0.15,0.01,0.22,0.03l-0.06,0.29c-0.04-0.01-0.09-0.02-0.17-0.02c-0.11,0-0.21,0.02-0.29,0.06
				c-0.08,0.04-0.15,0.1-0.2,0.16c-0.05,0.07-0.09,0.14-0.12,0.21c-0.03,0.08-0.04,0.15-0.04,0.22v1.16H15.6V87.69z"/>
			<path class="st0" d="M17.45,86.26c0,0.06-0.02,0.11-0.07,0.15c-0.04,0.04-0.09,0.06-0.15,0.06c-0.05,0-0.1-0.02-0.15-0.06
				c-0.04-0.04-0.07-0.09-0.07-0.15c0-0.06,0.02-0.11,0.07-0.15c0.04-0.04,0.09-0.06,0.15-0.06c0.05,0,0.1,0.02,0.15,0.06
				C17.43,86.15,17.45,86.2,17.45,86.26z M17.39,89.11H17.1v-2.06h0.29V89.11z"/>
			<path class="st0" d="M19.59,87.54c-0.05-0.08-0.12-0.14-0.21-0.19c-0.09-0.05-0.19-0.08-0.31-0.08c-0.12,0-0.23,0.02-0.32,0.06
				c-0.1,0.04-0.18,0.1-0.24,0.17c-0.07,0.07-0.12,0.16-0.15,0.26c-0.04,0.1-0.05,0.21-0.05,0.33c0,0.12,0.02,0.23,0.05,0.33
				c0.04,0.1,0.09,0.19,0.15,0.26c0.07,0.07,0.15,0.13,0.24,0.17c0.1,0.04,0.2,0.06,0.32,0.06c0.11,0,0.22-0.03,0.31-0.08
				c0.09-0.05,0.16-0.12,0.21-0.19l0.24,0.18c-0.1,0.12-0.22,0.21-0.35,0.27c-0.13,0.06-0.26,0.09-0.41,0.09
				c-0.17,0-0.32-0.02-0.45-0.08c-0.14-0.05-0.25-0.13-0.35-0.23c-0.1-0.1-0.17-0.21-0.22-0.35c-0.05-0.13-0.07-0.28-0.07-0.43
				c0-0.16,0.03-0.3,0.07-0.43s0.12-0.25,0.22-0.35c0.1-0.1,0.21-0.17,0.35-0.23S18.91,87,19.07,87c0.14,0,0.28,0.03,0.41,0.09
				c0.13,0.06,0.25,0.15,0.35,0.27L19.59,87.54z"/>
			<path class="st0" d="M21.53,87.85V87.8c0-0.36-0.18-0.53-0.53-0.53c-0.24,0-0.45,0.08-0.63,0.24L20.2,87.3
				c0.19-0.2,0.48-0.3,0.87-0.3c0.1,0,0.2,0.01,0.29,0.04c0.09,0.03,0.17,0.07,0.24,0.13c0.07,0.06,0.12,0.14,0.16,0.23
				c0.04,0.09,0.06,0.2,0.06,0.33v0.92c0,0.08,0,0.16,0.01,0.25c0.01,0.09,0.02,0.16,0.02,0.21h-0.28c-0.01-0.05-0.02-0.1-0.02-0.16
				c0-0.06-0.01-0.12-0.01-0.17h-0.01c-0.09,0.14-0.19,0.24-0.3,0.3c-0.12,0.06-0.26,0.09-0.42,0.09c-0.09,0-0.18-0.01-0.26-0.04
				c-0.08-0.03-0.16-0.06-0.23-0.11c-0.07-0.05-0.12-0.11-0.16-0.19c-0.04-0.07-0.06-0.16-0.06-0.26c0-0.17,0.04-0.3,0.13-0.39
				c0.09-0.1,0.2-0.17,0.33-0.21c0.13-0.05,0.27-0.08,0.42-0.09c0.15-0.01,0.28-0.02,0.41-0.02H21.53z M21.38,88.09
				c-0.07,0-0.17,0-0.28,0.01s-0.22,0.03-0.32,0.05c-0.1,0.03-0.19,0.07-0.26,0.13c-0.07,0.06-0.11,0.14-0.11,0.24
				c0,0.07,0.01,0.13,0.04,0.17s0.07,0.09,0.11,0.12c0.05,0.03,0.1,0.05,0.16,0.07c0.06,0.01,0.11,0.02,0.17,0.02
				c0.11,0,0.2-0.02,0.28-0.05c0.08-0.03,0.14-0.08,0.2-0.14c0.05-0.06,0.09-0.13,0.12-0.21c0.02-0.08,0.04-0.17,0.04-0.26v-0.15
				H21.38z"/>
			<path class="st0" d="M23.59,87.54c-0.04-0.08-0.1-0.15-0.18-0.2c-0.07-0.05-0.16-0.07-0.27-0.07c-0.05,0-0.1,0.01-0.15,0.02
				c-0.05,0.01-0.1,0.03-0.14,0.06c-0.04,0.03-0.07,0.06-0.1,0.09c-0.03,0.04-0.04,0.09-0.04,0.14c0,0.1,0.03,0.17,0.1,0.21
				c0.07,0.04,0.17,0.08,0.3,0.11l0.3,0.07c0.14,0.03,0.26,0.1,0.36,0.2c0.1,0.1,0.14,0.22,0.14,0.37c0,0.11-0.02,0.21-0.07,0.29
				c-0.05,0.08-0.11,0.15-0.18,0.2c-0.07,0.05-0.16,0.09-0.26,0.11c-0.1,0.02-0.2,0.04-0.29,0.04c-0.16,0-0.31-0.03-0.44-0.09
				s-0.25-0.16-0.35-0.31l0.25-0.17c0.06,0.09,0.13,0.17,0.22,0.22c0.09,0.06,0.2,0.08,0.32,0.08c0.06,0,0.12-0.01,0.18-0.02
				c0.06-0.01,0.11-0.03,0.16-0.06c0.05-0.03,0.08-0.06,0.11-0.11c0.03-0.04,0.04-0.1,0.04-0.15c0-0.1-0.04-0.18-0.11-0.22
				c-0.08-0.05-0.17-0.08-0.28-0.11l-0.28-0.07c-0.04-0.01-0.08-0.02-0.14-0.04c-0.06-0.02-0.12-0.05-0.18-0.09
				c-0.06-0.04-0.11-0.09-0.15-0.16c-0.04-0.07-0.06-0.15-0.06-0.24c0-0.11,0.02-0.2,0.06-0.28c0.04-0.08,0.1-0.14,0.17-0.19
				c0.07-0.05,0.15-0.09,0.24-0.11c0.09-0.03,0.18-0.04,0.28-0.04c0.14,0,0.28,0.03,0.4,0.08c0.12,0.06,0.22,0.15,0.29,0.29
				L23.59,87.54z"/>
			<path class="st0" d="M24.54,89.11l1.99-3.26l0.22,0.14l-1.98,3.26L24.54,89.11z"/>
			<path class="st0" d="M29.89,87.95c0,0.13-0.02,0.27-0.05,0.41c-0.03,0.15-0.09,0.28-0.17,0.4c-0.09,0.12-0.2,0.23-0.35,0.31
				c-0.15,0.08-0.34,0.12-0.57,0.12c-0.24,0-0.43-0.04-0.57-0.12c-0.15-0.08-0.26-0.18-0.35-0.31c-0.09-0.12-0.14-0.26-0.17-0.4
				c-0.03-0.15-0.05-0.28-0.05-0.41v-1.96h0.32v1.92c0,0.15,0.01,0.28,0.04,0.39c0.03,0.11,0.07,0.2,0.12,0.27
				c0.05,0.07,0.1,0.13,0.16,0.17c0.06,0.04,0.12,0.08,0.18,0.1c0.06,0.02,0.12,0.04,0.17,0.05c0.06,0.01,0.1,0.01,0.15,0.01
				c0.04,0,0.09,0,0.14-0.01c0.06-0.01,0.12-0.02,0.18-0.05c0.06-0.02,0.12-0.06,0.18-0.1c0.06-0.04,0.11-0.1,0.16-0.17
				c0.05-0.07,0.09-0.16,0.12-0.27c0.03-0.11,0.04-0.24,0.04-0.39v-1.92h0.32V87.95z"/>
			<path class="st0" d="M32.16,86.51c-0.14-0.2-0.34-0.3-0.6-0.3c-0.08,0-0.16,0.01-0.24,0.03c-0.08,0.02-0.15,0.06-0.21,0.1
				c-0.06,0.05-0.11,0.1-0.15,0.18c-0.04,0.07-0.06,0.16-0.06,0.25c0,0.14,0.04,0.25,0.12,0.33c0.08,0.08,0.18,0.14,0.29,0.19
				c0.12,0.05,0.25,0.09,0.39,0.13c0.14,0.04,0.27,0.09,0.39,0.16c0.12,0.07,0.22,0.15,0.29,0.26c0.08,0.11,0.12,0.26,0.12,0.44
				c0,0.14-0.03,0.27-0.09,0.38c-0.06,0.11-0.14,0.21-0.24,0.28c-0.1,0.08-0.21,0.14-0.33,0.18c-0.12,0.04-0.24,0.06-0.37,0.06
				c-0.19,0-0.37-0.04-0.54-0.11c-0.17-0.07-0.32-0.19-0.44-0.35l0.29-0.21c0.07,0.11,0.16,0.21,0.28,0.28
				c0.12,0.07,0.26,0.1,0.43,0.1c0.08,0,0.16-0.01,0.24-0.04c0.08-0.03,0.15-0.06,0.21-0.11c0.06-0.05,0.11-0.11,0.16-0.18
				c0.04-0.07,0.06-0.15,0.06-0.24c0-0.11-0.02-0.2-0.07-0.27c-0.05-0.07-0.11-0.13-0.18-0.18c-0.07-0.05-0.16-0.09-0.26-0.12
				c-0.1-0.03-0.19-0.06-0.3-0.1c-0.1-0.03-0.2-0.07-0.29-0.11c-0.1-0.04-0.18-0.09-0.26-0.16c-0.07-0.06-0.14-0.14-0.18-0.24
				c-0.05-0.1-0.07-0.21-0.07-0.36c0-0.15,0.03-0.28,0.09-0.39c0.06-0.11,0.13-0.2,0.23-0.28c0.1-0.07,0.2-0.13,0.32-0.16
				c0.12-0.04,0.24-0.05,0.37-0.05c0.18,0,0.34,0.03,0.48,0.08c0.14,0.06,0.28,0.15,0.4,0.3L32.16,86.51z"/>
			<path class="st0" d="M33.14,85.99h0.93c0.13,0,0.25,0.01,0.37,0.04c0.12,0.03,0.23,0.07,0.32,0.13c0.09,0.06,0.17,0.14,0.22,0.24
				c0.06,0.1,0.08,0.22,0.08,0.37c0,0.17-0.05,0.32-0.14,0.44s-0.23,0.2-0.41,0.24v0.01c0.22,0.02,0.39,0.09,0.52,0.23
				c0.12,0.14,0.19,0.32,0.19,0.55c0,0.05-0.01,0.12-0.04,0.22c-0.03,0.1-0.08,0.19-0.16,0.29c-0.08,0.1-0.19,0.18-0.34,0.25
				c-0.15,0.07-0.35,0.11-0.6,0.11h-0.95V85.99z M33.45,87.36h0.64c0.08,0,0.15-0.01,0.23-0.03c0.07-0.02,0.14-0.05,0.2-0.09
				c0.06-0.04,0.11-0.1,0.15-0.17c0.04-0.07,0.06-0.15,0.06-0.25c0-0.03-0.01-0.08-0.02-0.14c-0.01-0.06-0.04-0.12-0.09-0.18
				c-0.05-0.06-0.11-0.11-0.2-0.15c-0.09-0.04-0.21-0.06-0.36-0.06h-0.61V87.36z M33.45,88.82h0.61c0.11,0,0.22-0.01,0.32-0.03
				c0.1-0.02,0.19-0.06,0.26-0.11c0.07-0.05,0.13-0.11,0.17-0.18c0.04-0.07,0.06-0.16,0.06-0.26c0-0.21-0.07-0.36-0.2-0.46
				c-0.13-0.1-0.33-0.15-0.58-0.15h-0.65V88.82z"/>
		</g>
		<g>
			<g>
				<path class="st0" d="M26.69,70.68v-0.11l-1.82,0.03c0,0.07,0,0.03,0,0.09v0.73c0,1.98-1.61,3.59-3.59,3.59s-3.54-1.61-3.54-3.59
					v-6.14c0-0.18-0.03-0.36,0-0.54v-1.58h-2v7.4c-0.02,0.2,0,0.41,0,0.62c0,3.02,2.45,5.47,5.47,5.47h0c3.02,0,5.47-2.45,5.47-5.47
					C26.69,70.89,26.69,70.97,26.69,70.68z"/>
			</g>
			<path class="st0" d="M16.38,67.1c-1.71-0.23-3.06-1.61-3.21-3.37l-0.34-4.09c-0.05-0.55,0.39-1.02,0.94-1.02h1.05v-2.33
				c0-0.33,0.27-0.59,0.59-0.59c0.33,0,0.59,0.27,0.59,0.59v2.33h1.96v-2.33c0-0.33,0.27-0.59,0.59-0.59c0.33,0,0.59,0.27,0.59,0.59
				v2.33h0.93c0.56,0,0.99,0.48,0.93,1.03l-0.42,4.14c-0.17,1.67-1.43,2.99-3.02,3.28"/>
			<g>
				<rect x="23.85" y="61" class="st7" width="3.76" height="3.48"/>
				<path class="st7" d="M26.46,70.61H25c-0.4,0-0.72-0.32-0.72-0.72v-0.41h2.89v0.41C27.17,70.29,26.85,70.61,26.46,70.61z"/>
				<g>
					<path class="st0" d="M25.32,63.45H25.1c-0.1,0-0.19-0.08-0.19-0.19v-1.39c0-0.1,0.08-0.19,0.19-0.19h0.21
						c0.1,0,0.19,0.08,0.19,0.19v1.39C25.5,63.36,25.42,63.45,25.32,63.45z"/>
					<path class="st0" d="M26.35,63.45h-0.21c-0.1,0-0.19-0.08-0.19-0.19v-1.39c0-0.1,0.08-0.19,0.19-0.19h0.21
						c0.1,0,0.19,0.08,0.19,0.19v1.39C26.54,63.36,26.46,63.45,26.35,63.45z"/>
				</g>
				<path class="st0" d="M26.64,69.44h-1.82c-0.87,0-1.57-0.7-1.57-1.57v-3.96h4.97v3.96C28.21,68.74,27.51,69.44,26.64,69.44z"/>
			</g>
		</g>
	</g>
	<g>
		<g>
			<g>
				<path class="st0" d="M147.7,80.61h1.51c0.2,0,0.39,0.02,0.56,0.06s0.33,0.1,0.47,0.19s0.24,0.21,0.32,0.36s0.12,0.34,0.12,0.57
					c0,0.28-0.07,0.51-0.22,0.7c-0.14,0.19-0.35,0.32-0.63,0.37l0.99,1.65h-1.03l-0.82-1.56h-0.42v1.56h-0.86V80.61z M148.56,82.23
					h0.51c0.08,0,0.16,0,0.25-0.01c0.09-0.01,0.16-0.02,0.23-0.05c0.07-0.03,0.13-0.07,0.17-0.13c0.05-0.06,0.07-0.14,0.07-0.25
					c0-0.1-0.02-0.18-0.06-0.24c-0.04-0.06-0.09-0.1-0.15-0.14c-0.06-0.03-0.13-0.05-0.22-0.06c-0.08-0.01-0.16-0.02-0.24-0.02
					h-0.56V82.23z"/>
				<path class="st0" d="M153.7,84.05c-0.13,0.17-0.3,0.3-0.5,0.39c-0.2,0.09-0.41,0.14-0.63,0.14c-0.21,0-0.4-0.03-0.58-0.1
					c-0.18-0.07-0.34-0.16-0.47-0.28c-0.13-0.12-0.24-0.27-0.32-0.44s-0.12-0.37-0.12-0.58c0-0.21,0.04-0.41,0.12-0.58
					s0.18-0.32,0.32-0.44c0.13-0.12,0.29-0.22,0.47-0.28c0.18-0.07,0.38-0.1,0.58-0.1c0.19,0,0.36,0.03,0.52,0.1
					c0.16,0.07,0.29,0.16,0.4,0.28c0.11,0.12,0.19,0.27,0.25,0.44c0.06,0.17,0.09,0.37,0.09,0.58v0.26h-1.92
					c0.03,0.16,0.1,0.28,0.21,0.38c0.11,0.09,0.25,0.14,0.41,0.14c0.14,0,0.25-0.03,0.34-0.09c0.09-0.06,0.18-0.14,0.25-0.23
					L153.7,84.05z M153,82.87c0-0.14-0.04-0.26-0.14-0.36s-0.22-0.15-0.37-0.15c-0.09,0-0.17,0.01-0.24,0.04
					c-0.07,0.03-0.13,0.07-0.18,0.11c-0.05,0.05-0.09,0.1-0.12,0.16c-0.03,0.06-0.04,0.12-0.05,0.19H153z"/>
				<path class="st0" d="M157.14,84.52h-0.76v-0.35h-0.01c-0.03,0.05-0.08,0.1-0.13,0.15c-0.05,0.05-0.12,0.09-0.19,0.14
					c-0.07,0.04-0.15,0.07-0.24,0.1c-0.09,0.03-0.18,0.04-0.27,0.04c-0.2,0-0.38-0.03-0.54-0.1c-0.16-0.07-0.3-0.16-0.42-0.29
					s-0.21-0.27-0.27-0.44s-0.09-0.35-0.09-0.56c0-0.19,0.03-0.37,0.09-0.54c0.06-0.17,0.14-0.32,0.24-0.46
					c0.1-0.13,0.23-0.24,0.38-0.32c0.15-0.08,0.32-0.12,0.51-0.12c0.17,0,0.33,0.03,0.48,0.08c0.15,0.05,0.27,0.14,0.37,0.27h0.01
					v-1.78h0.83V84.52z M156.38,83.18c0-0.2-0.06-0.37-0.17-0.49c-0.12-0.12-0.28-0.19-0.49-0.19s-0.37,0.06-0.49,0.19
					c-0.12,0.13-0.17,0.29-0.17,0.49c0,0.2,0.06,0.37,0.17,0.49c0.12,0.13,0.28,0.19,0.49,0.19s0.37-0.06,0.49-0.19
					C156.32,83.54,156.38,83.38,156.38,83.18z"/>
				<path class="st0" d="M160.34,84.05c-0.13,0.17-0.3,0.3-0.5,0.39c-0.2,0.09-0.41,0.14-0.63,0.14c-0.21,0-0.4-0.03-0.58-0.1
					c-0.18-0.07-0.34-0.16-0.47-0.28c-0.13-0.12-0.24-0.27-0.32-0.44c-0.08-0.17-0.12-0.37-0.12-0.58c0-0.21,0.04-0.41,0.12-0.58
					c0.08-0.17,0.18-0.32,0.32-0.44c0.13-0.12,0.29-0.22,0.47-0.28c0.18-0.07,0.38-0.1,0.58-0.1c0.19,0,0.36,0.03,0.52,0.1
					c0.16,0.07,0.29,0.16,0.4,0.28c0.11,0.12,0.19,0.27,0.25,0.44c0.06,0.17,0.09,0.37,0.09,0.58v0.26h-1.92
					c0.03,0.16,0.11,0.28,0.21,0.38c0.11,0.09,0.25,0.14,0.41,0.14c0.14,0,0.25-0.03,0.34-0.09c0.09-0.06,0.18-0.14,0.25-0.23
					L160.34,84.05z M159.64,82.87c0-0.14-0.04-0.26-0.14-0.36s-0.22-0.15-0.37-0.15c-0.09,0-0.17,0.01-0.24,0.04
					c-0.07,0.03-0.13,0.07-0.18,0.11c-0.05,0.05-0.09,0.1-0.12,0.16c-0.03,0.06-0.04,0.12-0.05,0.19H159.64z"/>
				<path class="st0" d="M162.49,82.62c-0.12-0.15-0.28-0.23-0.48-0.23c-0.07,0-0.14,0.02-0.2,0.05c-0.07,0.03-0.1,0.09-0.1,0.17
					c0,0.07,0.03,0.11,0.1,0.15c0.07,0.03,0.15,0.06,0.26,0.08c0.1,0.02,0.22,0.05,0.34,0.08c0.12,0.03,0.23,0.07,0.34,0.13
					c0.1,0.06,0.19,0.14,0.26,0.24c0.07,0.1,0.1,0.24,0.1,0.41c0,0.17-0.04,0.32-0.11,0.43c-0.08,0.11-0.17,0.2-0.29,0.27
					c-0.12,0.07-0.25,0.12-0.4,0.14c-0.15,0.03-0.29,0.04-0.44,0.04c-0.19,0-0.38-0.03-0.57-0.08s-0.35-0.15-0.49-0.28l0.5-0.56
					c0.08,0.1,0.16,0.17,0.26,0.22c0.09,0.05,0.2,0.07,0.33,0.07c0.1,0,0.18-0.01,0.26-0.04c0.08-0.03,0.12-0.08,0.12-0.15
					c0-0.07-0.03-0.12-0.1-0.16c-0.07-0.03-0.15-0.06-0.26-0.09c-0.1-0.02-0.22-0.05-0.34-0.08c-0.12-0.03-0.23-0.07-0.34-0.12
					c-0.1-0.06-0.19-0.13-0.26-0.23c-0.07-0.1-0.1-0.24-0.1-0.41c0-0.16,0.03-0.29,0.1-0.41c0.06-0.11,0.15-0.21,0.25-0.28
					c0.1-0.07,0.22-0.13,0.36-0.16c0.14-0.04,0.27-0.05,0.41-0.05c0.18,0,0.35,0.03,0.53,0.08c0.18,0.05,0.33,0.14,0.46,0.28
					L162.49,82.62z"/>
				<path class="st0" d="M149.21,86.51c-0.14-0.2-0.34-0.3-0.6-0.3c-0.08,0-0.16,0.01-0.24,0.03c-0.08,0.02-0.15,0.06-0.21,0.1
					c-0.06,0.05-0.11,0.1-0.15,0.18c-0.04,0.07-0.06,0.16-0.06,0.25c0,0.14,0.04,0.25,0.12,0.33c0.08,0.08,0.18,0.14,0.29,0.19
					c0.12,0.05,0.25,0.09,0.39,0.13c0.14,0.04,0.27,0.09,0.39,0.16c0.12,0.07,0.22,0.15,0.29,0.26c0.08,0.11,0.12,0.26,0.12,0.44
					c0,0.14-0.03,0.27-0.09,0.38c-0.06,0.11-0.14,0.21-0.24,0.28c-0.1,0.08-0.21,0.14-0.33,0.18c-0.12,0.04-0.24,0.06-0.37,0.06
					c-0.19,0-0.37-0.04-0.54-0.11c-0.17-0.07-0.32-0.19-0.44-0.35l0.29-0.21c0.07,0.11,0.16,0.21,0.28,0.28
					c0.12,0.07,0.26,0.1,0.43,0.1c0.08,0,0.16-0.01,0.24-0.04c0.08-0.02,0.15-0.06,0.21-0.11c0.06-0.05,0.11-0.11,0.16-0.18
					c0.04-0.07,0.06-0.15,0.06-0.24c0-0.11-0.02-0.2-0.07-0.27c-0.05-0.07-0.11-0.13-0.18-0.18c-0.07-0.05-0.16-0.09-0.26-0.12
					c-0.1-0.03-0.19-0.06-0.3-0.1c-0.1-0.03-0.2-0.07-0.29-0.11c-0.1-0.04-0.18-0.09-0.26-0.16c-0.07-0.06-0.14-0.14-0.18-0.24
					c-0.05-0.1-0.07-0.21-0.07-0.36c0-0.15,0.03-0.28,0.09-0.39c0.06-0.11,0.13-0.2,0.23-0.28c0.1-0.07,0.2-0.13,0.32-0.16
					c0.12-0.04,0.24-0.05,0.37-0.05c0.18,0,0.34,0.03,0.48,0.08c0.14,0.06,0.28,0.15,0.4,0.29L149.21,86.51z"/>
				<path class="st0" d="M152.16,88.08c0,0.16-0.03,0.3-0.08,0.43c-0.05,0.13-0.13,0.25-0.23,0.34c-0.1,0.1-0.21,0.17-0.35,0.23
					c-0.13,0.05-0.28,0.08-0.44,0.08c-0.16,0-0.3-0.03-0.44-0.08c-0.13-0.05-0.25-0.13-0.35-0.23c-0.1-0.1-0.17-0.21-0.23-0.34
					c-0.05-0.13-0.08-0.28-0.08-0.43s0.03-0.3,0.08-0.43c0.05-0.13,0.13-0.25,0.23-0.34s0.21-0.17,0.35-0.23
					c0.13-0.05,0.28-0.08,0.44-0.08c0.16,0,0.31,0.03,0.44,0.08c0.13,0.05,0.25,0.13,0.35,0.23s0.17,0.21,0.23,0.34
					C152.13,87.78,152.16,87.92,152.16,88.08z M151.84,88.08c0-0.11-0.02-0.22-0.05-0.32c-0.04-0.1-0.09-0.19-0.16-0.26
					c-0.07-0.07-0.15-0.13-0.24-0.17c-0.1-0.04-0.2-0.06-0.32-0.06s-0.23,0.02-0.32,0.06c-0.1,0.04-0.18,0.1-0.24,0.17
					c-0.07,0.07-0.12,0.16-0.15,0.26c-0.04,0.1-0.05,0.21-0.05,0.32s0.02,0.22,0.05,0.32c0.04,0.1,0.09,0.19,0.15,0.26
					c0.07,0.07,0.15,0.13,0.24,0.17c0.1,0.04,0.2,0.06,0.32,0.06s0.23-0.02,0.32-0.06c0.1-0.04,0.18-0.1,0.24-0.17
					c0.07-0.07,0.12-0.16,0.16-0.26C151.83,88.3,151.84,88.19,151.84,88.08z"/>
				<path class="st0" d="M154.19,87.53c-0.05-0.08-0.12-0.14-0.21-0.19c-0.09-0.05-0.19-0.08-0.31-0.08c-0.12,0-0.23,0.02-0.32,0.06
					c-0.1,0.04-0.18,0.1-0.24,0.17c-0.07,0.07-0.12,0.16-0.15,0.26c-0.04,0.1-0.05,0.21-0.05,0.33c0,0.12,0.02,0.23,0.05,0.33
					c0.04,0.1,0.09,0.19,0.15,0.26c0.07,0.07,0.15,0.13,0.24,0.17c0.1,0.04,0.2,0.06,0.32,0.06c0.11,0,0.22-0.03,0.31-0.08
					c0.09-0.05,0.16-0.12,0.21-0.19l0.24,0.18c-0.1,0.12-0.22,0.21-0.35,0.27c-0.13,0.06-0.26,0.09-0.41,0.09
					c-0.17,0-0.32-0.02-0.45-0.08c-0.14-0.05-0.25-0.13-0.35-0.23c-0.1-0.1-0.17-0.21-0.22-0.35c-0.05-0.13-0.07-0.28-0.07-0.43
					s0.03-0.3,0.07-0.43c0.05-0.13,0.12-0.25,0.22-0.35c0.1-0.1,0.21-0.17,0.35-0.23c0.14-0.05,0.29-0.08,0.45-0.08
					c0.14,0,0.28,0.03,0.41,0.09c0.13,0.06,0.25,0.15,0.35,0.27L154.19,87.53z"/>
				<path class="st0" d="M155.23,86.26c0,0.06-0.02,0.11-0.07,0.15c-0.04,0.04-0.09,0.06-0.15,0.06s-0.1-0.02-0.15-0.06
					c-0.04-0.04-0.07-0.09-0.07-0.15c0-0.06,0.02-0.11,0.07-0.15s0.09-0.06,0.15-0.06s0.1,0.02,0.15,0.06S155.23,86.2,155.23,86.26z
					 M155.17,89.11h-0.29v-2.06h0.29V89.11z"/>
				<path class="st0" d="M157.19,87.85v-0.05c0-0.36-0.18-0.53-0.53-0.53c-0.24,0-0.45,0.08-0.63,0.24l-0.18-0.21
					c0.19-0.2,0.48-0.3,0.87-0.3c0.1,0,0.2,0.01,0.29,0.04c0.09,0.03,0.17,0.07,0.24,0.13c0.07,0.06,0.12,0.14,0.16,0.23
					c0.04,0.09,0.06,0.2,0.06,0.33v0.92c0,0.08,0,0.16,0.01,0.25c0.01,0.09,0.02,0.16,0.02,0.21h-0.28
					c-0.01-0.05-0.02-0.1-0.02-0.16s-0.01-0.12-0.01-0.17h-0.01c-0.09,0.14-0.19,0.24-0.3,0.3c-0.12,0.06-0.26,0.09-0.42,0.09
					c-0.09,0-0.18-0.01-0.26-0.04c-0.08-0.02-0.16-0.06-0.23-0.11s-0.12-0.11-0.16-0.19c-0.04-0.07-0.06-0.16-0.06-0.26
					c0-0.17,0.04-0.3,0.13-0.39c0.09-0.1,0.2-0.17,0.33-0.21c0.13-0.05,0.27-0.08,0.42-0.09c0.15-0.01,0.28-0.02,0.41-0.02H157.19z
					 M157.04,88.08c-0.07,0-0.17,0-0.28,0.01c-0.11,0.01-0.22,0.03-0.32,0.05c-0.1,0.03-0.19,0.07-0.26,0.13
					c-0.07,0.06-0.11,0.14-0.11,0.24c0,0.07,0.01,0.13,0.04,0.17c0.03,0.05,0.07,0.09,0.11,0.12c0.05,0.03,0.1,0.05,0.16,0.07
					c0.06,0.01,0.11,0.02,0.17,0.02c0.11,0,0.2-0.02,0.28-0.05c0.08-0.04,0.14-0.08,0.2-0.14c0.05-0.06,0.09-0.13,0.12-0.21
					c0.02-0.08,0.04-0.17,0.04-0.26v-0.15H157.04z"/>
				<path class="st0" d="M158.51,89.11h-0.29v-3.33h0.29V89.11z"/>
				<path class="st0" d="M159.41,88.16c0.01,0.1,0.03,0.2,0.07,0.29c0.04,0.09,0.1,0.17,0.16,0.24c0.07,0.07,0.15,0.12,0.23,0.16
					c0.09,0.04,0.18,0.06,0.29,0.06c0.16,0,0.29-0.04,0.4-0.11c0.11-0.07,0.2-0.15,0.26-0.25l0.22,0.18
					c-0.12,0.16-0.26,0.27-0.41,0.33c-0.15,0.07-0.31,0.1-0.48,0.1c-0.15,0-0.29-0.03-0.42-0.08c-0.13-0.05-0.24-0.13-0.34-0.23
					c-0.09-0.1-0.17-0.21-0.22-0.34c-0.05-0.13-0.08-0.28-0.08-0.43s0.03-0.3,0.08-0.43c0.05-0.13,0.13-0.25,0.22-0.34
					c0.09-0.1,0.2-0.17,0.33-0.23c0.13-0.05,0.26-0.08,0.41-0.08c0.16,0,0.3,0.03,0.42,0.08s0.23,0.13,0.31,0.22
					c0.08,0.09,0.15,0.2,0.19,0.33s0.07,0.26,0.07,0.4v0.13H159.41z M160.81,87.92c0-0.2-0.06-0.36-0.18-0.48
					c-0.12-0.12-0.28-0.18-0.49-0.18c-0.09,0-0.18,0.02-0.27,0.06s-0.17,0.09-0.23,0.15c-0.07,0.06-0.12,0.13-0.16,0.21
					c-0.04,0.08-0.06,0.16-0.06,0.25H160.81z"/>
				<path class="st0" d="M162.75,87.54c-0.04-0.09-0.1-0.15-0.18-0.2c-0.07-0.05-0.16-0.07-0.27-0.07c-0.05,0-0.1,0.01-0.15,0.02
					c-0.05,0.01-0.1,0.03-0.14,0.05c-0.04,0.03-0.07,0.06-0.1,0.09c-0.03,0.04-0.04,0.09-0.04,0.14c0,0.1,0.03,0.17,0.1,0.21
					c0.07,0.04,0.17,0.08,0.3,0.11l0.3,0.07c0.14,0.03,0.26,0.1,0.36,0.2c0.1,0.1,0.14,0.22,0.14,0.37c0,0.11-0.02,0.21-0.07,0.29
					c-0.05,0.08-0.11,0.15-0.18,0.2c-0.07,0.05-0.16,0.09-0.26,0.11c-0.1,0.02-0.2,0.04-0.29,0.04c-0.16,0-0.31-0.03-0.44-0.09
					c-0.14-0.06-0.25-0.16-0.35-0.31l0.25-0.17c0.06,0.09,0.13,0.17,0.22,0.22c0.09,0.06,0.2,0.08,0.32,0.08
					c0.06,0,0.12-0.01,0.18-0.02c0.06-0.01,0.11-0.03,0.16-0.06c0.05-0.03,0.08-0.06,0.11-0.11c0.03-0.04,0.04-0.1,0.04-0.15
					c0-0.1-0.04-0.18-0.11-0.22c-0.08-0.05-0.17-0.08-0.28-0.11l-0.28-0.07c-0.04-0.01-0.08-0.02-0.14-0.04
					c-0.06-0.02-0.12-0.05-0.18-0.09c-0.06-0.04-0.11-0.09-0.15-0.16c-0.04-0.07-0.06-0.15-0.06-0.24c0-0.11,0.02-0.2,0.06-0.28
					c0.04-0.08,0.1-0.14,0.17-0.19c0.07-0.05,0.15-0.09,0.24-0.11c0.09-0.03,0.18-0.04,0.28-0.04c0.14,0,0.28,0.03,0.4,0.08
					s0.22,0.15,0.29,0.29L162.75,87.54z"/>
			</g>
			<g>
				<path class="st0" d="M156.55,73.16c0.22,1.12-0.65,2.09-1.66,1.85c-0.51-0.12-0.92-0.58-1.03-1.14
					c-0.22-1.12,0.65-2.09,1.66-1.85C156.03,72.14,156.44,72.6,156.55,73.16z"/>
				<path class="st0" d="M155.27,61c-3.39,0-6.43,1.65-8.52,4.27c-0.3,0.38-0.28,0.95,0.04,1.3l0,0c0.35,0.39,0.92,0.37,1.25-0.04
					c1.77-2.21,4.35-3.61,7.22-3.61s5.45,1.4,7.22,3.61c0.33,0.41,0.9,0.43,1.25,0.04l0,0c0.32-0.36,0.34-0.93,0.04-1.3
					C161.7,62.65,158.65,61,155.27,61z"/>
				<path class="st0" d="M155.27,64.32c-2.66,0-5.04,1.32-6.65,3.41c-0.29,0.38-0.28,0.95,0.04,1.31v0c0.36,0.4,0.94,0.36,1.27-0.06
					c1.29-1.67,3.2-2.73,5.33-2.73c2.13,0,4.04,1.06,5.33,2.73c0.33,0.43,0.91,0.46,1.27,0.06l0,0c0.32-0.36,0.34-0.93,0.04-1.31
					C160.31,65.65,157.92,64.32,155.27,64.32z"/>
				<path class="st0" d="M155.27,67.81c-1.82,0-3.44,0.97-4.47,2.47c-0.25,0.37-0.22,0.89,0.08,1.22l0.04,0.04
					c0.36,0.4,0.95,0.34,1.27-0.12c0.71-1.03,1.83-1.7,3.08-1.7s2.37,0.67,3.08,1.7c0.31,0.45,0.9,0.52,1.27,0.12l0.04-0.04
					c0.29-0.33,0.33-0.85,0.08-1.22C158.71,68.78,157.09,67.81,155.27,67.81z"/>
			</g>
		</g>
		<g>
			<path class="st0" d="M150.61,57.5h0.7l0.47,1.88h0.01l0.61-1.88h0.6l0.61,1.93h0.01l0.49-1.93h0.65l-0.86,2.93h-0.57l-0.65-2.03
				h-0.01l-0.65,2.03h-0.55L150.61,57.5z"/>
			<path class="st0" d="M154.94,57.79c0-0.1,0.04-0.18,0.11-0.25c0.07-0.07,0.16-0.11,0.25-0.11s0.18,0.04,0.25,0.11
				c0.07,0.07,0.11,0.16,0.11,0.25c0,0.1-0.04,0.18-0.11,0.25c-0.07,0.07-0.16,0.11-0.25,0.11s-0.18-0.04-0.25-0.11
				C154.97,57.97,154.94,57.89,154.94,57.79z M154.99,58.42h0.62v2.01h-0.62V58.42z"/>
			<path class="st0" d="M156.95,59.65h-1.02v-0.5h1.02V59.65z"/>
			<path class="st0" d="M157.49,58.92h-0.41v-0.5h0.41v-0.36c0-0.11,0.01-0.21,0.03-0.31c0.02-0.1,0.06-0.18,0.11-0.26
				c0.06-0.07,0.13-0.13,0.24-0.18c0.1-0.04,0.24-0.06,0.41-0.06c0.06,0,0.13,0,0.19,0.01c0.06,0.01,0.12,0.02,0.18,0.03l-0.03,0.53
				c-0.04-0.01-0.07-0.02-0.1-0.03c-0.03-0.01-0.06-0.01-0.1-0.01c-0.1,0-0.17,0.02-0.22,0.06c-0.05,0.04-0.07,0.13-0.07,0.26v0.32
				h0.46v0.5h-0.46v1.51h-0.62V58.92z M158.77,57.79c0-0.1,0.04-0.18,0.11-0.25c0.07-0.07,0.16-0.11,0.25-0.11
				c0.1,0,0.18,0.04,0.25,0.11c0.07,0.07,0.11,0.16,0.11,0.25c0,0.1-0.04,0.18-0.11,0.25c-0.07,0.07-0.16,0.11-0.25,0.11
				c-0.1,0-0.18-0.04-0.25-0.11C158.8,57.97,158.77,57.89,158.77,57.79z M158.81,58.42h0.62v2.01h-0.62V58.42z"/>
		</g>
	</g>
</g>
</svg>
