<?xml version="1.0" encoding="utf-8"?>
<!-- Generator: Adobe Illustrator 27.7.0, SVG Export Plug-In . SVG Version: 6.00 Build 0)  -->
<svg version="1.1" id="Capa_1" xmlns="http://www.w3.org/2000/svg" xmlns:xlink="http://www.w3.org/1999/xlink" x="0px" y="0px"
	 viewBox="0 0 124.25 26.85" style="enable-background:new 0 0 124.25 26.85;" xml:space="preserve">
<style type="text/css">
	.st0{fill:none;stroke:#FFFFFF;stroke-width:1.6425;stroke-linecap:round;stroke-linejoin:round;stroke-miterlimit:10;}
	.st1{fill:#162162;}
	.st2{fill:none;stroke:#FFFFFF;stroke-width:1.1131;stroke-linecap:round;stroke-linejoin:round;stroke-miterlimit:10;}
	.st3{fill:#EB001B;}
	.st4{fill:#F79E1B;}
	.st5{fill:#01010D;}
	.st6{fill:#02020D;}
	.st7{fill:#02020E;}
	.st8{fill:#F3D19F;}
	.st9{fill:#ED9AA3;}
	.st10{fill:#D9D9D9;}
	.st11{fill:#FF5F00;}
	.st12{fill:#FF0101;}
	.st13{fill:#014785;}
	.st14{fill:#014885;}
	.st15{fill:#014886;}
	.st16{fill:#024886;}
	.st17{fill:#FF0202;}
	.st18{fill:#004785;}
	.st19{fill:#27669A;}
	.st20{fill:#2981AB;}
	.st21{fill:#41A3C2;}
	.st22{fill:#B496B6;}
	.st23{fill:#FE7D7D;}
	.st24{fill:#A4BBD2;}
	.st25{fill:#5D8AB1;}
	.st26{fill:#3C79A6;}
	.st27{fill:#6F98BB;}
	.st28{fill:#BFD1E1;}
	.st29{fill:#81A4C3;}
</style>
<g>
	<path class="st12" d="M116.34,19.8c0.01,0.41,0.02,0.83,0.02,1.24c0,0.72-0.32,1.16-1,1.41c-0.59,0.22-1.21,0.22-1.83,0.23
		c-0.54,0-1.07-0.07-1.58-0.19c-0.57-0.14-1.12-0.33-1.61-0.67c-0.42-0.3-0.63-0.72-0.7-1.22c-0.09-0.64-0.06-1.28-0.03-1.91
		c0.01-0.13,0.02-0.26,0.03-0.39c0-0.03,0-0.07,0.01-0.1c-0.03-0.01-0.07-0.04-0.1-0.03c-0.5,0.17-1,0.37-1.51,0.53
		c-0.22,0.07-0.46,0.11-0.68,0.1c-0.36-0.01-0.66-0.2-0.9-0.46c-0.25-0.27-0.45-0.59-0.58-0.93c-0.13-0.33-0.28-0.65-0.37-0.99
		c-0.1-0.38-0.16-0.77-0.22-1.16c-0.07-0.52-0.08-1.06,0-1.58c0.09-0.56,0.35-1.04,0.87-1.34c0.38-0.22,0.79-0.34,1.21-0.46
		c0.38-0.11,0.77-0.21,1.15-0.31c0.06-0.02,0.11-0.04,0.19-0.06c-0.13-0.17-0.25-0.32-0.37-0.47c-0.24-0.32-0.49-0.63-0.72-0.95
		c-0.34-0.47-0.36-0.96-0.1-1.46c0.17-0.32,0.4-0.58,0.67-0.82c0.93-0.81,1.99-1.37,3.18-1.66c0.31-0.08,0.65-0.07,0.98-0.07
		c0.33,0.01,0.63,0.15,0.86,0.38c0.25,0.25,0.49,0.51,0.7,0.79c0.31,0.42,0.6,0.87,0.91,1.32c0.05-0.06,0.09-0.12,0.13-0.18
		c0.29-0.41,0.56-0.83,0.86-1.23c0.33-0.44,0.78-0.62,1.32-0.56c0.47,0.05,0.9,0.22,1.3,0.47c1.05,0.66,1.91,1.51,2.5,2.61
		c0.14,0.26,0.25,0.53,0.28,0.83c0.03,0.3-0.03,0.59-0.17,0.85c-0.12,0.23-0.26,0.45-0.41,0.66c-0.36,0.48-0.73,0.94-1.12,1.43
		c0.04,0.02,0.09,0.04,0.14,0.06c0.53,0.16,1.06,0.3,1.59,0.47c0.41,0.13,0.72,0.4,0.87,0.83c0.03,0.1,0.06,0.21,0.09,0.31
		c0,0.23,0,0.45,0,0.68c-0.01,0.02-0.04,0.04-0.04,0.06c-0.04,0.52-0.22,1-0.41,1.48c-0.24,0.6-0.54,1.15-0.93,1.66
		c-0.2,0.27-0.44,0.51-0.68,0.74c-0.46,0.44-1,0.54-1.61,0.39c-0.53-0.13-1.03-0.32-1.54-0.5c-0.21-0.08-0.43-0.16-0.66-0.25
		c0,0.12,0,0.22,0,0.32C116.34,19.7,116.34,19.75,116.34,19.8z M111.65,17.15c0-0.02,0-0.05,0-0.07c-0.03,0.02-0.06,0.04-0.09,0.07
		c-0.53,0.29-1.06,0.59-1.6,0.89c0,0.01,0.01,0.03,0.03,0.05c0.98,0.93,2.15,1.41,3.51,1.45c0.11,0,0.23-0.02,0.33-0.05
		c0.12-0.04,0.23-0.11,0.23-0.28c0-0.3,0.04-0.38-0.28-0.55c-0.17-0.09-0.35-0.14-0.53-0.2c-0.35-0.12-0.72-0.2-1.05-0.4
		C111.85,17.84,111.63,17.58,111.65,17.15z M117.32,13c-0.03,0.03-0.05,0.06-0.08,0.09c0.03,0,0.06,0,0.09,0.01
		c0.63-0.02,1.24,0.11,1.87,0.26c-0.01-0.12-0.01-0.22-0.03-0.32c-0.07-0.26-0.13-0.51-0.23-0.76c-0.35-0.92-0.92-1.68-1.72-2.25
		c-0.08-0.05-0.16-0.1-0.25-0.14c-0.17-0.07-0.32-0.04-0.45,0.09c-0.13,0.13-0.17,0.29-0.1,0.45c0.07,0.17,0.17,0.34,0.28,0.49
		c0.13,0.19,0.29,0.37,0.41,0.56c0.13,0.21,0.26,0.43,0.35,0.66C117.57,12.44,117.53,12.74,117.32,13z M113.78,11.12
		c-0.27,0.61-0.76,1-1.27,1.37c-0.51,0.37-1.04,0.7-1.73,0.72c0.51,0.44,0.74,1.02,0.95,1.61c0.2,0.59,0.37,1.19,0.19,1.83
		c1.21-0.52,2.59-0.52,3.66,0c-0.05-1.28,0.27-2.43,1.17-3.41c-0.07-0.01-0.15-0.02-0.22-0.04c-0.17-0.04-0.35-0.05-0.49-0.13
		c-0.44-0.26-0.87-0.52-1.28-0.82c-0.39-0.28-0.72-0.62-0.91-1.08C113.84,11.16,113.81,11.15,113.78,11.12z M113.78,10.59
		c0.2-0.66,0.53-1.21,0.87-1.77c-0.48-0.07-0.93-0.07-1.38-0.03c-0.9,0.09-1.73,0.39-2.47,0.92c-0.07,0.05-0.14,0.11-0.19,0.17
		c-0.1,0.12-0.13,0.26-0.06,0.41c0.07,0.15,0.18,0.26,0.35,0.26c0.12,0,0.24,0,0.35-0.04c0.4-0.11,0.78-0.26,1.18-0.35
		C112.93,10.06,113.42,10.04,113.78,10.59z M116.3,19.03c0.26-0.17,0.48-0.3,0.69-0.45c0.81-0.58,1.42-1.33,1.8-2.26
		c0.07-0.17,0.1-0.36,0.12-0.54c0.02-0.15-0.07-0.29-0.21-0.32c-0.19-0.04-0.38-0.06-0.54,0.08c-0.13,0.12-0.24,0.25-0.35,0.38
		c-0.16,0.2-0.3,0.43-0.47,0.62c-0.15,0.17-0.31,0.32-0.49,0.46c-0.22,0.16-0.47,0.21-0.74,0.13c-0.05-0.02-0.11-0.01-0.14-0.02
		c0.07,0.31,0.15,0.62,0.21,0.93C116.23,18.34,116.26,18.66,116.3,19.03z M108.9,11.72c-0.07,0.16-0.13,0.28-0.17,0.4
		c-0.15,0.37-0.27,0.76-0.33,1.15c-0.09,0.55-0.08,1.1,0,1.65c0.04,0.29,0.1,0.58,0.26,0.84c0.09,0.14,0.21,0.27,0.39,0.25
		c0.2-0.03,0.38-0.12,0.43-0.35c0.03-0.14,0.05-0.29,0.05-0.43c0.01-0.33-0.01-0.66,0.01-0.98c0.03-0.51,0.18-0.96,0.73-1.14
		c0.01,0,0.02-0.02,0.03-0.04C109.77,12.7,109.36,12.21,108.9,11.72z"/>
	<path class="st13" d="M75.56,10.14c0.59,0.06,1.16,0.18,1.65,0.52c0.36,0.25,0.62,0.57,0.86,0.96c0.06-0.07,0.12-0.13,0.17-0.19
		c0.44-0.51,0.96-0.93,1.63-1.11c0.34-0.09,0.69-0.13,1.03-0.19c0.23,0,0.45,0,0.68,0c0.34,0.05,0.68,0.08,1.01,0.16
		c0.79,0.19,1.35,0.67,1.7,1.4c0.27,0.55,0.39,1.14,0.45,1.75c0.04,0.44,0.06,0.88,0.06,1.32c0.01,1.84,0,3.68,0,5.53
		c0,0.09-0.01,0.19-0.01,0.28c-0.68,0-1.37,0-2.05,0c0-0.09-0.01-0.19-0.01-0.28c0-1.86,0-3.73,0-5.59c0-0.47-0.04-0.93-0.17-1.38
		c-0.11-0.4-0.29-0.76-0.64-1.01c-0.19-0.14-0.4-0.24-0.64-0.25c-0.07,0-0.15-0.04-0.22-0.06c-0.21-0.07-0.42-0.08-0.63,0
		c-1.02,0.16-1.41,0.87-1.55,1.7c-0.05,0.31-0.07,0.62-0.07,0.93c-0.01,1.9,0,3.8,0,5.7c0,0.09-0.02,0.18-0.04,0.27
		c-0.08-0.01-0.17-0.03-0.25-0.03c-0.59,0-1.18,0-1.77,0c0-0.09-0.01-0.19-0.01-0.28c0-1.69,0-3.38,0-5.08
		c0-0.46-0.01-0.91-0.08-1.36c-0.05-0.33-0.1-0.65-0.23-0.95c-0.18-0.41-0.48-0.69-0.91-0.82c-0.12-0.04-0.25-0.06-0.37-0.09
		c-0.23-0.08-0.45-0.08-0.68,0c-0.88,0.14-1.37,0.69-1.6,1.52c-0.1,0.36-0.12,0.73-0.12,1.09c0,1.89,0,3.78,0,5.67
		c0,0.09-0.01,0.19-0.01,0.28c-0.68,0-1.37,0-2.05,0c0-0.07-0.01-0.14-0.01-0.21c0-3.27,0-6.54,0-9.81c0-0.07,0-0.14,0.01-0.21
		c0.67,0,1.35,0,2.02,0c0.01,0.01,0.03,0.03,0.04,0.04c0,0.28,0.01,0.56,0.01,0.85c0.02,0,0.04-0.01,0.06-0.01
		c0.34-0.47,0.82-0.75,1.36-0.94c0.27-0.1,0.55-0.11,0.82-0.16C75.17,10.14,75.36,10.14,75.56,10.14z"/>
	<path class="st14" d="M31.99,7.19c0,0.38,0.01,0.76,0.01,1.14c0,0.89,0,1.78,0,2.67c0,0.08,0,0.17,0,0.3
		c0.11-0.09,0.18-0.15,0.25-0.21c0.52-0.41,1.09-0.73,1.75-0.87c0.45-0.1,0.9-0.16,1.35-0.04c0.24,0.06,0.49,0.06,0.73,0.13
		c0.99,0.31,1.7,0.96,2.2,1.86c0.34,0.62,0.54,1.29,0.63,1.99c0.11,0.79,0.16,1.58,0.06,2.37c-0.16,1.26-0.59,2.39-1.56,3.27
		c-0.56,0.51-1.22,0.8-1.95,0.97c-0.04,0.01-0.09,0-0.13,0c-0.19,0.02-0.39,0.03-0.58,0.05c-0.05,0-0.1,0-0.15,0
		c-0.16-0.02-0.31-0.03-0.47-0.05c-0.02,0-0.03,0-0.05-0.01c-0.07-0.02-0.14-0.03-0.21-0.05c0,0,0,0,0,0
		c-0.05-0.02-0.11-0.03-0.16-0.05c-0.63-0.19-1.19-0.48-1.66-0.95c-0.02-0.01-0.04-0.01-0.06-0.02C32,20,32,20.29,31.99,20.57
		c-0.68,0-1.37,0-2.05,0.01c0-0.09-0.01-0.17-0.01-0.26c0-3.93,0-7.87,0-11.8c0-0.09,0-0.17,0-0.27c0.67-0.36,1.33-0.71,1.99-1.06
		C31.94,7.19,31.97,7.19,31.99,7.19z M32.02,13.26c-0.01,0.02-0.02,0.03-0.03,0.05c0,0.06-0.01,0.12-0.01,0.18c0,1.32,0,2.63,0,3.95
		c0,0.06,0.01,0.12,0.02,0.18c0.01,0.02,0.02,0.03,0.03,0.05c0.49,0.6,1.12,0.99,1.86,1.21c0.45,0.14,0.9,0.12,1.35,0
		c0.62-0.16,1.05-0.57,1.35-1.13c0.31-0.58,0.39-1.21,0.42-1.85c0.02-0.43-0.03-0.86-0.08-1.28c-0.06-0.47-0.18-0.91-0.38-1.33
		c-0.28-0.57-0.71-1-1.34-1.18c-0.15-0.05-0.31-0.07-0.47-0.1c-0.18-0.07-0.35-0.07-0.53,0C33.31,12.15,32.59,12.58,32.02,13.26z"/>
	<path class="st15" d="M64.01,11.96c-0.72,0.06-1.41,0.25-2.07,0.62c-0.29-0.49-0.52-1.01-0.79-1.52c0.79-0.51,1.64-0.76,2.55-0.87
		c0.19-0.02,0.38-0.03,0.58-0.05c0,0,0-0.01,0-0.01c0.26,0,0.52,0,0.78,0c0.65,0.09,1.29,0.15,1.89,0.45
		c1.08,0.53,1.69,1.39,1.8,2.6c0.02,0.21,0.03,0.43,0.03,0.65c0,2.17,0,4.34,0,6.51c0,0.09-0.02,0.18-0.04,0.27
		c-0.08-0.01-0.17-0.03-0.25-0.03c-0.59,0-1.18,0-1.77,0c-0.01-0.29-0.01-0.58-0.02-0.88c-0.01-0.02-0.01-0.04-0.02-0.05
		c-0.02,0.02-0.04,0.03-0.07,0.05c-0.6,0.54-1.29,0.91-2.09,1.07c-0.05,0.01-0.1,0.01-0.15,0.02c-0.16,0.02-0.31,0.03-0.47,0.05
		c-0.05,0-0.1,0-0.15,0c-0.17,0.02-0.3,0.01-0.42,0c-1.54-0.21-3.14-1.11-3.19-3.34c-0.02-0.71,0.12-1.37,0.54-1.96
		c0.41-0.58,0.98-0.95,1.64-1.17c0.32-0.11,0.65-0.15,0.98-0.22c0.08-0.02,0.16-0.03,0.25-0.05c0.54,0,1.07,0,1.61,0
		c0.5,0.04,0.99,0.13,1.46,0.31c0.03,0,0.05,0,0.08-0.01c0-0.25,0-0.51,0.01-0.76c0-0.02,0-0.04,0-0.06
		c-0.05-0.89-0.62-1.34-1.25-1.52c-0.15-0.04-0.3-0.06-0.45-0.09C64.68,11.87,64.35,11.88,64.01,11.96z M64.75,15.8L64.75,15.8
		c-0.26-0.08-0.52-0.08-0.79-0.01c-0.1,0.02-0.2,0.05-0.3,0.06c-0.3,0.02-0.58,0.12-0.83,0.27c-0.52,0.3-0.79,0.75-0.74,1.36
		c0.06,0.78,0.74,1.46,1.51,1.48c0.33,0.08,0.66,0.09,0.99,0c0.85-0.16,1.55-0.55,2.08-1.24c0.01-0.02,0.02-0.04,0.03-0.06
		c0-0.47,0-0.93,0-1.4c-0.01-0.01-0.02-0.03-0.03-0.04c-0.26-0.14-0.54-0.23-0.83-0.27c-0.17-0.02-0.35-0.07-0.52-0.1
		C65.13,15.84,64.94,15.82,64.75,15.8z"/>
	<path class="st15" d="M39.95,17.15c0.05-0.81,0.33-1.51,0.93-2.07c0.54-0.49,1.18-0.77,1.89-0.89c0.19-0.03,0.38-0.07,0.57-0.1
		c0.55,0,1.1,0,1.66,0c0.46,0.04,0.91,0.13,1.34,0.27c0.12,0.08,0.13,0.08,0.16-0.01c-0.01-0.36,0.01-0.73-0.05-1.08
		c-0.11-0.67-0.74-1.2-1.41-1.25c-0.06-0.01-0.13-0.04-0.19-0.05c-0.35-0.09-0.7-0.08-1.05,0c-0.72,0.07-1.42,0.25-2.07,0.62
		c-0.26-0.51-0.52-1.01-0.78-1.52c0.78-0.5,1.64-0.75,2.54-0.87c0.16-0.01,0.32-0.03,0.48-0.04c0.05,0,0.1-0.01,0.15-0.01
		c0.24,0,0.49,0,0.73,0c0.6,0.05,1.19,0.14,1.75,0.38c1.04,0.44,1.7,1.21,1.91,2.33c0.02,0.08,0.02,0.17,0.03,0.26
		c0,0.02,0,0.04,0.01,0.07c0.01,0.12,0.03,0.24,0.03,0.36c0,2.31,0,4.61,0,6.92c0,0.04-0.01,0.09-0.01,0.13c-0.69,0-1.37,0-2.06,0
		c-0.01-0.29-0.01-0.58-0.02-0.88c0-0.02-0.01-0.04-0.01-0.06c-0.02,0.02-0.05,0.04-0.07,0.06c-0.63,0.56-1.35,0.94-2.19,1.08
		c-0.17,0.02-0.35,0.03-0.52,0.05c-0.03,0-0.06,0-0.1,0c-0.23-0.02-0.45-0.03-0.68-0.05c-0.38-0.04-0.74-0.16-1.08-0.32
		c-1.18-0.55-1.8-1.48-1.89-2.77c-0.01-0.16-0.01-0.33-0.02-0.49C39.95,17.19,39.95,17.17,39.95,17.15z M44.54,15.8
		c-0.26-0.07-0.52-0.08-0.79,0c-0.4,0.05-0.78,0.12-1.13,0.33c-0.35,0.21-0.62,0.49-0.69,0.91c-0.01,0.02-0.01,0.04-0.02,0.06
		c0,0.14,0,0.27-0.01,0.41c0,0.03,0.01,0.05,0.01,0.08c0.07,0.54,0.36,0.94,0.85,1.17c0.2,0.09,0.42,0.14,0.63,0.2
		c0.34,0.09,0.69,0.09,1.03,0c0.08-0.02,0.17-0.03,0.25-0.05c0.66-0.18,1.22-0.52,1.68-1.03c0.07-0.08,0.15-0.16,0.15-0.29
		c-0.01-0.44-0.01-0.88-0.01-1.32c-0.01-0.02-0.03-0.03-0.04-0.05c-0.13-0.06-0.27-0.12-0.4-0.17
		C45.56,15.88,45.05,15.87,44.54,15.8z"/>
	<path class="st15" d="M91.3,18.98c0.67-0.08,1.29-0.29,1.86-0.65c0.07-0.05,0.14-0.09,0.24-0.15c0.37,0.44,0.74,0.87,1.11,1.31
		c-0.27,0.29-0.57,0.49-0.89,0.68c-0.49,0.28-1.02,0.46-1.57,0.57c-0.14,0.03-0.29,0.04-0.43,0.06c-0.24,0.02-0.49,0.03-0.73,0.05
		c-0.07,0-0.13,0-0.2,0c-0.17-0.02-0.35-0.03-0.52-0.05c-0.14-0.02-0.29-0.01-0.43-0.05c-1.81-0.56-2.9-1.79-3.37-3.61
		c-0.19-0.75-0.21-1.51-0.16-2.28c0.05-0.74,0.21-1.45,0.52-2.12c0.63-1.38,1.7-2.21,3.19-2.51c0.22-0.04,0.44-0.06,0.66-0.08
		c0.21,0,0.42,0,0.63,0c0.45,0.06,0.9,0.12,1.33,0.29c1.18,0.48,1.94,1.35,2.4,2.51c0.17,0.42,0.26,0.85,0.33,1.3
		c0.1,0.65,0.12,1.28,0.03,1.93c-0.11,0-0.22,0.01-0.34,0.01c-2.14,0-4.28,0-6.42,0c-0.08,0-0.16-0.01-0.23,0
		c-0.03,0-0.06,0.04-0.1,0.06c0.07,0.57,0.22,1.12,0.55,1.6c0.34,0.52,0.81,0.87,1.41,1.04c0.14,0.04,0.28,0.07,0.42,0.1
		C90.81,19.05,91.05,19.05,91.3,18.98z M93.3,14.5c-0.06-0.31-0.09-0.63-0.2-0.93c-0.28-0.79-0.82-1.33-1.66-1.52
		c-0.38-0.09-0.77-0.11-1.17-0.04c-0.47,0.08-0.87,0.28-1.2,0.6c-0.38,0.36-0.6,0.82-0.73,1.32c-0.05,0.19-0.07,0.38-0.1,0.58
		c0.06,0.02,0.12,0.05,0.18,0.05c0.34,0.01,0.67,0,1.01,0c1.21,0,2.41,0,3.62,0C93.13,14.55,93.24,14.61,93.3,14.5z"/>
	<path class="st13" d="M52.58,11.27c0.18-0.28,0.45-0.48,0.73-0.64c0.41-0.23,0.84-0.4,1.31-0.44c0.12-0.01,0.23-0.04,0.35-0.06
		c0.19,0,0.38,0,0.58,0c0.21,0.03,0.42,0.04,0.63,0.08c1.28,0.24,2.05,1.02,2.43,2.23c0.12,0.39,0.19,0.78,0.21,1.18
		c0.01,0.17,0.04,0.34,0.07,0.51c0,0.02,0,0.04,0,0.06c0,2.05,0.01,4.11,0.01,6.16c0,0.08-0.02,0.17-0.03,0.25
		c-0.08-0.01-0.17-0.03-0.25-0.03c-0.59,0-1.18,0-1.77,0c0-0.09-0.01-0.19-0.01-0.28c0-1.8,0-3.59,0-5.39
		c0-0.48-0.02-0.95-0.15-1.41c-0.06-0.22-0.14-0.45-0.26-0.64c-0.26-0.46-0.65-0.75-1.2-0.79c-0.07-0.01-0.13-0.04-0.19-0.05
		c-0.19-0.07-0.39-0.07-0.58,0c-1.2,0.15-1.7,0.97-1.86,1.89c-0.04,0.25-0.06,0.52-0.06,0.77c0,1.88,0,3.75,0,5.63
		c0,0.09-0.01,0.19-0.01,0.28c-0.68,0-1.37,0-2.05,0c0-0.07-0.01-0.14-0.01-0.21c0-3.26,0-6.52,0-9.79c0-0.06,0.01-0.12,0.01-0.18
		c0.69,0,1.37,0,2.06,0c0.01,0.29,0.01,0.58,0.02,0.87c0.01,0.01,0.01,0.02,0.02,0.03C52.57,11.29,52.57,11.28,52.58,11.27z"/>
	<path class="st16" d="M95.39,20.58c0.28-0.48,0.55-0.96,0.83-1.43c0.73-1.24,1.47-2.49,2.21-3.73c0.02-0.03,0.03-0.06,0.06-0.11
		c-0.05-0.09-0.11-0.2-0.17-0.3c-0.86-1.44-1.71-2.89-2.57-4.33c-0.06-0.1-0.1-0.21-0.15-0.32c0.77,0,1.53,0,2.3,0
		c0.57,1.05,1.15,2.11,1.72,3.16c0.05,0.09,0.1,0.18,0.17,0.32c0.08-0.14,0.13-0.25,0.19-0.35c0.52-0.97,1.04-1.93,1.55-2.9
		c0.04-0.08,0.1-0.16,0.15-0.24c0.13,0,0.26,0.01,0.39,0.01c0.63,0,1.26,0.01,1.89,0.01c-0.43,0.73-0.86,1.46-1.29,2.18
		c-0.5,0.84-1,1.67-1.5,2.51c-0.04,0.07-0.08,0.15-0.13,0.24c0.04,0.07,0.08,0.15,0.12,0.22c0.96,1.61,1.92,3.22,2.87,4.83
		c0.04,0.06,0.07,0.12,0.1,0.18c-0.09,0.02-0.18,0.05-0.27,0.05c-0.69,0-1.39,0-2.08,0c-0.48-0.88-0.97-1.77-1.45-2.65
		c-0.2-0.37-0.39-0.75-0.59-1.14c-0.33,0.61-0.64,1.2-0.97,1.79c-0.37,0.67-0.76,1.33-1.14,2C96.89,20.58,96.14,20.58,95.39,20.58z"
		/>
	<path class="st16" d="M2.07,16.01c0-0.34-0.02-0.62-0.02-0.96c0-0.01,0-0.05,0-0.08c0.06-0.31,0.09-0.63,0.17-0.93
		c0.53-2.06,1.89-3.27,3.94-3.74c0.27-0.06,0.54-0.08,0.81-0.12c0.31,0,0.63,0,0.94,0c0.43,0.06,0.85,0.13,1.25,0.29
		c0.77,0.31,1.4,0.81,1.95,1.47c-0.39,0.47-0.79,0.95-1.19,1.44c-0.07-0.07-0.14-0.12-0.2-0.18c-0.43-0.41-0.92-0.73-1.5-0.89
		c-0.14-0.04-0.28-0.06-0.42-0.1c-0.29-0.08-0.59-0.08-0.88,0c-0.72,0.1-1.35,0.39-1.85,0.93c-0.69,0.74-0.94,1.63-0.88,2.62
		c0.03,0.51,0.16,1,0.42,1.46c0.4,0.72,1,1.2,1.79,1.44c0.15,0.05,0.31,0.07,0.47,0.1c0.31,0.08,0.63,0.09,0.94,0
		c0.84-0.12,1.51-0.57,2.11-1.16c0.4,0.48,0.79,0.95,1.19,1.43c-0.45,0.54-0.96,0.99-1.58,1.3c-0.48,0.25-0.99,0.4-1.53,0.45
		c-0.41,0-0.83,0-1.24,0c-0.29,0.01-0.57-0.08-0.85-0.16C4,20.11,2.74,18.92,2.22,16.98C2.14,16.66,2.08,16.34,2.07,16.01z"/>
	<path class="st13" d="M18.1,8.24c0.66-0.35,1.31-0.71,1.97-1.06c0.02,0,0.04,0,0.06,0c0,0.28,0.01,0.55,0.01,0.83
		c0,0.69,0,1.38,0,2.08c0,0.08,0.02,0.16,0.04,0.25c0.04,0.01,0.08,0.02,0.12,0.02c0.65,0,1.3,0,1.95,0
		c0.01,0.11,0.02,0.22,0.02,0.33c0,0.45,0,0.89,0,1.34c0,0.08-0.02,0.17-0.02,0.25c-0.69,0-1.38,0-2.08,0.01
		c-0.01,0.02-0.02,0.03-0.03,0.05c0,0.57-0.01,1.14-0.01,1.71c0,1.2,0,2.4,0,3.6c0,0.17,0.01,0.35,0.04,0.51
		c0.06,0.36,0.24,0.62,0.62,0.71c0.24,0.09,0.48,0.07,0.72,0c0.45-0.09,0.84-0.29,1.25-0.53c-0.01,0.08-0.01,0.13-0.02,0.18
		c-0.13,0.54-0.27,1.07-0.41,1.61c-0.03,0.13-0.09,0.21-0.21,0.27c-0.34,0.18-0.7,0.3-1.08,0.35c-0.36,0-0.73,0-1.09,0
		c-0.54-0.1-0.98-0.37-1.32-0.79c-0.33-0.42-0.5-0.9-0.56-1.43c-0.02-0.23-0.03-0.47-0.03-0.7c0-1.74,0-3.47,0-5.21
		c0-0.09-0.01-0.19-0.01-0.28c0,0,0.02,0,0.02,0c-0.01-0.02-0.02-0.03-0.03-0.05c-0.1,0-0.21-0.01-0.31-0.01
		c-0.48,0-0.96-0.01-1.45-0.01c0-0.62,0-1.24,0.01-1.86c0.01-0.01,0.03-0.03,0.04-0.04c0.5,0,0.99,0,1.49-0.01
		c0.08,0,0.15-0.03,0.23-0.05c0.01-0.42,0.01-0.84,0.02-1.27c0-0.25,0.01-0.5,0.01-0.75C18.08,8.27,18.09,8.25,18.1,8.24z"/>
	<path class="st17" d="M10.93,8.67c1.7-2.61,5.16-4.7,8.99-4.49c3.89,0.22,6.79,2.63,7.88,4.47c-0.08,0.01-0.16,0.02-0.23,0.02
		c-0.65,0-1.3,0-1.95,0c-0.14,0-0.24-0.05-0.34-0.15c-1.25-1.23-2.74-2.04-4.47-2.36c-0.24-0.04-0.48-0.05-0.72-0.07
		c-0.3-0.02-0.6-0.06-0.9-0.05c-2.07,0.06-3.85,0.82-5.39,2.18c-0.03,0.03-0.07,0.05-0.09,0.09c-0.23,0.31-0.54,0.4-0.93,0.37
		c-0.52-0.03-1.04-0.01-1.56-0.01C11.14,8.67,11.06,8.67,10.93,8.67z"/>
	<path class="st18" d="M12.33,20.58c0-0.08-0.01-0.16-0.01-0.23c0-3.25,0-6.51,0-9.76c0-0.08,0.01-0.15,0.01-0.23
		c0.69,0,1.38,0,2.07,0c0.01,0.09,0.02,0.17,0.02,0.26c0,3.24,0,6.48,0,9.72c0,0.09-0.01,0.17-0.01,0.26
		C13.71,20.58,13.02,20.58,12.33,20.58z"/>
	<path class="st18" d="M24.43,20.58c0-0.08-0.01-0.15-0.01-0.23c0-3.25,0-6.51,0-9.76c0-0.08,0.01-0.16,0.01-0.23
		c0.69,0,1.39,0,2.08,0c0.01,0.09,0.02,0.19,0.02,0.28c0,3.22,0,6.45,0,9.67c0,0.09-0.01,0.19-0.02,0.28
		C25.82,20.58,25.13,20.58,24.43,20.58z"/>
	<path class="st19" d="M52.52,10.41c-0.69,0-1.37,0-2.06,0c-0.01-0.01-0.01-0.03-0.01-0.05c0.69,0,1.38,0,2.07,0
		C52.54,10.38,52.53,10.39,52.52,10.41z"/>
	<path class="st20" d="M90.88,20.83c0.24-0.02,0.49-0.03,0.73-0.05C91.36,20.8,91.12,20.82,90.88,20.83z"/>
	<path class="st21" d="M42.93,20.79c0.23,0.02,0.45,0.03,0.68,0.05C43.38,20.82,43.15,20.8,42.93,20.79z"/>
	<path class="st21" d="M34.77,20.84c0.19-0.02,0.39-0.03,0.58-0.05C35.15,20.81,34.96,20.82,34.77,20.84z"/>
	<path class="st22" d="M64.28,10.14c-0.19,0.02-0.38,0.03-0.58,0.05C63.89,10.17,64.09,10.16,64.28,10.14z"/>
	<path class="st20" d="M90.16,20.79c0.17,0.02,0.35,0.03,0.52,0.05C90.5,20.82,90.33,20.8,90.16,20.79z"/>
	<path class="st21" d="M43.7,20.84c0.17-0.02,0.35-0.03,0.52-0.05C44.05,20.8,43.87,20.82,43.7,20.84z"/>
	<path class="st20" d="M63.91,20.83c0.16-0.02,0.31-0.03,0.47-0.05C64.23,20.8,64.07,20.82,63.91,20.83z"/>
	<path class="st21" d="M34.15,20.78c0.16,0.02,0.31,0.03,0.47,0.05C34.46,20.82,34.3,20.8,34.15,20.78z"/>
	<path class="st23" d="M116.34,19.8c0-0.05,0-0.1-0.01-0.16C116.34,19.7,116.34,19.75,116.34,19.8z"/>
	<path class="st21" d="M33.89,20.73c0.07,0.02,0.14,0.03,0.21,0.05C34.03,20.76,33.96,20.75,33.89,20.73z"/>
	<path class="st23" d="M109.64,18.19c0,0.03,0,0.07-0.01,0.1C109.64,18.26,109.64,18.23,109.64,18.19z"/>
	<path class="st21" d="M33.73,20.68c0.05,0.02,0.11,0.03,0.16,0.05C33.84,20.72,33.78,20.7,33.73,20.68z"/>
	<path class="st24" d="M66.7,14.39c-0.03,0-0.05,0-0.08,0.01C66.65,14.4,66.67,14.39,66.7,14.39z"/>
	<path class="st25" d="M31.99,7.19c-0.02,0-0.05,0-0.07-0.01c0.02-0.01,0.04-0.02,0.06-0.03C31.98,7.17,31.99,7.18,31.99,7.19z"/>
	<path class="st26" d="M72.69,10.36c0.02-0.01,0.03-0.01,0.05,0c0,0.02,0,0.03-0.01,0.05C72.72,10.39,72.71,10.38,72.69,10.36z"/>
	<path class="st19" d="M16.28,10.36c0.02,0,0.03,0,0.05,0c-0.01,0.01-0.03,0.03-0.04,0.04C16.28,10.39,16.27,10.38,16.28,10.36z"/>
	<path class="st24" d="M20.17,12.28c0,0.02,0,0.03,0,0.05c0,0-0.02,0.01-0.02,0.01s-0.02,0-0.02,0
		C20.15,12.32,20.16,12.3,20.17,12.28z"/>
	<path class="st26" d="M72.8,11.24c-0.02,0-0.04,0.01-0.06,0.01C72.76,11.25,72.78,11.25,72.8,11.24z"/>
	<path class="st19" d="M52.58,11.27c-0.01,0.01-0.01,0.02-0.02,0.04c-0.01-0.01-0.01-0.02-0.02-0.03
		C52.56,11.27,52.57,11.27,52.58,11.27z"/>
	<path class="st26" d="M32.01,19.72c0.02,0.01,0.04,0.01,0.06,0.02C32.05,19.73,32.03,19.73,32.01,19.72z"/>
	<path class="st27" d="M18.1,8.24c-0.01,0.02-0.02,0.03-0.03,0.05C18.08,8.27,18.09,8.25,18.1,8.24z"/>
	<path class="st24" d="M20.12,7.18c-0.02,0-0.04,0-0.06,0C20.08,7.18,20.1,7.18,20.12,7.18z"/>
	<path class="st26" d="M48.55,13.17c0-0.02,0-0.04-0.01-0.07C48.54,13.12,48.54,13.14,48.55,13.17z"/>
	<path class="st24" d="M66.7,13.57c0,0.02,0,0.04,0,0.06C66.71,13.61,66.71,13.59,66.7,13.57z"/>
	<path class="st28" d="M58.9,14.2c0-0.02,0-0.04,0-0.06C58.89,14.16,58.89,14.18,58.9,14.2z"/>
	<path class="st28" d="M39.95,17.15c0,0.02,0,0.04,0,0.06C39.95,17.19,39.95,17.17,39.95,17.15z"/>
	<path class="st28" d="M31.99,17.62c0.01,0.02,0.02,0.03,0.03,0.05C32.01,17.65,32,17.64,31.99,17.62z"/>
	<path class="st28" d="M32.02,13.26c-0.01,0.02-0.02,0.03-0.03,0.05C32,13.3,32.01,13.28,32.02,13.26z"/>
	<path class="st29" d="M65.32,15.85c-0.19-0.02-0.38-0.03-0.57-0.05C64.94,15.82,65.13,15.84,65.32,15.85z"/>
	<path class="st28" d="M66.67,17.73c0.01-0.02,0.02-0.04,0.03-0.06C66.69,17.69,66.68,17.71,66.67,17.73z"/>
	<path class="st28" d="M66.7,16.27c-0.01-0.01-0.02-0.03-0.03-0.04C66.68,16.25,66.69,16.26,66.7,16.27z"/>
	<path class="st28" d="M41.9,17.52c0,0.03,0.01,0.05,0.01,0.08C41.91,17.57,41.91,17.54,41.9,17.52z"/>
	<path class="st28" d="M41.93,17.04c-0.01,0.02-0.01,0.04-0.02,0.06C41.92,17.08,41.92,17.06,41.93,17.04z"/>
	<path class="st28" d="M46.5,16.27c-0.01-0.02-0.03-0.03-0.04-0.05C46.47,16.24,46.48,16.26,46.5,16.27z"/>
	<path class="st27" d="M18.06,12.33c-0.01-0.02-0.02-0.03-0.03-0.05C18.05,12.3,18.05,12.31,18.06,12.33z"/>
</g>
</svg>
