<?xml version="1.0" encoding="utf-8"?>
<!-- Generator: Adobe Illustrator 27.9.0, SVG Export Plug-In . SVG Version: 6.00 Build 0)  -->
<svg version="1.1" id="Capa_1" xmlns="http://www.w3.org/2000/svg" xmlns:xlink="http://www.w3.org/1999/xlink" x="0px" y="0px"
	 viewBox="0 0 119.7 114.5" style="enable-background:new 0 0 119.7 114.5;" xml:space="preserve">
<style type="text/css">
	.st0{display:none;}
	.st1{display:inline;}
	.st2{fill:#0D2F57;}
	.st3{fill:#FFFFFF;}
</style>
<g id="Capa_2_00000158720499994973555060000002214981972414834060_" class="st0">
	<g class="st1">
		<path class="st2" d="M119.2,114.4c-2.7,0-5.5,0-8.2,0c-1.4,0-2.2-0.7-2.2-2.2c0-1.4,0-2.8,0-4.3c-0.5,0-0.8-0.1-1.2-0.1
			c-17.9,0-35.8,0-53.7,0c-0.3,0-0.6,0-0.9,0.1c-0.1,0.1-0.2,0.2-0.3,0.3c0,1.3,0,2.6-0.1,3.9c0,1.3-0.8,2.3-2.2,2.3
			c-2.9,0-5.8,0.1-8.7,0c-1.6,0-2.3-0.9-2.4-2.6c0-0.6,0-1.3,0-1.9s0-1.2,0-1.9c-2.6-0.6-3.9-2.4-3.9-5c0.1-22.6,0-45.2,0-67.7
			c0-0.7,0-1.5,0-2.4c-1.6,0-3.2,0-4.7,0c-0.3,0-0.8,0.5-0.8,0.9c-0.1,0.7-0.3,1.6,0,2.2c0.2,0.4,1.3,0.3,1.8,0.7
			c0.5,0.4,1.2,1.1,1.2,1.7c0.1,4.2,0.1,8.5,0,12.8c0,1.3-0.8,1.8-2,1.9c-1.5,0-3,0-4.6,0c-1.1,0-1.6-0.6-1.6-1.6
			c0-4.5,0-8.9,0-13.4c0-0.9,0.4-1.3,1.3-1.4c1,0,1.4-0.5,1.3-1.6c-0.2-3.4,1.5-4.9,4.7-4.7c1,0,2.1,0,3.3,0c0-0.5,0.1-0.9,0.1-1.2
			c0-5.7,0-11.4,0-17.2c0-4.8,3.1-8.2,8-8.7c5-0.4,10-0.9,15-1.2c5.1-0.3,10.2-0.5,15.3-0.7c3.4-0.1,6.8-0.3,10.2-0.3
			c5.4,0.1,10.7,0.3,16.1,0.6c3.9,0.2,7.8,0.5,11.6,0.9c3,0.3,6.1,0.8,9,1.6c3.3,0.9,5.3,3.8,5.3,7.4c0.1,6.1,0,12.3,0.1,18.4
			c0.2,0.2,0.4,0.4,0.6,0.6c1.4,0,2.8,0,4.2,0c1.7,0,2.6,1,2.7,2.7c0,0.7-0.1,1.5,0.1,2.2c0.1,0.4,0.7,1,1.1,1c1.4,0,1.9,0.9,1.9,2
			c0.1,4.2,0,8.4,0,12.6c0,1.2-0.9,1.7-1.8,1.8c-1.6,0.1-3.2,0.1-4.9,0c-1,0-1.6-0.7-1.6-1.7c0-4.3,0-8.6,0-12.9
			c0-1.1,0.4-1.8,1.6-1.7c1.8,0.1,1.1-1.3,1.2-2.1c0.1-0.9,0.1-1.7-1.2-1.6c-1.3,0.1-2.5,0-3.8,0.1c-0.1,0.1-0.2,0.2-0.2,0.3
			c0,6.3,0,12.6,0,18.9c0,16.8,0,33.6,0,50.4c0,3.2-1,4.6-4.1,5.5c0,1.2,0,2.5,0,3.7c0,1.5-0.6,2.4-2.2,2.7
			c-0.1-0.2-0.2-0.3-0.3-0.4C119.5,114.1,119.3,114.3,119.2,114.4z M92.1,103.8c2-0.5,1.1-2.2,1.2-3.4c0.2-1.2-0.4-1.7-1.6-1.7
			c-7,0-14.1,0-21.1,0c-0.1,0-0.2,0-0.3,0c-2.1,0-2.2,0.1-2.2,2c0,0.3,0,0.6,0,0.9c-0.2,1.4,0.4,2,1.9,2c6.9-0.1,13.8,0,20.8,0
			C91.3,104.7,91.7,104.7,92.1,103.8z M52.7,19.7c0.5,1.5,0.2,2.3-1.5,2.3c-1.9,0-3.8,0.2-5.6,0.1c-1.3,0-2.2,0.2-2.6,1.6
			c-1.8,0.9-3.2,1.9-3.2,4.2c0,14,0,28,0,42c0,2.8,1.4,4.2,4.2,4.5c3.2,0.3,6.4,0.7,9.6,0.9c5.1,0.4,10.2,1.1,15.3,1.2
			c7.7,0.1,15.4-0.1,23.1-0.3c4-0.1,8-0.3,12-0.6c4.5-0.3,9.1-0.8,13.6-1.3c3-0.3,4.6-2.1,4.6-5c0-13.2-0.1-26.5,0-39.7
			c0-3-0.8-5.1-3.8-6c0.1-1.2-0.4-1.5-1.5-1.6c-2.2-0.1-4.4-0.7-6.5-0.5c-2,0.2-1.8-0.8-1.7-1.9c2-0.2,3-1.2,3-3.3
			c0-1.8,0-3.7,0-5.5c0-2.6-1-3.5-3.6-3.5c-17.9,0-35.9,0-53.8,0c-0.6,0-1.2-0.1-1.7,0c-1.2,0.3-2.2,0.8-2.1,2.3
			c0.1,2.8,0,5.6,0,8.3c0.1,0.1,0.1,0.2,0.2,0.4C51.3,18.8,52,19.3,52.7,19.7z M113.9,89.9c0,2.4,1.7,4.1,3.8,4.1
			c2.4,0.1,4.4-2.1,4.4-4.1c0-2.4-1.6-4.1-4.4-4.2C115.8,85.7,113.6,87.7,113.9,89.9z M47.7,89.9c0-2.4-1.6-4.1-3.8-4.1
			c-2.3,0-4.3,1.9-4.3,4.1c0,2.1,2.2,4.1,4.3,4.1C46,94,47.7,92.2,47.7,89.9z M106.4,95c2.4,0.1,4.1-1.6,4.2-4.1
			c0.2-2-1.8-3.8-4-3.8c-2.7,0-4.4,1.5-4.4,4C102.2,93.1,104.2,94.9,106.4,95z M55.1,87.1c-2.5,0-3.9,1.4-3.9,3.8
			c0,2.6,1.5,4.1,3.9,4.1c2.4,0,4.2-1.5,4.2-4.1C59.3,88.6,57.5,86.7,55.1,87.1z"/>
		<path class="st2" d="M119.2,114.4c0.1-0.2,0.2-0.3,0.3-0.4c0.1,0.2,0.2,0.3,0.3,0.4C119.7,114.4,119.5,114.4,119.2,114.4z"/>
		<path class="st2" d="M52.8,108.2c0.1-0.1,0.2-0.2,0.3-0.3C53,108,52.9,108.1,52.8,108.2z"/>
		<path class="st2" d="M52.7,19.7c1.6,0,3.2-0.1,4.9-0.1c16.4,0,32.8,0,49.2,0c0.6,0,1.2,0,1.7,0.1c0,1.2-0.3,2.2,1.7,1.9
			c2.1-0.2,4.3,0.4,6.5,0.5c1.2,0.1,1.7,0.4,1.5,1.6c-0.9,0-1.8,0-2.7,0c-24,0-47.9,0-71.9,0c-0.3,0-0.5,0-0.8-0.1
			c0.4-1.4,1.3-1.6,2.6-1.6c1.9,0.1,3.8-0.1,5.6-0.1C52.9,22,53.3,21.2,52.7,19.7z"/>
		<path class="st2" d="M90.9,103.8c0.4,0,0.8,0,1.3,0C91.7,104.7,91.3,104.7,90.9,103.8z"/>
		<path class="st2" d="M50.3,18c0.1,0.1,0.1,0.2,0.2,0.4C50.5,18.3,50.4,18.2,50.3,18z"/>
	</g>
</g>
<g id="Capa_3">
	<g>
		<g id="Capa_1_00000124866510233141782730000008262942243197469885_">
			<g>
				<path class="st3" d="M96.1,110.9c-2.6,0-5.2,0-7.8,0c-1.4,0-2.1-0.7-2.1-2.1c0-1.3,0-2.7,0-4.1c-0.4,0-0.8-0.1-1.1-0.1
					c-16.9,0-33.9,0-50.8,0c-0.3,0-0.6,0-0.9,0.1c-0.1,0.1-0.2,0.2-0.2,0.3c0,1.2,0,2.5-0.1,3.7c0,1.3-0.8,2.2-2.1,2.2
					c-2.7,0-5.5,0.1-8.2,0c-1.5,0-2.2-0.8-2.3-2.5c0-0.6,0-1.2,0-1.8s0-1.2,0-1.8c-2.5-0.6-3.7-2.3-3.7-4.8c0.1-21.4,0-42.8,0-64.2
					c0-0.7,0-1.4,0-2.3c-1.5,0-3,0-4.5,0c-0.3,0-0.7,0.5-0.8,0.8c-0.1,0.7-0.3,1.5,0,2.1c0.2,0.4,1.2,0.3,1.7,0.7
					c0.5,0.4,1.2,1.1,1.2,1.6c0.1,4,0.1,8.1,0,12.1c0,1.2-0.8,1.7-1.9,1.8c-1.4,0-2.9,0-4.3,0c-1.1,0-1.5-0.5-1.5-1.5
					c0-4.2,0-8.5,0-12.7c0-0.9,0.3-1.3,1.2-1.3c1,0,1.3-0.5,1.3-1.5c-0.2-3.2,1.4-4.6,4.5-4.5c1,0,2,0,3.1,0c0-0.4,0.1-0.8,0.1-1.2
					c0-5.4,0-10.9,0-16.3c0-4.6,3-7.8,7.5-8.2c4.7-0.4,9.5-0.9,14.2-1.2c4.8-0.3,9.7-0.5,14.5-0.6c3.2-0.1,6.4-0.3,9.7-0.2
					C67.9,3.6,73,3.8,78.1,4.1c3.7,0.2,7.3,0.5,11,0.9c2.9,0.3,5.8,0.7,8.6,1.5c3.1,0.9,5,3.6,5,7c0.1,5.8,0,11.6,0.1,17.5
					c0.2,0.2,0.4,0.4,0.5,0.6c1.4,0,2.7,0,4,0c1.6,0,2.5,0.9,2.5,2.6c0,0.7-0.1,1.5,0.1,2.1c0.1,0.4,0.7,0.9,1.1,0.9
					c1.4,0,1.8,0.8,1.9,1.9c0.1,4,0,8,0,11.9c0,1.1-0.8,1.6-1.7,1.7c-1.5,0.1-3.1,0.1-4.6,0c-1,0-1.5-0.7-1.5-1.7
					c0-4.1,0-8.2,0-12.2c0-1.1,0.4-1.7,1.6-1.6c1.7,0.1,1-1.2,1.1-2c0.1-0.8,0.1-1.6-1.2-1.5c-1.2,0.1-2.4,0-3.6,0.1
					c-0.1,0.1-0.2,0.2-0.2,0.3c0,6,0,11.9,0,17.9c0,15.9,0,31.8,0,47.7c0,3-1,4.3-3.9,5.2c0,1.2,0,2.3,0,3.5c0,1.4-0.6,2.3-2.1,2.5
					c-0.1-0.1-0.2-0.3-0.3-0.4C96.3,110.6,96.2,110.7,96.1,110.9z M70.4,100.8c1.9-0.5,1-2.1,1.2-3.2c0.2-1.1-0.4-1.6-1.5-1.6
					c-6.6,0-13.3,0-20,0c-0.1,0-0.2,0-0.3,0c-2,0-2.1,0.1-2.1,1.9c0,0.3,0,0.6,0,0.9c-0.1,1.4,0.4,1.9,1.8,1.9
					c6.6-0.1,13.1,0,19.6,0C69.6,101.6,70,101.6,70.4,100.8z M33.1,21.1c0.5,1.4,0.1,2.1-1.4,2.2c-1.8,0-3.6,0.2-5.3,0.1
					c-1.2,0-2.1,0.2-2.5,1.5c-1.7,0.8-3,1.8-3,4c0,13.3,0,26.6,0,39.8c0,2.6,1.3,4,4,4.3c3,0.3,6,0.6,9.1,0.9
					c4.8,0.4,9.7,1,14.5,1.1c7.3,0.1,14.6-0.1,21.8-0.2c3.8-0.1,7.6-0.3,11.4-0.6c4.3-0.3,8.6-0.8,12.9-1.2c2.8-0.3,4.4-2,4.4-4.8
					c0-12.5-0.1-25,0-37.6c0-2.9-0.8-4.9-3.6-5.7c0.1-1.1-0.4-1.5-1.5-1.5c-2.1-0.1-4.2-0.7-6.2-0.5c-1.9,0.2-1.7-0.7-1.7-1.8
					c1.9-0.1,2.9-1.2,2.9-3.1c0-1.7,0-3.5,0-5.2c0-2.4-0.9-3.4-3.4-3.4c-17,0-34,0-51,0c-0.6,0-1.1-0.1-1.6,0
					c-1.2,0.2-2.1,0.8-2,2.2c0.1,2.6,0,5.3,0,7.9c0.1,0.1,0.1,0.2,0.2,0.3C31.7,20.3,32.4,20.7,33.1,21.1z M91,87.6
					c0,2.2,1.6,3.9,3.6,3.9c2.3,0.1,4.1-2,4.1-3.8c0-2.2-1.5-3.8-4.1-3.9C92.8,83.7,90.7,85.5,91,87.6z M28.3,87.6
					c0-2.3-1.5-3.9-3.6-3.9c-2.2,0-4.1,1.8-4.1,3.9c0,2,2,3.9,4.1,3.9S28.4,89.8,28.3,87.6z M84,92.4c2.3,0.1,3.8-1.5,4-3.9
					c0.2-1.9-1.7-3.6-3.8-3.6c-2.5,0-4.1,1.4-4.2,3.8C79.9,90.6,81.8,92.4,84,92.4z M35.3,85c-2.3,0-3.7,1.3-3.7,3.6
					c0,2.4,1.4,3.9,3.7,3.9c2.2,0,4-1.4,4-3.9C39.3,86.4,37.6,84.6,35.3,85z"/>
				<path class="st3" d="M95.9,110.9c0.1-0.2,0.3-0.4,0.5-0.6c0.1,0.2,0.3,0.4,0.4,0.6C96.5,110.9,96.2,110.9,95.9,110.9z"/>
				<path class="st3" d="M36.7,104.2c0.1-0.1,0.2-0.2,0.3-0.3C36.8,104,36.7,104.1,36.7,104.2z"/>
				<path class="st3" d="M33.1,21.1c1.5,0,3.1-0.1,4.6-0.1c15.5,0,31.1,0,46.6,0c0.5,0,1.1,0,1.6,0.1c0,1.1-0.3,2.1,1.7,1.8
					c2-0.2,4.1,0.4,6.2,0.5c1.1,0,1.6,0.4,1.5,1.5c-0.8,0-1.7,0-2.5,0c-22.7,0-45.4,0-68.1,0c-0.2,0-0.5,0-0.7-0.1
					c0.3-1.3,1.2-1.5,2.5-1.5c1.8,0,3.6-0.1,5.3-0.1C33.3,23.3,33.6,22.5,33.1,21.1z"/>
				<path class="st3" d="M77.5,99.5c0.4,0,0.9,0,1.3,0C78.4,100.4,77.9,100.4,77.5,99.5z"/>
				<path class="st3" d="M34,7.5c0.1,0.1,0.1,0.3,0.2,0.4C34.1,7.8,34.1,7.6,34,7.5z"/>
			</g>
		</g>
		<path class="st3" d="M68.5,100.8H71c0,0,1.1,1.4,0.7,1.4s-4.3,0.3-4.3,0.3L68.5,100.8z"/>
	</g>
</g>
</svg>
