<?xml version="1.0" encoding="utf-8"?>
<!-- Generator: Adobe Illustrator 26.1.0, SVG Export Plug-In . SVG Version: 6.00 Build 0)  -->
<svg version="1.1" xmlns="http://www.w3.org/2000/svg" xmlns:xlink="http://www.w3.org/1999/xlink" x="0px" y="0px"
	 viewBox="0 0 195 195" style="enable-background:new 0 0 195 195;" xml:space="preserve">
<style type="text/css">
	.st0{display:none;}
	.st1{display:inline;}
	.st2{fill:#5A6E7F;}
	.st3{fill:#5CBFAB;}
	.st4{fill:#FFFFFF;}
	.st5{fill:#97D5C9;}
	.st6{fill:#0071BC;}
	.st7{display:inline;fill:#FFFFFF;}
	.st8{display:inline;fill:#FFFFFF;stroke:#000000;stroke-miterlimit:10;}
	.st9{fill:none;stroke:#000000;stroke-miterlimit:10;}
	.st10{fill:#EFEFEF;}
	.st11{fill:#212121;}
	.st12{fill:#004178;}
	.st13{fill:#333333;}
	.st14{display:inline;fill:#004178;}
	.st15{fill:none;stroke:#004178;stroke-width:3;stroke-miterlimit:10;}
</style>
<g id="Capa_1" class="st0">
	<g id="Capa_9">
		<g class="st1">
			<g>
				<g>
					<path class="st2" d="M175.4,135.8l0.1-19.1V56.4h-156v79.4H24 M25,79.8h1c4.7,0,9-1.9,12.1-5s5-7.3,5-12.1v-1.1h107.7h1.1v1.1
						c0,4.7,1.9,9,5,12.1s7.3,5,12.1,5h1.1v32.8H169c-4.7,0-9,1.9-12.1,5s-5,7.3-5,12.1v1.1H43.1v-1.1c0-4.7-1.9-9-5-12.1
						s-7.4-5-12.1-5h-1C25,112.5,25,79.8,25,79.8z"/>
				</g>
				<g>
					<path class="st3" d="M96.8,63.8H45.2c-0.5,9.8-8.3,17.5-18.1,18.1v28.5c9.8,0.5,17.5,8.3,18.1,18.1h51.6
						c-17.6-0.4-31.7-14.7-31.7-32.3C65.1,78.5,79.2,64.2,96.8,63.8z"/>
					<path class="st3" d="M98.2,128.5h51.6c0.5-9.8,8.3-17.5,18.1-18.1V81.9c-9.8-0.5-17.5-8.3-18.1-18.1H98.2
						c17.5,0.4,31.7,14.7,31.7,32.3C129.9,113.8,115.8,128.1,98.2,128.5z"/>
					<path class="st4" d="M151.9,130.6v-1.1c0-4.7,1.9-9,5-12.1s7.3-5,12.1-5h1.1V79.8H169c-4.7,0-9-1.9-12.1-5s-5-7.3-5-12.1v-1.1
						h-1.1H43.1v1.1c0,4.7-1.9,9-5,12.1s-7.4,5-12.1,5h-1v32.8h1c4.7,0,9,1.9,12.1,5s5,7.3,5,12.1v1.1L151.9,130.6L151.9,130.6z
						 M149.8,63.8c0.5,9.8,8.3,17.5,18.1,18.1v28.5c-9.8,0.5-17.5,8.3-18.1,18.1H98.2c17.5-0.4,31.7-14.7,31.7-32.3
						s-14.1-32-31.7-32.3L149.8,63.8L149.8,63.8z M124.3,96.1c0,14.8-12,26.8-26.8,26.8s-26.8-12-26.8-26.8s12-26.8,26.8-26.8
						C112.3,69.4,124.3,81.4,124.3,96.1z M27.1,110.4V81.9c9.8-0.5,17.5-8.3,18.1-18.1h51.6c-17.6,0.4-31.7,14.7-31.7,32.3
						s14.1,32,31.7,32.3H45.2C44.7,118.7,36.9,110.9,27.1,110.4z"/>
					<path class="st5" d="M92,89c0,1.3,0.7,2.3,2.2,2.8v-5.5L94,86.4C92.7,87,92,87.9,92,89z"/>
					<path class="st5" d="M101.1,106.8c0.2-0.1,0.5-0.2,0.7-0.4c1.3-0.8,1.9-1.9,1.9-3.3c0-1.5-0.9-2.6-2.7-3.1L101.1,106.8
						L101.1,106.8z"/>
					<path class="st5" d="M97.5,69.4c-14.8,0-26.8,12-26.8,26.8s12,26.8,26.8,26.8s26.8-12,26.8-26.8S112.3,69.4,97.5,69.4z
						 M108,111.5c-2,1.3-4.3,2.1-6.9,2.5v3.1c0,1-0.8,1.8-1.8,1.8H96c-1,0-1.8-0.8-1.8-1.8V114c-3-0.5-5.7-1.6-8.1-3.4
						c-1.5-1.1-2.7-2.3-3.5-3.5c-0.3-0.3-0.4-0.6-0.4-1c0-0.5,0.3-1,0.8-1.3l3.4-2l0,0c0,0,0.7-0.3,1-0.3c0.6,0,1.1,0.2,1.5,0.7
						c1.7,1.8,3.4,3,5.3,3.7v-7.8c-4.3-0.7-7.5-2.3-9.4-4.9c-1.2-1.5-1.7-3.3-1.8-5.2c-0.1-4,2.1-7.1,6.6-9.1
						c1.4-0.6,2.9-1.1,4.6-1.3v-3.4c0-1,0.8-1.8,1.8-1.8h3.3c1,0,1.8,0.8,1.8,1.8v3.5c3.6,0.6,6.6,2.3,8.9,4.9
						c0.3,0.3,0.5,0.7,0.5,1.1c0,0.5-0.3,0.9-0.8,1.2l-3.7,2.3l0,0c0,0-0.7,0.3-1.1,0.3c-0.6,0-1.1-0.2-1.5-0.6
						c-0.7-0.6-1.5-1.1-2.2-1.5v6.2c4.4,0.6,7.7,2.2,9.8,4.7c1.3,1.6,1.9,3.5,1.9,5.7C112.7,106.6,111.1,109.4,108,111.5z"/>
					<path class="st2" d="M96,118.8h3.3c1,0,1.8-0.8,1.8-1.8v-3c2.6-0.4,4.9-1.2,6.9-2.5c3.1-2,4.7-4.8,4.7-8.4
						c0-2.2-0.6-4.1-1.9-5.7c-2.1-2.5-5.3-4.1-9.8-4.7v-6.2c0.8,0.4,1.5,0.8,2.2,1.5c0.4,0.4,1,0.6,1.5,0.6s1.1-0.3,1.1-0.3l0,0
						l3.7-2.3c0.5-0.3,0.8-0.7,0.8-1.2c0-0.4-0.2-0.8-0.5-1.1c-2.3-2.6-5.3-4.3-8.9-4.9v-3.5c0-1-0.8-1.8-1.8-1.8H96
						c-1,0-1.8,0.8-1.8,1.8v3.4c-1.7,0.2-3.2,0.7-4.6,1.3c-4.5,1.9-6.6,5-6.6,9c0,2,0.6,3.7,1.8,5.2c1.9,2.6,5.1,4.2,9.4,4.9v7.8
						c-1.9-0.7-3.6-1.9-5.3-3.7c-0.4-0.5-0.8-0.7-1.5-0.7c-0.3,0-1,0.3-1,0.3l0,0l-3.4,2c-0.6,0.3-0.8,0.8-0.8,1.3
						c0,0.4,0.1,0.7,0.4,1c0.9,1.2,2.1,2.4,3.5,3.5c2.4,1.8,5.1,3,8.1,3.4v3.1C94.2,118,95,118.8,96,118.8z M101.1,99.9
						c1.8,0.6,2.7,1.6,2.7,3.1c0,1.4-0.7,2.5-1.9,3.3c-0.2,0.1-0.5,0.3-0.7,0.4L101.1,99.9L101.1,99.9z M92,89c0-1.1,0.6-2,1.9-2.6
						l0.2-0.1v5.5C92.8,91.3,92.1,90.3,92,89z"/>
				</g>
			</g>
			<g>
				<g>
					<path class="st6" d="M127.6,154.4c1.8-2.1,5-2.4,7.1-0.7l14.9,16c2.1,1.8,2.4,4.9,0.7,7.1l-14.8,15.6c-1.8,2.1-4.9,2.4-7.1,0.7
						c-2.1-1.8-2.4-4.9-0.7-7.1l6.5-7.9l-84.1,0.5c-2.8,0-5.1-2.2-5.1-5s2.2-5.1,5-5.1l84.4-0.6l-6.2-6.5
						C126.1,159.7,125.8,156.5,127.6,154.4z"/>
				</g>
			</g>
			<g>
				<g>
					<path class="st6" d="M127.6,2.6c1.8-2.2,5-2.5,7.1-0.7l14.9,16c2.1,1.8,2.4,4.9,0.7,7.1l-14.8,15.6c-1.8,2.2-4.9,2.5-7.1,0.7
						c-2.1-1.8-2.4-5-0.7-7.1l6.5-7.9l-84.1,0.5c-2.8,0-5.1-2.2-5.1-5s2.2-5.1,5-5.1l84.4-0.5l-6.2-6.5
						C126.1,7.9,125.8,4.8,127.6,2.6z"/>
				</g>
			</g>
		</g>
	</g>
	<g id="Capa_2_00000178200917212403108600000002309588593490442369_">
		<path class="st7" d="M189.5,144.5H100c-2.7,0-4.9-2.2-4.9-4.9V50.1c0-2.7,2.2-4.9,4.9-4.9h89.5c2.7,0,4.9,2.2,4.9,4.9v89.5
			C194.4,142.3,192.2,144.5,189.5,144.5z"/>
		<path class="st7" d="M24.9,67.9H85c1.5,0,2.7-1.2,2.7-2.7v-1.8c0-1.5-1.2-2.7-2.7-2.7H24.9c-1.5,0-2.7,1.2-2.7,2.7v1.8
			C22.2,66.8,23.4,67.9,24.9,67.9z"/>
		<path class="st7" d="M3.3,98.4h60.1c1.5,0,2.7-1.2,2.7-2.7v-1.8c0-1.5-1.2-2.7-2.7-2.7H3.3c-1.5,0-2.7,1.2-2.7,2.7v1.8
			C0.7,97.2,1.8,98.4,3.3,98.4z"/>
		<path class="st7" d="M17.1,128.9h60.1c1.5,0,2.7-1.2,2.7-2.7v-1.8c0-1.5-1.2-2.7-2.7-2.7H17.1c-1.5,0-2.7,1.2-2.7,2.7v1.8
			C14.5,127.7,15.7,128.9,17.1,128.9z"/>
		<rect x="106.7" y="53.7" class="st8" width="25.2" height="25.2"/>
		<g class="st1">
			<g>
				<line class="st9" x1="143.4" y1="79.2" x2="143.4" y2="59.4"/>
				<g>
					<path d="M143.4,53.4c1.1,2.8,2.9,6.4,4.8,8.5l-4.8-1.7l-4.8,1.7C140.5,59.7,142.3,56.2,143.4,53.4z"/>
				</g>
			</g>
		</g>
	</g>
	<g id="Capa_3">
		<g class="st1">
			<polygon class="st4" points="19.5,0.1 19.5,194.9 175.5,194.9 175.5,0.1 163.1,11.7 151.5,0.1 138.9,12.6 125.3,0.1 109.7,11.7 
				96.5,0.1 83.2,10.7 71.3,0.1 58.9,10.7 45.9,0.1 30.1,10.7 			"/>
			<path d="M95.8,88.7h4.4c1.3,0,2.4-1.1,2.4-2.4v-4.1c3.5-0.5,6.6-1.6,9.2-3.3c4.1-2.7,6.2-6.5,6.3-11.3c0.1-3-0.8-5.5-2.5-7.6
				c-2.8-3.3-7.1-5.4-13.1-6.2v-8.3c1,0.5,2,1.1,3,2c0.6,0.5,1.3,0.7,2.1,0.7c0.6,0,1.5-0.4,1.5-0.4l0,0l5-3.1c0.7-0.4,1-1,1-1.6
				c0-0.5-0.2-1-0.6-1.4c-3.1-3.5-7.1-5.7-11.9-6.5v-4.7c0-1.3-1.1-2.4-2.4-2.4h-4.4c-1.3,0-2.4,1.1-2.4,2.4V35
				c-2.3,0.3-4.3,0.9-6.2,1.7c-5.9,2.7-8.9,6.8-8.8,12.1c0,2.6,0.8,5,2.4,7c2.6,3.5,6.8,5.6,12.6,6.5v10.4c-2.5-0.9-4.9-2.5-7.1-4.9
				c-0.5-0.6-1.1-1-1.9-1c-0.5,0-1.3,0.4-1.3,0.4l0,0l-4.5,2.6c-0.8,0.4-1.1,1-1.1,1.8c0,0.5,0.2,0.9,0.5,1.3
				c1.2,1.6,2.7,3.2,4.7,4.7c3.2,2.5,6.8,4,10.8,4.6v4.1C93.4,87.7,94.4,88.7,95.8,88.7z M102.6,63.5c2.4,0.7,3.6,2.1,3.6,4.2
				c0,1.9-0.9,3.4-2.6,4.4c-0.3,0.2-0.6,0.4-1,0.5V63.5z M90.4,48.9c0-1.5,0.8-2.6,2.6-3.5l0.3-0.1v7.4
				C91.4,51.9,90.5,50.6,90.4,48.9z"/>
			<rect x="39.3" y="50.8" width="23.6" height="5.3"/>
			<rect x="132.6" y="50.8" width="23.6" height="5.3"/>
			<rect x="31.7" y="105.5" width="132" height="9.8"/>
			<rect x="31.2" y="126.8" width="132" height="9.8"/>
			<rect x="31.2" y="148.2" width="132" height="9.8"/>
			<rect x="31.2" y="169.5" width="132" height="9.8"/>
		</g>
	</g>
	<g id="Capa_4">
		<g class="st1">
			<path class="st2" d="M0,52v110.9c0,0.6,0.7,0.9,1.1,0.5l57.7-52.8c0.7-0.6,0.7-1.7,0.1-2.4L1.1,51.4C0.7,51,0,51.3,0,52z"/>
			<path class="st2" d="M112.7,113.4l-13.5,13.2c-3,2.9-6.9,4.5-11,4.5c-4,0-7.7-1.5-10.5-4.3L64,113.4l-0.4-0.4L6.9,164.9
				c-0.2,0.2-0.1,0.7,0.2,0.7h162.4c0.3,0,0.5-0.4,0.2-0.7L113.1,113L112.7,113.4z"/>
			<path class="st2" d="M118,110.6l57.6,52.7c0.4,0.4,1.1,0.1,1.1-0.5V82.3c10.7-3.7,18.3-13.8,18.3-25.7c0-15-12.2-27.2-27.2-27.2
				c-11.3,0-20.9,6.9-25,16.7H3.8c-0.3,0-0.5,0.4-0.2,0.7L63.8,106l3.6,3.6l13.7,13.5c0.5,0.5,1,0.9,1.6,1.3l0.6,0.3
				c0.4,0.2,0.8,0.4,1.2,0.6l0.8,0.2c0.4,0.1,0.7,0.2,1.1,0.3l0.9,0.1c0.4,0,0.7,0.1,1.1,0.1s0.8-0.1,1.1-0.1l0.9-0.1
				c0.4-0.1,0.8-0.2,1.2-0.3l0.8-0.2c0.4-0.2,0.8-0.4,1.2-0.6l0.6-0.3c0.6-0.4,1.2-0.8,1.7-1.4l13.5-13.2l3.6-3.6l33.4-32.8
				c1,1.3,2.2,2.6,3.4,3.7L118,108.2C117.3,108.9,117.3,110,118,110.6z M147.6,56.6c0-11.2,9.1-20.2,20.2-20.2
				c11.1,0,20.2,9.1,20.2,20.2s-9.1,20.2-20.2,20.2C156.7,76.8,147.6,67.8,147.6,56.6z"/>
			<path class="st2" d="M166.3,64.2c-2.1,0-4.3-0.6-5.3-1.2l-1,4.1c1.3,0.7,3.7,1.3,6.5,1.3c6.3,0,10.1-3.9,10.1-8.2
				c0-2.7-1.1-4.7-2.8-5.9s-3.9-1.7-6.2-1.7c-0.6,0-1,0-1.5,0.1l0.5-3.6h9.1v-4.5h-12.9l-1.6,12.3c1-0.1,1.9-0.2,3.2-0.2
				c4.7,0,6.6,1.5,6.6,3.9C171,63.1,168.6,64.2,166.3,64.2z"/>
		</g>
	</g>
	<g id="Capa_5">
		<g class="st1">
			<path class="st4" d="M31.8,186.7h131.4V8.3H31.8V186.7z M51.2,30.7h104.4v12.5H51.2V30.7z M39.4,58.9h116.2v12.5H39.4V58.9z
				 M39.4,87.2h116.2v12.5H39.4V87.2z M39.4,115.4h116.2v12.5H39.4V115.4z M39.4,143.7h87.4v12.5H39.4V143.7z"/>
			<path class="st2" d="M105.2,0H27.6c-1.1,0-2.2,0.4-2.9,1.2C23.9,2,23.5,3,23.5,4.1V119v71.8c0,1.1,0.4,2.2,1.2,2.9
				c0.8,0.8,1.8,1.2,2.9,1.2h139.7c1.1,0,2.2-0.4,2.9-1.2c0.8-0.8,1.2-1.8,1.2-2.9V4.2c0-1.1-0.4-2.2-1.2-2.9
				c-0.8-0.8-1.9-1.2-2.9-1.2L105.2,0L105.2,0z M163.2,186.7H31.8V8.3h131.4V186.7z"/>
		</g>
	</g>
	<g id="Capa_6">
		<g class="st1">
			<path class="st4" d="M54.1,133.5c38.2,47,85.9,71.9,108.7,57.4l0.3-0.2c0.7-0.4,1.3-0.9,2-1.4c0.5-0.4,0.9-0.8,1.3-1.2V188
				c0.5-0.4,1.1-0.7,1.6-1.1c0.4-0.3,0.8-0.7,1.2-1.1c12.9-20.3-28.3-55.2-37.3-48.1l-2.7,2.2l-1.6,1.3l-2,1.6
				c-3.2,2.6-7.2,2.8-9,0.6l-4.7-5.8c-3.7-7.9-11.8-20.1-22.4-33.1C79,91.5,68.6,81,61.7,75.9L57,70.3c-1.8-2.2-0.7-6.1,2.4-8.7
				l0.6-0.5l1.4-1.1l2.5-2l2.3-1.9l0.3-0.3C72.7,41.9,45.4,2.4,31,6.1L28.7,8l-0.9,0.7L24.9,11l-0.4,0.3l-1.6,1.3l-1,0.8l-2.2,1.8
				l0.1,0.1C1.2,34.8,15.9,86.5,54.1,133.5z"/>
			<path class="st4" d="M72.8,50.8c8.4-6.8,7.8-21.6-0.9-34.1c-0.6-0.9-1.3-1.9-2.1-2.8C59.2,0.8,43.3-3.9,34.3,3.5L31,6.1
				c14.4-3.7,41.7,35.8,35.5,49.7L72.8,50.8z"/>
			<path class="st4" d="M169.8,185.2l0.9-0.7l6.5-5.3c9-7.3,7.7-23.8-2.9-36.8c-0.7-0.9-1.5-1.7-2.2-2.5
				c-10.5-11.1-24.9-14.6-33.2-7.8l-6.5,5.3l-0.5,0.4c9-7.1,50.2,27.8,37.3,48.1L169.8,185.2z"/>
		</g>
	</g>
	<g id="Capa_7">
		<g class="st1">
			<polygon class="st10" points="1.9,65.9 166,41.8 166,17.2 1.9,41.7 			"/>
			<path class="st4" d="M191.9,177.8H23.5c-0.7,0-1.2-0.6-1.2-1.2V42.8c0-0.7,0.6-1.2,1.2-1.2h168.4c0.7,0,1.2,0.6,1.2,1.2v133.7
				C193.1,177.2,192.5,177.8,191.9,177.8z"/>
			<path class="st10" d="M191.9,177.8H17.6c-0.7,0-1.2-0.6-1.2-1.2V42.8c0-0.7,0.6-1.2,1.2-1.2h174.3c0.7,0,1.2,0.6,1.2,1.2v133.7
				C193.1,177.2,192.5,177.8,191.9,177.8z"/>
			<path class="st4" d="M177.4,177.8H9c-0.7,0-1.2-0.6-1.2-1.2V42.8c0-0.7,0.6-1.2,1.2-1.2h168.4c0.7,0,1.2,0.6,1.2,1.2v133.7
				C178.6,177.2,178.1,177.8,177.4,177.8z"/>
			<path class="st4" d="M171.5,177.8H3.1c-0.7,0-1.2-0.6-1.2-1.2V42.8c0-0.7,0.6-1.2,1.2-1.2h168.4c0.7,0,1.2,0.6,1.2,1.2v133.7
				C172.8,177.2,172.2,177.8,171.5,177.8z"/>
			<path class="st10" d="M189,119c-5.2,0-9.4-4.2-9.4-9.4c0-5.2,4.2-9.4,9.4-9.4h3.8V84.7h-22.4c-13.8,0-24.9,11.2-24.9,24.9
				s11.2,24.9,24.9,24.9h22.4V119H189z"/>
			<g>
				<circle class="st4" cx="163.3" cy="109.7" r="8.6"/>
				<path class="st4" d="M171.2,109.7c0,4.3-3.5,7.8-7.8,7.8s-7.8-3.5-7.8-7.8s3.5-7.8,7.8-7.8C167.7,101.8,171.2,105.4,171.2,109.7
					z"/>
				<circle class="st4" cx="161.7" cy="109.7" r="7.8"/>
				<path class="st4" d="M165,104c0.9,1.6-0.5,4.1-3.1,5.6s-5.5,1.4-6.4-0.2s0.5-4.1,3.1-5.6C161.2,102.3,164,102.4,165,104z"/>
			</g>
			<g>
				<path class="st10" d="M44.1,149.9L25.5,71.5h19l5.9,32.2c1.7,9.4,3.4,19.5,4.7,27.5h0.2c1.3-8.5,3.1-17.9,5.1-27.7l6.6-32h18.8
					l6.3,33c1.7,9.2,3,17.6,4.2,26.3h0.2c1.2-8.7,2.9-17.9,4.5-27.3l6.4-32h18l-20.2,78.4H86.1l-6.6-33.7C78,108.3,76.7,101,75.8,92
					h-0.2c-1.4,8.8-2.7,16.3-4.5,24.2l-7.4,33.7H44.1z"/>
			</g>
		</g>
	</g>
	<g id="Capa_8">
		<g class="st1">
			<g>
				<path class="st11" d="M56.1,0.6c-5.3,0-9.6,5.2-9.6,11.6v170.6c0,6.4,4.3,11.6,9.6,11.6h82.8c5.3,0,9.6-5.2,9.6-11.6V12.2
					c0-6.4-4.3-11.6-9.6-11.6C138.9,0.6,56.1,0.6,56.1,0.6z M139.2,174.3H55.9V10.4h83.3L139.2,174.3L139.2,174.3z"/>
				<path class="st4" d="M90.1,184.2c0,3.9,3.2,7.1,7.1,7.1s7.1-3.2,7.1-7.1c0-3.9-3.2-7.1-7.1-7.1
					C93.3,177.1,90.1,180.2,90.1,184.2z"/>
			</g>
			<g>
				<path class="st2" d="M93.9,148.7h8.2c2.5,0,4.5-2,4.5-4.5v-7.6c6.6-1,12.3-3,17.1-6.2c7.6-5.1,11.6-12,11.7-20.9
					c0.1-5.5-1.4-10.2-4.6-14.1c-5.2-6.2-13.3-10-24.2-11.6V68.4c1.9,0.9,3.8,2.1,5.6,3.7c1.1,0.9,2.4,1.4,3.8,1.4
					c1.2,0,2.8-0.8,2.8-0.8l0,0l9.2-5.8c1.3-0.8,1.9-1.8,1.9-3c0-1-0.4-1.9-1.2-2.6c-5.7-6.5-13.1-10.6-22.1-12.1v-8.7
					c0-2.5-2-4.5-4.5-4.5h-8.2c-2.5,0-4.5,2-4.5,4.5V49c-4.2,0.6-8.1,1.7-11.5,3.2c-11,5-16.4,12.5-16.2,22.5
					c0.1,4.9,1.6,9.2,4.4,13c4.8,6.4,12.6,10.4,23.3,12.1V119c-4.6-1.6-9-4.7-13.2-9.2c-0.9-1.2-2.1-1.8-3.6-1.8
					c-0.8,0-2.4,0.7-2.4,0.7l0,0l-8.4,4.9c-1.4,0.8-2.1,1.9-2.1,3.3c0,0.9,0.3,1.7,1,2.4c2.2,3,5.1,5.9,8.8,8.7
					c5.9,4.6,12.6,7.4,20,8.6v7.6C89.4,146.7,91.4,148.7,93.9,148.7z M106.5,101.8c4.4,1.4,6.7,4,6.6,7.8c0,3.5-1.6,6.3-4.8,8.2
					c-0.6,0.4-1.2,0.7-1.8,0.9C106.5,118.7,106.5,101.8,106.5,101.8z M84,74.7c0-2.8,1.6-4.9,4.8-6.4l0.6-0.2v13.7
					C85.8,80.3,84,78,84,74.7z"/>
			</g>
		</g>
	</g>
	<g id="Capa_10">
		<g class="st1">
			<path class="st12" d="M173,85.6L169.1,44c-1.8-19.1-17.8-33.8-37-33.8H64.3c-19.7,0-36.1,15-37.9,34.5l-3.8,40.8
				c-0.1,0.7-0.1,1.3-0.1,2V139c0,12,9.7,21.7,21.7,21.7h107.1c12,0,21.7-9.7,21.7-21.7V87.6C173.1,86.9,173.1,86.2,173,85.6z
				 M48.1,44.5c0.5-5.2,4.9-9.3,10.1-9.3h79.3c5.3,0,9.7,4,10.1,9.3l2.9,33.3H45.2L48.1,44.5z M49.4,134.9c-5.4,0-9.9-4.4-9.9-9.9
				c0-5.4,4.4-9.9,9.9-9.9s9.9,4.4,9.9,9.9C59.2,130.5,54.8,134.9,49.4,134.9z M148.7,136.4c-5.4,0-9.9-4.4-9.9-9.9
				c0-5.4,4.4-9.9,9.9-9.9s9.9,4.4,9.9,9.9C158.6,132,154.2,136.4,148.7,136.4z"/>
			<path class="st13" d="M39.5,180c0,2.7,2,4.9,4.5,4.9h11c2.5,0,4.5-2.2,4.5-4.9v-16.7h-20V180z"/>
			<path class="st13" d="M138.7,180c0,2.7,2,4.9,4.5,4.9h11c2.5,0,4.5-2.2,4.5-4.9v-16.7h-20V180z"/>
		</g>
		<path class="st14" d="M31.5,30.8c0,0-13.7-12-17.4-3.7c-2,4.6-2,9.2-2,9.2s-5.2,0-6,5.6c-4.4,29.3,0,33.4,0,33.4S9.8,79,15,79
			s8-3.8,8.9-7.1c0.7-2.3,0.2-17.5-0.2-26c-0.2-3.7-2.2-7-5.4-8.9l0,0c0,0,0.4-6.2,2.7-5.3c3.5,1.4,7.1,4.9,7.1,4.9"/>
		<path class="st14" d="M163.9,30.7c0,0,13.7-12,17.4-3.7c2,4.6,2,9.2,2,9.2s5.2,0,6,5.6c4.4,29.3,0,33.4,0,33.4s-3.8,3.8-8.9,3.8
			s-8-3.8-8.9-7.1c-0.7-2.3-0.2-17.5,0.2-26c0.2-3.7,2.2-7,5.4-8.9l0,0c0,0-0.4-6.2-2.7-5.3c-3.5,1.4-7.1,4.9-7.1,4.9"/>
	</g>
	<g id="Capa_11" class="st1">
		<path class="st12" d="M97.5,10.2L97.5,10.2c-6.1,0-11,4.9-11,11v152.7c0,6.1,4.9,11,11,11l0,0c6.1,0,11-4.9,11-11V21.1
			C108.5,15.1,103.6,10.2,97.5,10.2z"/>
		<path class="st12" d="M10.2,97.5L10.2,97.5c0,6.1,4.9,11,11,11h152.7c6.1,0,11-4.9,11-11l0,0c0-6.1-4.9-11-11-11H21.1
			C15.1,86.5,10.2,91.4,10.2,97.5z"/>
	</g>
</g>
<g id="Capa_2">
	<g>
		<path class="st15" d="M1.7,172.8c0,3.1,1.3,6.2,3.5,8.4c2.2,2.2,5.3,3.5,8.4,3.5H15h6.3h160.1c3.1,0,6.2-1.3,8.4-3.5
			c2.2-2.2,3.5-5.3,3.5-8.4V74.5H1.7V172.8z M101.5,151.1c0.1-0.7,0.2-1.3,0.4-1.8c0.2-0.5,0.4-0.8,0.6-1c0.2-0.2,0.5-0.3,0.8-0.3
			c0.4,0,1,0.2,1.7,0.7c0.8,0.4,1.8,0.9,3.1,1.5c1.3,0.5,2.8,1,4.6,1.5c1.8,0.4,4,0.7,6.5,0.7c2.2,0,4.2-0.2,6-0.7
			c1.8-0.5,3.3-1.2,4.6-2.2c1.3-1,2.2-2.3,2.9-3.8c0.7-1.5,1-3.3,1-5.5c0-1.8-0.3-3.4-0.9-4.9c-0.6-1.4-1.5-2.6-2.7-3.6
			c-1.2-1-2.8-1.7-4.7-2.2c-1.9-0.5-4.3-0.7-7.1-0.7c-2.2,0-4.2,0.1-6,0.3c-1.8,0.2-3.5,0.3-5.1,0.3c-1.1,0-1.9-0.3-2.4-0.8
			c-0.5-0.5-0.7-1.6-0.7-3v-32c0-1.5,0.3-2.6,0.9-3.3c0.6-0.7,1.5-1,2.8-1H143c0.3,0,0.7,0.1,1,0.3c0.3,0.2,0.6,0.6,0.8,1.1
			c0.2,0.5,0.4,1.1,0.5,2c0.1,0.8,0.1,1.8,0.1,2.9c0,2.3-0.2,3.9-0.6,5c-0.4,1-1,1.5-1.7,1.5h-26.2v15.8c1.3-0.2,2.6-0.2,4-0.3
			c1.3,0,2.7-0.1,4.1-0.1c4,0,7.5,0.5,10.6,1.4c3.1,0.9,5.7,2.3,7.8,4.1c2.1,1.8,3.7,4,4.8,6.7c1.1,2.7,1.7,5.8,1.7,9.3
			c0,4-0.7,7.5-2.1,10.7c-1.4,3.1-3.3,5.8-5.9,7.9c-2.5,2.1-5.6,3.8-9.1,4.9c-3.6,1.1-7.5,1.7-11.8,1.7c-2.3,0-4.4-0.1-6.5-0.4
			c-2-0.3-3.9-0.6-5.5-1.1c-1.6-0.4-3-0.9-4-1.3c-1-0.4-1.7-0.8-2-1.1c-0.3-0.3-0.6-0.6-0.7-0.9c-0.2-0.3-0.3-0.7-0.4-1.2
			c-0.1-0.5-0.2-1.1-0.2-1.8c0-0.7,0-1.6,0-2.6C101.4,152.7,101.5,151.8,101.5,151.1z M45.3,103.1c0-0.6,0.1-1.1,0.3-1.5
			c0.2-0.4,0.4-0.8,0.6-1c0.3-0.3,0.6-0.5,1.1-0.9l15.8-10.3c0.2-0.2,0.4-0.3,0.7-0.4c0.3-0.1,0.7-0.2,1.1-0.2
			c0.5-0.1,1.1-0.1,1.8-0.1c0.7,0,1.7,0,2.9,0c1.4,0,2.6,0,3.5,0.1c0.9,0.1,1.6,0.2,2,0.3c0.5,0.1,0.8,0.3,0.9,0.5
			c0.2,0.2,0.2,0.5,0.2,0.9v60.9h12c0.3,0,0.7,0.1,0.9,0.3c0.3,0.2,0.5,0.5,0.7,1c0.2,0.5,0.4,1.1,0.5,1.8c0.1,0.7,0.1,1.7,0.1,2.8
			c0,1.1-0.1,2-0.2,2.7c-0.1,0.7-0.3,1.3-0.5,1.8c-0.2,0.4-0.5,0.7-0.7,0.9c-0.3,0.2-0.6,0.3-0.9,0.3H47.7c-0.3,0-0.6-0.1-0.8-0.3
			c-0.3-0.2-0.5-0.5-0.7-0.9c-0.2-0.4-0.4-1-0.5-1.8c-0.1-0.7-0.2-1.6-0.2-2.7c0-1.1,0.1-2,0.1-2.8c0.1-0.7,0.2-1.3,0.5-1.8
			c0.2-0.5,0.4-0.8,0.7-1c0.3-0.2,0.6-0.3,0.9-0.3h13.7v-48l-11.8,6.6c-0.9,0.4-1.6,0.7-2.1,0.8c-0.6,0.1-1,0-1.3-0.3
			c-0.3-0.3-0.5-0.9-0.7-1.7c-0.1-0.8-0.2-1.9-0.2-3.4C45.3,104.4,45.3,103.7,45.3,103.1z"/>
		<rect x="1.7" y="63.1" class="st15" width="191.7" height="7"/>
		<path class="st15" d="M21.4,29.3H15h-1.5c-3.1,0-6.2,1.3-8.4,3.5C2.9,35,1.7,38,1.7,41.2V55h191.7V41.2c0-3.1-1.3-6.2-3.5-8.4
			c-2.2-2.2-5.3-3.5-8.4-3.5h-20.2v15.6c0,2.9-2.4,5.3-5.3,5.3h-11.1c-2.9,0-5.3-2.4-5.3-5.3V29.3H55.3v15.6c0,2.9-2.4,5.3-5.3,5.3
			H39c-2.9,0-5.3-2.4-5.3-5.3V29.3H21.4z"/>
		<rect x="1.7" y="55" class="st15" width="191.7" height="8.1"/>
		<rect x="39" y="15.6" class="st15" width="11.1" height="29.3"/>
		<path class="st15" d="M39,10.3c-2.9,0-5.3,2.4-5.3,5.3v13.7v15.6c0,2.9,2.4,5.3,5.3,5.3h11.1c2.9,0,5.3-2.4,5.3-5.3V29.3V15.6
			c0-2.9-2.4-5.3-5.3-5.3H39z M50.1,44.9H39V15.6h11.1V44.9z"/>
		<rect x="144.9" y="15.6" class="st15" width="11.1" height="29.3"/>
		<path class="st15" d="M144.9,10.3c-2.9,0-5.3,2.4-5.3,5.3v13.7v15.6c0,2.9,2.4,5.3,5.3,5.3H156c2.9,0,5.3-2.4,5.3-5.3V29.3V15.6
			c0-2.9-2.4-5.3-5.3-5.3H144.9z M156,44.9h-11.1V15.6H156V44.9z"/>
		<path class="st15" d="M47.7,151.3c-0.3,0-0.6,0.1-0.9,0.3c-0.3,0.2-0.5,0.5-0.7,1c-0.2,0.5-0.4,1.1-0.5,1.8
			c-0.1,0.7-0.1,1.7-0.1,2.8c0,1.1,0.1,2,0.2,2.7c0.1,0.7,0.3,1.3,0.5,1.8c0.2,0.4,0.4,0.7,0.7,0.9c0.3,0.2,0.6,0.3,0.8,0.3h40.7
			c0.3,0,0.6-0.1,0.9-0.3c0.3-0.2,0.5-0.5,0.7-0.9c0.2-0.4,0.4-1,0.5-1.8c0.1-0.7,0.2-1.6,0.2-2.7c0-1.1,0-2-0.1-2.8
			c-0.1-0.7-0.2-1.3-0.5-1.8c-0.2-0.5-0.4-0.8-0.7-1c-0.3-0.2-0.6-0.3-0.9-0.3h-12V90.5c0-0.3-0.1-0.6-0.2-0.9
			c-0.1-0.2-0.5-0.4-0.9-0.5c-0.5-0.1-1.1-0.2-2-0.3c-0.9-0.1-2.1-0.1-3.5-0.1c-1.2,0-2.1,0-2.9,0c-0.7,0-1.3,0.1-1.8,0.1
			c-0.5,0.1-0.8,0.1-1.1,0.2c-0.3,0.1-0.5,0.2-0.7,0.4L47.3,99.7c-0.5,0.3-0.8,0.6-1.1,0.9c-0.3,0.3-0.5,0.6-0.6,1
			c-0.2,0.4-0.2,0.9-0.3,1.5c0,0.6,0,1.3,0,2.3c0,1.4,0,2.6,0.2,3.4c0.1,0.8,0.3,1.4,0.7,1.7c0.3,0.3,0.8,0.4,1.3,0.3
			c0.6-0.1,1.3-0.3,2.1-0.8l11.8-6.6v48H47.7z"/>
		<path class="st15" d="M129.9,149.4c-1.3,1-2.8,1.7-4.6,2.2c-1.8,0.5-3.8,0.7-6,0.7c-2.5,0-4.7-0.2-6.5-0.7
			c-1.8-0.4-3.4-0.9-4.6-1.5c-1.3-0.5-2.3-1-3.1-1.5c-0.8-0.4-1.4-0.7-1.7-0.7c-0.3,0-0.6,0.1-0.8,0.3c-0.2,0.2-0.4,0.5-0.6,1
			c-0.2,0.5-0.3,1.1-0.4,1.8c-0.1,0.7-0.1,1.6-0.1,2.7c0,1,0,1.8,0,2.6c0,0.7,0.1,1.3,0.2,1.8c0.1,0.5,0.2,0.9,0.4,1.2
			c0.2,0.3,0.4,0.7,0.7,0.9c0.3,0.3,1,0.6,2,1.1c1,0.4,2.4,0.9,4,1.3c1.6,0.4,3.5,0.8,5.5,1.1c2.1,0.3,4.2,0.4,6.5,0.4
			c4.3,0,8.3-0.6,11.8-1.7c3.6-1.1,6.6-2.8,9.1-4.9c2.5-2.1,4.5-4.8,5.9-7.9c1.4-3.1,2.1-6.7,2.1-10.7c0-3.5-0.6-6.6-1.7-9.3
			c-1.1-2.7-2.7-4.9-4.8-6.7c-2.1-1.8-4.7-3.2-7.8-4.1c-3.1-0.9-6.6-1.4-10.6-1.4c-1.4,0-2.8,0-4.1,0.1c-1.3,0-2.6,0.1-4,0.3V102
			H143c0.8,0,1.3-0.5,1.7-1.5c0.4-1,0.6-2.7,0.6-5c0-1.1,0-2.1-0.1-2.9c-0.1-0.8-0.2-1.5-0.5-2c-0.2-0.5-0.5-0.9-0.8-1.1
			c-0.3-0.2-0.6-0.3-1-0.3H108c-1.3,0-2.2,0.3-2.8,1c-0.6,0.7-0.9,1.8-0.9,3.3v32c0,1.5,0.2,2.5,0.7,3c0.5,0.6,1.3,0.8,2.4,0.8
			c1.6,0,3.3-0.1,5.1-0.3c1.8-0.2,3.8-0.3,6-0.3c2.8,0,5.1,0.2,7.1,0.7c1.9,0.5,3.5,1.2,4.7,2.2c1.2,1,2.1,2.2,2.7,3.6
			c0.6,1.4,0.9,3,0.9,4.9c0,2.1-0.3,3.9-1,5.5C132.1,147.1,131.2,148.4,129.9,149.4z"/>
	</g>
</g>
</svg>
