<?xml version="1.0" encoding="UTF-8"?>
<svg id="Capa_1" data-name="Capa 1" xmlns="http://www.w3.org/2000/svg" viewBox="0 0 102.73 43.92">
  <defs>
    <style>
      .cls-1 {
        fill: #f2e253;
      }

      .cls-1, .cls-2, .cls-3, .cls-4, .cls-5, .cls-6, .cls-7, .cls-8, .cls-9, .cls-10, .cls-11, .cls-12, .cls-13, .cls-14, .cls-15, .cls-16 {
        stroke-width: 0px;
      }

      .cls-2 {
        fill: #f9e74d;
      }

      .cls-3 {
        fill: #7a9fd0;
      }

      .cls-4 {
        fill: #375fa3;
      }

      .cls-5 {
        fill: #3961a4;
      }

      .cls-6 {
        fill: #365fa3;
      }

      .cls-7 {
        fill: #c54a5b;
      }

      .cls-8 {
        fill: #cf851b;
      }

      .cls-9 {
        fill: #cdc177;
      }

      .cls-10 {
        fill: #9e9c8e;
      }

      .cls-11 {
        fill: #325b93;
      }

      .cls-12 {
        fill: #335c93;
      }

      .cls-13 {
        fill: #6584ae;
      }

      .cls-14 {
        fill: #fff;
      }

      .cls-15 {
        fill: #fae84c;
      }

      .cls-16 {
        fill: #696890;
      }
    </style>
  </defs>
  <rect class="cls-14" width="102.73" height="43.92" rx="5" ry="5"/>
  <path class="cls-6" d="m89.82,34.19c0,.09-.01.18-.01.27,0,.54-.31.86-.87.89h-.2c-9.12,0-18.24,0-27.36-.01-.24,0-.48-.06-.69-.16-.26-.11-.38-.35-.38-.65v-16.81c0-.39.25-.7.64-.72.53-.04,1.08-.02,1.61-.02h.27c.09.02.16.05.25.05h25.97c.37.02.75.35.75.82-.01,5.34-.01,10.69-.01,16.03.01.11.02.21.02.32Zm-12.33-3.84v-3.83c0-.06-.02-.11-.02-.17-.09-1.03-.53-1.86-1.32-2.51-1.04-.83-2.24-1.05-3.51-.78-1.57.32-2.82,1.48-3.02,3.37-.06.56.06,1.11.25,1.65.63,1.72,2.65,2.71,4.53,2.32.49-.1.94-.29,1.39-.53,0,.1.01.21,0,.31-.01.16.05.2.2.2.45-.01.9,0,1.35,0,.06,0,.11-.02.17-.04Zm6.66-7.37v4c-.04,1.17-1.26,1.94-2.25,1.64-.71-.22-1.21-.79-1.31-1.55v-4.07s-.06-.04-.1-.04h-1.52s-.06.02-.1.04c0,.01-.01.02-.01.04-.01.06-.02.11-.02.17v3.7c0,.06.02.11.02.17.09,1.3.69,2.27,1.84,2.9,1.15.62,2.31.56,3.48-.07-.26,1.03-1.47,1.78-2.54,1.63-.75-.11-1.32-.5-1.73-1.11h-.01c-.56-.02-1.1-.02-1.66-.02-.01,0-.02.05-.04.07.56,1.69,2.34,2.89,4.27,2.6,1.88-.27,3.37-1.82,3.39-3.66.04-2.13,0-4.27,0-6.39-.04-.01-.06-.04-.1-.04h-1.52s-.05-.01-.09,0Zm-20.29,4.5h1.27c.19,0,.36-.02.54-.04,1.65-.15,3.03-1.37,3.24-3.07.26-2.08-1.21-3.86-3.32-4-.07-.01-.14-.04-.21-.04h-3.16s-.09.02-.14.04v10.07c.06.01.12.04.17.04h1.4c.16,0,.2-.05.2-.2-.01-.93-.01-1.87-.01-2.81Zm23.34,1.39c-.51,0-.84.32-.85.78-.01.5.42.84.83.84.48.01.85-.37.87-.84.01-.38-.35-.84-.84-.78Z"/>
  <path class="cls-3" d="m90.01,33.78c-.04.06-.07.12-.11.2-.01-.04-.02-.07-.01-.1.19-1.14.38-2.27.57-3.4.33-1.99.67-3.99,1.01-5.98.35-2.09.71-4.18,1.05-6.27.05-.32-.04-.57-.3-.75-.15-.1-.33-.18-.52-.22-1.61-.27-3.23-.54-4.84-.79-1.62-.27-3.25-.53-4.88-.79-1.61-.27-3.23-.53-4.84-.79-1.62-.27-3.24-.53-4.86-.79-1.46-.24-2.93-.48-4.39-.72-.52-.09-1.04-.18-1.56-.27.53-1.42,1.06-2.82,1.6-4.24.15-.39.61-.57,1.06-.43.43.13.84.31,1.27.45.06.01.12.02.17.05.02.01.06.04.09.04,1.47.54,2.95,1.09,4.41,1.63,3.21,1.19,6.42,2.37,9.63,3.55,3.03,1.11,6.05,2.24,9.08,3.35.45.16.88.32,1.32.49.46.17.75.62.54,1.16-.63,1.6-1.22,3.23-1.84,4.84-1.13,2.97-2.25,5.95-3.38,8.92-.09.31-.19.6-.28.88Z"/>
  <path class="cls-8" d="m66.34,13.08c.52.09,1.04.18,1.56.27,1.46.24,2.93.48,4.39.72,1.62.27,3.24.53,4.86.79,1.61.27,3.23.53,4.84.79,1.62.27,3.25.54,4.88.79,1.61.27,3.23.53,4.84.79.19.02.37.11.52.22.26.17.35.44.3.75-.36,2.09-.71,4.18-1.05,6.27-.33,1.99-.67,3.99-1.01,5.98-.19,1.14-.38,2.26-.57,3.4,0,.04.01.07.01.1-.02.07-.05.15-.07.22,0-.1-.01-.21-.01-.31,0-5.34,0-10.69.01-16.03,0-.46-.38-.78-.75-.82-.1-.01-.19-.04-.28-.04h-25.95c.15-.93.31-1.85.46-2.76.04-.24.07-.5.12-.75.1-.55.51-.82,1.06-.72.58.1,1.16.2,1.73.28.05.04.09.04.12.04Z"/>
  <path class="cls-7" d="m90.01,33.78c.1-.28.19-.57.3-.86,1.13-2.98,2.25-5.95,3.38-8.92.61-1.61,1.21-3.24,1.84-4.84.21-.54-.1-.99-.54-1.16-.45-.17-.88-.32-1.32-.49-3.03-1.11-6.05-2.24-9.08-3.35-3.21-1.19-6.42-2.37-9.63-3.55-1.47-.54-2.95-1.09-4.41-1.63-.04-.04-.06-.05-.1-.06.53-.92,1.05-1.85,1.58-2.76.02-.05.06-.09.07-.13.2-.56.89-.57,1.31-.34,1.27.72,2.56,1.44,3.84,2.16,6.68,3.75,13.36,7.51,20.05,11.26.25.13.46.31.56.57.09.23.05.45-.07.67-1.35,2.34-2.7,4.68-4.05,7.03-1.2,2.08-2.4,4.17-3.6,6.25-.02.04-.07.1-.12.15Z"/>
  <path class="cls-12" d="m26.05,29.73v3.85h-1.79v-7.14c0-2.04,1.46-3.68,3.53-3.92,1.29-.16,2.45.12,3.44.97.69.59,1.13,1.34,1.26,2.24.38,2.4-1.15,4.3-3.48,4.63-1.04.13-2.02-.09-2.96-.62Zm2.31-5.64c-1.34.02-2.34,1.04-2.31,2.36.02,1.28.99,2.36,2.49,2.3,1.06-.05,2.34-.82,2.19-2.63-.1-1.09-.99-2.04-2.36-2.03Z"/>
  <path class="cls-12" d="m35,29.73v3.85h-1.79c0-.06-.01-.12-.01-.2v-7.01c0-1.99,1.49-3.64,3.49-3.89,1.35-.16,2.56.13,3.58,1.05.66.6,1.06,1.34,1.18,2.23.15,1.25-.1,2.4-1.01,3.34-.69.72-1.56,1.1-2.56,1.23-1.01.13-1.94-.09-2.86-.61Zm0-3.31c-.01,1.21.84,2.29,2.23,2.34,1.65.06,2.46-1.17,2.46-2.32,0-1.34-1-2.34-2.35-2.34s-2.34.99-2.34,2.32Z"/>
  <path class="cls-12" d="m13.58,27.36c.43.38.85.75,1.27,1.11-1.06,1.36-3.33,2.32-5.57,1.75-2.34-.6-4.05-2.58-4.16-4.88-.12-2.41,1.32-4.57,3.61-5.38,2.29-.81,4.71-.07,6.1,1.55-.42.37-.85.73-1.29,1.11-.84-.93-1.89-1.37-3.14-1.28-.94.06-1.74.45-2.39,1.12-1.42,1.48-1.36,3.78.14,5.2,1.39,1.31,3.81,1.49,5.42-.31Z"/>
  <path class="cls-12" d="m49.58,26.89h-5.88c-.02.27.04.51.15.76.3.65.84.98,1.53,1.12,1.01.21,1.89-.06,2.62-.76.35.34.69.68,1.05,1.04-.36.5-.85.82-1.44,1.04-.67.24-1.37.37-2.08.32-1.88-.15-3.18-1.38-3.53-3.09-.21-1.03-.1-2.02.43-2.92.78-1.32,1.97-1.94,3.5-1.89,1.97.06,3.38,1.34,3.6,3.28.04.28.04.55.04.83.01.06,0,.16-.01.28Zm-1.84-1.28c.06-.78-.8-1.59-1.73-1.63-1.11-.05-2.26.78-2.25,1.63h3.98Z"/>
  <path class="cls-12" d="m23.58,26.47c.09,1.82-1.39,3.69-3.71,3.89-1.27.11-2.4-.23-3.35-1.1-.67-.61-1.05-1.39-1.16-2.29-.3-2.2,1.15-4.1,3.4-4.46,1.73-.27,3.46.49,4.31,1.91.26.43.45.89.47,1.41,0,.22.04.44.05.65Zm-6.47-.05c0,1.2.83,2.3,2.28,2.34,1.55.04,2.41-1.1,2.41-2.32,0-1.32-1-2.32-2.33-2.32-1.44,0-2.35,1.04-2.36,2.31Z"/>
  <path class="cls-11" d="m54.33,28.75v1.63c-.98-.02-1.84-.31-2.61-.89-.8-.62-1.26-1.45-1.42-2.45-.02-.17-.05-.35-.05-.54v-6.74h1.81v.23c0,2.13.02,4.24-.01,6.37-.01,1.19.82,2.3,2.17,2.38.05-.01.09,0,.12,0Z"/>
  <path class="cls-15" d="m79.91,30.39c.42.61.98,1,1.73,1.11,1.06.16,2.29-.6,2.54-1.63-1.16.64-2.33.7-3.48.07-1.15-.62-1.76-1.61-1.84-2.9v-2.51c0-.51,0-1.03-.01-1.53,0-.01.01-.02.01-.04h1.68v3.85c0,.07.02.15.02.22.09.77.61,1.34,1.31,1.55.99.31,2.22-.46,2.25-1.64.01-.07.04-.15.04-.22v-3.78h1.68c0,2.13.02,4.27,0,6.39-.02,1.83-1.51,3.39-3.39,3.66-1.93.28-3.71-.93-4.27-2.6.06-.01.14-.04.2-.04.52.01,1.03.01,1.52.01Z"/>
  <path class="cls-15" d="m65.59,20.38c2.1.15,3.56,1.93,3.32,4-.21,1.7-1.58,2.92-3.24,3.07h-1.68s-.09.02-.12.04c-.01.06-.04.13-.04.2v2.79h-1.72v-10.07h.4c1.03-.01,2.07-.01,3.09-.01Zm-1.73,1.7s-.04.1-.04.15v3.39c0,.13.05.16.17.16h1.35c.06,0,.11-.02.17-.04.71-.1,1.25-.42,1.53-1.08.45-1.04-.06-2.41-1.62-2.58-.04-.01-.09-.04-.12-.04h-1.32s-.09.02-.12.04Z"/>
  <path class="cls-2" d="m75.78,29.89c-.45.23-.89.42-1.39.53-1.88.39-3.89-.6-4.53-2.32-.2-.54-.31-1.09-.25-1.65.2-1.91,1.45-3.06,3.02-3.37,1.27-.26,2.47-.05,3.51.78.79.65,1.25,1.48,1.32,2.51v4h-1.63c-.02-.17-.05-.32-.06-.46Zm-2.22-5.35c-1.21-.09-2.24.93-2.24,2.19,0,1.14.78,2.21,2.19,2.22,1.5.01,2.26-1.11,2.26-2.21.02-1.3-1.04-2.29-2.22-2.2Z"/>
  <path class="cls-16" d="m62.85,17h25.94c.1,0,.19.02.28.04h-25.97c-.09,0-.17-.02-.25-.04Z"/>
  <path class="cls-1" d="m87.2,28.87c.49-.06.85.4.84.79-.01.46-.38.84-.87.84-.42-.01-.84-.35-.83-.84.01-.48.35-.79.85-.79Zm.01.16c-.35,0-.66.29-.66.64s.31.65.64.65.62-.28.62-.64c.01-.37-.26-.65-.61-.65Z"/>
  <path class="cls-10" d="m62.1,30.46h1.72v-2.79c0-.06.02-.13.04-.2v2.84c0,.15-.04.21-.2.2-.47-.01-.93,0-1.4,0-.05-.01-.11-.04-.16-.05Z"/>
  <path class="cls-9" d="m80.6,27.05c-.01-.07-.03-.15-.03-.22v-3.85h.03v4.07Z"/>
  <path class="cls-13" d="m78.87,23.02c0,.51.01,1.03.01,1.53v2.51c-.01-.06-.02-.11-.02-.17v-3.7s0-.11.01-.16Z"/>
  <path class="cls-9" d="m84.19,22.98v3.78c0,.07-.02.15-.04.22v-4h.04Z"/>
  <path class="cls-9" d="m77.46,30.35v-4c.01.06.03.11.03.17v3.83h-.03Z"/>
  <path class="cls-10" d="m65.59,20.38h-3.5s.09-.04.14-.04h3.16c.07,0,.15.02.21.04Z"/>
  <path class="cls-10" d="m77.46,30.35h.04c-.06.01-.12.04-.17.04h-1.35c-.15,0-.22-.04-.2-.2.01-.1,0-.21,0-.31.02.15.04.28.06.45.53.01,1.08.01,1.62.01Z"/>
  <path class="cls-9" d="m63.86,27.48s.09-.04.12-.04h1.68c-.19.01-.36.04-.54.04h-1.26Z"/>
  <path class="cls-9" d="m79.91,30.39c-.5,0-1,0-1.5.01-.06,0-.14.02-.2.04.01-.02.02-.07.04-.07.56,0,1.1.01,1.66.01-.01,0,0,0,0,.01Z"/>
  <path class="cls-10" d="m84.19,22.98h-.02s.06-.04.1-.04h1.52s.06.02.1.04h-1.7Z"/>
  <path class="cls-10" d="m80.6,22.98h-1.71s.06-.04.1-.04h1.52s.05.02.09.04Z"/>
  <path class="cls-4" d="m65.43,22.08c1.56.16,2.07,1.54,1.62,2.58-.28.66-.84.98-1.53,1.08h-1.63s-.01-.07-.01-.09v-3.56c.52-.01,1.04-.01,1.56-.01Z"/>
  <path class="cls-10" d="m63.86,22.09v3.56s.01.04.01.09h1.63c-.06.01-.11.04-.17.04h-1.35c-.12,0-.17-.02-.17-.16v-3.39s.04-.1.05-.13Z"/>
  <path class="cls-9" d="m65.43,22.08h-1.57s.09-.04.12-.04h1.32s.09.02.12.04Z"/>
  <path class="cls-4" d="m73.56,24.53c1.18-.09,2.24.92,2.23,2.2-.01,1.1-.78,2.23-2.26,2.21-1.41-.01-2.19-1.1-2.19-2.23-.01-1.26,1.01-2.27,2.23-2.19Z"/>
  <path class="cls-5" d="m87.21,29.03c.35,0,.62.29.62.65s-.28.64-.62.64-.66-.32-.64-.65c-.01-.35.3-.65.64-.64Zm.26.7c.02-.13.09-.24.06-.31-.04-.07-.15-.13-.24-.15-.14-.02-.28-.01-.43-.01v.73s.06.07.1.12c.04-.04.09-.07.1-.12.01-.07,0-.15,0-.22.31-.06.25.2.33.33h.21c-.06-.16-.1-.29-.14-.38Z"/>
  <path class="cls-2" d="m87.47,29.73c.02.09.07.22.12.38h-.21c-.09-.13-.02-.39-.33-.33,0,.07.01.15,0,.22-.01.05-.06.07-.1.12-.04-.04-.09-.07-.1-.12-.01-.23,0-.48,0-.73.16,0,.3-.02.43.01.09.01.2.07.24.15.05.06-.01.17-.05.31Zm-.36-.34s-.04.04-.05.05c0,.06,0,.11.01.24.12-.07.2-.12.27-.17-.09-.04-.16-.09-.24-.12Z"/>
  <path class="cls-5" d="m87.11,29.39c.07.04.15.09.22.12-.07.05-.15.1-.27.17,0-.12-.01-.18-.01-.25.02-.01.05-.04.06-.05Z"/>
</svg>