<?xml version="1.0" encoding="utf-8"?>
<!-- Generator: Adobe Illustrator 27.7.0, SVG Export Plug-In . SVG Version: 6.00 Build 0)  -->
<svg version="1.1" id="Capa_1" xmlns="http://www.w3.org/2000/svg" xmlns:xlink="http://www.w3.org/1999/xlink" x="0px" y="0px"
	 viewBox="0 0 78.09 26.85" style="enable-background:new 0 0 78.09 26.85;" xml:space="preserve">
<style type="text/css">
	.st0{fill:none;stroke:#FFFFFF;stroke-width:1.6425;stroke-linecap:round;stroke-linejoin:round;stroke-miterlimit:10;}
	.st1{fill:#162162;}
	.st2{fill:none;stroke:#FFFFFF;stroke-width:1.1131;stroke-linecap:round;stroke-linejoin:round;stroke-miterlimit:10;}
	.st3{fill:#EB001B;}
	.st4{fill:#F79E1B;}
	.st5{fill:#01010D;}
	.st6{fill:#02020D;}
	.st7{fill:#02020E;}
	.st8{fill:#F3D19F;}
	.st9{fill:#ED9AA3;}
	.st10{fill:#D9D9D9;}
	.st11{fill:#FF5F00;}
	.st12{fill:#FF0101;}
	.st13{fill:#014785;}
	.st14{fill:#014885;}
	.st15{fill:#014886;}
	.st16{fill:#024886;}
	.st17{fill:#FF0202;}
	.st18{fill:#004785;}
	.st19{fill:#27669A;}
	.st20{fill:#2981AB;}
	.st21{fill:#41A3C2;}
	.st22{fill:#B496B6;}
	.st23{fill:#FE7D7D;}
	.st24{fill:#A4BBD2;}
	.st25{fill:#5D8AB1;}
	.st26{fill:#3C79A6;}
	.st27{fill:#6F98BB;}
	.st28{fill:#BFD1E1;}
	.st29{fill:#81A4C3;}
	.st30{fill:#365FA3;}
	.st31{fill:#7A9FD0;}
	.st32{fill:#CF851B;}
	.st33{fill:#C54A5B;}
	.st34{fill:#335C93;}
	.st35{fill:#325B93;}
	.st36{fill:#FAE84C;}
	.st37{fill:#F9E74D;}
	.st38{fill:#696890;}
	.st39{fill:#F2E253;}
	.st40{fill:#9E9C8E;}
	.st41{fill:#CDC177;}
	.st42{fill:#6584AE;}
	.st43{fill:#375FA3;}
	.st44{fill:#3961A4;}
</style>
<g>
	<path class="st30" d="M70,24.67c0,0.07-0.01,0.15-0.01,0.22c0,0.44-0.25,0.7-0.7,0.73c-0.05,0-0.11,0-0.16,0
		c-7.37,0-14.74,0-22.11-0.01c-0.19,0-0.39-0.05-0.56-0.13c-0.21-0.09-0.31-0.29-0.31-0.53c0-4.58,0-9.17,0-13.75
		c0-0.32,0.2-0.57,0.52-0.59c0.43-0.03,0.87-0.02,1.3-0.02c0.07,0,0.14,0,0.21,0c0,0,0.01,0.01,0.01,0.01
		c0.07,0.01,0.13,0.03,0.2,0.03c6.91,0,13.83,0,20.74,0c0.08,0,0.17,0,0.25,0c0.3,0.02,0.61,0.29,0.61,0.67
		c-0.01,4.37-0.01,8.74-0.01,13.11C69.99,24.5,70,24.58,70,24.67z M60.04,21.53c0-1.04,0-2.09,0-3.13c0-0.05-0.02-0.09-0.02-0.14
		c-0.07-0.84-0.43-1.52-1.07-2.05c-0.84-0.68-1.81-0.86-2.84-0.64c-1.27,0.26-2.28,1.21-2.44,2.76c-0.05,0.46,0.05,0.91,0.2,1.35
		c0.51,1.41,2.14,2.22,3.66,1.9c0.4-0.08,0.76-0.24,1.12-0.43c0,0.08,0.01,0.17,0,0.25c-0.01,0.13,0.04,0.16,0.16,0.16
		c0.36-0.01,0.73,0,1.09,0C59.95,21.56,59.99,21.54,60.04,21.53z M65.42,15.5c0,1.09,0,2.18,0,3.27c-0.03,0.96-1.02,1.59-1.82,1.34
		c-0.57-0.18-0.98-0.65-1.06-1.27c0-1.11,0-2.22,0-3.33c-0.03-0.01-0.05-0.03-0.08-0.03c-0.41,0-0.82,0-1.23,0
		c-0.03,0-0.05,0.02-0.08,0.03c0,0.01-0.01,0.02-0.01,0.03c-0.01,0.05-0.02,0.09-0.02,0.14c0,1.01,0,2.02,0,3.03
		c0,0.05,0.02,0.09,0.02,0.14c0.07,1.06,0.56,1.86,1.49,2.37c0.93,0.51,1.87,0.46,2.81-0.06c-0.21,0.84-1.19,1.46-2.05,1.33
		c-0.61-0.09-1.07-0.41-1.4-0.91c0,0-0.01-0.01-0.01-0.01c-0.45-0.01-0.89-0.01-1.34-0.01c-0.01,0-0.02,0.04-0.03,0.06
		c0.45,1.38,1.89,2.36,3.45,2.13c1.52-0.22,2.72-1.49,2.74-2.99c0.03-1.74,0-3.49,0-5.23c-0.03-0.01-0.05-0.03-0.08-0.03
		c-0.41,0-0.82,0-1.23,0C65.48,15.47,65.45,15.49,65.42,15.5z M49.02,19.18c0.34,0,0.68,0,1.03,0c0.15,0,0.29-0.02,0.44-0.03
		c1.33-0.12,2.45-1.12,2.62-2.51c0.21-1.7-0.98-3.16-2.68-3.27c-0.06-0.01-0.11-0.03-0.17-0.03c-0.85,0-1.7,0-2.55,0
		c-0.04,0-0.07,0.02-0.11,0.03c0,0.06,0,0.13,0,0.19c0,2.17,0,4.34,0,6.5c0,0.52,0,1.04,0,1.55c0.05,0.01,0.1,0.03,0.14,0.03
		c0.38,0,0.75,0,1.13,0c0.13,0,0.16-0.04,0.16-0.16C49.02,20.72,49.02,19.95,49.02,19.18L49.02,19.18z M67.88,20.32
		c-0.41,0-0.68,0.26-0.69,0.64c-0.01,0.41,0.34,0.69,0.67,0.69c0.39,0.01,0.69-0.3,0.7-0.69C68.57,20.65,68.28,20.27,67.88,20.32z"
		/>
	<path class="st31" d="M70.15,24.33c-0.03,0.05-0.06,0.1-0.09,0.16c-0.01-0.03-0.02-0.06-0.01-0.08c0.15-0.93,0.31-1.86,0.46-2.78
		c0.27-1.63,0.54-3.26,0.82-4.89c0.28-1.71,0.57-3.42,0.85-5.13c0.04-0.26-0.03-0.47-0.24-0.61c-0.12-0.08-0.27-0.15-0.42-0.18
		c-1.3-0.22-2.61-0.44-3.91-0.65c-1.31-0.22-2.63-0.43-3.94-0.65c-1.3-0.22-2.61-0.43-3.91-0.65c-1.31-0.22-2.62-0.43-3.93-0.65
		c-1.18-0.2-2.37-0.39-3.55-0.59c-0.42-0.07-0.84-0.15-1.26-0.22c0.43-1.16,0.86-2.31,1.29-3.47c0.12-0.32,0.49-0.47,0.86-0.35
		c0.35,0.11,0.68,0.25,1.03,0.37C54.25,3.97,54.3,3.98,54.34,4c0.02,0.01,0.05,0.03,0.07,0.03c1.19,0.44,2.38,0.89,3.56,1.33
		c2.59,0.97,5.19,1.94,7.78,2.9c2.45,0.91,4.89,1.83,7.34,2.74c0.36,0.13,0.71,0.26,1.07,0.4c0.37,0.14,0.61,0.51,0.44,0.95
		c-0.51,1.31-0.99,2.64-1.49,3.96c-0.91,2.43-1.82,4.87-2.73,7.3C70.31,23.86,70.23,24.1,70.15,24.33z"/>
	<path class="st32" d="M51.02,7.4c0.42,0.07,0.84,0.15,1.26,0.22c1.18,0.2,2.37,0.39,3.55,0.59c1.31,0.22,2.62,0.43,3.93,0.65
		c1.3,0.22,2.61,0.43,3.91,0.65c1.31,0.22,2.63,0.44,3.94,0.65c1.3,0.22,2.61,0.43,3.91,0.65c0.15,0.02,0.3,0.09,0.42,0.18
		c0.21,0.14,0.28,0.36,0.24,0.61c-0.29,1.71-0.57,3.42-0.85,5.13c-0.27,1.63-0.54,3.26-0.82,4.89c-0.15,0.93-0.31,1.85-0.46,2.78
		c0,0.03,0.01,0.06,0.01,0.08c-0.02,0.06-0.04,0.12-0.06,0.18c0-0.08-0.01-0.17-0.01-0.25c0-4.37,0-8.74,0.01-13.11
		c0-0.38-0.31-0.64-0.61-0.67c-0.08-0.01-0.15-0.03-0.23-0.03c-6.92,0-13.85,0-20.77,0c-0.06,0-0.13,0-0.19,0
		c0,0-0.01-0.01-0.01-0.01c0.12-0.75,0.25-1.5,0.37-2.25c0.03-0.2,0.06-0.41,0.1-0.61c0.08-0.45,0.41-0.67,0.86-0.59
		c0.47,0.08,0.94,0.16,1.4,0.23C50.96,7.4,50.99,7.4,51.02,7.4z"/>
	<path class="st33" d="M70.15,24.33c0.08-0.23,0.15-0.47,0.24-0.7c0.91-2.44,1.82-4.87,2.73-7.3c0.49-1.32,0.98-2.65,1.49-3.96
		c0.17-0.44-0.08-0.81-0.44-0.95c-0.36-0.14-0.71-0.26-1.07-0.4c-2.45-0.91-4.89-1.83-7.34-2.74c-2.59-0.97-5.19-1.94-7.78-2.9
		c-1.19-0.44-2.38-0.89-3.56-1.33C54.39,4.02,54.37,4.01,54.34,4c0.43-0.75,0.85-1.51,1.28-2.26c0.02-0.04,0.05-0.07,0.06-0.11
		c0.16-0.46,0.72-0.47,1.06-0.28c1.03,0.59,2.07,1.18,3.1,1.77c5.4,3.07,10.8,6.14,16.2,9.21c0.2,0.11,0.37,0.25,0.45,0.47
		c0.07,0.19,0.04,0.37-0.06,0.55c-1.09,1.91-2.18,3.83-3.27,5.75c-0.97,1.7-1.94,3.41-2.91,5.11
		C70.23,24.24,70.19,24.29,70.15,24.33z"/>
	<path class="st34" d="M18.46,21.02c0,1.06,0,2.1,0,3.15c-0.48,0-0.96,0-1.45,0c0-0.07,0-0.13,0-0.19c0-1.88,0-3.77,0-5.65
		c0-1.67,1.18-3.01,2.85-3.21c1.04-0.13,1.98,0.1,2.78,0.79c0.56,0.48,0.91,1.1,1.02,1.83c0.31,1.96-0.93,3.52-2.81,3.79
		C20.01,21.64,19.22,21.46,18.46,21.02z M20.33,16.41c-1.08,0.02-1.89,0.85-1.87,1.93c0.02,1.05,0.8,1.93,2.01,1.88
		c0.86-0.04,1.89-0.67,1.77-2.15C22.16,17.18,21.44,16.4,20.33,16.41z"/>
	<path class="st34" d="M25.7,21.02c0,1.06,0,2.1,0,3.15c-0.49,0-0.96,0-1.45,0c0-0.05-0.01-0.1-0.01-0.16c0-1.91,0-3.82,0-5.73
		c0-1.63,1.2-2.98,2.82-3.18c1.09-0.13,2.07,0.11,2.89,0.86c0.53,0.49,0.86,1.1,0.95,1.82c0.12,1.02-0.08,1.96-0.82,2.73
		c-0.56,0.59-1.26,0.9-2.07,1.01C27.19,21.63,26.44,21.45,25.7,21.02z M25.7,18.31c-0.01,0.99,0.68,1.87,1.8,1.91
		c1.33,0.05,1.99-0.96,1.99-1.9c0-1.1-0.81-1.91-1.9-1.91C26.5,16.41,25.7,17.22,25.7,18.31z"/>
	<path class="st34" d="M8.39,19.08c0.35,0.31,0.69,0.61,1.03,0.91c-0.86,1.11-2.69,1.9-4.5,1.43c-1.89-0.49-3.27-2.11-3.36-3.99
		c-0.1-1.97,1.07-3.74,2.92-4.4c1.85-0.66,3.81-0.06,4.93,1.27c-0.34,0.3-0.69,0.6-1.04,0.91c-0.68-0.76-1.53-1.12-2.54-1.05
		c-0.76,0.05-1.41,0.37-1.93,0.92c-1.15,1.21-1.1,3.09,0.11,4.25C5.13,20.4,7.09,20.55,8.39,19.08z"/>
	<path class="st34" d="M37.48,18.7c-1.59,0-3.16,0-4.75,0c-0.02,0.22,0.03,0.42,0.12,0.62c0.24,0.53,0.68,0.8,1.24,0.92
		c0.82,0.17,1.53-0.05,2.12-0.62c0.28,0.28,0.56,0.56,0.85,0.85c-0.29,0.41-0.69,0.67-1.16,0.85c-0.54,0.2-1.11,0.3-1.68,0.26
		c-1.52-0.12-2.57-1.13-2.85-2.53c-0.17-0.84-0.08-1.65,0.35-2.39c0.63-1.08,1.59-1.59,2.83-1.55c1.59,0.05,2.73,1.1,2.91,2.68
		c0.03,0.23,0.03,0.45,0.03,0.68C37.5,18.52,37.49,18.6,37.48,18.7z M35.99,17.65c0.05-0.64-0.65-1.3-1.4-1.33
		c-0.9-0.04-1.83,0.64-1.82,1.33C33.83,17.65,34.9,17.65,35.99,17.65z"/>
	<path class="st34" d="M16.47,18.35c0.07,1.49-1.12,3.02-3,3.18c-1.03,0.09-1.94-0.19-2.71-0.9c-0.54-0.5-0.85-1.14-0.94-1.87
		c-0.24-1.8,0.93-3.35,2.75-3.65c1.4-0.22,2.8,0.4,3.48,1.56c0.21,0.35,0.36,0.73,0.38,1.15C16.43,18,16.46,18.18,16.47,18.35z
		 M11.24,18.31c0,0.98,0.67,1.88,1.84,1.91c1.25,0.03,1.95-0.9,1.95-1.9c0-1.08-0.81-1.9-1.88-1.9
		C11.99,16.42,11.25,17.27,11.24,18.31z"/>
	<path class="st35" d="M41.32,20.22c0,0.44,0,0.88,0,1.33c-0.79-0.02-1.49-0.25-2.11-0.73c-0.65-0.51-1.02-1.19-1.15-2
		c-0.02-0.14-0.04-0.29-0.04-0.44c0-1.79,0-3.59,0-5.38c0-0.04,0-0.08,0-0.13c0.49,0,0.96,0,1.46,0c0,0.06,0,0.12,0,0.19
		c0,1.74,0.02,3.47-0.01,5.21c-0.01,0.97,0.66,1.88,1.75,1.95C41.26,20.21,41.29,20.22,41.32,20.22z"/>
	<path class="st36" d="M61.99,21.56c0.34,0.5,0.79,0.82,1.4,0.91c0.86,0.13,1.85-0.49,2.05-1.33c-0.94,0.52-1.88,0.57-2.81,0.06
		c-0.93-0.51-1.42-1.32-1.49-2.37c0-0.68,0-1.37,0-2.05c0-0.42,0-0.84-0.01-1.25c0-0.01,0.01-0.02,0.01-0.03c0.45,0,0.91,0,1.36,0
		c0,1.05,0,2.1,0,3.15c0,0.06,0.02,0.12,0.02,0.18c0.07,0.63,0.49,1.1,1.06,1.27c0.8,0.25,1.79-0.38,1.82-1.34
		c0.01-0.06,0.03-0.12,0.03-0.18c0-1.03,0-2.06,0-3.09c0.45,0,0.91,0,1.36,0c0,1.74,0.02,3.49,0,5.23c-0.02,1.5-1.22,2.77-2.74,2.99
		c-1.56,0.23-3-0.76-3.45-2.13c0.05-0.01,0.11-0.03,0.16-0.03C61.18,21.56,61.59,21.56,61.99,21.56z"/>
	<path class="st36" d="M50.42,13.37c1.7,0.12,2.88,1.58,2.68,3.27c-0.17,1.39-1.28,2.39-2.62,2.51c-0.45,0-0.91,0-1.36,0
		c-0.03,0-0.07,0.02-0.1,0.03c0,0,0,0,0,0c-0.01,0.05-0.03,0.11-0.03,0.16c0,0.7,0,1.4,0,2.1c0,0.06,0,0.11,0,0.18
		c-0.48,0-0.94,0-1.39,0c0-0.52,0-1.04,0-1.55c0-2.17,0-4.34,0-6.5c0-0.06,0-0.13,0-0.19c0.11,0,0.21,0,0.32,0
		C48.75,13.37,49.59,13.37,50.42,13.37z M49.02,14.76L49.02,14.76c-0.01,0.04-0.03,0.08-0.03,0.12c0,0.92,0,1.85,0,2.77
		c0,0.11,0.04,0.13,0.14,0.13c0.36,0,0.73,0,1.09,0c0.05,0,0.09-0.02,0.14-0.03c0.57-0.08,1.01-0.34,1.24-0.88
		c0.36-0.85-0.05-1.97-1.31-2.11c-0.03-0.01-0.07-0.03-0.1-0.03c-0.36,0-0.71,0-1.07,0C49.09,14.74,49.05,14.75,49.02,14.76z"/>
	<path class="st37" d="M58.65,21.15c-0.36,0.19-0.72,0.34-1.12,0.43c-1.52,0.32-3.14-0.49-3.66-1.9c-0.16-0.44-0.25-0.89-0.2-1.35
		c0.16-1.56,1.17-2.5,2.44-2.76c1.03-0.21,2-0.04,2.84,0.64c0.64,0.53,1.01,1.21,1.07,2.05c0,0.05,0,0.11,0,0.16
		c0,1.04,0,2.08,0,3.11c-0.44,0-0.88,0-1.32,0C58.68,21.39,58.66,21.27,58.65,21.15z M56.86,16.77c-0.98-0.07-1.81,0.76-1.81,1.79
		c0,0.93,0.63,1.81,1.77,1.82c1.21,0.01,1.83-0.91,1.83-1.81C58.67,17.51,57.81,16.7,56.86,16.77z"/>
	<path class="st38" d="M48.2,10.61c0.06,0,0.13,0,0.19,0c6.92,0,13.85,0,20.77,0c0.08,0,0.15,0.02,0.23,0.03c-0.08,0-0.17,0-0.25,0
		c-6.91,0-13.83,0-20.74,0C48.33,10.64,48.26,10.62,48.2,10.61z"/>
	<path class="st39" d="M67.88,20.32c0.4-0.05,0.69,0.33,0.68,0.65c-0.01,0.38-0.31,0.69-0.7,0.69c-0.34-0.01-0.68-0.29-0.67-0.69
		C67.2,20.58,67.47,20.32,67.88,20.32z M67.89,20.45c-0.28,0-0.53,0.24-0.53,0.52c0,0.27,0.25,0.53,0.52,0.53
		c0.28,0,0.5-0.23,0.5-0.52C68.39,20.68,68.17,20.45,67.89,20.45z"/>
	<path class="st40" d="M47.6,21.62c0.46,0,0.92,0,1.39,0c0-0.07,0-0.13,0-0.18c0-0.7,0-1.4,0-2.1c0-0.05,0.02-0.11,0.03-0.16
		c0,0.77,0,1.54,0,2.32c0,0.12-0.03,0.17-0.16,0.16c-0.38-0.01-0.75,0-1.13,0C47.69,21.65,47.64,21.63,47.6,21.62z"/>
	<path class="st41" d="M62.55,18.83c-0.01-0.06-0.02-0.12-0.02-0.18c0-1.05,0-2.1,0-3.15c0,0,0.01,0,0.01,0l0.01,0
		C62.55,16.61,62.55,17.72,62.55,18.83z"/>
	<path class="st42" d="M61.15,15.53c0,0.42,0.01,0.84,0.01,1.25c0,0.68,0,1.37,0,2.05c-0.01-0.05-0.02-0.09-0.02-0.14
		c0-1.01,0-2.02,0-3.03C61.13,15.62,61.14,15.57,61.15,15.53z"/>
	<path class="st41" d="M65.45,15.5c0,1.03,0,2.06,0,3.09c0,0.06-0.02,0.12-0.03,0.18c0-1.09,0-2.18,0-3.27c0,0,0.01,0,0.01,0
		L65.45,15.5z"/>
	<path class="st41" d="M60.01,21.53c0-1.04,0-2.08,0-3.11c0-0.05,0-0.11,0-0.16c0.01,0.05,0.02,0.09,0.02,0.14c0,1.04,0,2.09,0,3.13
		C60.03,21.53,60.02,21.53,60.01,21.53z"/>
	<path class="st40" d="M50.42,13.37c-0.84,0-1.67,0-2.51,0c-0.11,0-0.21,0-0.32,0c0.04-0.01,0.07-0.03,0.11-0.03
		c0.85,0,1.7,0,2.55,0C50.31,13.34,50.37,13.36,50.42,13.37z"/>
	<path class="st40" d="M60.01,21.53c0.01,0,0.02,0,0.03,0c-0.05,0.01-0.1,0.03-0.14,0.03c-0.36,0-0.73,0-1.09,0
		c-0.12,0-0.18-0.03-0.16-0.16c0.01-0.08,0-0.17,0-0.25c0.02,0.12,0.03,0.23,0.05,0.37C59.13,21.53,59.57,21.53,60.01,21.53z"/>
	<path class="st41" d="M49.02,19.18c0.03-0.01,0.07-0.03,0.1-0.03c0.45,0,0.91,0,1.36,0c-0.15,0.01-0.29,0.03-0.44,0.03
		C49.71,19.18,49.36,19.18,49.02,19.18z"/>
	<path class="st41" d="M61.99,21.56c-0.4,0-0.81,0-1.21,0.01c-0.05,0-0.11,0.02-0.16,0.03c0.01-0.02,0.02-0.06,0.03-0.06
		c0.45,0,0.89,0.01,1.34,0.01C61.98,21.55,61.99,21.55,61.99,21.56z"/>
	<path class="st40" d="M65.45,15.5l-0.01,0c0,0-0.01,0-0.01,0c0.03-0.01,0.05-0.03,0.08-0.03c0.41,0,0.82,0,1.23,0
		c0.03,0,0.05,0.02,0.08,0.03C66.36,15.5,65.9,15.5,65.45,15.5z"/>
	<path class="st40" d="M62.55,15.5l-0.01,0c0,0-0.01,0-0.01,0c-0.45,0-0.91,0-1.36,0c0.03-0.01,0.05-0.03,0.08-0.03
		c0.41,0,0.82,0,1.23,0C62.5,15.47,62.52,15.49,62.55,15.5z"/>
	<path class="st43" d="M50.29,14.76c1.26,0.13,1.67,1.26,1.31,2.11c-0.23,0.54-0.68,0.8-1.24,0.88c-0.44,0-0.88,0-1.32,0
		c-0.01-0.04-0.01-0.06-0.01-0.07c0-0.97,0-1.94,0-2.91c0,0,0,0,0,0C49.45,14.76,49.87,14.76,50.29,14.76z"/>
	<path class="st40" d="M49.02,14.77c0,0.97,0,1.94,0,2.91c0,0.02,0.01,0.03,0.01,0.07c0.44,0,0.88,0,1.32,0
		c-0.05,0.01-0.09,0.03-0.14,0.03c-0.36,0-0.73,0-1.09,0c-0.1,0-0.14-0.02-0.14-0.13c0-0.92,0-1.85,0-2.77
		C48.99,14.84,49.01,14.8,49.02,14.77z"/>
	<path class="st41" d="M50.29,14.76c-0.42,0-0.85,0-1.27,0c0.03-0.01,0.07-0.03,0.1-0.03c0.36,0,0.71,0,1.07,0
		C50.23,14.74,50.26,14.75,50.29,14.76z"/>
	<path class="st43" d="M56.86,16.77c0.95-0.07,1.81,0.75,1.8,1.8c-0.01,0.9-0.63,1.82-1.83,1.81c-1.14-0.01-1.77-0.9-1.77-1.82
		C55.05,17.53,55.88,16.7,56.86,16.77z"/>
	<path class="st44" d="M67.89,20.45c0.28,0,0.5,0.24,0.5,0.53c0,0.29-0.23,0.52-0.5,0.52c-0.27,0-0.53-0.26-0.52-0.53
		C67.36,20.68,67.61,20.44,67.89,20.45z M68.1,21.02c0.02-0.11,0.07-0.2,0.05-0.25c-0.03-0.06-0.12-0.11-0.19-0.12
		c-0.11-0.02-0.23-0.01-0.35-0.01c0,0.22,0,0.41,0,0.6c0,0.03,0.05,0.06,0.08,0.1c0.03-0.03,0.07-0.06,0.08-0.1
		c0.01-0.06,0-0.12,0-0.18c0.25-0.05,0.2,0.16,0.27,0.27c0.04,0,0.09,0,0.17,0C68.16,21.2,68.13,21.09,68.1,21.02z"/>
	<path class="st37" d="M68.1,21.02c0.02,0.07,0.06,0.18,0.1,0.31c-0.08,0-0.12,0-0.17,0c-0.07-0.11-0.02-0.32-0.27-0.27
		c0,0.06,0.01,0.12,0,0.18c-0.01,0.04-0.05,0.06-0.08,0.1c-0.03-0.03-0.07-0.06-0.08-0.1c-0.01-0.19,0-0.39,0-0.6
		c0.13,0,0.24-0.02,0.35,0.01c0.07,0.01,0.16,0.06,0.19,0.12C68.18,20.82,68.13,20.91,68.1,21.02z M67.81,20.74
		c-0.01,0.01-0.03,0.03-0.04,0.04c0,0.05,0,0.09,0.01,0.2c0.1-0.06,0.16-0.1,0.22-0.14C67.93,20.81,67.87,20.77,67.81,20.74z"/>
	<path class="st44" d="M67.81,20.74c0.06,0.03,0.12,0.07,0.18,0.1c-0.06,0.04-0.12,0.08-0.22,0.14c0-0.1-0.01-0.15-0.01-0.2
		C67.78,20.77,67.8,20.75,67.81,20.74z"/>
</g>
</svg>
