<?xml version="1.0" encoding="utf-8"?>
<!-- Generator: Adobe Illustrator 27.7.0, SVG Export Plug-In . SVG Version: 6.00 Build 0)  -->
<svg version="1.1" id="Capa_1" xmlns="http://www.w3.org/2000/svg" xmlns:xlink="http://www.w3.org/1999/xlink" x="0px" y="0px"
	 viewBox="0 0 150 107.42" style="enable-background:new 0 0 150 107.42;" xml:space="preserve">
<style type="text/css">
	.st0{fill:#0D2F57;}
	.st1{display:none;}
	.st2{display:inline;}
</style>
<g id="Capa_1_00000124866510233141782730000008262942243197469885_">
	<g>
		<path class="st0" d="M130.08,107.36c-2.59,0.01-5.17,0.04-7.75,0.03c-1.36,0-2.06-0.69-2.08-2.08c-0.03-1.34-0.01-2.66-0.01-4.09
			c-0.45-0.03-0.78-0.07-1.1-0.07c-16.95,0-33.89,0-50.84,0c-0.29,0-0.6,0.03-0.89,0.05c-0.09,0.09-0.17,0.17-0.25,0.26
			c-0.02,1.24-0.03,2.48-0.05,3.72c-0.01,1.27-0.8,2.18-2.05,2.2c-2.74,0.04-5.47,0.05-8.2,0c-1.49-0.03-2.19-0.84-2.28-2.48
			c-0.04-0.6,0-1.19,0-1.79c0-0.6,0-1.18,0-1.76c-2.46-0.57-3.68-2.28-3.68-4.76c0.07-21.39,0.04-42.78,0.04-64.16
			c0-0.69,0-1.38,0-2.31c-1.53,0-3-0.05-4.47,0.04c-0.29,0.02-0.74,0.51-0.8,0.84c-0.12,0.67-0.27,1.51,0.03,2.05
			c0.22,0.4,1.21,0.3,1.67,0.67c0.51,0.41,1.15,1.07,1.16,1.63c0.09,4.03,0.07,8.06,0.05,12.09c-0.01,1.22-0.79,1.74-1.9,1.78
			c-1.44,0.05-2.89,0.01-4.33,0.02c-1.06,0.01-1.53-0.53-1.53-1.55c0-4.22,0.01-8.46-0.01-12.68c-0.01-0.87,0.35-1.28,1.19-1.3
			c0.99-0.03,1.31-0.52,1.26-1.51c-0.17-3.23,1.39-4.62,4.46-4.48c0.99,0.05,1.99,0.01,3.1,0.01c0.04-0.44,0.11-0.81,0.11-1.18
			c0.01-5.42,0.02-10.85,0-16.26c-0.02-4.56,2.96-7.81,7.55-8.2c4.74-0.41,9.46-0.88,14.2-1.18c4.83-0.3,9.66-0.45,14.48-0.62
			c3.22-0.11,6.43-0.3,9.65-0.25c5.09,0.09,10.17,0.29,15.25,0.56c3.68,0.2,7.35,0.47,11.01,0.9c2.88,0.33,5.79,0.74,8.57,1.51
			c3.14,0.86,5,3.62,5.03,6.97c0.07,5.82,0.04,11.64,0.06,17.46c0.18,0.19,0.36,0.38,0.54,0.57c1.35,0.01,2.68,0.01,4.03,0.04
			c1.65,0.04,2.5,0.91,2.54,2.59c0.02,0.7-0.12,1.45,0.06,2.1c0.11,0.4,0.7,0.94,1.08,0.94c1.37,0.01,1.83,0.82,1.85,1.93
			c0.05,3.98,0.01,7.96,0.02,11.93c0,1.14-0.81,1.61-1.69,1.69c-1.53,0.13-3.08,0.08-4.62,0.01c-0.99-0.04-1.47-0.66-1.47-1.65
			c0-4.07,0.01-8.16,0-12.23c0-1.06,0.36-1.7,1.56-1.63c1.68,0.09,1.01-1.21,1.11-2.02c0.09-0.83,0.06-1.63-1.17-1.55
			c-1.19,0.07-2.39,0.04-3.57,0.06c-0.08,0.09-0.16,0.17-0.24,0.26c-0.02,5.97-0.04,11.93-0.04,17.9c-0.01,15.91,0,31.83,0,47.74
			c0,3.03-0.96,4.34-3.91,5.24c0,1.17-0.02,2.35,0.01,3.54c0.03,1.45-0.62,2.32-2.07,2.53c-0.1-0.14-0.21-0.28-0.3-0.43
			C130.29,107.07,130.19,107.22,130.08,107.36z M104.42,97.3c1.93-0.49,1-2.06,1.17-3.19c0.18-1.13-0.38-1.63-1.53-1.62
			c-6.65,0.03-13.31,0.03-19.96,0.04c-0.1,0-0.2,0-0.3-0.01c-1.96-0.02-2.08,0.09-2.08,1.93c0,0.29,0.03,0.6,0,0.89
			c-0.14,1.37,0.37,1.93,1.85,1.92c6.55-0.05,13.1,0.01,19.65,0.03C103.63,98.1,104.02,98.1,104.42,97.3z M67.1,17.63
			c0.51,1.38,0.14,2.14-1.44,2.16c-1.78,0.02-3.56,0.19-5.34,0.13c-1.22-0.04-2.12,0.21-2.47,1.49c-1.7,0.81-3.05,1.76-3.04,4
			c0.05,13.27,0.01,26.55,0.02,39.82c0,2.61,1.35,4.03,3.96,4.27c3.02,0.29,6.03,0.63,9.06,0.89c4.84,0.42,9.67,1.03,14.52,1.12
			c7.27,0.12,14.57-0.09,21.84-0.25c3.79-0.09,7.58-0.28,11.36-0.57c4.29-0.32,8.57-0.79,12.85-1.19c2.8-0.27,4.38-1.99,4.38-4.78
			c0-12.53-0.06-25.05,0.04-37.59c0.02-2.85-0.78-4.86-3.64-5.72c0.12-1.1-0.36-1.45-1.46-1.5c-2.06-0.09-4.15-0.68-6.15-0.45
			c-1.92,0.23-1.67-0.73-1.65-1.84c1.91-0.15,2.86-1.17,2.88-3.15c0.02-1.74,0-3.48,0-5.22c-0.01-2.44-0.93-3.36-3.38-3.36
			c-17,0-34.01,0-51.01,0c-0.55,0-1.11-0.08-1.64,0.04c-1.17,0.25-2.05,0.77-2.01,2.22c0.06,2.63,0.03,5.27,0.04,7.9
			c0.06,0.11,0.12,0.23,0.18,0.34C65.71,16.8,66.41,17.22,67.1,17.63z M125.01,84.11c0,2.24,1.57,3.87,3.64,3.92
			c2.32,0.05,4.15-2.02,4.12-3.84c-0.03-2.24-1.53-3.85-4.14-3.94C126.79,80.18,124.72,82.03,125.01,84.11z M62.33,84.13
			c0-2.3-1.51-3.9-3.64-3.88c-2.21,0.02-4.09,1.78-4.12,3.86c-0.03,1.96,2.04,3.92,4.09,3.89S62.34,86.27,62.33,84.13z
			 M117.96,88.91c2.26,0.11,3.84-1.47,4.03-3.86c0.15-1.91-1.71-3.6-3.79-3.61c-2.51-0.02-4.14,1.45-4.22,3.79
			C113.92,87.13,115.83,88.9,117.96,88.91z M69.29,81.44c-2.33,0.01-3.68,1.32-3.69,3.56c-0.01,2.42,1.39,3.87,3.7,3.91
			c2.25,0.04,3.98-1.41,3.99-3.86C73.3,82.88,71.6,81.09,69.29,81.44z"/>
		<path class="st0" d="M150,17.48c-0.2-0.21-0.41-0.43-0.61-0.64C149.59,17.05,149.8,17.27,150,17.48z"/>
		<path class="st0" d="M130.01,107.36c0.12-0.16,0.25-0.33,0.37-0.48c0.12,0.17,0.24,0.33,0.34,0.5
			C130.49,107.36,130.26,107.36,130.01,107.36z"/>
		<path class="st0" d="M149.39,20.25c0.09-0.1,0.18-0.19,0.27-0.29C149.57,20.07,149.47,20.15,149.39,20.25z"/>
		<path class="st0" d="M70.64,100.66c0.1-0.1,0.19-0.19,0.28-0.29C70.82,100.47,70.72,100.57,70.64,100.66z"/>
		<path class="st0" d="M67.1,17.63c1.53-0.02,3.07-0.06,4.61-0.06c15.53,0,31.06,0,46.59,0c0.54,0,1.09,0.04,1.63,0.06
			c-0.02,1.11-0.27,2.06,1.65,1.84c2-0.24,4.09,0.36,6.15,0.45c1.1,0.05,1.58,0.4,1.46,1.5c-0.84,0.02-1.69,0.05-2.53,0.05
			c-22.7,0.01-45.39,0.01-68.09,0.01c-0.25,0-0.49-0.05-0.73-0.07c0.35-1.28,1.25-1.53,2.47-1.49c1.78,0.05,3.56-0.11,5.34-0.13
			C67.25,19.77,67.62,19.01,67.1,17.63z"/>
		<path class="st0" d="M111.47,95.97c0.45,0,0.9,0,1.35,0C112.37,96.88,111.92,96.88,111.47,95.97z"/>
		<path class="st0" d="M67.99,3.99c0.06,0.13,0.14,0.26,0.2,0.39C68.13,4.25,68.06,4.12,67.99,3.99z"/>
		<polygon class="st0" points="102.67,97.29 104.42,97.29 105.12,98.07 102.42,98.82 		"/>
		<path class="st0" d="M26.52,63.94c-0.35,2.3-0.66,4.21-0.91,6.11c-0.16,1.13-0.02,2.36-0.4,3.4c-0.7,1.93,0.16,3.15,1.45,4.29
			c1.67,1.48,3.28,3.05,5.09,4.35c1.58,1.13,2.17,2.74,2.44,4.4c0.35,2.11,0.28,4.27,0.41,6.41c0.21,3.45,0.51,6.9,0.65,10.35
			c0.1,2.36-1.85,4.28-4.16,4.33c-2.23,0.04-4.35-1.99-4.5-4.26c-0.32-4.76-0.59-9.52-1.07-14.26c-0.08-0.81-0.95-1.67-1.64-2.3
			c-2.59-2.36-5.32-4.58-7.9-6.96c-2.21-2.04-3.09-4.46-2.46-7.64c0.85-4.31,1.15-8.73,1.76-13.09c0.24-1.77,0.59-3.51,0.99-5.25
			c0.45-1.97,1.7-3.47,3.65-3.84c2.36-0.44,4.77-0.29,6.46,1.89c1.98,2.55,3.98,5.09,5.89,7.69c0.98,1.33,2.08,2.11,3.84,2.02
			c2.38-0.12,4.77-0.08,7.16,0c1.52,0.05,3.06,0.57,3.52,2.15c0.43,1.47,0.47,3.14-1.1,4.16c-0.59,0.38-1.38,0.65-2.08,0.66
			c-3.22,0.06-6.44-0.1-9.66,0.06c-2.84,0.14-4.83-0.96-6.32-3.27C27.39,64.94,27.06,64.62,26.52,63.94z"/>
		<path class="st0" d="M6.95,50.23c1.24,0.17,3.15,0.3,4.99,0.73c1.24,0.29,2.08,1.26,1.97,2.67c-0.21,2.5-0.45,4.99-0.77,7.48
			c-0.36,2.91-0.98,5.8-1.17,8.72c-0.25,3.82-2.58,5.47-5.72,4.45c-1.51-0.49-3.26-0.41-4.63-1.11c-1.28-0.66-1.87-1.94-1.49-3.72
			c0.71-3.33,0.98-6.75,1.47-10.12c0.3-2.08,0.48-4.2,1-6.23C3.31,50.33,3.6,50.23,6.95,50.23z"/>
		<path class="st0" d="M13.43,80.23c2.26,1.93,4.38,3.66,6.4,5.49c0.35,0.32,0.54,1.14,0.4,1.61c-1.71,5.54-3.49,11.08-5.3,16.59
			c-1.12,3.43-3.8,4.18-5.98,3.32c-1.96-0.76-3.15-3.04-2.53-5.07c1.49-4.82,3.03-9.64,4.55-14.45
			C11.76,85.24,12.6,82.77,13.43,80.23z"/>
		<path class="st0" d="M17.92,40.54c0-3.27,2.95-6.92,7.34-6.66c3.24,0.19,6.78,2.76,6.62,7.28c-0.12,3.43-3.28,6.74-7.19,6.68
			C20.99,47.76,17.9,44.6,17.92,40.54z"/>
	</g>
</g>
<g id="Capa_2_00000121966549644023720390000016467796456774587580_" class="st1">
	<g class="st2">
		<path class="st0" d="M802.8,834.4c-2.73,0.01-5.46,0.04-8.18,0.03c-1.44,0-2.17-0.73-2.2-2.2c-0.03-1.41-0.01-2.81-0.01-4.32
			c-0.47-0.03-0.82-0.07-1.16-0.07c-17.89,0-35.78,0-53.67,0c-0.31,0-0.63,0.03-0.94,0.05c-0.09,0.09-0.18,0.18-0.26,0.27
			c-0.02,1.31-0.03,2.62-0.05,3.93c-0.01,1.34-0.84,2.3-2.16,2.32c-2.89,0.04-5.78,0.05-8.66,0c-1.57-0.03-2.31-0.89-2.41-2.62
			c-0.04-0.63,0-1.26,0-1.89s0-1.25,0-1.86c-2.6-0.6-3.89-2.41-3.89-5.02c0.07-22.58,0.04-45.16,0.04-67.74c0-0.73,0-1.46,0-2.44
			c-1.62,0-3.17-0.05-4.72,0.04c-0.31,0.02-0.78,0.54-0.84,0.89c-0.13,0.71-0.28,1.59,0.03,2.16c0.23,0.42,1.28,0.32,1.76,0.71
			c0.54,0.43,1.21,1.13,1.22,1.72c0.1,4.25,0.07,8.51,0.05,12.76c-0.01,1.29-0.83,1.84-2.01,1.88c-1.52,0.05-3.05,0.01-4.57,0.02
			c-1.12,0.01-1.62-0.56-1.62-1.64c0-4.46,0.01-8.93-0.01-13.39c-0.01-0.92,0.37-1.35,1.26-1.37c1.04-0.03,1.38-0.55,1.33-1.59
			c-0.18-3.41,1.47-4.88,4.71-4.73c1.05,0.05,2.1,0.01,3.27,0.01c0.04-0.46,0.12-0.85,0.12-1.25c0.01-5.72,0.02-11.45,0-17.17
			c-0.02-4.81,3.12-8.24,7.97-8.66c5-0.43,9.99-0.93,14.99-1.25c5.09-0.32,10.19-0.46,15.29-0.65c3.4-0.12,6.79-0.32,10.19-0.26
			c5.37,0.09,10.74,0.31,16.1,0.59c3.88,0.21,7.76,0.5,11.62,0.95c3.04,0.35,6.11,0.78,9.05,1.59c3.31,0.91,5.28,3.82,5.31,7.36
			c0.07,6.14,0.04,12.29,0.06,18.43c0.19,0.2,0.38,0.4,0.57,0.6c1.42,0.01,2.83,0.01,4.25,0.04c1.74,0.04,2.64,0.96,2.68,2.73
			c0.02,0.74-0.13,1.53,0.06,2.22c0.12,0.42,0.74,0.99,1.14,0.99c1.45,0.01,1.93,0.87,1.95,2.04c0.05,4.2,0.01,8.4,0.02,12.59
			c0,1.2-0.86,1.7-1.78,1.78c-1.61,0.14-3.25,0.08-4.88,0.01c-1.04-0.04-1.55-0.7-1.55-1.74c0-4.3,0.01-8.61,0-12.91
			c0-1.12,0.38-1.79,1.65-1.72c1.77,0.09,1.07-1.28,1.17-2.13c0.1-0.88,0.06-1.72-1.24-1.64c-1.26,0.07-2.52,0.04-3.77,0.06
			c-0.08,0.09-0.17,0.18-0.25,0.27c-0.02,6.3-0.04,12.6-0.04,18.9c-0.01,16.8,0,33.6,0,50.4c0,3.2-1.01,4.58-4.13,5.53
			c0,1.23-0.02,2.48,0.01,3.74c0.03,1.53-0.65,2.45-2.19,2.67c-0.11-0.15-0.22-0.3-0.32-0.45
			C803.02,834.11,802.91,834.26,802.8,834.4z M775.71,823.79c2.04-0.52,1.06-2.17,1.24-3.37c0.19-1.19-0.4-1.72-1.61-1.71
			c-7.02,0.03-14.05,0.03-21.07,0.04c-0.11,0-0.21,0-0.32-0.01c-2.07-0.02-2.2,0.09-2.2,2.04c0,0.31,0.03,0.63,0,0.94
			c-0.15,1.45,0.39,2.04,1.95,2.03c6.91-0.05,13.83,0.01,20.75,0.03C774.86,824.64,775.29,824.63,775.71,823.79z M736.31,739.68
			c0.54,1.46,0.15,2.26-1.52,2.28c-1.88,0.02-3.76,0.2-5.64,0.14c-1.29-0.04-2.24,0.22-2.61,1.57c-1.8,0.85-3.22,1.86-3.21,4.22
			c0.05,14.01,0.01,28.03,0.02,42.04c0,2.76,1.43,4.25,4.18,4.51c3.19,0.31,6.37,0.66,9.56,0.94c5.11,0.44,10.21,1.09,15.33,1.18
			c7.68,0.13,15.38-0.09,23.06-0.26c4-0.09,8-0.3,11.99-0.6c4.53-0.34,9.05-0.83,13.57-1.26c2.96-0.28,4.62-2.1,4.62-5.05
			c0-13.23-0.06-26.45,0.04-39.68c0.02-3.01-0.82-5.13-3.84-6.04c0.13-1.16-0.38-1.53-1.54-1.58c-2.17-0.09-4.38-0.72-6.49-0.48
			c-2.03,0.24-1.76-0.77-1.74-1.94c2.02-0.16,3.02-1.24,3.04-3.33c0.02-1.84,0-3.67,0-5.51c-0.01-2.58-0.98-3.55-3.57-3.55
			c-17.95,0-35.9,0-53.85,0c-0.58,0-1.17-0.08-1.73,0.04c-1.24,0.26-2.16,0.81-2.12,2.34c0.06,2.78,0.03,5.56,0.04,8.34
			c0.06,0.12,0.13,0.24,0.19,0.36C734.83,738.8,735.57,739.24,736.31,739.68z M797.45,809.87c0,2.36,1.66,4.09,3.84,4.14
			c2.45,0.05,4.38-2.13,4.35-4.05c-0.03-2.37-1.61-4.06-4.37-4.16C799.32,805.72,797.14,807.67,797.45,809.87z M731.27,809.89
			c0-2.43-1.59-4.12-3.84-4.1c-2.33,0.02-4.32,1.88-4.35,4.08c-0.03,2.07,2.15,4.14,4.32,4.11S731.28,812.15,731.27,809.89z
			 M790,814.93c2.39,0.12,4.05-1.55,4.25-4.07c0.16-2.02-1.81-3.8-4-3.81c-2.65-0.02-4.37,1.53-4.45,4
			C785.74,813.04,787.75,814.91,790,814.93z M738.62,807.04c-2.46,0.01-3.89,1.39-3.9,3.76c-0.01,2.56,1.47,4.09,3.91,4.13
			c2.38,0.04,4.2-1.49,4.21-4.08C742.85,808.56,741.06,806.68,738.62,807.04z"/>
		<path class="st0" d="M689.9,793.22c0.33,2.17,0.62,3.98,0.86,5.78c0.15,1.07,0.02,2.23,0.38,3.21c0.66,1.82-0.15,2.98-1.37,4.06
			c-1.58,1.4-3.1,2.88-4.81,4.11c-1.49,1.07-2.05,2.59-2.31,4.16c-0.33,1.99-0.26,4.04-0.39,6.06c-0.2,3.26-0.48,6.52-0.61,9.78
			c-0.09,2.23,1.75,4.05,3.93,4.09c2.11,0.04,4.11-1.88,4.25-4.03c0.3-4.5,0.56-9,1.01-13.48c0.08-0.77,0.9-1.58,1.55-2.17
			c2.45-2.23,5.03-4.33,7.47-6.58c2.09-1.93,2.92-4.22,2.33-7.22c-0.8-4.07-1.09-8.24-1.66-12.37c-0.23-1.67-0.56-3.32-0.94-4.96
			c-0.43-1.86-1.61-3.28-3.45-3.63c-2.23-0.42-4.51-0.27-6.11,1.79c-1.87,2.41-3.76,4.81-5.57,7.27c-0.93,1.26-1.97,1.99-3.63,1.91
			c-2.25-0.11-4.51-0.08-6.77,0c-1.44,0.05-2.89,0.54-3.33,2.03c-0.41,1.39-0.44,2.97,1.04,3.93c0.56,0.36,1.3,0.61,1.97,0.62
			c3.04,0.06,6.09-0.09,9.13,0.06c2.68,0.13,4.57-0.91,5.97-3.09C689.07,794.17,689.38,793.85,689.9,793.22z"/>
		<path class="st0" d="M708.39,780.26c-1.17,0.16-2.98,0.28-4.72,0.69c-1.17,0.27-1.97,1.19-1.86,2.52c0.2,2.36,0.43,4.72,0.73,7.07
			c0.34,2.75,0.93,5.48,1.11,8.24c0.24,3.61,2.44,5.17,5.41,4.21c1.43-0.46,3.08-0.39,4.38-1.05c1.21-0.62,1.77-1.83,1.41-3.52
			c-0.67-3.15-0.93-6.38-1.39-9.57c-0.28-1.97-0.45-3.97-0.95-5.89C711.84,780.36,711.55,780.26,708.39,780.26z"/>
		<path class="st0" d="M702.27,808.62c-2.14,1.82-4.14,3.46-6.05,5.19c-0.33,0.3-0.51,1.08-0.38,1.52
			c1.62,5.24,3.3,10.47,5.01,15.68c1.06,3.24,3.59,3.95,5.65,3.14c1.85-0.72,2.98-2.87,2.39-4.79c-1.41-4.56-2.86-9.11-4.3-13.66
			C703.84,813.36,703.05,811.02,702.27,808.62z"/>
		<path class="st0" d="M698.02,771.09c0-3.09-2.79-6.54-6.94-6.3c-3.06,0.18-6.41,2.61-6.26,6.88c0.11,3.24,3.1,6.37,6.8,6.31
			C695.12,777.92,698.04,774.94,698.02,771.09z"/>
		<path class="st0" d="M810.39,750.59c-0.19-0.2-0.38-0.4-0.57-0.6C810.01,750.19,810.2,750.39,810.39,750.59z"/>
		<path class="st0" d="M802.8,834.4c0.11-0.15,0.22-0.3,0.33-0.44c0.11,0.15,0.22,0.3,0.32,0.45
			C803.23,834.41,803.02,834.41,802.8,834.4z"/>
		<path class="st0" d="M809.82,753.17c0.08-0.09,0.17-0.18,0.25-0.27C809.99,752.99,809.9,753.08,809.82,753.17z"/>
		<path class="st0" d="M736.37,828.16c0.09-0.09,0.18-0.18,0.26-0.27C736.54,827.99,736.45,828.07,736.37,828.16z"/>
		<path class="st0" d="M736.31,739.68c1.62-0.02,3.24-0.06,4.87-0.06c16.4,0,32.79,0,49.19,0c0.57,0,1.15,0.04,1.72,0.06
			c-0.02,1.17-0.29,2.18,1.74,1.94c2.11-0.25,4.32,0.38,6.49,0.48c1.16,0.05,1.67,0.42,1.54,1.58c-0.89,0.02-1.78,0.05-2.67,0.05
			c-23.96,0.01-47.92,0.01-71.88,0.01c-0.26,0-0.52-0.05-0.77-0.07c0.37-1.35,1.32-1.61,2.61-1.57c1.88,0.05,3.76-0.12,5.64-0.14
			C736.46,741.94,736.86,741.14,736.31,739.68z"/>
		<path class="st0" d="M774.45,823.78c0.42,0,0.84,0,1.26,0C775.29,824.63,774.86,824.64,774.45,823.78z"/>
		<path class="st0" d="M733.9,738.01c0.06,0.12,0.13,0.24,0.19,0.36C734.03,738.25,733.97,738.13,733.9,738.01z"/>
	</g>
</g>
</svg>
