<?xml version="1.0" encoding="utf-8"?>
<!-- Generator: Adobe Illustrator 27.7.0, SVG Export Plug-In . SVG Version: 6.00 Build 0)  -->
<svg version="1.1" id="Capa_1" xmlns="http://www.w3.org/2000/svg" xmlns:xlink="http://www.w3.org/1999/xlink" x="0px" y="0px"
	 viewBox="0 0 135.63 162.02" style="enable-background:new 0 0 135.63 162.02;" xml:space="preserve">
<style type="text/css">
	.st0{fill:#0D2F57;}
</style>
<g>
	<path class="st0" d="M61.62,161.84c-1.39-0.21-2.78-0.47-4.17-0.63c-6.05-0.67-11.92-2.16-17.6-4.28
		c-6.93-2.58-13.42-6.02-19.52-10.24c-6.02-4.16-11.4-9.02-16.43-14.31c-1.25-1.31-2.55-2.65-3.46-4.18
		c-0.46-0.77-0.28-2.05-0.08-3.04c1.22-6.03,2.79-11.96,5.28-17.63c2.51-5.71,5.47-11.14,9.5-15.92c2.08-2.47,4.23-4.91,6.54-7.16
		c3.55-3.45,7.59-6.28,11.87-8.78c0.82-0.48,1.43-0.47,2.14,0.32c4.13,4.61,9.16,7.98,14.81,10.43c3.55,1.54,7.23,2.71,11.12,3.06
		c2.16,0.19,4.33,0.68,6.48,0.59c10.09-0.45,19.35-3.35,27.28-9.85c1.93-1.58,3.77-3.28,5.96-5.19c3.19,2.25,6.58,4.43,9.72,6.91
		c2.33,1.84,4.46,3.97,6.5,6.15c5.65,6.02,9.86,12.96,13.01,20.59c2.11,5.11,3.48,10.42,4.66,15.79c0.47,2.14,0.52,2.9-1.49,5.72
		c-2.42,3.17-4.69,4.94-7.14,7.31c-4.78,4.63-10.06,8.63-15.76,12.08c-6.21,3.75-12.69,6.89-19.68,8.84
		c-3.73,1.04-7.55,1.74-11.35,2.51c-2.03,0.41-4.1,0.64-6.15,0.95C69.63,161.84,65.63,161.84,61.62,161.84z"/>
	<path class="st0" d="M108.12,42.44c0.42,20.13-18.48,39.38-42.27,38.45c-19.62-0.77-39.74-17.55-38.29-43.16
		C28.7,17.69,44.8,1.96,63.69,0.36c12.29-1.05,23.16,2.44,32.09,11C104,19.24,108.19,29.01,108.12,42.44z"/>
</g>
</svg>
