<?xml version="1.0" encoding="utf-8"?>
<!-- Generator: Adobe Illustrator 27.7.0, SVG Export Plug-In . SVG Version: 6.00 Build 0)  -->
<svg version="1.1" xmlns="http://www.w3.org/2000/svg" xmlns:xlink="http://www.w3.org/1999/xlink" x="0px" y="0px"
	 viewBox="0 0 150 107.42" style="enable-background:new 0 0 150 107.42;" xml:space="preserve">
<style type="text/css">
	.st0{display:none;}
	.st1{display:inline;}
	.st2{fill:#0D2F57;}
</style>
<g id="Capa_2" class="st0">
	<g class="st1">
		<path class="st2" d="M132.31,107.35c-2.73,0.01-5.46,0.04-8.18,0.03c-1.44,0-2.17-0.73-2.2-2.2c-0.03-1.41-0.01-2.81-0.01-4.32
			c-0.47-0.03-0.82-0.07-1.16-0.07c-17.89,0-35.78,0-53.67,0c-0.31,0-0.63,0.03-0.94,0.05c-0.09,0.09-0.18,0.18-0.26,0.27
			c-0.02,1.31-0.03,2.62-0.05,3.93c-0.01,1.34-0.84,2.3-2.16,2.32c-2.89,0.04-5.78,0.05-8.66,0c-1.57-0.03-2.31-0.89-2.41-2.62
			c-0.04-0.63,0-1.26,0-1.89c0-0.63,0-1.25,0-1.86c-2.6-0.6-3.89-2.41-3.89-5.02c0.07-22.58,0.04-45.16,0.04-67.74
			c0-0.73,0-1.46,0-2.44c-1.62,0-3.17-0.05-4.72,0.04c-0.31,0.02-0.78,0.54-0.84,0.89c-0.13,0.71-0.28,1.59,0.03,2.16
			c0.23,0.42,1.28,0.32,1.76,0.71c0.54,0.43,1.21,1.13,1.22,1.72c0.1,4.25,0.07,8.51,0.05,12.76c-0.01,1.29-0.83,1.84-2.01,1.88
			c-1.52,0.05-3.05,0.01-4.57,0.02c-1.12,0.01-1.62-0.56-1.62-1.64c0-4.46,0.01-8.93-0.01-13.39c-0.01-0.92,0.37-1.35,1.26-1.37
			c1.04-0.03,1.38-0.55,1.33-1.59c-0.18-3.41,1.47-4.88,4.71-4.73c1.05,0.05,2.1,0.01,3.27,0.01c0.04-0.46,0.12-0.85,0.12-1.25
			c0.01-5.72,0.02-11.45,0-17.17c-0.02-4.81,3.12-8.24,7.97-8.66c5-0.43,9.99-0.93,14.99-1.25C76.8-5.39,81.9-5.53,86.99-5.72
			c3.4-0.12,6.79-0.32,10.19-0.26c5.37,0.09,10.74,0.31,16.1,0.59c3.88,0.21,7.76,0.5,11.62,0.95c3.04,0.35,6.11,0.78,9.05,1.59
			c3.31,0.91,5.28,3.82,5.31,7.36c0.07,6.14,0.04,12.29,0.06,18.43c0.19,0.2,0.38,0.4,0.57,0.6c1.42,0.01,2.83,0.01,4.25,0.04
			c1.74,0.04,2.64,0.96,2.68,2.73c0.02,0.74-0.13,1.53,0.06,2.22c0.12,0.42,0.74,0.99,1.14,0.99c1.45,0.01,1.93,0.87,1.95,2.04
			c0.05,4.2,0.01,8.4,0.02,12.59c0,1.2-0.86,1.7-1.78,1.78c-1.61,0.14-3.25,0.08-4.88,0.01c-1.04-0.04-1.55-0.7-1.55-1.74
			c0-4.3,0.01-8.61,0-12.91c0-1.12,0.38-1.79,1.65-1.72c1.77,0.09,1.07-1.28,1.17-2.13c0.1-0.88,0.06-1.72-1.24-1.64
			c-1.26,0.07-2.52,0.04-3.77,0.06c-0.08,0.09-0.17,0.18-0.25,0.27c-0.02,6.3-0.04,12.6-0.04,18.9c-0.01,16.8,0,33.6,0,50.4
			c0,3.2-1.01,4.58-4.13,5.53c0,1.23-0.02,2.48,0.01,3.74c0.03,1.53-0.65,2.45-2.19,2.67c-0.11-0.15-0.22-0.3-0.32-0.45
			C132.53,107.06,132.42,107.2,132.31,107.35z M105.22,96.73c2.04-0.52,1.06-2.17,1.24-3.37c0.19-1.19-0.4-1.72-1.61-1.71
			c-7.02,0.03-14.05,0.03-21.07,0.04c-0.11,0-0.21,0-0.32-0.01c-2.07-0.02-2.2,0.09-2.2,2.04c0,0.31,0.03,0.63,0,0.94
			c-0.15,1.45,0.39,2.04,1.95,2.03c6.91-0.05,13.83,0.01,20.75,0.03C104.38,97.59,104.8,97.58,105.22,96.73z M65.82,12.63
			c0.54,1.46,0.15,2.26-1.52,2.28c-1.88,0.02-3.76,0.2-5.64,0.14c-1.29-0.04-2.24,0.22-2.61,1.57c-1.8,0.85-3.22,1.86-3.21,4.22
			c0.05,14.01,0.01,28.03,0.02,42.04c0,2.76,1.43,4.25,4.18,4.51c3.19,0.31,6.37,0.66,9.56,0.94c5.11,0.44,10.21,1.09,15.33,1.18
			c7.68,0.13,15.38-0.09,23.06-0.26c4-0.09,8-0.3,11.99-0.6c4.53-0.34,9.05-0.83,13.57-1.26c2.96-0.28,4.62-2.1,4.62-5.05
			c0-13.23-0.06-26.45,0.04-39.68c0.02-3.01-0.82-5.13-3.84-6.04c0.13-1.16-0.38-1.53-1.54-1.58c-2.17-0.09-4.38-0.72-6.49-0.48
			c-2.03,0.24-1.76-0.77-1.74-1.94c2.02-0.16,3.02-1.24,3.04-3.33c0.02-1.84,0-3.67,0-5.51c-0.01-2.58-0.98-3.55-3.57-3.55
			c-17.95,0-35.9,0-53.85,0c-0.58,0-1.17-0.08-1.73,0.04c-1.24,0.26-2.16,0.81-2.12,2.34c0.06,2.78,0.03,5.56,0.04,8.34
			c0.06,0.12,0.13,0.24,0.19,0.36C64.35,11.75,65.09,12.19,65.82,12.63z M126.96,82.82c0,2.36,1.66,4.09,3.84,4.14
			c2.45,0.05,4.38-2.13,4.35-4.05c-0.03-2.37-1.61-4.06-4.37-4.16C128.83,78.67,126.65,80.61,126.96,82.82z M60.78,82.84
			c0-2.43-1.59-4.12-3.84-4.1c-2.33,0.02-4.32,1.88-4.35,4.08c-0.03,2.07,2.15,4.14,4.32,4.11C59.08,86.9,60.79,85.09,60.78,82.84z
			 M119.51,87.88c2.39,0.12,4.05-1.55,4.25-4.07c0.16-2.02-1.81-3.8-4-3.81c-2.65-0.02-4.37,1.53-4.45,4
			C115.25,85.99,117.26,87.86,119.51,87.88z M68.13,79.99c-2.46,0.01-3.89,1.39-3.9,3.76c-0.01,2.56,1.47,4.09,3.91,4.13
			c2.38,0.04,4.2-1.49,4.21-4.08C72.36,81.51,70.57,79.63,68.13,79.99z"/>
		<path class="st2" d="M139.9,23.54c-0.19-0.2-0.38-0.4-0.57-0.6C139.52,23.14,139.71,23.34,139.9,23.54z"/>
		<path class="st2" d="M132.31,107.35c0.11-0.15,0.22-0.3,0.33-0.44c0.11,0.15,0.22,0.3,0.32,0.45
			C132.74,107.36,132.53,107.35,132.31,107.35z"/>
		<path class="st2" d="M139.33,26.12c0.08-0.09,0.17-0.18,0.25-0.27C139.5,25.94,139.41,26.03,139.33,26.12z"/>
		<path class="st2" d="M65.88,101.11c0.09-0.09,0.18-0.18,0.26-0.27C66.05,100.93,65.96,101.02,65.88,101.11z"/>
		<path class="st2" d="M65.82,12.63c1.62-0.02,3.24-0.06,4.87-0.06c16.4,0,32.79,0,49.19,0c0.57,0,1.15,0.04,1.72,0.06
			c-0.02,1.17-0.29,2.18,1.74,1.94c2.11-0.25,4.32,0.38,6.49,0.48c1.16,0.05,1.67,0.42,1.54,1.58c-0.89,0.02-1.78,0.05-2.67,0.05
			c-23.96,0.01-47.92,0.01-71.88,0.01c-0.26,0-0.52-0.05-0.77-0.07c0.37-1.35,1.32-1.61,2.61-1.57c1.88,0.05,3.76-0.12,5.64-0.14
			C65.98,14.89,66.37,14.09,65.82,12.63z"/>
		<path class="st2" d="M103.96,96.73c0.42,0,0.84,0,1.26,0C104.8,97.58,104.38,97.59,103.96,96.73z"/>
		<path class="st2" d="M63.41,10.96c0.06,0.12,0.13,0.24,0.19,0.36C63.54,11.2,63.48,11.08,63.41,10.96z"/>
	</g>
</g>
<g id="Capa_3">
	<g>
		<g id="Capa_1_00000124866510233141782730000008262942243197469885_">
			<g>
				<path class="st2" d="M130.09,107.36c-2.59,0.01-5.17,0.04-7.75,0.03c-1.36,0-2.06-0.69-2.08-2.08
					c-0.03-1.34-0.01-2.66-0.01-4.09c-0.45-0.03-0.78-0.07-1.1-0.07c-16.95,0-33.89,0-50.84,0c-0.29,0-0.6,0.03-0.89,0.05
					c-0.09,0.09-0.17,0.17-0.25,0.26c-0.02,1.24-0.03,2.48-0.05,3.72c-0.01,1.27-0.8,2.18-2.05,2.2c-2.74,0.04-5.47,0.05-8.2,0
					c-1.49-0.03-2.19-0.84-2.28-2.48c-0.04-0.6,0-1.19,0-1.79c0-0.6,0-1.18,0-1.76c-2.46-0.57-3.68-2.28-3.68-4.76
					c0.07-21.39,0.04-42.78,0.04-64.16c0-0.69,0-1.38,0-2.31c-1.53,0-3-0.05-4.47,0.04c-0.29,0.02-0.74,0.51-0.8,0.84
					c-0.12,0.67-0.27,1.51,0.03,2.05c0.22,0.4,1.21,0.3,1.67,0.67c0.51,0.41,1.15,1.07,1.16,1.63c0.09,4.03,0.07,8.06,0.05,12.09
					c-0.01,1.22-0.79,1.74-1.9,1.78c-1.44,0.05-2.89,0.01-4.33,0.02c-1.06,0.01-1.53-0.53-1.53-1.55c0-4.22,0.01-8.46-0.01-12.68
					c-0.01-0.87,0.35-1.28,1.19-1.3c0.99-0.03,1.31-0.52,1.26-1.51c-0.17-3.23,1.39-4.62,4.46-4.48c0.99,0.05,1.99,0.01,3.1,0.01
					c0.04-0.44,0.11-0.81,0.11-1.18c0.01-5.42,0.02-10.85,0-16.26c-0.02-4.56,2.96-7.81,7.55-8.2c4.74-0.41,9.46-0.88,14.2-1.18
					c4.83-0.3,9.66-0.45,14.48-0.62c3.22-0.11,6.43-0.3,9.65-0.25c5.09,0.09,10.17,0.29,15.25,0.56c3.68,0.2,7.35,0.47,11.01,0.9
					c2.88,0.33,5.79,0.74,8.57,1.51c3.14,0.86,5,3.62,5.03,6.97c0.07,5.82,0.04,11.64,0.06,17.46c0.18,0.19,0.36,0.38,0.54,0.57
					c1.35,0.01,2.68,0.01,4.03,0.04c1.65,0.04,2.5,0.91,2.54,2.59c0.02,0.7-0.12,1.45,0.06,2.1c0.11,0.4,0.7,0.94,1.08,0.94
					c1.37,0.01,1.83,0.82,1.85,1.93c0.05,3.98,0.01,7.96,0.02,11.93c0,1.14-0.81,1.61-1.69,1.69c-1.53,0.13-3.08,0.08-4.62,0.01
					c-0.99-0.04-1.47-0.66-1.47-1.65c0-4.07,0.01-8.16,0-12.23c0-1.06,0.36-1.7,1.56-1.63c1.68,0.09,1.01-1.21,1.11-2.02
					c0.09-0.83,0.06-1.63-1.17-1.55c-1.19,0.07-2.39,0.04-3.57,0.06c-0.08,0.09-0.16,0.17-0.24,0.26
					c-0.02,5.97-0.04,11.93-0.04,17.9c-0.01,15.91,0,31.83,0,47.74c0,3.03-0.96,4.34-3.91,5.24c0,1.17-0.02,2.35,0.01,3.54
					c0.03,1.45-0.62,2.32-2.07,2.53c-0.1-0.14-0.21-0.28-0.3-0.43C130.29,107.07,130.19,107.22,130.09,107.36z M104.43,97.3
					c1.93-0.49,1-2.06,1.17-3.19c0.18-1.13-0.38-1.63-1.53-1.62c-6.65,0.03-13.31,0.03-19.96,0.04c-0.1,0-0.2,0-0.3-0.01
					c-1.96-0.02-2.08,0.09-2.08,1.93c0,0.29,0.03,0.6,0,0.89c-0.14,1.37,0.37,1.93,1.85,1.92c6.55-0.05,13.1,0.01,19.65,0.03
					C103.63,98.1,104.03,98.1,104.43,97.3z M67.11,17.63c0.51,1.38,0.14,2.14-1.44,2.16c-1.78,0.02-3.56,0.19-5.34,0.13
					c-1.22-0.04-2.12,0.21-2.47,1.49c-1.7,0.81-3.05,1.76-3.04,4c0.05,13.27,0.01,26.55,0.02,39.82c0,2.61,1.35,4.03,3.96,4.27
					c3.02,0.29,6.03,0.63,9.06,0.89c4.84,0.42,9.67,1.03,14.52,1.12c7.27,0.12,14.57-0.09,21.84-0.25
					c3.79-0.09,7.58-0.28,11.36-0.57c4.29-0.32,8.57-0.79,12.85-1.19c2.8-0.27,4.38-1.99,4.38-4.78c0-12.53-0.06-25.05,0.04-37.59
					c0.02-2.85-0.78-4.86-3.64-5.72c0.12-1.1-0.36-1.45-1.46-1.5c-2.06-0.09-4.15-0.68-6.15-0.45c-1.92,0.23-1.67-0.73-1.65-1.84
					c1.91-0.15,2.86-1.17,2.88-3.15c0.02-1.74,0-3.48,0-5.22c-0.01-2.44-0.93-3.36-3.38-3.36c-17,0-34.01,0-51.01,0
					c-0.55,0-1.11-0.08-1.64,0.04c-1.17,0.25-2.05,0.77-2.01,2.22c0.06,2.63,0.03,5.27,0.04,7.9c0.06,0.11,0.12,0.23,0.18,0.34
					C65.71,16.8,66.41,17.22,67.11,17.63z M125.02,84.11c0,2.24,1.57,3.87,3.64,3.92c2.32,0.05,4.15-2.02,4.12-3.84
					c-0.03-2.24-1.53-3.85-4.14-3.94C126.79,80.18,124.72,82.03,125.02,84.11z M62.33,84.13c0-2.3-1.51-3.9-3.64-3.88
					c-2.21,0.02-4.09,1.78-4.12,3.86c-0.03,1.96,2.04,3.92,4.09,3.89S62.34,86.27,62.33,84.13z M117.96,88.91
					c2.26,0.11,3.84-1.47,4.03-3.86c0.15-1.91-1.71-3.6-3.79-3.61c-2.51-0.02-4.14,1.45-4.22,3.79
					C113.93,87.13,115.83,88.9,117.96,88.91z M69.29,81.44c-2.33,0.01-3.68,1.32-3.69,3.56c-0.01,2.42,1.39,3.87,3.7,3.91
					c2.25,0.04,3.98-1.41,3.99-3.86C73.3,82.88,71.6,81.09,69.29,81.44z"/>
				<path class="st2" d="M19.41,65.19c-1.48,2.31-3.48,3.41-6.32,3.27c-3.22-0.16-6.44,0-9.66-0.06c-0.71-0.01-1.49-0.28-2.08-0.66
					c-1.57-1.02-1.53-2.69-1.1-4.16c0.47-1.58,2-2.09,3.52-2.15c2.39-0.08,4.78-0.12,7.16,0c1.76,0.08,2.86-0.69,3.84-2.02
					c1.91-2.6,3.91-5.14,5.89-7.69c1.69-2.18,4.1-2.34,6.46-1.89c1.95,0.37,3.19,1.87,3.65,3.84c0.4,1.73,0.75,3.48,0.99,5.25
					c0.6,4.36,0.91,8.78,1.76,13.09c0.62,3.17-0.25,5.6-2.46,7.64c-2.58,2.38-5.31,4.6-7.9,6.96c-0.69,0.62-1.56,1.48-1.64,2.3
					c-0.48,4.74-0.75,9.5-1.07,14.26c-0.15,2.27-2.26,4.31-4.5,4.26c-2.31-0.04-4.25-1.97-4.16-4.33c0.14-3.45,0.43-6.9,0.65-10.35
					c0.14-2.14,0.06-4.31,0.41-6.41c0.28-1.66,0.87-3.27,2.44-4.4c1.81-1.3,3.42-2.87,5.09-4.35c1.29-1.14,2.15-2.37,1.45-4.29
					c-0.38-1.04-0.24-2.26-0.4-3.4c-0.25-1.9-0.56-3.82-0.91-6.11C19.99,64.46,19.66,64.79,19.41,65.19z"/>
				<path class="st2" d="M44.46,52.93c0.53,2.03,0.71,4.15,1,6.23c0.49,3.37,0.76,6.79,1.47,10.12c0.38,1.79-0.21,3.07-1.49,3.72
					c-1.38,0.7-3.12,0.62-4.63,1.11c-3.14,1.02-5.47-0.63-5.72-4.45c-0.19-2.92-0.81-5.81-1.17-8.72c-0.32-2.49-0.56-4.98-0.77-7.48
					c-0.12-1.41,0.73-2.38,1.97-2.67c1.84-0.43,3.76-0.56,4.99-0.73C43.45,50.07,43.74,50.18,44.46,52.93z"/>
				<path class="st2" d="M36.07,87.56c1.52,4.81,3.06,9.63,4.55,14.45c0.62,2.03-0.57,4.31-2.53,5.07
					c-2.18,0.86-4.86,0.11-5.98-3.32c-1.81-5.51-3.59-11.04-5.3-16.59c-0.14-0.47,0.05-1.29,0.4-1.61c2.02-1.83,4.14-3.57,6.4-5.49
					C34.45,82.61,35.29,85.09,36.07,87.56z"/>
				<path class="st2" d="M22.36,47.67c-3.91,0.06-7.08-3.25-7.19-6.68c-0.16-4.52,3.39-7.09,6.62-7.28c4.39-0.25,7.34,3.4,7.34,6.66
					C29.15,44.44,26.06,47.61,22.36,47.67z"/>
				<path class="st2" d="M150,17.48c-0.2-0.21-0.41-0.43-0.61-0.64C149.6,17.05,149.8,17.27,150,17.48z"/>
				<path class="st2" d="M129.85,107.35c0.15-0.21,0.31-0.42,0.46-0.61c0.15,0.21,0.31,0.42,0.45,0.63
					C130.45,107.35,130.15,107.35,129.85,107.35z"/>
				<path class="st2" d="M149.39,20.25c0.09-0.1,0.18-0.19,0.27-0.29C149.58,20.07,149.48,20.15,149.39,20.25z"/>
				<path class="st2" d="M70.64,100.66c0.1-0.1,0.19-0.19,0.28-0.29C70.82,100.47,70.73,100.57,70.64,100.66z"/>
				<path class="st2" d="M67.11,17.63c1.53-0.02,3.07-0.06,4.61-0.06c15.53,0,31.06,0,46.59,0c0.54,0,1.09,0.04,1.63,0.06
					c-0.02,1.11-0.27,2.06,1.65,1.84c2-0.24,4.09,0.36,6.15,0.45c1.1,0.05,1.58,0.4,1.46,1.5c-0.84,0.02-1.69,0.05-2.53,0.05
					c-22.7,0.01-45.39,0.01-68.09,0.01c-0.25,0-0.49-0.05-0.73-0.07c0.35-1.28,1.25-1.53,2.47-1.49c1.78,0.05,3.56-0.11,5.34-0.13
					C67.26,19.77,67.63,19.01,67.11,17.63z"/>
				<path class="st2" d="M111.47,95.97c0.45,0,0.9,0,1.35,0C112.37,96.88,111.92,96.88,111.47,95.97z"/>
				<path class="st2" d="M67.99,3.99c0.06,0.13,0.14,0.26,0.2,0.39C68.13,4.25,68.07,4.12,67.99,3.99z"/>
			</g>
		</g>
		<path class="st2" d="M102.44,97.29h2.55c0,0,1.05,1.37,0.69,1.37s-4.3,0.33-4.3,0.33L102.44,97.29z"/>
	</g>
</g>
</svg>
