<?xml version="1.0" encoding="utf-8"?>
<!-- Generator: Adobe Illustrator 19.2.1, SVG Export Plug-In . SVG Version: 6.00 Build 0)  -->
<svg version="1.1" id="Capa_1" xmlns="http://www.w3.org/2000/svg" xmlns:xlink="http://www.w3.org/1999/xlink" x="0px" y="0px"
	 viewBox="0 0 175.3 22" style="enable-background:new 0 0 175.3 22;" xml:space="preserve">
<style type="text/css">
	.st0{fill:#16315B;}
	.st1{fill:#A4353B;}
</style>
<g>
	<g>
		<path class="st0" d="M104,9.1c0.3,0.1,0.7,0.1,1.1,0c0.4-0.1,0.8-0.2,1.2-0.4c0.4-0.2,0.7-0.4,0.9-0.8l-2.1-1.4
			c0.1,0.6,0,1.1-0.2,1.5C104.8,8.5,104.4,8.8,104,9.1"/>
		<path class="st0" d="M80.9,11.3c-0.2-0.3-0.4-0.7-0.8-0.8c-0.3-0.2-0.6-0.3-1.1-0.4c-0.4,0-1,0.1-1.5,0.2
			c-0.5,0.1-0.9,0.4-1.3,0.7c-0.4,0.2-0.7,0.5-0.9,0.8c-0.3,0.3-0.5,0.6-0.8,1.2c-0.3,0.5-0.6,1.2-1,1.7c-0.4,0.5-0.5,0.6-0.7,0.9
			c-0.2,0.2-0.6,0.4-0.8,0.5c-0.2,0-0.3,0-0.4-0.1c-0.1-0.1-0.1-0.3,0-0.6c0.1-0.3,0.4-0.8,0.7-1.2l4.8-8.6h-2.2l-3,5.6
			c-0.2-0.2-0.5-0.4-0.8-0.5c-0.3-0.1-0.5-0.2-0.8-0.3c-0.3,0-0.7-0.1-1-0.1c-0.3,0-0.7,0.1-1.1,0.3c-0.4,0.1-0.8,0.4-1.2,0.6
			c-0.4,0.2-0.7,0.5-1,0.8c-0.3,0.3-0.6,0.6-0.8,1c-0.2,0.3-0.4,0.6-0.4,1c-0.1,0.3-0.2,0.7-0.2,1c0,0.4,0.1,0.7,0.2,1.1
			c0.1,0.4,0.3,0.7,0.6,1c0.3,0.3,0.6,0.5,1.1,0.6c0.5,0.1,1.3,0.1,1.7,0c0.5-0.1,0.9-0.4,1.3-0.7c0.2,0.3,0.4,0.5,0.7,0.6
			c0.3,0.1,0.8,0.2,1.1,0.1c0.3,0,0.5-0.1,0.8-0.2c0.3-0.2,0.7-0.3,0.9-0.6c0.3-0.2,0.5-0.4,0.7-0.7c0,0.1,0.1,0.3,0.2,0.5
			c0.1,0.2,0.2,0.3,0.4,0.5c0.2,0.2,0.5,0.3,0.8,0.4c0.3,0.1,0.6,0.1,1,0.1c0.4,0,0.8,0,1.2-0.1c0.4-0.1,0.9-0.2,1.2-0.4
			c0.3-0.1,0.6-0.3,0.8-0.4l0.5-1.3c-0.4,0.2-0.8,0.3-1.1,0.5c-0.3,0.1-0.6,0.2-0.9,0.2c-0.3,0.1-0.7,0.1-1,0
			c-0.3-0.1-0.6-0.2-0.8-0.3c-0.2-0.2-0.2-0.4-0.3-0.6c0-0.2,0.1-0.5,0.1-0.6c0.3,0.1,0.5,0.4,0.8,0.5c0.3,0.1,0.6,0.2,1.1,0.2
			c0.4,0,1-0.1,1.4-0.3c0.5-0.2,0.8-0.6,1.1-0.9c0.3-0.3,0.4-0.6,0.5-0.8c0.1-0.3,0.1-0.6,0.1-1C81.1,12,81.1,11.6,80.9,11.3z
			 M70.1,14.8c-0.8,1.1-2.1,1.7-2.7,1.2c-0.6-0.5-0.5-1.8,0.4-2.9c0.8-1.1,2.1-1.7,2.7-1.2C71.1,12.3,70.9,13.6,70.1,14.8z
			 M79.6,12.7c0,0.2-0.2,0.4-0.4,0.7c-0.2,0.2-0.5,0.4-0.8,0.5c-0.3,0.1-0.6,0-0.8-0.1c-0.2-0.1-0.4-0.3-0.4-0.6
			c0-0.3,0.1-0.6,0.3-0.8c0.2-0.3,0.4-0.4,0.6-0.6c0.2-0.1,0.5-0.2,0.8-0.1c0.3,0,0.5,0.2,0.6,0.4C79.6,12.2,79.6,12.5,79.6,12.7z"
			/>
		<path class="st0" d="M17,12.5c0.2-0.6,0.4-1.3,0.5-1.9c0.1-0.6,0.2-1.1,0.2-1.6c0-0.5-0.1-1.1-0.2-1.5c-0.1-0.4-0.3-0.7-0.5-1
			c-0.2-0.2-0.4-0.4-0.7-0.6c-0.3-0.2-0.6-0.3-1-0.4c-0.4-0.1-1,0-1.4,0.1c-0.4,0.1-0.7,0.2-1.1,0.4c-0.3,0.2-0.6,0.4-0.9,0.6
			c-0.3,0.2-0.5,0.5-0.7,0.8c-0.2,0.3-0.3,0.6-0.4,0.9c-0.1,0.3-0.1,0.6-0.1,0.9c0,0.3,0,0.6,0.1,0.9c0.1,0.3,0.2,0.6,0.3,0.8
			c0.2,0.2,0.3,0.5,0.6,0.6c0.2,0.2,0.5,0.3,0.7,0.4c0.3,0.1,0.6,0.1,0.9,0.1c0.3,0,0.5-0.1,0.8-0.1c0.3-0.1,0.6-0.2,0.8-0.4
			c0.2-0.2,0.5-0.3,0.6-0.5c0.2-0.2,0.3-0.3,0.4-0.6C16,10,16,9.8,16.1,9.5c0-0.3,0-0.5,0-0.7c0-0.2-0.1-0.3-0.1-0.4
			c-0.1,0.1-0.2,0.2-0.3,0.2c-0.1,0.1-0.3,0.1-0.5,0.1c-0.2,0-0.4-0.1-0.5-0.2c-0.2-0.1-0.3-0.2-0.4-0.4C14,7.9,14,7.7,14,7.5
			c0-0.2,0.1-0.4,0.2-0.5c0.1-0.2,0.4-0.3,0.6-0.4c0.2-0.1,0.5,0,0.7,0c0.2,0.1,0.3,0.1,0.5,0.3c0.1,0.1,0.3,0.3,0.4,0.5
			c0.1,0.2,0.2,0.5,0.2,0.8c0,0.3,0.1,0.5,0.1,0.7c0,0.2,0,0.6-0.1,1c-0.1,0.4-0.2,0.9-0.3,1.4c-0.1,0.5-0.3,0.9-0.6,1.4
			c-0.2,0.4-0.5,0.8-0.8,1.1c-0.3,0.3-0.6,0.7-0.9,1c-0.3,0.3-0.6,0.5-0.9,0.6c-0.3,0.2-0.7,0.3-1.1,0.3c-0.4,0-0.8,0-1.2-0.1
			c-0.4-0.1-0.7-0.4-1.1-0.7c-0.3-0.3-0.6-0.9-0.7-1.4c-0.2-0.5-0.2-1.3-0.2-1.9C8.9,11,9,10.5,9.2,9.8c0.2-0.7,0.4-1.2,0.7-1.6
			c0.3-0.4,0.5-0.8,0.7-1.1c0.3-0.3,0.5-0.6,0.8-0.8c0.2-0.2,0.5-0.4,0.7-0.6C11.7,5.9,11.4,6,11,6.2c-0.4,0.2-1,0.5-1.5,0.9
			C9,7.4,8.6,7.8,8.3,8.1c-0.3,0.3-0.6,0.7-0.9,1c-0.2,0.4-0.5,0.7-0.7,1.1c-0.2,0.4-0.3,0.9-0.4,1.3c-0.1,0.4-0.1,0.8-0.1,1.2
			c0,0.4,0.1,0.8,0.2,1.2c0.1,0.4,0.2,0.8,0.4,1.2c0.2,0.3,0.4,0.7,0.7,1c0.3,0.3,0.5,0.4,0.8,0.7c0.3,0.2,0.5,0.4,0.9,0.5
			c0.3,0.1,0.6,0.2,1,0.3c0.4,0,0.8,0.1,1.3,0c0.4,0,0.8-0.1,1.2-0.2c0.4-0.1,0.7-0.2,1.1-0.4c0.3-0.2,0.6-0.3,0.9-0.6
			c0.3-0.2,0.6-0.6,0.9-0.9c0.3-0.4,0.5-0.8,0.8-1.3C16.5,13.7,16.8,13.1,17,12.5z"/>
		<path class="st0" d="M61.6,11c0.2-0.1,0.3-0.2,0.6-0.2c0.2,0,0.4,0,0.7,0l-0.6-1.2c-0.7-0.1-1.5,0-2.1,0.1
			c-0.7,0.1-1.2,0.3-1.8,0.5c-0.5,0.2-1.1,0.5-1.5,0.9c-0.5,0.4-1,0.8-1.4,1.4c-0.5,0.6-1,1.5-1.3,2c-0.4,0.6-0.6,0.8-0.8,1
			c-0.2,0.2-0.3,0.2-0.4,0.2c-0.1,0-0.2,0-0.3-0.1c-0.1-0.1-0.1-0.2-0.1-0.3c0-0.1,0.1-0.2,0.1-0.3l2.9-5.1h-2.3l-2.7,4.8
			c-0.1,0.1-0.5,0.5-0.8,0.6c-0.1,0-0.2,0-0.2,0c-0.1,0-0.1,0-0.2,0c-0.1,0-0.1-0.1-0.2-0.1c0-0.1-0.1-0.2,0-0.2l2.8-5h-2.4l-1.7,3
			c-0.3,0.5-0.7,0.8-1,1c-0.3,0.2-0.4,0.3-0.6,0.4c0.3-0.6,0.5-1.3,0.5-1.8c0-0.5,0-0.9-0.1-1.2c-0.1-0.4-0.4-0.8-0.7-1
			c-0.3-0.2-0.6-0.3-1-0.4c-0.4-0.1-0.8,0-1.1,0c-0.3,0.1-0.6,0.2-0.9,0.3l2.7-4.9h-2.4L37.9,15c-0.1,0.1-0.2,0.2-0.3,0.3
			c-0.1,0.1-0.3,0.2-0.4,0.2c-0.1,0-0.3,0-0.4,0c-0.1-0.1-0.2-0.1-0.3-0.3c0-0.1,0-0.3,0.1-0.5l2.7-4.7H37l-2.9,5.2
			c-0.1,0.2-0.2,0.3-0.4,0.4c-0.2,0.1-0.3,0.1-0.5,0c-0.1,0-0.2-0.1-0.3-0.2c0-0.1,0-0.2,0-0.4l1.6-2.7c0.2-0.3,0.3-0.6,0.3-0.6
			c0.1-0.2-0.1-0.8-0.2-1c-0.1-0.2-0.3-0.4-0.5-0.5c-0.2-0.1-0.4-0.2-0.6-0.1c-0.3,0-0.6,0.1-0.8,0.2c-0.2,0.1-0.4,0.2-0.6,0.4
			l0.4-0.7h-2.4l-2.8,5c-0.1,0.2-0.2,0.3-0.3,0.4c-0.1,0.1-0.2,0.2-0.3,0.2c-0.1,0-0.2,0-0.3,0c-0.1,0-0.1-0.1-0.2-0.2
			c0-0.1,0-0.2,0-0.3c0-0.1,0.1-0.2,0.1-0.3l1.5-2.7c0.1-0.2,0.2-0.4,0.2-0.7c0-0.2-0.1-0.5-0.2-0.7c-0.1-0.2-0.3-0.4-0.5-0.5
			c-0.2-0.1-0.2-0.2-0.4-0.2c-0.2,0-0.4-0.1-0.5,0c-0.2,0-0.3,0-0.5,0.1c-0.2,0-0.3,0.1-0.5,0.2c-0.2,0.1-0.3,0.3-0.6,0.5
			c-0.1-0.2-0.3-0.3-0.5-0.5c-0.2-0.1-0.3-0.2-0.5-0.2c-0.2,0-0.3-0.1-0.5-0.1c-0.2,0-0.4,0-0.6,0.1c-0.2,0.1-0.4,0.2-0.6,0.3
			c-0.2,0.1-0.3,0.2-0.4,0.4c-0.1-0.1-0.2-0.2-0.4-0.3c-0.1-0.1-0.3-0.2-0.5-0.2c-0.2-0.1-0.5-0.1-0.6-0.1c-0.2,0-0.4,0-0.6,0
			c-0.2,0.1-0.5,0.1-0.7,0.3c-0.2,0.1-0.4,0.2-0.6,0.4c-0.2,0.1-0.3,0.3-0.5,0.5c-0.1,0.2-0.2,0.3-0.3,0.6l0,0c0,0-0.1,0.6-0.1,0.6
			c0.1-0.1,0.1,0,0.3,0c0.1,0,0.3,0,0.4,0c0.1,0,0.2,0.1,0.3,0.2c0.1,0.1,0.1,0.1,0.1,0.3c0,0.2-0.1,0.4-0.2,0.6l-2.3,4.1h2.3
			l2.5-4.4c0.1-0.2,0.2-0.3,0.3-0.4c0.1-0.1,0.2-0.2,0.4-0.2c0.1,0,0.3,0,0.3,0.1c0.1,0.1,0.1,0.2,0,0.3l-2.6,4.5h2.4l2.5-4.5
			c0.1-0.1,0.1-0.2,0.2-0.3c0.1-0.1,0.3-0.2,0.4-0.2c0.2,0,0.3,0.1,0.4,0.2c0.1,0.1,0,0.3-0.1,0.5c-0.1,0.2-0.3,0.5-0.4,0.7l-1,1.8
			c-0.1,0.2-0.2,0.4-0.1,0.7c0,0.2,0.1,0.5,0.4,0.7c0.2,0.2,0.5,0.3,0.9,0.4c0.3,0,0.6,0,0.8-0.1c0.2-0.1,0.4-0.2,0.5-0.3
			c0.1-0.1,0.4-0.3,0.5-0.4L26,17.6h2.3l2.4-4.5c0-0.1,0.1-0.1,0.1-0.2c0.1-0.1,0.1-0.2,0.3-0.3c0.1-0.1,0.3-0.1,0.4-0.1
			c0.1,0,0.2,0.1,0.3,0.2c0,0.1,0,0.3-0.1,0.4l-1.3,2.2c-0.1,0.2-0.2,0.4-0.2,0.6c0,0.2,0,0.5,0.1,0.8c0.1,0.2,0.3,0.4,0.5,0.6
			c0.2,0.2,0.5,0.2,0.8,0.3c0.3,0,0.7-0.1,1-0.2c0.4-0.1,0.8-0.7,1.1-0.9c0.1,0.5,0.3,0.8,0.5,1c0.2,0.2,0.5,0.2,0.8,0.2
			c0.3,0,0.8-0.1,1.1-0.3c0.3-0.1,0.7-0.5,0.9-0.7l-0.5,1h2.5l0.9-1.7c0.1,0.6,0.4,1.1,0.8,1.3c0.4,0.2,0.7,0.4,1.1,0.4
			c0.4,0,0.9,0,1.3-0.2c0.4-0.1,0.7-0.3,1.1-0.5c0.5-0.3,0.7-0.4,1.2-0.7c0.4-0.2,0.7-0.4,1.2-0.7c0.1,0.3,0.3,0.7,0.3,0.7
			c0.1,0.2,0.3,0.5,0.4,0.7c0.2,0.2,0.3,0.4,0.5,0.5c0.2,0.1,0.3,0.2,0.5,0.2c0.2,0,0.7,0,0.8,0c0.2,0,0.4-0.1,0.6-0.2
			c0.2-0.1,0.3-0.2,0.4-0.3c0.1-0.1,0.2-0.2,0.3-0.3c0,0.1,0,0.2,0.1,0.2c0.1,0.1,0.1,0.2,0.3,0.3c0.2,0.1,0.3,0.1,0.6,0.2
			c0.3,0.1,1,0.1,1.2,0c0.3-0.1,0.6-0.2,0.9-0.4c0.3-0.2,0.6-0.5,0.8-0.9c0.3-0.4,0.5-0.9,0.9-1.5c0.4-0.6,0.7-1.3,1.2-1.8
			c0.5-0.5,0.9-0.9,1.4-1.1c0.4-0.3,0.8-0.5,1.1-0.6c0.3-0.1,0.6-0.2,0.8-0.2c-0.2,0.1-0.3,0.4-0.4,0.6c-0.1,0.2-0.1,0.4-0.2,0.6
			c0,0.2,0,0.4,0,0.6c0,0.2,0.1,0.4,0.2,0.8c0.2,0.3,0.3,0.8,0.4,1.2c0.1,0.4,0,0.6-0.1,0.8c-0.1,0.2-0.3,0.2-0.5,0.3
			c-0.2,0-0.5,0-0.6-0.1c-0.2-0.1-0.2-0.3-0.2-0.5c0-0.2,0.2-0.3,0.3-0.3c0.1-0.1,0.3-0.1,0.4-0.1c0.1,0,0.4,0,0.5,0.1
			c-0.1-0.2-0.3-0.4-0.4-0.5c-0.2-0.1-0.5-0.4-0.8-0.5c-0.3-0.1-0.7-0.2-1.1-0.1c-0.4,0-0.7,0.2-1,0.4c-0.3,0.2-0.4,0.4-0.5,0.7
			c-0.1,0.3-0.1,0.6-0.1,0.9c0,0.3,0.1,0.6,0.3,0.8c0.2,0.2,0.2,0.3,0.5,0.5c0.3,0.2,0.5,0.3,0.8,0.4c0.3,0.1,0.9,0.2,1.3,0.2
			c0.4,0,1.3,0,1.6-0.2c0.5-0.2,0.5-0.2,0.8-0.4c0.3-0.2,0.5-0.5,0.7-0.8c0.2-0.3,0.3-0.6,0.3-1c0-0.3,0-0.8-0.1-1.1
			c-0.1-0.4-0.3-0.6-0.6-1c-0.3-0.3-0.5-0.7-0.5-1c0-0.3,0-0.7,0.1-0.8C61.3,11.2,61.5,11.1,61.6,11z M44.5,13.3
			c0,0.2-0.1,0.3-0.2,0.6c-0.1,0.3-0.3,0.7-0.5,1c-0.2,0.3-0.4,0.6-0.7,0.7c-0.2,0.2-0.4,0.3-0.6,0.3C42.2,16,42,16,41.8,16
			c-0.2,0-0.4-0.1-0.5-0.1c-0.2-0.1-0.3-0.2-0.4-0.3c-0.1-0.2-0.2-0.4-0.2-0.6c0-0.2,0-0.4,0.1-0.7c0.1-0.2,0.2-0.5,0.4-0.8
			c0.2-0.3,0.3-0.5,0.4-0.7c0.1-0.2,0.2-0.3,0.3-0.4c0.1-0.1,0.3-0.3,0.5-0.4c0.2-0.1,0.4-0.2,0.7-0.2c0.2,0,0.5,0,0.8,0.1
			c0.2,0.1,0.4,0.2,0.5,0.4c0.1,0.2,0.2,0.4,0.2,0.6C44.6,12.9,44.5,13.1,44.5,13.3z"/>
		<path class="st0" d="M38.1,9c0.2,0.2,0.5,0.2,0.7,0.2c0.3,0,0.5-0.1,0.7-0.2c0.2-0.2,0.4-0.4,0.5-0.6c0.1-0.2,0.1-0.5,0-0.8
			c-0.1-0.2-0.2-0.5-0.5-0.6c-0.2-0.2-0.5-0.2-0.7-0.2c-0.3,0-0.5,0.1-0.7,0.2c-0.2,0.2-0.4,0.4-0.5,0.6c-0.1,0.2-0.1,0.5,0,0.8
			C37.7,8.6,37.9,8.9,38.1,9z"/>
		<path class="st0" d="M134.9,12.2c-0.3,0-0.5,0-0.8,0c-0.1-0.5-0.4-1-0.7-1.4c-0.3-0.4-0.7-0.6-1.2-0.7c-0.4-0.1-0.9-0.2-1.4-0.1
			c-0.5,0.1-1.1,0.3-1.6,0.7c-0.6,0.4-1.1,1-1.5,1.8c-0.4,0.7-0.8,1.6-1.4,2.3c-0.5,0.7-1.3,1.1-1.8,1.3c-0.6,0.2-1,0.2-1.3,0
			c-0.3-0.1-0.5-0.4-0.6-0.6c-0.1-0.2-0.2-0.6-0.2-0.9c0-0.3,0-0.5,0.1-0.8c0.1-0.3,0.2-0.5,0.4-0.8c0.2-0.3,0.4-0.6,0.5-0.8
			c0.2-0.2,0.3-0.4,0.5-0.5c0.1-0.1,0.3-0.2,0.6-0.2c0.2,0,0.3,0.1,0.4,0.2c0.1,0.1,0,0.3-0.1,0.4c-0.1,0.1-0.2,0.1-0.3,0.2
			c-0.2,0.1-0.6,0.1-0.6-0.1c0,0,0,0.5,0.2,0.8c0.2,0.3,0.5,0.6,0.9,0.7c0.4,0.1,0.8,0.1,1.1-0.1c0.3-0.2,0.6-0.4,0.8-0.6
			c0.1-0.2,0.2-0.5,0.3-0.8c0-0.3,0-0.5,0-0.8c-0.1-0.3-0.2-0.6-0.4-0.8c-0.2-0.2-0.5-0.4-1-0.6c-0.4-0.1-1-0.2-1.5-0.1
			c-0.5,0.1-1,0.3-1.5,0.5c-0.4,0.3-0.8,0.6-1.2,1c-0.4,0.4-0.7,0.9-0.9,1.3c-0.2,0.4-0.4,0.7-0.7,1.1c-0.3,0.4-0.7,1-0.9,1.3
			c-0.3,0.3-0.5,0.5-0.6,0.6c-0.2,0.1-0.3,0.1-0.4,0.1c-0.1,0-0.2,0-0.3,0c-0.1,0-0.1,0-0.1-0.2c0-0.1,0.3-0.5,0.4-0.7l2.8-5.1h-2.4
			l-2.4,4.4c-0.4,0.6-0.7,0.8-1,1.1c-0.3,0.3-0.5,0.4-0.8,0.5c-0.3,0.1-0.6,0.2-0.9,0c-0.3-0.1-0.5-0.4-0.6-0.7
			c-0.1-0.4-0.1-0.7,0.1-1.1c0.3-0.4,0.5-1,0.7-1.3c0.2-0.3,0.3-0.4,0.5-0.6c0.2-0.2,0.4-0.3,0.6-0.3c0.2,0,0.3,0.1,0.4,0.2
			c0,0.1,0,0.2-0.1,0.4c-0.1,0.1-0.1,0.3-0.3,0.4c0.3,0.1,0.6,0.2,0.8,0.1c0.3,0,0.6-0.1,0.8-0.2c0.2-0.1,0.4-0.3,0.5-0.6
			c0.1-0.2,0.2-0.5,0.2-0.8c0-0.3,0-0.5-0.1-0.7c-0.1-0.2-0.3-0.4-0.5-0.6c-0.3-0.1-0.6-0.2-0.9-0.2c-0.3,0-0.6,0-0.8,0.1
			c-0.2,0.1-0.5,0.2-0.7,0.3c-0.2,0.1-0.4,0.2-0.5,0.4c-0.1,0.2-0.4,0.4-0.5,0.7c-0.1-0.4-0.2-0.7-0.4-0.9c-0.2-0.2-0.4-0.3-0.7-0.4
			c-0.2-0.1-0.5-0.1-0.7-0.1c-0.2,0-0.5,0.1-0.7,0.1c-0.3,0.1-0.7,0.2-1.2,0.5c-0.5,0.3-1,0.7-1.6,1.4c-0.6,0.7-1.2,1.5-1.7,2.1
			c-0.5,0.6-0.8,1-1.2,1.3c-0.4,0.3-0.7,0.4-1.1,0.5c-0.4,0.1-0.9,0.1-1.2,0.1c-0.3,0-0.8-0.1-1-0.2c-0.2-0.1-0.4-0.5-0.4-0.7
			c0-0.2,0.1-0.5,0.2-0.7c0.2,0.2,0.8,0.6,1.1,0.7c0.3,0.1,0.9,0.1,1.3,0c0.4-0.1,0.9-0.2,1.2-0.4c0.3-0.2,0.6-0.5,0.9-0.8
			c0.2-0.3,0.4-0.8,0.5-1.2c0.1-0.4,0-0.6,0-0.9c0-0.3-0.2-0.6-0.4-0.9c-0.2-0.3-0.5-0.5-0.8-0.6c-0.3-0.2-0.6-0.3-1-0.3
			c-0.1,0-0.6,0-1,0.1c-0.4,0.1-1,0.4-1.4,0.6c-0.4,0.3-0.7,0.5-1.1,1c-0.3,0.4-0.8,1-1.2,1.7c-0.3,0.6-0.6,1.4-0.8,1.8
			c-0.2,0.4-0.3,0.5-0.4,0.6c-0.1,0.1-0.4,0.2-0.5,0.2c-0.1,0-0.3-0.1-0.3-0.2c0-0.1,0-0.3,0.1-0.5c0.1-0.2,0.2-0.5,0.8-2.1
			c0.6-1.6,1.6-4.4,2.7-7.5h-2.4l-2.7,4.2l0.6-4.2h-2.1l-5.5,8.8c-0.2,0.3-0.4,0.5-0.7,0.7c-0.2,0.2-0.5,0.3-0.8,0.3
			c-0.3,0-0.6-0.1-0.9-0.2c-0.2-0.1-0.3-0.4-0.3-0.6c0-0.2,0.2-0.4,0.4-0.5c0.2-0.1,0.5-0.1,0.6-0.2c0.2,0,0.5,0.1,0.6,0.1v0
			c-0.2-0.3-0.5-0.7-0.8-1c-0.3-0.2-0.7-0.4-1.1-0.5c-0.4-0.1-0.8,0-1.2,0.1c-0.4,0.1-0.8,0.3-1.1,0.6c-0.3,0.3-0.5,0.6-0.6,1
			C83,14.6,82.9,15,83,15.4c0.1,0.4,0.3,0.8,0.5,1.1c0.3,0.3,0.6,0.6,1,0.8c0.4,0.2,0.9,0.3,1.4,0.3c0.5,0,1.1-0.1,1.7-0.4
			c0.6-0.2,1.2-0.6,1.7-1.2c0.5-0.6,1-1.4,1.5-2.2l2.1-3.3l-1.5,7l4.8-7c-0.6,1.5-1,2.9-1.3,3.9c-0.3,0.9-0.2,1.3-0.2,1.6
			c0.1,0.3,0.2,0.7,0.5,0.9c0.2,0.2,0.4,0.4,0.7,0.5c0.3,0.1,0.6,0.1,1,0c0.3-0.1,0.7-0.3,1-0.5c0.3-0.2,0.7-0.8,0.8-1.1
			c-0.1,0.2,0.4,0.7,0.6,0.9c0.2,0.2,0.4,0.3,0.7,0.4c0.3,0.1,0.6,0.2,0.9,0.2c0.3,0.1,0.6,0.1,0.9,0.1c0.3,0,0.7-0.1,1.1-0.3
			c0.4-0.1,0.8-0.3,1.2-0.5c0.4-0.2,0.7-0.4,1.2-0.9c0.5-0.5,1.1-1.2,1.6-1.8c0.5-0.7,1-1.2,1.4-1.6c0.4-0.4,0.7-0.8,1-0.9
			c0.4-0.1,0.6-0.1,0.9,0c0.1,0,0.3,0.1,0.4,0.3c0.1,0.1,0.3,0.4,0.3,0.7c0,0.3,0,0.5-0.1,0.8c-0.1,0.3-0.2,0.4-0.4,0.8
			c-0.1,0.3-0.4,0.7-0.6,1c-0.2,0.3-0.3,0.5-0.5,0.6c-0.2,0.1-0.3,0.1-0.4,0c-0.1-0.1-0.2-0.2-0.2-0.3c0-0.1,0.1-0.3,0.2-0.4
			c0.1-0.1,0.3-0.2,0.5-0.2c-0.4-0.2-0.8-0.4-1.2-0.4c-0.4,0-0.7,0.1-1,0.3c-0.3,0.2-0.5,0.4-0.6,0.7c-0.1,0.3-0.2,0.6-0.2,0.9
			c0,0.3,0.1,0.6,0.3,0.8c0.2,0.3,0.5,0.5,0.8,0.6c0.3,0.1,0.7,0.2,1,0.2c0.4,0,0.7-0.2,1-0.4c0.3-0.2,0.6-0.5,0.8-0.8
			c0.1,0.2,0.2,0.4,0.5,0.6c0.3,0.2,0.6,0.5,1.1,0.6c0.4,0.1,0.9,0,1.3-0.1c0.4-0.1,0.7-0.2,1-0.4c0.3-0.2,0.6-0.3,0.8-0.5
			c0.1,0.3,0.4,0.6,0.8,0.8c0.4,0.2,1,0.2,1.5,0.1c0.5-0.1,1-0.2,1.4-0.6c0.3-0.3,0.8-0.7,0.9-1.5c0,0.3,0.7,0.9,0.9,1.2
			c0.3,0.3,0.8,0.6,1.1,0.7c0.4,0.2,1.1,0.3,1.7,0.3c0.6-0.1,1.2-0.3,1.8-0.6c0.6-0.3,1-0.7,1.4-1.2c0.1,0.3,0.3,0.5,0.6,0.8
			c0.3,0.3,0.7,0.6,1.2,0.8c0.6,0.2,1.2,0.3,1.9,0.2c0.6-0.1,1.2-0.4,1.6-0.7c0.4-0.3,0.7-0.5,0.9-0.9c0.2-0.3,0.6-0.8,0.7-1.2
			c0.2-0.4,0.2-0.8,0.2-1.3c0.3-0.1,0.5-0.2,0.8-0.4c0.2-0.2,0.4-0.4,0.6-0.6c0.2-0.3,0.4-0.9,0.5-0.9
			C135.6,11.8,135.2,12.1,134.9,12.2z M102.1,12.9c0-0.2,0.2-0.4,0.3-0.6c0.2-0.2,0.4-0.4,0.6-0.5c0.2-0.1,0.4-0.2,0.6-0.2
			c0.2,0,0.4,0,0.6,0.1c0.2,0.1,0.3,0.2,0.4,0.3c0.1,0.1,0.2,0.3,0.2,0.5c0,0.2-0.1,0.3-0.2,0.5c-0.1,0.2-0.3,0.3-0.5,0.5
			c-0.2,0.2-0.4,0.3-0.6,0.3c-0.2,0.1-0.5,0-0.7,0c-0.2,0-0.4-0.1-0.5-0.3C102.2,13.3,102.1,13.1,102.1,12.9z M132.2,14.8
			L132.2,14.8c-0.2,0.3-0.4,0.5-0.6,0.7c-0.2,0.2-0.4,0.4-0.6,0.5c-0.2,0.1-0.5,0.2-0.7,0.3c-0.3,0.1-0.6,0-0.9-0.1
			c-0.3-0.1-0.4-0.5-0.4-0.8c0-0.4,0-0.8,0.2-1.2c0.1-0.4,0.3-0.7,0.5-1c0.2-0.3,0.4-0.5,0.6-0.7c0.2,0.2,0.3,0.5,0.6,0.7
			c0.3,0.2,0.6,0.4,0.9,0.5c0.3,0.1,1.1,0.2,1.1,0C132.7,14.1,132.4,14.5,132.2,14.8z"/>
		<path class="st0" d="M120.3,6.6c-0.3,0-0.5,0.1-0.7,0.2c-0.2,0.2-0.4,0.4-0.5,0.6c-0.1,0.2-0.1,0.5,0,0.8c0.1,0.2,0.2,0.5,0.5,0.6
			c0.2,0.2,0.5,0.2,0.7,0.2c0.3,0,0.5-0.1,0.7-0.2c0.2-0.2,0.4-0.4,0.5-0.6c0.1-0.2,0.1-0.5,0-0.8c-0.1-0.3-0.2-0.5-0.5-0.6
			C120.8,6.7,120.5,6.6,120.3,6.6"/>
	</g>
	<g>
		<g>
			<g>
				<path class="st1" d="M143.8,17.7V5.6h3c3,0,4.6,1.3,4.6,3.8c0,0.4,0,0.9-0.1,1.4c-0.4,1.9-1.5,3.1-3.6,3.1l-0.6,0v3.9H143.8z
					 M147.3,11c0.6,0,0.9-0.2,0.9-1.1c0-0.8-0.3-1.2-0.7-1.2l-0.3,0V11C147.3,11,147.3,11,147.3,11z"/>
				<path class="st1" d="M152,17.7V5.6h3.3v12.1H152z"/>
				<path class="st1" d="M156,14.7V9.2h3.3V14v0.3c0,0,0,0,0,0.1c0.1,0.3,0.2,0.3,0.4,0.3c0.2-0.1,0.3-0.2,0.3-0.3V9.2h3.3v8.5h-3.2
					v-0.6c-0.3,0.5-1,0.8-1.9,0.8c-1.4,0-2.1-0.8-2.2-2.2l0-0.7V14.7z"/>
				<path class="st1" d="M169.1,9.5v3.1c-0.2-0.2-0.5-0.4-0.7-0.5c-0.4-0.3-0.7-0.4-0.9-0.4c-0.3,0-0.4,0.1-0.4,0.2
					c0,0.2,0,0.2,0.3,0.3l0.1,0.1l0.6,0.3c0.3,0.1,0.5,0.3,0.7,0.5c0.4,0.4,0.7,1.1,0.7,1.8c0,0.8-0.3,1.5-0.8,2.2
					c-0.5,0.5-1.2,0.8-2.2,0.8c-0.3,0-0.6,0-0.9-0.1c-0.5-0.1-1-0.3-1.5-0.5v-3.5c0.1,0.1,0.1,0.2,0.2,0.3c0.3,0.4,0.7,0.7,1,0.8
					c0.2,0.1,0.4,0.1,0.5,0.1c0.1,0,0.1,0,0.2-0.1c0.1-0.1,0.1-0.2,0.1-0.3c0-0.1,0-0.1-0.1-0.2c-0.1-0.1-0.1-0.1-0.2-0.1l-0.5-0.2
					l-0.1-0.1c-0.9-0.4-1.4-1.1-1.4-2.1c0-0.4,0.1-0.7,0.2-1.1c0.4-1.2,1.3-2,2.9-2c0.2,0,0.5,0,0.7,0
					C168.1,9.1,168.6,9.2,169.1,9.5z"/>
			</g>
			<circle class="st1" cx="140.6" cy="14.2" r="1.4"/>
		</g>
	</g>
</g>
</svg>
