<?xml version="1.0" encoding="utf-8"?>
<!-- Generator: Adobe Illustrator 27.7.0, SVG Export Plug-In . SVG Version: 6.00 Build 0)  -->
<svg version="1.1" id="Capa_1" xmlns="http://www.w3.org/2000/svg" xmlns:xlink="http://www.w3.org/1999/xlink" x="0px" y="0px"
	 viewBox="0 0 67.27 52.29" style="enable-background:new 0 0 67.27 52.29;" xml:space="preserve">
<style type="text/css">
	.st0{fill:none;stroke:#FFFFFF;stroke-width:1.6425;stroke-linecap:round;stroke-linejoin:round;stroke-miterlimit:10;}
	.st1{fill:#162162;}
	.st2{fill:none;stroke:#FFFFFF;stroke-width:1.1131;stroke-linecap:round;stroke-linejoin:round;stroke-miterlimit:10;}
	.st3{fill:#EB001B;}
	.st4{fill:#F79E1B;}
	.st5{fill:#01010D;}
	.st6{fill:#02020D;}
	.st7{fill:#02020E;}
	.st8{fill:#F3D19F;}
	.st9{fill:#ED9AA3;}
	.st10{fill:#D9D9D9;}
	.st11{fill:#FF5F00;}
</style>
<g>
	<g>
		<path class="st2" d="M33.59,36.88c-2.53,1.93-5.35,3.23-8.45,3.91c-1.88,0.41-3.81,0.49-5.71,0.34c-2.7-0.21-5.28-0.96-7.67-2.24
			c-2.06-1.1-3.88-2.52-5.47-4.23c-2.48-2.67-4.12-5.77-4.89-9.33c-0.18-0.83-0.25-1.68-0.36-2.53c-0.01-0.3-0.02-0.61-0.03-0.91
			c0-0.62,0-1.25,0-1.87c0.01-0.3,0.02-0.61,0.03-0.91c0.2-3.47,1.4-6.61,3.33-9.46c2.09-3.1,4.85-5.47,8.25-7.05
			c1.84-0.85,3.78-1.43,5.81-1.63c0.29-0.03,0.58-0.08,0.87-0.12c0.34-0.01,0.68-0.02,1.02-0.04c0.59,0,1.17,0,1.76,0
			c0.3,0.01,0.61,0.02,0.91,0.03c2.47,0.24,4.85,0.85,7.06,1.96c1.24,0.62,2.37,1.47,3.55,2.21c-0.02,0.02-0.02,0.05-0.01,0.07
			c-1.42,1.25-2.77,2.56-3.88,4.11c-2.45,3.41-3.64,7.24-3.81,11.39c-0.05,1.19,0.14,2.39,0.31,3.57c0.52,3.5,1.91,6.64,4.15,9.37
			c0.97,1.18,2.15,2.19,3.23,3.28C33.57,36.84,33.58,36.86,33.59,36.88z"/>
		<path class="st2" d="M33.59,36.88c-0.02-0.02-0.02-0.05-0.01-0.07c0.08-0.04,0.18-0.06,0.24-0.12c1.4-1.19,2.69-2.48,3.76-3.98
			c2.17-3.02,3.41-6.39,3.71-10.07c0.2-2.41-0.03-4.82-0.7-7.19c-1.12-3.96-3.32-7.19-6.34-9.91c-0.2-0.18-0.45-0.31-0.68-0.46
			c-0.01-0.03-0.01-0.05,0.01-0.07c1.41-0.83,2.78-1.75,4.24-2.48c1.76-0.88,3.66-1.4,5.64-1.57c0.44-0.04,0.87-0.08,1.31-0.12
			c0.15-0.01,0.31-0.02,0.46-0.03c0.59,0,1.17,0,1.76,0c0.34,0.01,0.68,0.02,1.02,0.03C53,1.39,57.28,3.37,60.77,6.98
			c1.82,1.89,3.23,4.06,4.17,6.51c0.62,1.62,1.12,3.3,1.23,5.06c0.06,1.04,0.25,2.09,0.19,3.13c-0.11,2.11-0.5,4.18-1.22,6.18
			c-0.84,2.35-2.11,4.43-3.73,6.32c-1.88,2.19-4.15,3.85-6.73,5.08c-1.74,0.83-3.58,1.43-5.5,1.63c-1.57,0.17-3.17,0.32-4.74,0.21
			c-2.84-0.21-5.56-1-8.04-2.46C35.44,38.1,34.53,37.48,33.59,36.88z"/>
		<path class="st2" d="M9.09,51.27c-0.4,0-0.75,0-1.17,0c0-0.47,0.01-0.94,0-1.41C7.9,49.23,7.9,48.6,7.83,47.97
			c-0.09-0.74-0.47-1.05-1.15-1.04c-0.72,0-1.16,0.32-1.2,1.06c-0.06,1.07-0.02,2.15-0.02,3.26c-0.42,0-0.78,0-1.17,0
			c0-1.75,0-3.5,0-5.28c0.35,0,0.69,0,1.07,0c0.02,0.13,0.04,0.26,0.06,0.45c1.23-0.95,2.33-0.74,3.36,0.26
			c0.63-0.81,1.55-1.06,2.65-0.73c0.76,0.23,1.32,1.06,1.34,2.04c0.02,1.07,0,2.15,0,3.26c-0.38,0-0.74,0-1.18,0
			c0-0.87,0.01-1.75,0-2.63c0-0.29-0.03-0.59-0.1-0.87c-0.14-0.58-0.57-0.83-1.31-0.81c-0.52,0.02-0.95,0.34-1.01,0.88
			c-0.08,0.77-0.07,1.55-0.09,2.33C9.08,50.51,9.09,50.86,9.09,51.27z"/>
		<path class="st2" d="M61.94,46.42c0-0.9,0-1.73,0-2.57c0.41,0,0.79,0,1.2,0c0,2.47,0,4.92,0,7.41c-0.38,0-0.76,0-1.19,0
			c-0.01-0.11-0.03-0.24-0.06-0.47c-0.7,0.72-1.55,0.73-2.34,0.56c-0.49-0.11-1.03-0.46-1.33-0.86c-0.9-1.23-0.93-2.65,0.15-3.87
			C59.06,45.85,60.2,45.35,61.94,46.42z M58.82,48.6c-0.07,1.2,0.85,1.8,1.55,1.78c0.9-0.03,1.69-0.62,1.68-1.67
			c-0.01-1.08-0.66-1.77-1.68-1.76C59.47,46.95,58.82,47.65,58.82,48.6z"/>
		<path class="st2" d="M51.12,46.46c0.01-0.18,0.02-0.32,0.04-0.49c0.38,0,0.76,0,1.16,0c0,1.76,0,3.49,0,5.27
			c-0.37,0-0.75,0-1.15,0c-0.01-0.12-0.03-0.25-0.04-0.37c-2.03,1.06-3.6,0.66-4.27-1.56c-0.35-1.15,0-2.38,1.18-3.1
			C49.08,45.57,50.12,45.72,51.12,46.46z M51.13,48.62c0.13-1.11-0.7-1.69-1.6-1.68c-0.92,0.01-1.62,0.71-1.63,1.66
			c-0.01,0.72,0.78,1.77,1.34,1.78C50.47,50.41,51.14,49.79,51.13,48.62z"/>
		<path class="st2" d="M18.18,46.46c0.01-0.17,0.02-0.32,0.03-0.5c0.37,0,0.72,0,1.11,0c0,1.76,0,3.51,0,5.29c-0.34,0-0.7,0-1.1,0
			c-0.01-0.14-0.02-0.3-0.04-0.46c-1.38,1.03-2.83,0.76-3.58-0.08c-1.13-1.27-1.15-2.6-0.2-3.9C15.27,45.61,16.57,45.52,18.18,46.46
			z M18.19,48.66c0.16-0.97-0.65-1.73-1.69-1.72c-0.94,0.01-1.48,0.83-1.53,1.67c-0.05,0.89,0.77,1.82,1.55,1.78
			C17.47,50.33,18.29,49.73,18.19,48.66z"/>
		<path class="st2" d="M32.46,49.17c0.1,0.98,0.99,1.37,1.89,1.2c0.29-0.05,0.58-0.19,0.85-0.32c0.26-0.12,0.39-0.13,0.61,0.16
			c0.37,0.49,0.19,0.67-0.25,0.85c-1.54,0.65-3.22,0.49-4.03-0.96c-0.82-1.46-0.2-3.8,1.53-4.2c1.62-0.37,3.09,0.44,3.25,2.23
			c0.03,0.3,0,0.61,0,0.95c-1.3,0-2.54,0-3.78,0C32.52,49.11,32.49,49.14,32.46,49.17z M35.14,48.15c-0.11-0.99-0.43-1.23-1.6-1.21
			c-0.6,0.01-1,0.45-1.07,1.21C33.36,48.15,34.25,48.15,35.14,48.15z"/>
		<path class="st2" d="M20.49,50.73c0.16-0.26,0.33-0.53,0.51-0.83c0.81,0.51,1.64,0.64,2.53,0.4c0.32-0.09,0.53-0.27,0.42-0.57
			c-0.07-0.19-0.31-0.37-0.52-0.43c-0.57-0.16-1.17-0.2-1.73-0.37c-0.63-0.19-1.1-0.86-1.08-1.4c0.03-0.63,0.59-1.4,1.18-1.55
			c1.13-0.29,2.22-0.11,3.3,0.38c-0.17,0.33-0.33,0.63-0.43,0.82c-0.77-0.08-1.46-0.2-2.15-0.2c-0.22,0-0.45,0.28-0.67,0.43
			c0.18,0.18,0.32,0.46,0.53,0.52c0.58,0.18,1.19,0.24,1.78,0.4c0.53,0.15,0.94,0.46,1.03,1.05c0.11,0.73-0.14,1.29-0.76,1.69
			C23.63,51.58,21.31,51.6,20.49,50.73z"/>
		<path class="st2" d="M25.99,45.96c0.37,0,0.7,0,1.08,0c0-0.53,0-1.03,0-1.56c0.44,0,0.82,0,1.24,0c0,0.51,0,1,0,1.53
			c0.64,0,1.24,0,1.87,0c0,0.39,0,0.73,0,1.11c-0.61,0-1.21,0-1.87,0c0,0.93-0.02,1.81,0.01,2.69c0.02,0.5,0.54,0.7,1.27,0.52
			c0.17-0.04,0.35-0.08,0.54-0.12c0.11,0.31,0.21,0.59,0.3,0.86c-0.92,0.6-2.25,0.6-2.83-0.06c-0.21-0.24-0.37-0.6-0.39-0.92
			c-0.05-0.97-0.02-1.95-0.02-2.92C25.96,46.97,25.96,46.97,25.99,45.96z"/>
		<path class="st2" d="M46.15,46.46c-0.17,0.3-0.35,0.61-0.54,0.94c-0.65-0.33-1.3-0.62-2.05-0.34c-0.68,0.25-1.13,1.12-1,1.94
			c0.13,0.8,0.7,1.29,1.52,1.27c0.34-0.01,0.72-0.01,1.01-0.16c0.42-0.23,0.66-0.2,0.82,0.26c0.04,0.12,0.13,0.21,0.2,0.32
			c-0.52,0.83-2.5,1.02-3.54,0.32c-1.28-0.86-1.65-2.65-0.72-4.05C42.74,45.61,44.81,45.46,46.15,46.46z"/>
		<path class="st2" d="M38.91,46.36c0.64-0.62,1.34-0.66,2.11-0.37c-0.03,0.07-0.08,0.13-0.09,0.19c-0.09,0.63-0.3,0.96-1.07,0.78
			c-0.62-0.15-1.04,0.38-1.05,1.14c-0.01,1.04,0,2.07,0,3.14c-0.39,0-0.75,0-1.14,0c0-1.75,0-3.5,0-5.3
			C38.08,46.05,38.58,45.66,38.91,46.36z"/>
		<path class="st2" d="M55.06,51.27c-0.43,0-0.78,0-1.15,0c0-1.77,0-3.52,0-5.3c0.37,0,0.73,0,1.11,0c0.01,0.16,0.03,0.31,0.05,0.56
			c0.63-0.82,1.37-0.83,2.19-0.54c-0.04,0.15-0.06,0.3-0.12,0.43c-0.16,0.37-0.23,0.76-0.87,0.55c-0.65-0.21-1.19,0.32-1.2,1.04
			C55.04,49.08,55.06,50.15,55.06,51.27z"/>
		<path class="st2" d="M48.02,0.85c-0.34-0.01-0.68-0.02-1.02-0.03C47.35,0.83,47.69,0.84,48.02,0.85z"/>
		<path class="st2" d="M20.31,0.81c-0.34,0.01-0.68,0.02-1.02,0.04C19.63,0.84,19.97,0.82,20.31,0.81z"/>
		<path class="st2" d="M1.03,19.11c-0.01,0.3-0.02,0.61-0.03,0.91C1.01,19.72,1.02,19.41,1.03,19.11z"/>
		<path class="st2" d="M1,21.89c0.01,0.3,0.02,0.61,0.03,0.91C1.02,22.49,1.01,22.19,1,21.89z"/>
		<path class="st2" d="M22.98,0.85c-0.3-0.01-0.61-0.02-0.91-0.03C22.37,0.83,22.68,0.84,22.98,0.85z"/>
		<path class="st2" d="M45.25,0.82c-0.15,0.01-0.31,0.02-0.46,0.03C44.94,0.84,45.09,0.83,45.25,0.82z"/>
		<path class="st2" d="M32.46,49.17c0.03-0.03,0.06-0.06,0.09-0.09C32.52,49.11,32.49,49.14,32.46,49.17z"/>
		<path class="st2" d="M33.59,5.09c0.23,0.15,0.48,0.27,0.68,0.46c3.02,2.72,5.21,5.95,6.34,9.91c0.67,2.37,0.9,4.77,0.7,7.19
			c-0.31,3.68-1.55,7.05-3.71,10.07c-1.08,1.5-2.36,2.79-3.76,3.98c-0.07,0.06-0.16,0.08-0.24,0.12c-1.08-1.09-2.26-2.1-3.23-3.28
			c-2.24-2.73-3.63-5.87-4.15-9.37c-0.18-1.18-0.36-2.39-0.31-3.57c0.17-4.15,1.36-7.98,3.81-11.39
			C30.82,7.65,32.17,6.34,33.59,5.09z"/>
	</g>
	<g>
		<path class="st3" d="M33.54,36.89c-2.53,1.93-5.35,3.23-8.45,3.91c-1.88,0.41-3.81,0.49-5.71,0.34c-2.7-0.21-5.28-0.96-7.67-2.24
			c-2.06-1.1-3.88-2.52-5.47-4.23C3.75,32,2.11,28.89,1.34,25.33c-0.18-0.83-0.25-1.68-0.36-2.53c-0.01-0.3-0.02-0.61-0.03-0.91
			c0-0.62,0-1.25,0-1.87c0.01-0.3,0.02-0.61,0.03-0.91c0.2-3.47,1.4-6.61,3.33-9.46c2.09-3.1,4.85-5.47,8.25-7.05
			c1.84-0.85,3.78-1.43,5.81-1.63c0.29-0.03,0.58-0.08,0.87-0.12c0.34-0.01,0.68-0.02,1.02-0.04c0.59,0,1.17,0,1.76,0
			c0.3,0.01,0.61,0.02,0.91,0.03c2.47,0.24,4.85,0.85,7.06,1.96c1.24,0.62,2.37,1.47,3.55,2.21c-0.02,0.02-0.02,0.05-0.01,0.07
			c-1.42,1.25-2.77,2.56-3.88,4.11c-2.45,3.41-3.64,7.24-3.81,11.39c-0.05,1.19,0.14,2.39,0.31,3.57c0.52,3.5,1.91,6.64,4.15,9.37
			c0.97,1.18,2.15,2.19,3.23,3.28C33.52,36.85,33.52,36.87,33.54,36.89z"/>
		<path class="st4" d="M33.54,36.89c-0.02-0.02-0.02-0.05-0.01-0.07c0.08-0.04,0.18-0.06,0.24-0.12c1.4-1.19,2.69-2.48,3.76-3.98
			c2.17-3.02,3.41-6.39,3.71-10.07c0.2-2.41-0.03-4.82-0.7-7.19c-1.12-3.96-3.32-7.19-6.34-9.91c-0.2-0.18-0.45-0.31-0.68-0.46
			c-0.01-0.03-0.01-0.05,0.01-0.07c1.41-0.83,2.78-1.75,4.24-2.48c1.76-0.88,3.66-1.4,5.64-1.57c0.44-0.04,0.87-0.08,1.31-0.12
			c0.15-0.01,0.31-0.02,0.46-0.03c0.59,0,1.17,0,1.76,0c0.34,0.01,0.68,0.02,1.02,0.03c4.97,0.54,9.25,2.52,12.74,6.14
			c1.82,1.89,3.23,4.06,4.17,6.51c0.62,1.62,1.12,3.3,1.23,5.06c0.06,1.04,0.25,2.09,0.19,3.13c-0.11,2.11-0.5,4.18-1.22,6.18
			c-0.84,2.35-2.11,4.43-3.73,6.32c-1.88,2.19-4.15,3.85-6.73,5.08c-1.74,0.83-3.58,1.43-5.5,1.63c-1.57,0.17-3.17,0.32-4.74,0.21
			c-2.84-0.21-5.56-1-8.04-2.46C35.39,38.11,34.47,37.49,33.54,36.89z"/>
		<path class="st5" d="M9.04,51.28c-0.4,0-0.75,0-1.17,0c0-0.47,0.01-0.94,0-1.41c-0.02-0.63-0.01-1.26-0.09-1.88
			c-0.09-0.74-0.47-1.05-1.15-1.04c-0.72,0-1.16,0.32-1.2,1.06c-0.06,1.07-0.02,2.15-0.02,3.26c-0.42,0-0.78,0-1.17,0
			c0-1.75,0-3.5,0-5.28c0.35,0,0.69,0,1.07,0c0.02,0.13,0.04,0.26,0.06,0.45c1.23-0.95,2.33-0.74,3.36,0.26
			c0.63-0.81,1.55-1.06,2.65-0.73c0.76,0.23,1.32,1.06,1.34,2.04c0.02,1.07,0,2.15,0,3.26c-0.38,0-0.74,0-1.18,0
			c0-0.87,0.01-1.75,0-2.63c0-0.29-0.03-0.59-0.1-0.87c-0.14-0.58-0.57-0.83-1.31-0.81c-0.52,0.02-0.95,0.34-1.01,0.88
			c-0.08,0.77-0.07,1.55-0.09,2.33C9.03,50.52,9.04,50.87,9.04,51.28z"/>
		<path class="st5" d="M61.89,46.43c0-0.9,0-1.73,0-2.57c0.41,0,0.79,0,1.2,0c0,2.47,0,4.92,0,7.41c-0.38,0-0.76,0-1.19,0
			c-0.01-0.11-0.03-0.24-0.06-0.47c-0.7,0.72-1.55,0.73-2.34,0.56c-0.49-0.11-1.03-0.46-1.33-0.86c-0.9-1.23-0.93-2.65,0.15-3.87
			C59,45.86,60.15,45.36,61.89,46.43z M58.76,48.61c-0.07,1.2,0.85,1.8,1.55,1.78c0.9-0.03,1.69-0.62,1.68-1.67
			c-0.01-1.08-0.66-1.77-1.68-1.76C59.42,46.96,58.76,47.66,58.76,48.61z"/>
		<path class="st6" d="M51.06,46.47c0.01-0.18,0.02-0.32,0.04-0.49c0.38,0,0.76,0,1.16,0c0,1.76,0,3.49,0,5.27
			c-0.37,0-0.75,0-1.15,0c-0.01-0.12-0.03-0.25-0.04-0.37c-2.03,1.06-3.6,0.66-4.27-1.56c-0.35-1.15,0-2.38,1.18-3.1
			C49.03,45.58,50.07,45.73,51.06,46.47z M51.08,48.63c0.13-1.11-0.7-1.69-1.6-1.68c-0.92,0.01-1.62,0.71-1.63,1.66
			c-0.01,0.72,0.78,1.77,1.34,1.78C50.42,50.42,51.08,49.8,51.08,48.63z"/>
		<path class="st7" d="M18.12,46.47c0.01-0.17,0.02-0.32,0.03-0.5c0.37,0,0.72,0,1.11,0c0,1.76,0,3.51,0,5.29c-0.34,0-0.7,0-1.1,0
			c-0.01-0.14-0.02-0.3-0.04-0.46c-1.38,1.03-2.83,0.76-3.58-0.08c-1.13-1.27-1.15-2.6-0.2-3.9C15.22,45.62,16.51,45.53,18.12,46.47
			z M18.13,48.67c0.16-0.97-0.65-1.73-1.69-1.72c-0.94,0.01-1.48,0.83-1.53,1.67c-0.05,0.89,0.77,1.82,1.55,1.78
			C17.42,50.34,18.24,49.73,18.13,48.67z"/>
		<path class="st5" d="M32.41,49.18c0.1,0.98,0.99,1.37,1.89,1.2c0.29-0.05,0.58-0.19,0.85-0.32c0.26-0.12,0.39-0.13,0.61,0.16
			c0.37,0.49,0.19,0.67-0.25,0.85c-1.54,0.65-3.22,0.49-4.03-0.96c-0.82-1.46-0.2-3.8,1.53-4.2c1.62-0.37,3.09,0.44,3.25,2.23
			c0.03,0.3,0,0.61,0,0.95c-1.3,0-2.54,0-3.78,0C32.47,49.12,32.44,49.15,32.41,49.18z M35.09,48.16c-0.11-0.99-0.43-1.23-1.6-1.21
			c-0.6,0.01-1,0.45-1.07,1.21C33.31,48.16,34.2,48.16,35.09,48.16z"/>
		<path class="st7" d="M20.44,50.74c0.16-0.26,0.33-0.53,0.51-0.83c0.81,0.51,1.64,0.64,2.53,0.4c0.32-0.09,0.53-0.27,0.42-0.57
			c-0.07-0.19-0.31-0.37-0.52-0.43c-0.57-0.16-1.17-0.2-1.73-0.37c-0.63-0.19-1.1-0.86-1.08-1.4c0.03-0.63,0.59-1.4,1.18-1.55
			c1.13-0.29,2.22-0.11,3.3,0.38c-0.17,0.33-0.33,0.63-0.43,0.82c-0.77-0.08-1.46-0.2-2.15-0.2c-0.22,0-0.45,0.28-0.67,0.43
			c0.18,0.18,0.32,0.46,0.53,0.52c0.58,0.18,1.19,0.24,1.78,0.4c0.53,0.15,0.94,0.46,1.03,1.05c0.11,0.73-0.14,1.29-0.76,1.69
			C23.58,51.59,21.25,51.61,20.44,50.74z"/>
		<path class="st5" d="M25.94,45.97c0.37,0,0.7,0,1.08,0c0-0.53,0-1.03,0-1.56c0.44,0,0.82,0,1.24,0c0,0.51,0,1,0,1.53
			c0.64,0,1.24,0,1.87,0c0,0.39,0,0.73,0,1.11c-0.61,0-1.21,0-1.87,0c0,0.93-0.02,1.81,0.01,2.69c0.02,0.5,0.54,0.7,1.27,0.52
			c0.17-0.04,0.35-0.08,0.54-0.12c0.11,0.31,0.21,0.59,0.3,0.86c-0.92,0.6-2.25,0.6-2.83-0.06c-0.21-0.24-0.37-0.6-0.39-0.92
			c-0.05-0.97-0.02-1.95-0.02-2.92C25.91,46.98,25.91,46.98,25.94,45.97z"/>
		<path class="st7" d="M46.09,46.47c-0.17,0.3-0.35,0.61-0.54,0.94c-0.65-0.33-1.3-0.62-2.05-0.34c-0.68,0.25-1.13,1.12-1,1.94
			c0.13,0.8,0.7,1.29,1.52,1.27c0.34-0.01,0.72-0.01,1.01-0.16c0.42-0.23,0.66-0.2,0.82,0.26c0.04,0.12,0.13,0.21,0.2,0.32
			c-0.52,0.83-2.5,1.02-3.54,0.32c-1.28-0.86-1.65-2.65-0.72-4.05C42.69,45.62,44.75,45.47,46.09,46.47z"/>
		<path class="st5" d="M38.86,46.37c0.64-0.62,1.34-0.66,2.11-0.37c-0.03,0.07-0.08,0.13-0.09,0.19c-0.09,0.63-0.3,0.96-1.07,0.78
			c-0.62-0.15-1.04,0.38-1.05,1.14c-0.01,1.04,0,2.07,0,3.14c-0.39,0-0.75,0-1.14,0c0-1.75,0-3.5,0-5.3
			C38.03,46.06,38.53,45.67,38.86,46.37z"/>
		<path class="st5" d="M55,51.28c-0.43,0-0.78,0-1.15,0c0-1.77,0-3.52,0-5.3c0.37,0,0.73,0,1.11,0c0.01,0.16,0.03,0.31,0.05,0.56
			c0.63-0.82,1.37-0.83,2.19-0.54c-0.04,0.15-0.06,0.3-0.12,0.43c-0.16,0.37-0.23,0.76-0.87,0.55c-0.65-0.21-1.19,0.32-1.2,1.04
			C54.99,49.09,55,50.16,55,51.28z"/>
		<path class="st8" d="M47.97,0.86c-0.34-0.01-0.68-0.02-1.02-0.03C47.29,0.84,47.63,0.85,47.97,0.86z"/>
		<path class="st9" d="M20.26,0.82c-0.34,0.01-0.68,0.02-1.02,0.04C19.58,0.85,19.92,0.83,20.26,0.82z"/>
		<path class="st9" d="M0.98,19.12c-0.01,0.3-0.02,0.61-0.03,0.91C0.96,19.72,0.97,19.42,0.98,19.12z"/>
		<path class="st9" d="M0.95,21.9c0.01,0.3,0.02,0.61,0.03,0.91C0.97,22.5,0.96,22.2,0.95,21.9z"/>
		<path class="st9" d="M22.93,0.86c-0.3-0.01-0.61-0.02-0.91-0.03C22.32,0.84,22.62,0.85,22.93,0.86z"/>
		<path class="st8" d="M45.19,0.83c-0.15,0.01-0.31,0.02-0.46,0.03C44.89,0.85,45.04,0.84,45.19,0.83z"/>
		<path class="st10" d="M32.41,49.18c0.03-0.03,0.06-0.06,0.09-0.09C32.47,49.12,32.44,49.15,32.41,49.18z"/>
		<path class="st11" d="M33.53,5.1c0.23,0.15,0.48,0.27,0.68,0.46c3.02,2.72,5.21,5.95,6.34,9.91c0.67,2.37,0.9,4.77,0.7,7.19
			c-0.31,3.68-1.55,7.05-3.71,10.07c-1.08,1.5-2.36,2.79-3.76,3.98c-0.07,0.06-0.16,0.08-0.24,0.12c-1.08-1.09-2.26-2.1-3.23-3.28
			c-2.24-2.73-3.63-5.87-4.15-9.37c-0.18-1.18-0.36-2.39-0.31-3.57c0.17-4.15,1.36-7.98,3.81-11.39C30.77,7.66,32.12,6.35,33.53,5.1
			z"/>
	</g>
</g>
</svg>
