<?xml version="1.0" encoding="UTF-8"?>
<svg id="Capa_1" data-name="Capa 1" xmlns="http://www.w3.org/2000/svg" viewBox="0 0 102.73 43.92">
  <defs>
    <style>
      .cls-1 {
        fill: #fff;
      }

      .cls-1, .cls-2 {
        stroke-width: 0px;
      }

      .cls-2 {
        fill: #003565;
      }
    </style>
  </defs>
  <rect class="cls-1" width="102.73" height="43.92" rx="5" ry="5"/>
  <path class="cls-2" d="m19.91,10.79h3.68c.51,0,1,.05,1.46.14.46.09.85.26,1.19.49.35.22.62.53.81.92.21.38.31.87.31,1.46s-.09,1.06-.28,1.46c-.19.39-.44.7-.77.94-.33.23-.71.4-1.16.5-.45.09-.93.14-1.46.14h-1.6v3.86h-2.18v-9.91Zm2.18,4.2h1.46c.2,0,.38-.02.56-.06.19-.04.35-.1.49-.18.15-.09.27-.21.35-.36.09-.16.14-.35.14-.59,0-.25-.06-.45-.18-.6-.11-.16-.26-.28-.45-.36-.18-.08-.38-.14-.6-.15-.22-.03-.44-.04-.64-.04h-1.12v2.35Zm8.86-4.2h1.81l4.31,9.91h-2.46l-.85-2.1h-3.85l-.83,2.1h-2.41l4.28-9.91Zm.84,2.88l-1.2,3.08h2.42l-1.22-3.08Zm15.25,6.33c-.64.34-1.32.58-2.02.73-.7.15-1.41.22-2.14.22-.77,0-1.49-.12-2.14-.36-.65-.24-1.22-.59-1.69-1.04-.48-.46-.85-1.01-1.12-1.65-.26-.64-.39-1.36-.39-2.16s.13-1.51.39-2.16c.27-.64.64-1.19,1.12-1.64.48-.46,1.04-.81,1.69-1.05.65-.24,1.37-.36,2.14-.36s1.52.1,2.18.29c.67.19,1.26.51,1.76.98l-1.54,1.68c-.3-.31-.63-.54-1.01-.7-.37-.16-.84-.24-1.4-.24-.47,0-.89.08-1.27.24-.37.16-.7.38-.97.67-.27.28-.48.62-.63,1.01-.14.39-.21.82-.21,1.27s.07.9.21,1.29c.15.38.36.72.63,1.01.27.28.59.5.97.66.38.16.81.24,1.27.24s.89-.05,1.23-.15c.35-.11.62-.22.83-.34v-1.61h-1.78v-2.02h3.88v5.18Zm1.39-4.26c0-.79.13-1.51.39-2.16.27-.64.64-1.19,1.12-1.64.48-.46,1.04-.81,1.69-1.05.65-.24,1.37-.36,2.14-.36s1.49.12,2.14.36c.65.24,1.22.59,1.69,1.05.48.45.84.99,1.11,1.64.27.64.41,1.36.41,2.16s-.14,1.51-.41,2.16c-.26.64-.63,1.19-1.11,1.65-.48.45-1.04.79-1.69,1.04-.65.24-1.37.36-2.14.36s-1.49-.12-2.14-.36c-.65-.24-1.22-.59-1.69-1.04-.48-.46-.85-1.01-1.12-1.65-.26-.64-.39-1.36-.39-2.16Zm2.27,0c0,.47.07.9.21,1.29.15.38.36.72.63,1.01.27.28.59.5.97.66.38.16.81.24,1.27.24s.89-.08,1.26-.24c.38-.16.71-.38.98-.66.27-.29.48-.63.62-1.01.15-.39.22-.82.22-1.29s-.07-.88-.22-1.27c-.14-.39-.35-.73-.62-1.01-.27-.29-.6-.51-.98-.67-.37-.16-.79-.24-1.26-.24s-.89.08-1.27.24c-.37.16-.7.38-.97.67-.27.28-.48.62-.63,1.01-.14.39-.21.82-.21,1.27Zm14.14-4.96h6.73v2.02h-4.55v1.85h4.3v2.02h-4.3v2.02h4.8v2.02h-6.99v-9.91Zm8.73,0h2.97l4.21,6.89h.03v-6.89h2.18v9.91h-2.86l-4.33-7.06h-.03v7.06h-2.18v-9.91Zm-55.64,15h6.73v2.02h-4.55v1.85h4.3v2.02h-4.3v2.02h4.8v2.02h-6.99v-9.91Zm8.82,0h6.65v2.02h-4.47v2.02h4.13v2.02h-4.13v3.86h-2.18v-9.91Zm8.3,0h6.73v2.02h-4.55v1.85h4.3v2.02h-4.3v2.02h4.8v2.02h-6.99v-9.91Zm15.22,2.58c-.21-.26-.48-.46-.8-.6-.31-.14-.67-.21-1.08-.21s-.79.08-1.15.24c-.35.16-.65.38-.91.67-.25.28-.45.62-.6,1.01-.14.39-.21.82-.21,1.27s.07.9.21,1.29c.15.38.35.72.6,1.01.25.28.55.5.88.66.35.16.71.24,1.11.24.45,0,.84-.09,1.19-.28.35-.19.63-.45.85-.78l1.82,1.36c-.42.59-.95,1.02-1.6,1.3-.64.28-1.31.42-1.99.42-.77,0-1.49-.12-2.14-.36-.65-.24-1.22-.59-1.69-1.04-.48-.46-.85-1.01-1.12-1.65-.26-.64-.39-1.36-.39-2.16s.13-1.51.39-2.16c.27-.64.64-1.19,1.12-1.64.48-.46,1.04-.81,1.69-1.05.65-.24,1.37-.36,2.14-.36.28,0,.57.03.87.08.31.05.61.13.9.24.3.11.58.26.85.45.27.19.51.42.73.69l-1.68,1.37Zm5.02-.64h-2.83v-1.93h7.84v1.93h-2.83v7.98h-2.18v-7.98Zm6.09-1.93h2.18v9.91h-2.18v-9.91Zm3.19,0h2.49l2.45,6.5h.03l2.49-6.5h2.34l-4.09,9.91h-1.75l-3.96-9.91Zm10.31,4.96c0-.79.13-1.51.39-2.16.27-.64.64-1.19,1.12-1.64.48-.46,1.04-.81,1.69-1.05.65-.24,1.37-.36,2.14-.36s1.49.12,2.14.36c.65.24,1.22.59,1.69,1.05.48.45.84.99,1.11,1.64.27.64.41,1.36.41,2.16s-.14,1.51-.41,2.16c-.26.64-.63,1.19-1.11,1.65-.48.45-1.04.79-1.69,1.04-.65.24-1.37.36-2.14.36s-1.49-.12-2.14-.36c-.65-.24-1.22-.59-1.69-1.04-.48-.46-.85-1.01-1.12-1.65-.26-.64-.39-1.36-.39-2.16Zm2.27,0c0,.47.07.9.21,1.29.15.38.36.72.63,1.01.27.28.59.5.97.66.38.16.81.24,1.27.24s.89-.08,1.26-.24c.38-.16.71-.38.98-.66.27-.29.48-.63.62-1.01.15-.39.22-.82.22-1.29s-.07-.88-.22-1.27c-.14-.39-.35-.73-.62-1.01-.27-.29-.6-.51-.98-.67-.37-.16-.79-.24-1.26-.24s-.89.08-1.27.24c-.37.16-.7.38-.97.67-.27.28-.48.62-.63,1.01-.14.39-.21.82-.21,1.27Z"/>
</svg>