<?xml version="1.0" encoding="UTF-8"?>
<svg id="Capa_1" data-name="Capa 1" xmlns="http://www.w3.org/2000/svg" viewBox="0 0 102.73 43.92">
  <defs>
    <style>
      .cls-1 {
        fill: #f3d19f;
      }

      .cls-1, .cls-2, .cls-3, .cls-4, .cls-5, .cls-6, .cls-7, .cls-8, .cls-9, .cls-10 {
        stroke-width: 0px;
      }

      .cls-2 {
        fill: #f79e1b;
      }

      .cls-3 {
        fill: #162162;
      }

      .cls-4 {
        fill: #ff5f00;
      }

      .cls-5 {
        fill: #fff;
      }

      .cls-6 {
        fill: #ed9aa3;
      }

      .cls-7 {
        fill: #eb001b;
      }

      .cls-8 {
        fill: #01010d;
      }

      .cls-9 {
        fill: #02020e;
      }

      .cls-10 {
        fill: #02020d;
      }
    </style>
  </defs>
  <rect class="cls-5" x="0" width="102.73" height="43.92" rx="5" ry="5"/>
  <path class="cls-3" d="m54.4,30.07c-1.16,0-2.32.01-3.48-.02-.13,0-.34-.2-.37-.33-.15-.64-.25-1.3-.37-1.97-.12-.01-.23-.03-.33-.03-1.52,0-3.03,0-4.55,0-.26,0-.4.05-.49.34-.17.59-.41,1.17-.64,1.75-.04.1-.17.24-.26.24-1.35.02-2.69.01-4.1.01.25-.62.48-1.19.72-1.75,1.28-3.07,2.56-6.15,3.84-9.22.49-1.19.98-2.39,1.5-3.57.41-.92.85-1.27,1.91-1.28,1.01,0,2.01,0,3.02,0,.28,0,.38.1.43.37.37,1.8.76,3.6,1.13,5.39.39,1.87.78,3.73,1.16,5.6.3,1.48.58,2.96.89,4.47Zm-6.12-11.38s-.06-.01-.09-.01c-.69,1.91-1.37,3.82-2.07,5.75h3.34c-.4-1.94-.8-3.84-1.19-5.73Z"/>
  <path class="cls-3" d="m3.57,14.65c-.07-.28.05-.41.42-.4,2.12.02,4.24.03,6.35,0,1.34-.02,2.05.75,2.27,1.95.28,1.57.6,3.14.89,4.71.24,1.3.47,2.61.81,3.95,1.41-3.53,2.81-7.07,4.22-10.59h4.33c-.31.72-.6,1.41-.89,2.11-.76,1.83-1.52,3.67-2.3,5.5-.82,1.95-1.65,3.89-2.47,5.83-.29.68-.58,1.35-.85,2.04-.1.26-.25.34-.53.33-1.19-.02-2.37-.02-3.55,0-.35,0-.5-.13-.58-.44-.5-1.99-1.02-3.97-1.53-5.96-.56-2.17-1.1-4.34-1.68-6.5-.18-.66-.67-1.1-1.31-1.32-1.19-.42-2.38-.8-3.61-1.21Z"/>
  <path class="cls-3" d="m40.6,14.43c-.24,1.21-.46,2.3-.7,3.44-.6-.17-1.18-.37-1.77-.5-.98-.21-1.98-.34-2.97.03-.38.14-.68.37-.87.74-.21.4-.06,1.01.37,1.29.92.59,1.85,1.15,2.78,1.72,1.09.67,2.01,1.48,2.29,2.85.35,1.69-.07,3.16-1.2,4.4-1.01,1.13-2.33,1.71-3.79,1.89-1.03.12-2.09.23-3.12.14-.97-.08-1.92-.42-2.88-.63-.35-.07-.4-.3-.35-.58.18-.96.38-1.92.58-2.87.01-.07.08-.13.07-.12,1.12.31,2.17.72,3.27.89,1.05.16,2.13-.01,2.98-.8.51-.47.45-1.32-.11-1.7-1.01-.67-2.06-1.28-3.06-1.96-.89-.6-1.66-1.34-1.96-2.44-.3-1.14-.2-2.26.37-3.29.94-1.7,2.42-2.61,4.24-2.9.97-.15,1.98-.23,2.95-.16.96.06,1.9.35,2.87.55Z"/>
  <path class="cls-3" d="m20.89,30.07c.36-1.58.71-3.15,1.07-4.71.37-1.57.76-3.13,1.14-4.7.34-1.41.65-2.83.98-4.24.15-.63.29-1.26.48-1.89.03-.12.25-.26.38-.27,1.4-.02,2.8-.01,4.22-.01-.25,1.11-.49,2.19-.75,3.27-.3,1.27-.6,2.53-.91,3.8-.26,1.09-.55,2.18-.81,3.28-.26,1.09-.5,2.19-.75,3.29-.15.63-.33,1.26-.46,1.9-.05.24-.17.28-.4.28-1.38-.02-2.76-.01-4.19-.01Z"/>
  <path class="cls-7" d="m79.87,28.41c-1.51,1.14-3.19,1.91-5.05,2.31-1.12.24-2.28.29-3.41.2-1.61-.12-3.15-.57-4.58-1.32-1.23-.65-2.32-1.49-3.27-2.5-1.49-1.58-2.47-3.41-2.93-5.51-.11-.49-.15-.99-.22-1.49,0-.18-.01-.36-.02-.54v-1.1c0-.18.01-.36.02-.54.12-2.05.84-3.9,1.99-5.58,1.25-1.83,2.9-3.23,4.93-4.16,1.1-.5,2.26-.84,3.47-.96.17-.02.35-.05.52-.07.2,0,.41-.01.61-.02h1.05c.18,0,.36.01.54.02,1.47.14,2.9.5,4.22,1.16.74.37,1.42.87,2.12,1.3-.01.01-.01.03,0,.04-.85.74-1.65,1.51-2.32,2.42-1.46,2.01-2.17,4.27-2.28,6.72-.03.7.08,1.41.19,2.11.31,2.06,1.14,3.92,2.48,5.53.58.7,1.28,1.29,1.93,1.94,0,.03,0,.04,0,.05Z"/>
  <path class="cls-2" d="m79.87,28.41s-.01-.03,0-.04c.05-.02.11-.04.14-.07.84-.7,1.61-1.46,2.25-2.35,1.3-1.78,2.04-3.77,2.22-5.94.12-1.42-.02-2.84-.42-4.24-.67-2.34-1.98-4.24-3.79-5.85-.12-.11-.27-.18-.41-.27,0-.02,0-.03,0-.04.84-.49,1.66-1.03,2.53-1.46,1.05-.52,2.19-.83,3.37-.93.26-.02.52-.05.78-.07.09,0,.19-.01.27-.02h1.05c.2,0,.41.01.61.02,2.97.32,5.52,1.49,7.61,3.62,1.09,1.11,1.93,2.4,2.49,3.84.37.96.67,1.95.73,2.99.04.61.15,1.23.11,1.85-.07,1.24-.3,2.47-.73,3.65-.5,1.39-1.26,2.61-2.23,3.73-1.12,1.29-2.48,2.27-4.02,3-1.04.49-2.14.84-3.28.96-.94.1-1.89.19-2.83.12-1.7-.12-3.32-.59-4.8-1.45-.56-.32-1.11-.68-1.67-1.04Z"/>
  <path class="cls-8" d="m65.24,36.9h-.7c0-.28,0-.55,0-.83-.01-.37,0-.74-.05-1.11-.05-.44-.28-.62-.69-.61-.43,0-.69.19-.72.63-.04.63-.01,1.27-.01,1.92h-.7v-3.12h.64c.01.08.02.15.04.27.73-.56,1.39-.44,2.01.15.38-.48.93-.63,1.58-.43.45.14.79.63.8,1.2.01.63,0,1.27,0,1.92h-.7c0-.51,0-1.03,0-1.55,0-.17-.02-.35-.06-.51-.08-.34-.34-.49-.78-.48-.31.01-.57.2-.6.52-.05.45-.04.91-.05,1.37,0,.21,0,.41,0,.65Z"/>
  <path class="cls-10" d="m90.33,34.06c0-.11.01-.19.02-.29h.69v3.11h-.69c0-.07-.02-.15-.02-.22-1.21.63-2.15.39-2.55-.92-.21-.68,0-1.4.7-1.83.63-.38,1.25-.29,1.84.15Zm.01,1.27c.08-.65-.42-1-.96-.99-.55,0-.97.42-.97.98,0,.42.47,1.04.8,1.05.73.02,1.13-.35,1.13-1.04Z"/>
  <path class="cls-9" d="m70.66,34.06c0-.1.01-.19.02-.29h.66v3.12h-.66c0-.08-.01-.18-.02-.27-.82.61-1.69.45-2.14-.05-.67-.75-.69-1.53-.12-2.3.53-.71,1.3-.76,2.26-.21Zm0,1.3c.1-.57-.39-1.02-1.01-1.01-.56,0-.88.49-.91.99-.03.53.46,1.07.93,1.05.57-.04,1.06-.4,1-1.02Z"/>
  <path class="cls-8" d="m79.2,35.66c.06.58.59.81,1.13.71.17-.03.35-.11.51-.19.16-.07.23-.08.36.09.22.29.11.4-.15.5-.92.38-1.92.29-2.41-.57-.49-.86-.12-2.24.91-2.48.97-.22,1.85.26,1.94,1.32.02.18,0,.36,0,.56h-2.26s-.02.04-.04.05Zm1.6-.6c-.07-.58-.26-.73-.96-.71-.36,0-.6.27-.64.71h1.59Z"/>
  <path class="cls-9" d="m72.05,36.58c.1-.15.2-.31.3-.49.48.3.98.38,1.51.24.19-.05.32-.16.25-.34-.04-.11-.19-.22-.31-.25-.34-.09-.7-.12-1.03-.22-.38-.11-.66-.51-.64-.83.02-.37.35-.83.7-.91.67-.17,1.33-.06,1.97.22-.1.19-.2.37-.26.48-.46-.05-.87-.12-1.28-.12-.13,0-.27.17-.4.25.11.11.19.27.32.31.35.11.71.14,1.06.24.32.09.56.27.62.62.07.43-.08.76-.45,1-.48.3-1.87.31-2.35-.2Z"/>
  <path class="cls-8" d="m75.33,33.77h.64v-.92h.74v.9h1.12v.65h-1.12c0,.55-.01,1.07,0,1.59.01.3.32.41.76.31.1-.02.21-.05.32-.07.07.18.13.35.18.51-.55.35-1.34.35-1.69-.04-.13-.14-.22-.35-.23-.54-.03-.57-.01-1.15-.01-1.72q-.73-.07-.72-.67Z"/>
  <path class="cls-9" d="m87.37,34.06c-.1.18-.21.36-.32.55-.39-.19-.78-.37-1.22-.2-.41.15-.67.66-.6,1.14.08.47.42.76.91.75.2,0,.43,0,.6-.09.25-.14.39-.12.49.15.02.07.08.12.12.19-.31.49-1.49.6-2.11.19-.76-.51-.99-1.56-.43-2.39.54-.8,1.77-.88,2.57-.29Z"/>
  <path class="cls-8" d="m83.05,34c.38-.37.8-.39,1.26-.22-.02.04-.05.08-.05.11-.05.37-.18.57-.64.46-.37-.09-.62.22-.63.67,0,.61,0,1.22,0,1.85h-.68v-3.13c.24.06.54-.17.74.25Z"/>
  <path class="cls-8" d="m92.69,36.9h-.69v-3.13h.66c0,.09.02.18.03.33.38-.48.82-.49,1.31-.32-.02.09-.04.18-.07.25-.1.22-.14.45-.52.32-.39-.12-.71.19-.72.61-.01.63,0,1.26,0,1.92Z"/>
  <path class="cls-6" d="m71.94,7.13c-.2,0-.41.01-.61.02.2,0,.41-.02.61-.02Z"/>
  <path class="cls-6" d="m60.43,17.92c0,.18-.01.36-.02.54,0-.18.01-.36.02-.54Z"/>
  <path class="cls-6" d="m60.41,19.57c0,.18.01.36.02.54,0-.18-.01-.36-.02-.54Z"/>
  <path class="cls-6" d="m73.54,7.15c-.18,0-.36-.01-.54-.02.18,0,.36.01.54.02Z"/>
  <path class="cls-1" d="m86.83,7.13c-.09,0-.19.01-.27.02.1,0,.19-.01.27-.02Z"/>
  <path class="cls-4" d="m79.87,9.65c.14.09.29.16.41.27,1.8,1.6,3.11,3.51,3.79,5.85.4,1.4.54,2.81.42,4.24-.19,2.17-.93,4.16-2.22,5.94-.65.89-1.41,1.65-2.25,2.35-.04.04-.1.05-.14.07-.64-.64-1.35-1.24-1.93-1.94-1.34-1.61-2.17-3.46-2.48-5.53-.11-.7-.22-1.41-.19-2.11.1-2.45.81-4.71,2.28-6.72.66-.92,1.47-1.69,2.31-2.43Z"/>
</svg>