<?xml version="1.0" encoding="utf-8"?>
<!-- Generator: Adobe Illustrator 26.1.0, SVG Export Plug-In . SVG Version: 6.00 Build 0)  -->
<svg version="1.1" xmlns="http://www.w3.org/2000/svg" xmlns:xlink="http://www.w3.org/1999/xlink" x="0px" y="0px"
	 viewBox="0 0 195 195" style="enable-background:new 0 0 195 195;" xml:space="preserve">
<style type="text/css">
	.st0{display:none;}
	.st1{display:inline;}
	.st2{fill:#5A6E7F;}
	.st3{fill:#5CBFAB;}
	.st4{fill:#FFFFFF;}
	.st5{fill:#97D5C9;}
	.st6{fill:#0071BC;}
	.st7{display:inline;fill:#FFFFFF;}
	.st8{display:inline;fill:#FFFFFF;stroke:#000000;stroke-miterlimit:10;}
	.st9{fill:none;stroke:#000000;stroke-miterlimit:10;}
</style>
<g id="Capa_9" class="st0">
	<g class="st1">
		<g>
			<g>
				<path class="st2" d="M175.4,135.8l0.1-19.1V56.4H19.5v79.4H24 M25,79.8H26c4.7,0,9-1.9,12.1-5c3.1-3.1,5-7.3,5-12.1v-1.1h107.7
					h1.1v1.1c0,4.7,1.9,9,5,12.1c3.1,3.1,7.3,5,12.1,5h1.1v32.8H169c-4.7,0-9,1.9-12.1,5c-3.1,3.1-5,7.3-5,12.1v1.1H43.1v-1.1
					c0-4.7-1.9-9-5-12.1c-3.1-3.1-7.4-5-12.1-5H25C25,112.5,25,79.8,25,79.8z"/>
			</g>
			<g>
				<path class="st3" d="M96.8,63.8H45.2c-0.5,9.8-8.3,17.5-18.1,18.1v28.5c9.8,0.5,17.5,8.3,18.1,18.1h51.6
					c-17.6-0.4-31.7-14.7-31.7-32.3C65.1,78.5,79.2,64.2,96.8,63.8z"/>
				<path class="st3" d="M98.2,128.5h51.6c0.5-9.8,8.3-17.5,18.1-18.1V81.9c-9.8-0.5-17.5-8.3-18.1-18.1H98.2
					c17.5,0.4,31.7,14.7,31.7,32.3C129.9,113.8,115.8,128.1,98.2,128.5z"/>
				<path class="st4" d="M151.9,130.6v-1.1c0-4.7,1.9-9,5-12.1c3.1-3.1,7.3-5,12.1-5h1.1V79.8H169c-4.7,0-9-1.9-12.1-5
					c-3.1-3.1-5-7.3-5-12.1v-1.1h-1.1H43.1v1.1c0,4.7-1.9,9-5,12.1c-3.1,3.1-7.4,5-12.1,5H25v32.8H26c4.7,0,9,1.9,12.1,5
					c3.1,3.1,5,7.3,5,12.1v1.1L151.9,130.6L151.9,130.6z M149.8,63.8c0.5,9.8,8.3,17.5,18.1,18.1v28.5c-9.8,0.5-17.5,8.3-18.1,18.1
					H98.2c17.5-0.4,31.7-14.7,31.7-32.3c0-17.6-14.1-32-31.7-32.3L149.8,63.8L149.8,63.8z M124.3,96.1c0,14.8-12,26.8-26.8,26.8
					c-14.8,0-26.8-12-26.8-26.8s12-26.8,26.8-26.8C112.3,69.4,124.3,81.4,124.3,96.1z M27.1,110.4V81.9c9.8-0.5,17.5-8.3,18.1-18.1
					h51.6c-17.6,0.4-31.7,14.7-31.7,32.3s14.1,32,31.7,32.3H45.2C44.7,118.7,36.9,110.9,27.1,110.4z"/>
				<path class="st5" d="M92,89c0,1.3,0.7,2.3,2.2,2.8v-5.5L94,86.4C92.7,87,92,87.9,92,89z"/>
				<path class="st5" d="M101.1,106.8c0.2-0.1,0.5-0.2,0.7-0.4c1.3-0.8,1.9-1.9,1.9-3.3c0-1.5-0.9-2.6-2.7-3.1L101.1,106.8
					L101.1,106.8z"/>
				<path class="st5" d="M97.5,69.4c-14.8,0-26.8,12-26.8,26.8c0,14.8,12,26.8,26.8,26.8s26.8-12,26.8-26.8S112.3,69.4,97.5,69.4z
					 M108,111.5c-2,1.3-4.3,2.1-6.9,2.5v3.1c0,1-0.8,1.8-1.8,1.8H96c-1,0-1.8-0.8-1.8-1.8V114c-3-0.5-5.7-1.6-8.1-3.4
					c-1.5-1.1-2.7-2.3-3.5-3.5c-0.3-0.3-0.4-0.6-0.4-1c0-0.5,0.3-1,0.8-1.3l3.4-2h0c0,0,0.7-0.3,1-0.3c0.6,0,1.1,0.2,1.5,0.7
					c1.7,1.8,3.4,3,5.3,3.7v-7.8c-4.3-0.7-7.5-2.3-9.4-4.9c-1.2-1.5-1.7-3.3-1.8-5.2c-0.1-4,2.1-7.1,6.6-9.1
					c1.4-0.6,2.9-1.1,4.6-1.3v-3.4c0-1,0.8-1.8,1.8-1.8h3.3c1,0,1.8,0.8,1.8,1.8v3.5c3.6,0.6,6.6,2.3,8.9,4.9
					c0.3,0.3,0.5,0.7,0.5,1.1c0,0.5-0.3,0.9-0.8,1.2l-3.7,2.3l0,0c0,0-0.7,0.3-1.1,0.3c-0.6,0-1.1-0.2-1.5-0.6
					c-0.7-0.6-1.5-1.1-2.2-1.5v6.2c4.4,0.6,7.7,2.2,9.8,4.7c1.3,1.6,1.9,3.5,1.9,5.7C112.7,106.6,111.1,109.4,108,111.5z"/>
				<path class="st2" d="M96,118.8h3.3c1,0,1.8-0.8,1.8-1.8V114c2.6-0.4,4.9-1.2,6.9-2.5c3.1-2,4.7-4.8,4.7-8.4
					c0-2.2-0.6-4.1-1.9-5.7c-2.1-2.5-5.3-4.1-9.8-4.7v-6.2c0.8,0.4,1.5,0.8,2.2,1.5c0.4,0.4,1,0.6,1.5,0.6c0.5,0,1.1-0.3,1.1-0.3
					l0,0l3.7-2.3c0.5-0.3,0.8-0.7,0.8-1.2c0-0.4-0.2-0.8-0.5-1.1c-2.3-2.6-5.3-4.3-8.9-4.9v-3.5c0-1-0.8-1.8-1.8-1.8H96
					c-1,0-1.8,0.8-1.8,1.8v3.4c-1.7,0.2-3.2,0.7-4.6,1.3C85.1,81.9,83,85,83,89c0,2,0.6,3.7,1.8,5.2c1.9,2.6,5.1,4.2,9.4,4.9v7.8
					c-1.9-0.7-3.6-1.9-5.3-3.7c-0.4-0.5-0.8-0.7-1.5-0.7c-0.3,0-1,0.3-1,0.3h0l-3.4,2c-0.6,0.3-0.8,0.8-0.8,1.3c0,0.4,0.1,0.7,0.4,1
					c0.9,1.2,2.1,2.4,3.5,3.5c2.4,1.8,5.1,3,8.1,3.4v3.1C94.2,118,95,118.8,96,118.8z M101.1,99.9c1.8,0.6,2.7,1.6,2.7,3.1
					c0,1.4-0.7,2.5-1.9,3.3c-0.2,0.1-0.5,0.3-0.7,0.4L101.1,99.9L101.1,99.9z M92,89c0-1.1,0.6-2,1.9-2.6l0.2-0.1v5.5
					C92.8,91.3,92.1,90.3,92,89z"/>
			</g>
		</g>
		<g>
			<g>
				<path class="st6" d="M127.6,154.4c1.8-2.1,5-2.4,7.1-0.7l14.9,16c2.1,1.8,2.4,4.9,0.7,7.1l-14.8,15.6c-1.8,2.1-4.9,2.4-7.1,0.7
					c-2.1-1.8-2.4-4.9-0.7-7.1l6.5-7.9l-84.1,0.5c-2.8,0-5.1-2.2-5.1-5c0-2.8,2.2-5.1,5-5.1l84.4-0.6l-6.2-6.5
					C126.1,159.7,125.8,156.5,127.6,154.4z"/>
			</g>
		</g>
		<g>
			<g>
				<path class="st6" d="M127.6,2.6c1.8-2.2,5-2.5,7.1-0.7l14.9,16c2.1,1.8,2.4,4.9,0.7,7.1l-14.8,15.6c-1.8,2.2-4.9,2.5-7.1,0.7
					c-2.1-1.8-2.4-5-0.7-7.1l6.5-7.9l-84.1,0.5c-2.8,0-5.1-2.2-5.1-5c0-2.8,2.2-5.1,5-5.1l84.4-0.5l-6.2-6.5
					C126.1,7.9,125.8,4.8,127.6,2.6z"/>
			</g>
		</g>
	</g>
</g>
<g id="Capa_2" class="st0">
	<path class="st7" d="M189.5,144.5h-89.5c-2.7,0-4.9-2.2-4.9-4.9V50.1c0-2.7,2.2-4.9,4.9-4.9h89.5c2.7,0,4.9,2.2,4.9,4.9v89.5
		C194.4,142.3,192.2,144.5,189.5,144.5z"/>
	<path class="st7" d="M24.9,67.9h60.1c1.5,0,2.7-1.2,2.7-2.7v-1.8c0-1.5-1.2-2.7-2.7-2.7H24.9c-1.5,0-2.7,1.2-2.7,2.7v1.8
		C22.2,66.8,23.4,67.9,24.9,67.9z"/>
	<path class="st7" d="M3.3,98.4h60.1c1.5,0,2.7-1.2,2.7-2.7v-1.8c0-1.5-1.2-2.7-2.7-2.7H3.3c-1.5,0-2.7,1.2-2.7,2.7v1.8
		C0.7,97.2,1.8,98.4,3.3,98.4z"/>
	<path class="st7" d="M17.1,128.9h60.1c1.5,0,2.7-1.2,2.7-2.7v-1.8c0-1.5-1.2-2.7-2.7-2.7H17.1c-1.5,0-2.7,1.2-2.7,2.7v1.8
		C14.5,127.7,15.7,128.9,17.1,128.9z"/>
	<rect x="106.7" y="53.7" class="st8" width="25.2" height="25.2"/>
	<g class="st1">
		<g>
			<line class="st9" x1="143.4" y1="79.2" x2="143.4" y2="59.4"/>
			<g>
				<path d="M143.4,53.4c1.1,2.8,2.9,6.4,4.8,8.5l-4.8-1.7l-4.8,1.7C140.5,59.7,142.3,56.2,143.4,53.4z"/>
			</g>
		</g>
	</g>
</g>
<g id="Capa_3" class="st0">
	<g class="st1">
		<polygon class="st4" points="19.5,0.1 19.5,194.9 175.5,194.9 175.5,0.1 163.1,11.7 151.5,0.1 138.9,12.6 125.3,0.1 109.7,11.7 
			96.5,0.1 83.2,10.7 71.3,0.1 58.9,10.7 45.9,0.1 30.1,10.7 		"/>
		<path d="M95.8,88.7h4.4c1.3,0,2.4-1.1,2.4-2.4v-4.1c3.5-0.5,6.6-1.6,9.2-3.3c4.1-2.7,6.2-6.5,6.3-11.3c0.1-3-0.8-5.5-2.5-7.6
			c-2.8-3.3-7.1-5.4-13.1-6.2v-8.3c1,0.5,2,1.1,3,2c0.6,0.5,1.3,0.7,2.1,0.7c0.6,0,1.5-0.4,1.5-0.4l0,0l5-3.1c0.7-0.4,1-1,1-1.6
			c0-0.5-0.2-1-0.6-1.4c-3.1-3.5-7.1-5.7-11.9-6.5v-4.7c0-1.3-1.1-2.4-2.4-2.4h-4.4c-1.3,0-2.4,1.1-2.4,2.4V35
			c-2.3,0.3-4.3,0.9-6.2,1.7c-5.9,2.7-8.9,6.8-8.8,12.1c0,2.6,0.8,5,2.4,7c2.6,3.5,6.8,5.6,12.6,6.5v10.4c-2.5-0.9-4.9-2.5-7.1-4.9
			c-0.5-0.6-1.1-1-1.9-1c-0.5,0-1.3,0.4-1.3,0.4l0,0l-4.5,2.6c-0.8,0.4-1.1,1-1.1,1.8c0,0.5,0.2,0.9,0.5,1.3
			c1.2,1.6,2.7,3.2,4.7,4.7c3.2,2.5,6.8,4,10.8,4.6v4.1C93.4,87.7,94.4,88.7,95.8,88.7z M102.6,63.5c2.4,0.7,3.6,2.1,3.6,4.2
			c0,1.9-0.9,3.4-2.6,4.4c-0.3,0.2-0.6,0.4-1,0.5V63.5z M90.4,48.9c0-1.5,0.8-2.6,2.6-3.5l0.3-0.1v7.4
			C91.4,51.9,90.5,50.6,90.4,48.9z"/>
		<rect x="39.3" y="50.8" width="23.6" height="5.3"/>
		<rect x="132.6" y="50.8" width="23.6" height="5.3"/>
		<rect x="31.7" y="105.5" width="132" height="9.8"/>
		<rect x="31.2" y="126.8" width="132" height="9.8"/>
		<rect x="31.2" y="148.2" width="132" height="9.8"/>
		<rect x="31.2" y="169.5" width="132" height="9.8"/>
	</g>
</g>
<g id="Capa_4" class="st0">
	<g class="st1">
		<path class="st2" d="M0,52v110.9c0,0.6,0.7,0.9,1.1,0.5l57.7-52.8c0.7-0.6,0.7-1.7,0.1-2.4L1.1,51.4C0.7,51,0,51.3,0,52z"/>
		<path class="st2" d="M112.7,113.4l-13.5,13.2c-3,2.9-6.9,4.5-11,4.5c-4,0-7.7-1.5-10.5-4.3L64,113.4l-0.4-0.4L6.9,164.9
			c-0.2,0.2-0.1,0.7,0.2,0.7h162.4c0.3,0,0.5-0.4,0.2-0.7L113.1,113L112.7,113.4z"/>
		<path class="st2" d="M118,110.6l57.6,52.7c0.4,0.4,1.1,0.1,1.1-0.5V82.3c10.7-3.7,18.3-13.8,18.3-25.7c0-15-12.2-27.2-27.2-27.2
			c-11.3,0-20.9,6.9-25,16.7H3.8c-0.3,0-0.5,0.4-0.2,0.7L63.8,106l3.6,3.6l13.7,13.5c0.5,0.5,1,0.9,1.6,1.3l0.6,0.3
			c0.4,0.2,0.8,0.4,1.2,0.6l0.8,0.2c0.4,0.1,0.7,0.2,1.1,0.3l0.9,0.1c0.4,0,0.7,0.1,1.1,0.1c0.4,0,0.8-0.1,1.1-0.1l0.9-0.1
			c0.4-0.1,0.8-0.2,1.2-0.3l0.8-0.2c0.4-0.2,0.8-0.4,1.2-0.6l0.6-0.3c0.6-0.4,1.2-0.8,1.7-1.4l13.5-13.2l3.6-3.6l33.4-32.8
			c1,1.3,2.2,2.6,3.4,3.7L118,108.2C117.3,108.9,117.3,110,118,110.6z M147.6,56.6c0-11.2,9.1-20.2,20.2-20.2
			c11.1,0,20.2,9.1,20.2,20.2s-9.1,20.2-20.2,20.2C156.7,76.8,147.6,67.8,147.6,56.6z"/>
		<path class="st2" d="M166.3,64.2c-2.1,0-4.3-0.6-5.3-1.2l-1,4.1c1.3,0.7,3.7,1.3,6.5,1.3c6.3,0,10.1-3.9,10.1-8.2
			c0-2.7-1.1-4.7-2.8-5.9c-1.7-1.2-3.9-1.7-6.2-1.7c-0.6,0-1,0-1.5,0.1l0.5-3.6h9.1v-4.5h-12.9l-1.6,12.3c1-0.1,1.9-0.2,3.2-0.2
			c4.7,0,6.6,1.5,6.6,3.9C171,63.1,168.6,64.2,166.3,64.2z"/>
	</g>
</g>
<g id="Capa_5" class="st0">
	<g class="st1">
		<path class="st4" d="M31.8,186.7h131.4V8.3H31.8V186.7z M51.2,30.7h104.4v12.5H51.2V30.7z M39.4,58.9h116.2v12.5H39.4V58.9z
			 M39.4,87.2h116.2v12.5H39.4V87.2z M39.4,115.4h116.2v12.5H39.4V115.4z M39.4,143.7h87.4v12.5H39.4V143.7z"/>
		<path class="st2" d="M105.2,0H27.6c-1.1,0-2.2,0.4-2.9,1.2c-0.8,0.8-1.2,1.8-1.2,2.9V119v71.8c0,1.1,0.4,2.2,1.2,2.9
			c0.8,0.8,1.8,1.2,2.9,1.2h139.7c1.1,0,2.2-0.4,2.9-1.2c0.8-0.8,1.2-1.8,1.2-2.9V4.2c0-1.1-0.4-2.2-1.2-2.9
			c-0.8-0.8-1.9-1.2-2.9-1.2H105.2z M163.2,186.7H31.8V8.3h131.4V186.7z"/>
	</g>
</g>
<g id="Capa_6">
	<g>
		<path class="st4" d="M54.1,133.5c38.2,47,85.9,71.9,108.7,57.4l0.3-0.2c0.7-0.4,1.3-0.9,2-1.4c0.5-0.4,0.9-0.8,1.3-1.2l0-0.1
			c0.5-0.4,1.1-0.7,1.6-1.1c0.4-0.3,0.8-0.7,1.2-1.1c12.9-20.3-28.3-55.2-37.3-48.1l-2.7,2.2l-1.6,1.3l-2,1.6
			c-3.2,2.6-7.2,2.8-9,0.6l-4.7-5.8c-3.7-7.9-11.8-20.1-22.4-33.1c-10.5-13-20.9-23.5-27.8-28.6L57,70.3c-1.8-2.2-0.7-6.1,2.4-8.7
			l0.6-0.5l1.4-1.1l2.5-2l2.3-1.9l0.3-0.3C72.7,41.9,45.4,2.4,31,6.1L28.7,8l-0.9,0.7l-2.9,2.3l-0.4,0.3l-1.6,1.3l-1,0.8l-2.2,1.8
			l0.1,0.1C1.2,34.8,15.9,86.5,54.1,133.5z"/>
		<path class="st4" d="M72.8,50.8c8.4-6.8,7.8-21.6-0.9-34.1c-0.6-0.9-1.3-1.9-2.1-2.8C59.2,0.8,43.3-3.9,34.3,3.5L31,6.1
			c14.4-3.7,41.7,35.8,35.5,49.7L72.8,50.8z"/>
		<path class="st4" d="M169.8,185.2l0.9-0.7l6.5-5.3c9-7.3,7.7-23.8-2.9-36.8c-0.7-0.9-1.5-1.7-2.2-2.5
			c-10.5-11.1-24.9-14.6-33.2-7.8l-6.5,5.3l-0.5,0.4c9-7.1,50.2,27.8,37.3,48.1L169.8,185.2z"/>
	</g>
</g>
</svg>
