<?xml version="1.0" encoding="utf-8"?>
<!-- Generator: Adobe Illustrator 27.7.0, SVG Export Plug-In . SVG Version: 6.00 Build 0)  -->
<svg version="1.1" id="Capa_1" xmlns="http://www.w3.org/2000/svg" xmlns:xlink="http://www.w3.org/1999/xlink" x="0px" y="0px"
	 viewBox="0 0 182 38" style="enable-background:new 0 0 182 38;" xml:space="preserve">
<style type="text/css">
	.st0{fill:#003565;stroke:#FFFFFF;stroke-width:2;stroke-miterlimit:10;}
	.st1{fill:#FFFFFF;}
	.st2{font-family:'Avenir-Black';}
	.st3{font-size:21px;}
	.st4{font-family:'Avenir-Medium';}
	.st5{font-size:10px;}
	.st6{fill:#003565;}
</style>
<path class="st0" d="M170.53,36.46H11.46c-5.52,0-10-4.48-10-10V11.46c0-5.52,4.48-10,10-10h159.07c5.52,0,10,4.48,10,10v14.99
	C180.53,31.98,176.05,36.46,170.53,36.46z"/>
<text transform="matrix(1 0 0 1 35.1474 20.4001)"><tspan x="0" y="0" class="st1 st2 st3">55 5141 4300</tspan><tspan x="1.03" y="12" class="st1 st4 st5">Centro de atención telefónica</tspan></text>
<g id="Capa_6">
	<g>
		<path class="st1" d="M15.06,23.91c5.13,6.31,11.53,9.65,14.59,7.7l0.04-0.03c0.09-0.05,0.17-0.12,0.27-0.19
			c0.07-0.05,0.12-0.11,0.17-0.16v-0.01c0.07-0.05,0.15-0.09,0.21-0.15c0.05-0.04,0.11-0.09,0.16-0.15c1.73-2.72-3.8-7.41-5.01-6.45
			l-0.36,0.3l-0.21,0.17l-0.27,0.21c-0.43,0.35-0.97,0.38-1.21,0.08l-0.63-0.78c-0.5-1.06-1.58-2.7-3.01-4.44
			c-1.41-1.74-2.8-3.15-3.73-3.84l-0.63-0.75c-0.24-0.3-0.09-0.82,0.32-1.17l0.08-0.07l0.19-0.15l0.34-0.27l0.31-0.25l0.04-0.04
			c0.83-1.87-2.83-7.17-4.76-6.67l-0.31,0.25l-0.12,0.09l-0.39,0.31l-0.05,0.04l-0.21,0.17l-0.13,0.11l-0.3,0.24l0.01,0.01
			C7.96,10.66,9.94,17.6,15.06,23.91z"/>
		<path class="st1" d="M17.57,12.81c1.13-0.91,1.05-2.9-0.12-4.58c-0.08-0.12-0.17-0.25-0.28-0.38c-1.42-1.76-3.56-2.39-4.76-1.4
			l-0.44,0.35c1.93-0.5,5.6,4.8,4.76,6.67L17.57,12.81z"/>
		<path class="st1" d="M30.59,30.85l0.12-0.09l0.87-0.71c1.21-0.98,1.03-3.19-0.39-4.94c-0.09-0.12-0.2-0.23-0.3-0.34
			c-1.41-1.49-3.34-1.96-4.45-1.05l-0.87,0.71l-0.07,0.05c1.21-0.95,6.74,3.73,5.01,6.45L30.59,30.85z"/>
	</g>
</g>
</svg>
