<?xml version="1.0" encoding="utf-8"?>
<!-- Generator: Adobe Illustrator 27.7.0, SVG Export Plug-In . SVG Version: 6.00 Build 0)  -->
<svg version="1.1" id="Capa_1" xmlns="http://www.w3.org/2000/svg" xmlns:xlink="http://www.w3.org/1999/xlink" x="0px" y="0px"
	 viewBox="0 0 102.63 33.75" style="enable-background:new 0 0 102.63 33.75;" xml:space="preserve">
<style type="text/css">
	.st0{fill:none;stroke:#FFFFFF;stroke-width:1.6425;stroke-linecap:round;stroke-linejoin:round;stroke-miterlimit:10;}
	.st1{fill:#162162;}
	.st2{fill:none;stroke:#FFFFFF;stroke-width:1.1131;stroke-linecap:round;stroke-linejoin:round;stroke-miterlimit:10;}
	.st3{fill:#EB001B;}
	.st4{fill:#F79E1B;}
	.st5{fill:#01010D;}
	.st6{fill:#02020D;}
	.st7{fill:#02020E;}
	.st8{fill:#F3D19F;}
	.st9{fill:#ED9AA3;}
	.st10{fill:#D9D9D9;}
	.st11{fill:#FF5F00;}
</style>
<g>
	<g>
		<path class="st0" d="M101.67,32.68c-2.3,0-4.6,0.02-6.9-0.03c-0.26-0.01-0.67-0.39-0.74-0.66c-0.3-1.27-0.49-2.56-0.73-3.88
			c-0.24-0.02-0.45-0.05-0.66-0.05c-3.01,0-6.02,0.01-9.03-0.01c-0.52,0-0.8,0.1-0.97,0.68c-0.34,1.17-0.81,2.31-1.26,3.45
			c-0.08,0.2-0.33,0.48-0.51,0.48c-2.67,0.03-5.34,0.02-8.14,0.02c0.5-1.22,0.95-2.34,1.42-3.45c2.53-6.06,5.07-12.13,7.61-18.19
			c0.98-2.35,1.94-4.71,2.97-7.04c0.81-1.82,1.69-2.51,3.78-2.52c2-0.01,3.99,0.01,5.99-0.01c0.55-0.01,0.75,0.2,0.86,0.72
			c0.73,3.55,1.5,7.09,2.25,10.64c0.77,3.68,1.55,7.36,2.3,11.04C100.5,26.78,101.07,29.71,101.67,32.68z M89.52,10.24
			c-0.06-0.01-0.11-0.02-0.17-0.02c-1.36,3.76-2.72,7.53-4.1,11.33c2.28,0,4.43,0,6.63,0C91.08,17.73,90.3,13.99,89.52,10.24z"/>
		<path class="st0" d="M1.7,2.25c-0.13-0.56,0.1-0.8,0.82-0.79c4.16,0.03,8.32,0.06,12.48,0c2.64-0.04,4.03,1.48,4.46,3.85
			c0.56,3.1,1.17,6.19,1.75,9.29c0.48,2.57,0.93,5.15,1.6,7.8c2.77-6.97,5.53-13.95,8.29-20.9c2.85,0,5.61,0,8.51,0
			c-0.6,1.42-1.18,2.79-1.75,4.16c-1.5,3.62-2.99,7.24-4.51,10.86c-1.61,3.84-3.24,7.67-4.86,11.5c-0.56,1.34-1.13,2.67-1.66,4.02
			c-0.2,0.51-0.5,0.67-1.04,0.66c-2.33-0.03-4.65-0.04-6.98,0c-0.68,0.01-0.98-0.25-1.13-0.87c-0.99-3.92-2-7.84-3-11.76
			c-1.1-4.28-2.16-8.57-3.31-12.83c-0.35-1.3-1.31-2.17-2.58-2.61C6.46,3.81,4.11,3.05,1.7,2.25z"/>
		<path class="st0" d="M74.62,2.1c-0.49,2.34-0.93,4.46-1.4,6.67c-1.2-0.33-2.36-0.72-3.55-0.96c-1.97-0.4-3.96-0.66-5.94,0.06
			c-0.77,0.28-1.36,0.72-1.75,1.44c-0.42,0.77-0.12,1.96,0.74,2.49c1.84,1.14,3.7,2.23,5.57,3.33c2.19,1.29,4.02,2.86,4.59,5.52
			c0.7,3.28-0.15,6.13-2.4,8.53c-2.03,2.18-4.67,3.32-7.59,3.67c-2.07,0.24-4.18,0.44-6.24,0.27c-1.94-0.15-3.84-0.82-5.77-1.22
			c-0.7-0.14-0.81-0.58-0.7-1.13c0.37-1.86,0.76-3.71,1.16-5.56c0.03-0.14,0.16-0.26,0.14-0.23c2.24,0.61,4.35,1.39,6.54,1.72
			c2.11,0.31,4.26-0.02,5.97-1.54c1.02-0.91,0.91-2.56-0.23-3.29c-2.02-1.3-4.12-2.47-6.13-3.79c-1.78-1.16-3.33-2.59-3.92-4.73
			c-0.61-2.21-0.4-4.37,0.75-6.38c1.88-3.3,4.85-5.05,8.5-5.62c1.94-0.3,3.96-0.44,5.91-0.31C70.79,1.16,72.67,1.72,74.62,2.1z"/>
		<path class="st0" d="M36.42,32.68c0.64-3.12,1.26-6.21,1.91-9.29c0.66-3.1,1.36-6.18,2.02-9.27c0.6-2.79,1.16-5.58,1.75-8.37
			c0.26-1.24,0.52-2.49,0.85-3.72C43.01,1.8,43.4,1.5,43.64,1.5c2.49-0.04,4.97-0.02,7.51-0.02c-0.45,2.19-0.88,4.33-1.34,6.46
			c-0.53,2.5-1.07,5-1.62,7.5c-0.47,2.16-0.98,4.31-1.44,6.47c-0.46,2.16-0.89,4.33-1.34,6.49c-0.26,1.25-0.59,2.49-0.82,3.75
			c-0.09,0.48-0.31,0.56-0.71,0.55C41.42,32.68,38.96,32.68,36.42,32.68z"/>
	</g>
	<g>
		<path class="st1" d="M101.67,32.68c-2.3,0-4.6,0.02-6.9-0.03c-0.26-0.01-0.67-0.39-0.74-0.66c-0.3-1.27-0.49-2.56-0.73-3.88
			c-0.24-0.02-0.45-0.05-0.66-0.05c-3.01,0-6.02,0.01-9.03-0.01c-0.52,0-0.8,0.1-0.97,0.68c-0.34,1.17-0.81,2.31-1.26,3.45
			c-0.08,0.2-0.33,0.48-0.51,0.48c-2.67,0.03-5.34,0.02-8.14,0.02c0.5-1.22,0.95-2.34,1.42-3.45c2.53-6.06,5.07-12.13,7.61-18.19
			c0.98-2.35,1.94-4.71,2.97-7.04c0.81-1.82,1.69-2.51,3.78-2.52c2-0.01,3.99,0.01,5.99-0.01c0.55-0.01,0.75,0.2,0.86,0.72
			c0.73,3.55,1.5,7.09,2.25,10.64c0.77,3.68,1.55,7.36,2.3,11.04C100.5,26.78,101.07,29.71,101.67,32.68z M89.52,10.24
			c-0.06-0.01-0.11-0.02-0.17-0.02c-1.36,3.76-2.72,7.53-4.1,11.33c2.28,0,4.43,0,6.63,0C91.08,17.73,90.3,13.98,89.52,10.24z"/>
		<path class="st1" d="M1.7,2.25c-0.13-0.56,0.1-0.8,0.82-0.79c4.16,0.03,8.32,0.06,12.48,0c2.64-0.04,4.03,1.48,4.46,3.85
			c0.56,3.1,1.17,6.19,1.75,9.29c0.48,2.57,0.93,5.15,1.6,7.8c2.77-6.97,5.53-13.95,8.29-20.9c2.85,0,5.61,0,8.51,0
			c-0.6,1.42-1.18,2.79-1.75,4.16c-1.5,3.62-2.99,7.24-4.51,10.86c-1.61,3.84-3.24,7.67-4.86,11.5c-0.56,1.34-1.13,2.67-1.66,4.02
			c-0.2,0.51-0.5,0.67-1.04,0.66c-2.33-0.03-4.65-0.04-6.98,0c-0.68,0.01-0.98-0.25-1.13-0.87c-0.99-3.92-2-7.84-3-11.76
			c-1.1-4.28-2.16-8.57-3.31-12.83c-0.35-1.3-1.31-2.17-2.58-2.61C6.46,3.81,4.11,3.05,1.7,2.25z"/>
		<path class="st1" d="M74.62,2.1c-0.49,2.34-0.93,4.46-1.4,6.67c-1.2-0.33-2.36-0.72-3.55-0.96c-1.97-0.4-3.96-0.66-5.94,0.06
			c-0.77,0.28-1.36,0.72-1.75,1.44c-0.42,0.77-0.12,1.96,0.74,2.49c1.84,1.14,3.7,2.23,5.57,3.33c2.19,1.29,4.02,2.86,4.59,5.52
			c0.7,3.28-0.15,6.13-2.4,8.53c-2.03,2.18-4.67,3.32-7.59,3.67c-2.07,0.24-4.18,0.44-6.24,0.27c-1.94-0.15-3.84-0.82-5.77-1.22
			c-0.7-0.14-0.81-0.58-0.7-1.13c0.37-1.86,0.76-3.71,1.16-5.56c0.03-0.14,0.16-0.26,0.14-0.23c2.24,0.61,4.35,1.39,6.54,1.72
			c2.11,0.31,4.26-0.02,5.97-1.54c1.02-0.91,0.91-2.56-0.23-3.29c-2.02-1.3-4.12-2.47-6.13-3.79c-1.78-1.16-3.33-2.59-3.92-4.73
			c-0.61-2.21-0.4-4.37,0.75-6.38c1.88-3.3,4.85-5.05,8.5-5.62c1.94-0.3,3.96-0.44,5.91-0.31C70.79,1.16,72.67,1.72,74.62,2.1z"/>
		<path class="st1" d="M36.42,32.68c0.64-3.12,1.26-6.21,1.91-9.29c0.66-3.1,1.36-6.18,2.02-9.27c0.6-2.79,1.16-5.58,1.75-8.37
			c0.26-1.24,0.52-2.49,0.85-3.72c0.06-0.23,0.45-0.52,0.68-0.53c2.49-0.04,4.97-0.02,7.51-0.02c-0.45,2.19-0.88,4.33-1.34,6.46
			c-0.53,2.5-1.07,5-1.62,7.5c-0.47,2.16-0.98,4.31-1.44,6.47c-0.46,2.16-0.89,4.33-1.34,6.49c-0.26,1.25-0.59,2.49-0.82,3.75
			c-0.09,0.48-0.31,0.56-0.71,0.55C41.42,32.67,38.96,32.68,36.42,32.68z"/>
	</g>
</g>
</svg>
